<?xml version="1.0" standalone="no"?>
<!DOCTYPE svg PUBLIC "-//W3C//DTD SVG 1.1//EN" "http://www.w3.org/Graphics/SVG/1.1/DTD/svg11.dtd" >
<svg xmlns="http://www.w3.org/2000/svg">
<metadata></metadata>
<defs>
<font id="exo_2extra_light_condensed" horiz-adv-x="1091" >
<font-face units-per-em="2048" ascent="1638" descent="-410" />
<missing-glyph horiz-adv-x="372" />
<glyph unicode="&#xfb01;" horiz-adv-x="942" d="M51 915v62l146 10v195q0 143 50 212.5t167 69.5q111 0 172 -10v-61h-144q-91 0 -126 -47.5t-35 -169.5v-189h512v-987h-84v915h-428v-915h-84v915h-146zM702 1243v123q0 33 29 33h39q31 0 31 -33v-123q0 -33 -31 -33h-39q-29 0 -29 33z" />
<glyph unicode="&#xfb02;" horiz-adv-x="1050" d="M53 915v62l144 10v195q0 142 51 212t168 70q66 0 206.5 -4.5t194.5 -11.5v-1237q0 -156 119 -156h90l8 -53q-40 -16 -123 -16t-131.5 56.5t-48.5 158.5v1194h-289q-89 1 -124 -48t-35 -171v-189h258v-72h-258v-915h-86v915h-144z" />
<glyph horiz-adv-x="0" />
<glyph horiz-adv-x="682" />
<glyph unicode=" "  horiz-adv-x="372" />
<glyph unicode="&#x09;" horiz-adv-x="372" />
<glyph unicode="&#xa0;" horiz-adv-x="372" />
<glyph unicode="!" horiz-adv-x="430" d="M168 35v123q0 19 8 27t27 8h24q19 0 27 -8t8 -27v-123q0 -19 -8 -27t-27 -8h-24q-19 0 -27 8t-8 27zM172 743v680h84v-680l-6 -323h-70z" />
<glyph unicode="&#x22;" horiz-adv-x="555" d="M131 1413h72l-6 -430h-60zM350 1413h74l-4 -430h-64z" />
<glyph unicode="#" horiz-adv-x="1107" d="M86 459l12 63h187l61 428h-190l12 64h186l56 399h73l-55 -399h340l55 399h72l-55 -399h180l-10 -64h-179l-61 -428h180l-10 -63h-178l-64 -459h-71l63 459h-340l-63 -459h-74l63 459h-190zM358 522h340l60 428h-340z" />
<glyph unicode="$" horiz-adv-x="921" d="M104 1071q0 63 5 113t16.5 87.5t26.5 64.5t39 45.5t49 30t62 17t72 7t85 0.5h20l10 209h52l-11 -211q130 -6 248 -27l-8 -61q-31 2 -114 7t-130 7l-28 -612l100 -21q125 -23 176 -109t51 -268q0 -62 -5.5 -111.5t-17 -87.5t-27 -66t-40 -47t-50 -31t-62.5 -18.5t-73 -9 t-85 -2.5h-10l-13 -249h-53l12 249q-134 4 -278 27l6 64q203 -13 277 -13l32 623l-112 22q-119 23 -170.5 111.5t-51.5 259.5zM193 1069q0 -143 37 -207.5t126 -83.5l90 -18l29 600h-14q-38 0 -59.5 -0.5t-50.5 -3.5t-44.5 -8.5t-35 -15t-29.5 -25t-21.5 -36.5t-16 -50 t-8 -66.5t-3.5 -85.5zM459 55h10q53 1 89 5t68.5 15.5t51.5 31.5t33.5 53t20 79t5.5 111q0 153 -37 216.5t-129 82.5l-79 17z" />
<glyph unicode="%" horiz-adv-x="1458" d="M90 1020q0 222 57.5 320t196.5 98q140 0 197 -97.5t57 -320.5t-57 -320.5t-197 -97.5q-139 0 -196.5 98t-57.5 320zM158 1020q0 -194 41 -277.5t143 -83.5q104 0 145 83.5t41 277.5t-41 277t-145 83q-102 0 -143 -83t-41 -277zM311 0l764 1413h66l-764 -1413h-66z M860 403q0 221 57 319.5t197 98.5q139 0 196.5 -98.5t57.5 -319.5q0 -222 -57.5 -320.5t-196.5 -98.5q-140 0 -197 98t-57 321zM928 403q0 -195 41 -278.5t145 -83.5q102 0 143 84t41 278t-41 277.5t-143 83.5q-104 0 -145 -83.5t-41 -277.5z" />
<glyph unicode="&#x26;" horiz-adv-x="1280" d="M123 356q0 173 50.5 266.5t172.5 106.5v8q-102 10 -146 91.5t-44 238.5q0 70 8.5 123.5t23.5 92.5t42.5 65.5t58.5 43t78.5 25.5t95.5 12t117 3q143 0 262 -19l-13 -61q-55 6 -251 6q-81 0 -131.5 -6t-92.5 -23.5t-63.5 -51.5t-33 -86t-11.5 -132q0 -119 25.5 -182 t78.5 -87t152 -24h344l14 305h68v-305h221l-4 -68h-217v-483q0 -156 121 -156h133l10 -57q-75 -16 -154 -16q-90 0 -138.5 50t-53.5 144q-75 -108 -167 -153t-226 -45q-181 0 -255.5 81.5t-74.5 292.5zM213 365q0 -174 55 -241t197 -67q130 0 220.5 51.5t160.5 161.5v428 h-346q-160 0 -223.5 -70.5t-63.5 -262.5z" />
<glyph unicode="'" horiz-adv-x="333" d="M131 1413h72l-6 -430h-60z" />
<glyph unicode="(" horiz-adv-x="587" d="M102 639q0 390 98.5 627.5t309.5 351.5l12 -49q-172 -112 -253 -338t-81 -590q0 -358 81 -585t253 -345l-12 -49q-210 115 -309 352t-99 625z" />
<glyph unicode=")" horiz-adv-x="587" d="M66 -289q172 118 252.5 344.5t80.5 585.5q0 364 -80.5 590t-252.5 338l10 49q210 -114 308.5 -351t98.5 -628q0 -388 -98.5 -625t-308.5 -352z" />
<glyph unicode="*" horiz-adv-x="743" d="M104 1157l21 60l199 -91l-2 -26l-13 -19zM190 834l160 262l-8 317h59l-10 -317l158 -265l-45 -34l-133 254l-131 -252zM420 1100v26l198 88l21 -59l-207 -74z" />
<glyph unicode="+" horiz-adv-x="905" d="M102 575v68h316v377h67v-377h318v-68h-318v-376h-65v376h-318z" />
<glyph unicode="," horiz-adv-x="356" d="M131 31v127q2 19 10 27t27 8h27q17 0 23.5 -8t8.5 -27l-2 -131q-4 -159 -41 -275l-41 15q13 133 13 233q-11 0 -18.5 9t-6.5 22z" />
<glyph unicode="-" horiz-adv-x="768" d="M131 481v68h506v-68h-506z" />
<glyph unicode="." horiz-adv-x="356" d="M129 35v123q0 19 8 27t27 8h29q19 0 26.5 -8t7.5 -27v-123q0 -19 -7.5 -27t-26.5 -8h-29q-19 0 -27 8t-8 27z" />
<glyph unicode="/" horiz-adv-x="827" d="M53 -125l645 1538h74l-643 -1538h-76z" />
<glyph unicode="0" horiz-adv-x="972" d="M117 707q0 385 83.5 558t284.5 173q203 0 287 -173t84 -558t-84 -558.5t-287 -173.5q-201 0 -284.5 173.5t-83.5 558.5zM203 707q0 -349 63 -502.5t219 -153.5q158 0 221.5 153.5t63.5 502.5t-63.5 502t-221.5 153q-156 0 -219 -153t-63 -502z" />
<glyph unicode="1" horiz-adv-x="643" d="M57 1266l301 147h86v-1413h-86v1229q0 34 4 100l-292 -123z" />
<glyph unicode="2" horiz-adv-x="917" d="M96 0v51q0 15 15 41l364 541q115 168 165.5 288.5t47.5 237.5q-2 53 -15 90.5t-32.5 59.5t-53 34t-67 15.5t-82.5 3.5q-148 0 -321 -43l-11 63q186 56 332 56q69 0 117.5 -6.5t93 -24.5t70.5 -50t41.5 -83.5t15.5 -124.5q0 -135 -50 -255.5t-169 -293.5l-358 -524 q61 2 196 2h428v-78h-727z" />
<glyph unicode="3" horiz-adv-x="909" d="M94 10l10 66q212 -25 320 -25q150 0 214 79t64 267q0 54 -6 97t-23 85t-44.5 70t-74 45.5t-108.5 18.5l-210 2v63l210 4q59 2 102.5 23.5t67 52t37 75.5t17 82.5t2.5 84.5q-1 155 -57.5 208.5t-208.5 53.5q-137 0 -283 -23l-12 64q166 35 303 35q190 0 267 -71t77 -255 q0 -310 -174 -356v-8q56 -11 96 -42t62.5 -79t33 -104.5t12.5 -129.5q3 -216 -77 -317t-269 -101q-136 0 -348 35z" />
<glyph unicode="4" horiz-adv-x="993" d="M88 563l348 850h86l-346 -858q-15 -38 -0.5 -67t45.5 -29h465v448l19 238h67v-686h137v-62l-137 -8v-389h-86v387h-508q-58 0 -87 56.5t-3 119.5z" />
<glyph unicode="5" horiz-adv-x="870" d="M98 31l13 65q162 -47 286 -47q88 0 146 25.5t88 77.5t41 113.5t12 152.5q0 49 -3.5 88.5t-12.5 71.5t-19.5 56.5t-30.5 44t-38.5 32.5t-49.5 22.5t-58.5 15t-71.5 9t-82 4.5t-95 2l-47 2q-37 3 -37 43l27 604h569l-4 -74h-493l-19 -501l103 -2q101 -4 168 -15.5t124 -38 t88.5 -72.5t48.5 -117.5t17 -174.5q0 -62 -5 -111t-17.5 -102.5t-38 -92.5t-63.5 -71.5t-96 -49t-134 -16.5q-142 0 -316 56z" />
<glyph unicode="6" horiz-adv-x="931" d="M123 633q0 150 8.5 265t23.5 200.5t42 145t58.5 98t78.5 59.5t97 29t118 8q125 0 209 -27l-13 -61q-68 14 -196 14q-65 0 -109.5 -9t-84.5 -34.5t-64.5 -69t-43 -115t-27 -170t-11.5 -235.5q68 98 138.5 137t174.5 39q176 0 242.5 -104t66.5 -373q0 -91 -7.5 -156 t-29 -125t-59.5 -96t-100.5 -57t-149.5 -21q-78 0 -133.5 14t-96.5 49t-66 83t-40 126t-20.5 167.5t-5.5 218.5zM209 627q0 -98 2 -164.5t9 -132.5t19.5 -107t32.5 -77.5t50 -55.5t70.5 -30t94.5 -11q67 0 114 17.5t75 47t43.5 81t20.5 106t5 135.5q0 224 -50 313t-191 89 q-87 0 -152.5 -37.5t-142.5 -138.5v-35z" />
<glyph unicode="7" horiz-adv-x="800" d="M35 1413h629q45 0 59.5 -22.5t1.5 -71.5l-363 -1319h-88l342 1255q5 25 27 84h-602z" />
<glyph unicode="8" horiz-adv-x="999" d="M127 352q0 183 42 273.5t144 103.5v8q-85 12 -123 92t-38 232q0 100 15.5 166.5t55 114t107 69t170.5 21.5q104 0 172 -21t107.5 -69t55 -114.5t15.5 -166.5q0 -152 -39.5 -232t-124.5 -92v-8q103 -13 144.5 -103.5t41.5 -273.5q0 -104 -15.5 -170t-57.5 -112.5 t-113.5 -66t-185.5 -21.5q-111 -1 -183 19t-114.5 66.5t-59 113.5t-16.5 171zM211 362q0 -86 12.5 -141t45.5 -93t88.5 -53.5t142.5 -15.5q90 0 145.5 15.5t87 54t42.5 92t11 141.5q0 75 -4.5 126t-18 90t-32.5 61t-53 36t-74.5 18.5t-101.5 4.5q-94 -1 -146 -12.5t-87 -49 t-46.5 -100.5t-11.5 -174zM233 1057q0 -95 10.5 -149.5t43 -87t81 -42.5t134.5 -10q87 0 135.5 10.5t79.5 44t40 86.5t9 148q0 88 -10.5 142t-40 91.5t-80.5 52.5t-135 15q-82 0 -133.5 -15t-81.5 -52.5t-41 -92t-11 -141.5z" />
<glyph unicode="9" horiz-adv-x="931" d="M100 967q0 238 77 354.5t269 116.5q62 0 109 -8t84.5 -28t63.5 -46t44.5 -72t29.5 -95t17.5 -125t8.5 -152t2 -187q0 -139 -8 -245t-23 -186t-41.5 -135.5t-58 -91.5t-78.5 -56t-97.5 -28t-119.5 -8q-131 0 -221 27l12 61q86 -12 209 -12q66 0 111 9t85 34t65 69 t43.5 115.5t26.5 170.5t9 237q-68 -101 -138 -140.5t-175 -39.5q-165 0 -235.5 116t-70.5 345zM184 963q0 -196 53.5 -292t186.5 -96q86 0 150.5 37.5t144.5 139.5q0 77 -0.5 129.5t-3 110.5t-7 96t-12 78.5t-18 65t-26 49.5t-35 38.5t-45 24.5t-56.5 15.5t-70 4.5 q-64 0 -110 -18t-75 -50t-46.5 -83.5t-24 -110.5t-6.5 -139z" />
<glyph unicode=":" horiz-adv-x="360" d="M129 35v123q0 19 8 27t27 8h29q19 0 26.5 -8t7.5 -27v-123q0 -19 -7.5 -27t-26.5 -8h-29q-19 0 -27 8t-8 27zM129 727v125q0 19 8 27t27 8h29q19 0 26.5 -8t7.5 -27v-125q0 -19 -7.5 -27t-26.5 -8h-29q-19 0 -27 8t-8 27z" />
<glyph unicode=";" horiz-adv-x="364" d="M133 727v125q0 19 8 27t27 8h29q19 0 26.5 -8t7.5 -27v-125q0 -19 -7.5 -27t-26.5 -8h-29q-19 0 -27 8t-8 27zM135 31v127q2 19 10 27t27 8h27q18 0 25 -8t7 -27v-131q-4 -153 -43 -275l-41 15q13 133 13 233q-11 0 -18 9t-7 22z" />
<glyph unicode="&#x3c;" horiz-adv-x="880" d="M98 571v70l656 369v-70l-580 -334l580 -325v-70z" />
<glyph unicode="=" horiz-adv-x="962" d="M131 344v68h700v-68h-700zM131 778v68h700v-68h-700z" />
<glyph unicode="&#x3e;" horiz-adv-x="880" d="M127 211v70l580 325l-580 334v70l655 -369v-70z" />
<glyph unicode="?" horiz-adv-x="831" d="M76 1419q11 2 42.5 9t42 9t37 7t44 6.5t46.5 4t61 3t71 0.5q328 0 328 -317q0 -63 -17 -118.5t-43.5 -98t-59 -84t-65 -84.5t-59.5 -89.5t-44.5 -110t-17.5 -136.5h-75q-1 109 29 197t72.5 146.5t85.5 111.5t73.5 118t31.5 140q1 130 -59.5 191.5t-191.5 61.5 q-30 0 -57 -0.5t-46.5 -1t-42.5 -2.5t-35 -3t-35.5 -4t-32.5 -4t-37 -5.5t-38 -5.5zM354 35v123q0 19 8 27t27 8h27q33 0 33 -35v-123q0 -35 -33 -35h-27q-19 0 -27 8t-8 27z" />
<glyph unicode="@" horiz-adv-x="1155" d="M139 543q0 112 2 187t11 144.5t20.5 110.5t36 78t52.5 54.5t75 31t99 17.5t128 5h232q113 0 172 -60.5t59 -192.5v-652h-61l-13 162q-55 -64 -155.5 -119t-198.5 -55t-153.5 58.5t-55.5 164.5v109q0 97 48 149.5t138 52.5h371v127q0 90 -36.5 138t-125.5 47h-219 q-64 0 -102.5 -2t-78.5 -11.5t-61.5 -23.5t-43 -44.5t-30 -67.5t-16.5 -99.5t-10 -133t-2 -175.5q0 -87 1 -148.5t6 -119.5t10.5 -96t19.5 -72.5t27 -54.5t38.5 -37t49 -25t64 -13.5t78 -6.5t95.5 -1h410v-63q-270 -8 -408 -8q-85 -1 -142.5 1.5t-110 15.5t-84 31 t-58.5 55.5t-40.5 80.5t-23 115.5t-12 150.5t-2.5 195zM469 485q0 -158 139 -161q82 -1 178 46t160 117v248l-348 -8q-66 -3 -97.5 -39t-31.5 -108v-95z" />
<glyph unicode="A" horiz-adv-x="1003" d="M25 0l389 1386q1 12 12 19.5t23 7.5h106q28 0 35 -27l389 -1386h-92l-135 498h-500l-135 -498h-92zM272 571h459l-178 658l-31 114h-41l-30 -114z" />
<glyph unicode="B" horiz-adv-x="1011" d="M158 0v1413q129 17 340 17q106 0 174 -16.5t113.5 -59t64 -113t18.5 -180.5q0 -155 -45.5 -233.5t-146.5 -90.5v-8q123 -13 175 -106.5t52 -270.5q0 -110 -18.5 -180.5t-62.5 -112.5t-108.5 -58.5t-164.5 -16.5q-250 0 -391 16zM244 61q136 -4 295 -4q107 0 163.5 24.5 t83.5 89.5t27 189q0 100 -14.5 164t-50 102.5t-88 54t-134.5 17.5h-282v-637zM244 766h280q99 1 153 25t80.5 86t26.5 178q0 93 -14.5 151t-50.5 91.5t-87.5 46t-135.5 12.5q-193 0 -252 -2v-588z" />
<glyph unicode="C" horiz-adv-x="940" d="M115 707q0 206 22 342.5t73.5 224.5t132.5 126t202 38q174 0 295 -37l-13 -62q-135 23 -282 23q-129 0 -202 -63.5t-105.5 -204t-32.5 -387.5t32.5 -388t105.5 -204.5t202 -63.5q173 0 305 27l14 -64q-133 -39 -319 -39q-161 0 -254 71.5t-134.5 229t-41.5 431.5z" />
<glyph unicode="D" horiz-adv-x="1087" d="M158 0v1413q215 19 389 19q159 0 250.5 -70t133.5 -226.5t42 -428.5t-42 -428.5t-133.5 -226.5t-250.5 -70q-182 0 -389 18zM246 61q176 -4 301 -4q126 0 197.5 62.5t104 202.5t32.5 385t-32.5 384.5t-104 202t-197.5 62.5q-121 0 -301 -4v-1291z" />
<glyph unicode="E" horiz-adv-x="913" d="M147 217v979q0 95 53 156t138 61q327 0 483 -8l-2 -64h-465q-56 0 -87 -43t-31 -116v-391l516 -3v-67l-516 -2v-488q0 -73 31 -116t87 -43h465l2 -64q-156 -8 -483 -8q-86 0 -138.5 60.5t-52.5 156.5z" />
<glyph unicode="F" horiz-adv-x="876" d="M152 0v1194q0 98 52.5 158.5t137.5 60.5q317 0 473 -10l-6 -62h-447q-57 0 -89.5 -43t-32.5 -116v-404h503v-69h-503v-709h-88z" />
<glyph unicode="G" horiz-adv-x="1026" d="M115 709q0 275 43 432t139 227t264 70q186 0 318 -37l-13 -62q-147 23 -303 23q-136 0 -212 -60t-111 -201t-35 -396q0 -350 67.5 -502t227.5 -152q50 0 94.5 14.5t86.5 46.5t67.5 56.5t68.5 69.5v581h86v-819h-63l-15 166q-64 -86 -151 -138.5t-193 -52.5 q-195 0 -280.5 173.5t-85.5 560.5z" />
<glyph unicode="H" horiz-adv-x="1089" d="M158 0v1413h88v-618h598v618h88v-1413h-88v721h-598v-721h-88z" />
<glyph unicode="I" horiz-adv-x="403" d="M158 0v1413h88v-1413h-88z" />
<glyph unicode="J" horiz-adv-x="544" d="M57 2l11 57h90q147 0 147 193v1161h86v-1161q0 -132 -53 -199t-156 -67q-59 0 -125 16z" />
<glyph unicode="K" horiz-adv-x="944" d="M158 0v1413h86v-473q0 -92 -8 -168h163l379 641h96l-360 -610q-22 -42 -47 -64v-4q36 -36 51 -65l383 -670h-98l-404 702h-161q6 -89 6 -170v-532h-86z" />
<glyph unicode="L" horiz-adv-x="837" d="M152 223v1190h88v-1182q0 -73 32 -116t90 -43h431l2 -62q-147 -10 -447 -10q-94 0 -145 61.5t-51 161.5z" />
<glyph unicode="M" horiz-adv-x="1419" d="M133 0l49 1370q0 43 39 43h115q29 0 39 -29l266 -991l49 -190h37q6 22 17 61t20 71.5t16 61.5l264 987q6 29 39 29h113q41 0 41 -43l49 -1370h-86l-45 1341h-39l-317 -1179q-10 -29 -39 -29h-101q-31 0 -41 29l-315 1179h-39l-45 -1341h-86z" />
<glyph unicode="N" horiz-adv-x="1142" d="M158 0v1372q0 41 39 41h104q36 0 47 -31l445 -1128q6 -14 69 -176h39q-2 66 -2 192v1143h86v-1372q0 -41 -37 -41h-110q-34 0 -45 31l-457 1155q-35 83 -62 151h-30q2 -51 2 -153v-1184h-88z" />
<glyph unicode="O" d="M115 707q0 276 41.5 433t134.5 227.5t256 70.5q161 0 253.5 -70.5t134.5 -228t42 -432.5t-42 -433t-134.5 -228.5t-253.5 -70.5q-123 0 -204 37.5t-132.5 125.5t-73.5 225t-22 344zM205 707q0 -247 33 -388t106.5 -204.5t202.5 -63.5q128 0 201 63.5t106 204.5t33 388 t-33 388t-106 204t-201 63q-129 0 -202.5 -63t-106.5 -204t-33 -388z" />
<glyph unicode="P" horiz-adv-x="960" d="M158 0v1413q147 17 377 17q131 0 203 -37t105.5 -128t33.5 -257q0 -168 -33.5 -259t-104 -127t-198.5 -36q-178 0 -295 10v-596h-88zM246 659h284q98 0 152 30t80 105t26 214t-26 214t-80 104.5t-152 29.5q-218 0 -284 -4v-693z" />
<glyph unicode="Q" d="M115 707q0 276 41.5 433t134.5 227.5t256 70.5q161 0 253.5 -70.5t134.5 -228t42 -432.5t-42 -433t-134.5 -228.5t-253.5 -70.5q-123 0 -204 37.5t-132.5 125.5t-73.5 225t-22 344zM205 707q0 -247 33 -388t106.5 -204.5t202.5 -63.5q128 0 201 63.5t106 204.5t33 388 t-33 388t-106 204t-201 63q-129 0 -202.5 -63t-106.5 -204t-33 -388zM457 -150l28 50q165 -120 398 -166l-27 -84q-224 42 -399 200z" />
<glyph unicode="R" horiz-adv-x="1005" d="M158 0v1413q147 17 377 17q129 0 201 -35t106.5 -121.5t34.5 -243.5q0 -186 -48 -270t-159 -103v-10q42 -15 77 -67.5t54 -128.5l117 -451h-93l-112 444q-26 96 -66.5 137.5t-103.5 41.5q-198 0 -297 6v-629h-88zM246 698h286q98 2 152 30.5t80.5 99.5t26.5 200 q0 191 -57 259.5t-202 68.5q-154 0 -286 -4v-654z" />
<glyph unicode="S" horiz-adv-x="915" d="M100 1071q0 63 5 113t16.5 87.5t26.5 64.5t39 45.5t49 30t62 17t72 7.5q21 1 47 0h38q170 -3 319 -29l-6 -61q-229 14 -309 14q-87 0 -126.5 -5.5t-79 -33t-52.5 -87t-13 -165.5q0 -143 37.5 -207.5t126.5 -83.5l242 -51q125 -23 176 -109t51 -268q0 -71 -7.5 -125.5 t-21 -94.5t-37 -67t-50 -44t-67 -26.5t-80 -12.5t-95.5 -3q-187 0 -344 27l8 64q197 -15 312 -15h26q54 1 89.5 5.5t68 16t51.5 31.5t33.5 53t20 79.5t5.5 111.5q0 153 -37 216.5t-129 82.5l-245 51q-119 23 -170.5 111.5t-51.5 259.5z" />
<glyph unicode="T" horiz-adv-x="935" d="M41 1339v74h854v-74h-383v-1339h-88v1339h-383z" />
<glyph unicode="U" horiz-adv-x="1095" d="M150 526v887h88v-887q0 -262 69.5 -368.5t241.5 -106.5q169 0 239 106.5t70 368.5v887h88v-887q0 -299 -89.5 -425t-305.5 -126q-219 0 -310 126t-91 425z" />
<glyph unicode="V" horiz-adv-x="985" d="M37 1413h92l305 -1192q24 -88 39 -151h41q7 38 39 153l305 1190h92l-368 -1386q-12 -27 -37 -27h-103q-28 0 -36 27z" />
<glyph unicode="W" horiz-adv-x="1540" d="M53 1413h90l226 -1194q11 -56 26 -149h43q4 27 13.5 75.5t13.5 71.5l213 1163q7 33 37 33h108q32 0 39 -33l213 -1161q4 -27 13.5 -76.5t13.5 -72.5h43q16 98 26 147l226 1196h92l-270 -1384q-11 -29 -39 -29h-113q-14 0 -25 9t-14 22l-209 1155l-31 160h-36 q-24 -129 -29 -160l-211 -1155q-3 -13 -14 -22t-25 -9h-115q-13 0 -23 8.5t-13 20.5z" />
<glyph unicode="X" horiz-adv-x="987" d="M53 0l340 735l-319 678h94l299 -641h53l297 641h96l-321 -678l342 -735h-96l-320 702h-49l-322 -702h-94z" />
<glyph unicode="Y" horiz-adv-x="907" d="M27 1413h96l268 -649l58 -146h10l57 144l270 651h93l-381 -895v-518h-88v518z" />
<glyph unicode="Z" horiz-adv-x="921" d="M82 0v74l659 1265h-651v74h741v-74l-657 -1265h668v-74h-760z" />
<glyph unicode="[" horiz-adv-x="524" d="M164 -262v1759q0 34 18 55t47 21h220v-64h-185q-8 0 -14 -7.5t-6 -18.5v-1731q0 -12 6 -19t14 -7h185v-64h-220q-29 0 -47 20.5t-18 55.5z" />
<glyph unicode="\" horiz-adv-x="827" d="M53 1413h76l645 -1538h-76z" />
<glyph unicode="]" horiz-adv-x="524" d="M76 -274h182q23 0 23 26v1731q0 26 -23 26h-182v64h217q31 0 49 -21t18 -55v-1759q0 -34 -18 -55t-49 -21h-217v64z" />
<glyph unicode="^" horiz-adv-x="667" d="M49 780l254 412h62l253 -412l-34 -28l-242 366h-12l-244 -366z" />
<glyph unicode="_" horiz-adv-x="712" d="M0 0h713v-68h-713v68z" />
<glyph unicode="`" horiz-adv-x="483" d="M68 1399l51 59l262 -297l-33 -41z" />
<glyph unicode="a" horiz-adv-x="890" d="M98 242v123q0 112 53 173.5t150 61.5h369v125q-2 103 -40 158t-132 55q-127 0 -361 -31l-8 62q5 1 54 9t63.5 10.5t58 8.5t69.5 8t64 4.5t72 2.5q121 0 182.5 -67.5t61.5 -219.5v-725h-64l-14 178q-58 -74 -157 -133t-202 -59q-102 0 -160.5 67t-58.5 189zM184 248 q0 -184 146 -187h8q72 -1 163 49q96 52 169 134v291l-359 -7q-127 -3 -127 -170v-110z" />
<glyph unicode="b" horiz-adv-x="925" d="M139 41v1393h84v-426q0 -132 -8 -195q169 199 320 199q153 0 220.5 -119.5t67.5 -398.5q0 -278 -75.5 -398.5t-260.5 -120.5q-166 0 -348 66zM223 92q119 -43 247 -43h17q134 0 191 100.5t57 344.5q0 246 -48.5 345t-172.5 99q-68 0 -133 -44.5t-158 -145.5v-656z" />
<glyph unicode="c" horiz-adv-x="792" d="M102 494q0 285 84 401.5t287 116.5q145 0 238 -39l-15 -55q-90 20 -211 20q-112 0 -174 -39.5t-91.5 -135.5t-29.5 -269t29.5 -269t91.5 -136t174 -40q132 0 232 23l10 -58q-119 -39 -254 -39q-203 0 -287 117t-84 402z" />
<glyph unicode="d" horiz-adv-x="929" d="M104 494q0 280 69 399t224 119q142 0 310 -97q-5 55 -5 189v330h84v-1434h-65l-10 162q-163 -187 -322 -187q-153 0 -219 121.5t-66 397.5zM193 496q0 -247 49.5 -347t167.5 -100q70 0 134 40.5t158 137.5v623q-95 47 -158 67.5t-130 20.5q-121 0 -171 -98t-50 -344z" />
<glyph unicode="e" horiz-adv-x="874" d="M102 498q0 282 81.5 398t271.5 116q164 0 243.5 -72.5t81.5 -218.5q0 -136 -42 -202t-138 -66h-410q4 -153 36 -241.5t92 -125.5t159 -37q129 0 275 25l8 -58q-43 -18 -132 -29.5t-161 -11.5q-196 0 -280.5 120.5t-84.5 402.5zM190 520h396q60 0 85 50q23 47 23 133v14 q-1 116 -57.5 168.5t-177.5 52.5q-148 0 -208 -92.5t-61 -325.5z" />
<glyph unicode="f" horiz-adv-x="600" d="M51 918v59l146 10v199q0 141 50 209.5t167 68.5q133 0 207 -10l-5 -61h-174q-90 0 -125.5 -46.5t-35.5 -164.5v-195h276v-69h-276v-918h-84v918h-146z" />
<glyph unicode="g" horiz-adv-x="903" d="M82 -129q0 92 27.5 153.5t99.5 106.5l22 14q-55 29 -74 87q-10 33 -10 66q0 27 7 54q15 61 55 103q-94 73 -94 247q0 159 76 234.5t253 75.5q98 0 168 -25h250l-6 -53l-151 -8q65 -74 65 -224q0 -158 -75.5 -231.5t-250.5 -73.5q-120 0 -190 33q-20 -35 -28 -72 q-6 -22 -6 -44q0 -13 2 -26q5 -34 29.5 -59.5t67.5 -35.5l310 -68q102 -22 144 -81t42 -179q0 -164 -80 -228.5t-284 -64.5q-207 0 -288 65.5t-81 233.5zM166 -123q0 -133 58 -183t222 -50q165 0 225 48.5t60 178.5q0 89 -29.5 130.5t-111.5 59.5l-299 64l-31 -25 q-55 -43 -74.5 -94t-19.5 -129zM195 702q0 -124 57.5 -180.5t191.5 -56.5q132 0 188 56.5t56 180.5q0 125 -55.5 183.5t-188.5 58.5q-135 0 -192 -58.5t-57 -183.5z" />
<glyph unicode="h" horiz-adv-x="942" d="M141 0v1434h84l2 -428q0 -118 -8 -189q211 195 371 195q106 0 160.5 -69t54.5 -202v-741h-84v725q0 112 -37 162.5t-117 50.5q-75 0 -151.5 -44t-190.5 -144v-750h-84z" />
<glyph unicode="i" horiz-adv-x="385" d="M143 1243v123q0 33 29 33h39q31 0 31 -33v-123q0 -33 -31 -33h-39q-29 0 -29 33zM150 0v987h83v-987h-83z" />
<glyph unicode="j" horiz-adv-x="385" d="M59 -391q46 72 68.5 145.5t22.5 169.5v1063h83v-1063q0 -203 -127 -350zM143 1243v123q0 33 29 33h41q29 0 29 -33v-123q0 -33 -29 -33h-41q-29 0 -29 33z" />
<glyph unicode="k" horiz-adv-x="802" d="M141 0v1434h84l2 -670q0 -82 -6 -168h121l293 391h98l-276 -377q-5 -7 -45 -47v-4q39 -47 45 -59l303 -500h-96l-320 530h-123q4 -59 4 -174v-356h-84z" />
<glyph unicode="l" horiz-adv-x="462" d="M143 205v1229h84v-1217q0 -76 31 -116t90 -40h88l10 -59q-40 -16 -122 -16q-83 0 -132 57.5t-49 161.5z" />
<glyph unicode="m" horiz-adv-x="1441" d="M143 0v987h68l8 -172q179 197 338 197q173 0 203 -193q175 193 336 193q102 0 155.5 -69t53.5 -202v-741h-84v725q-1 110 -38 161.5t-112 51.5q-69 0 -133.5 -41t-171.5 -143v-13v-741h-84v725q0 109 -37 161t-113 52q-68 0 -133.5 -41.5t-171.5 -142.5v-754h-84z" />
<glyph unicode="n" horiz-adv-x="944" d="M143 0v987h70l6 -172q197 197 373 197q106 0 160.5 -69t54.5 -202v-741h-86v725q0 112 -36.5 162.5t-115.5 50.5q-75 0 -151.5 -44t-190.5 -144v-750h-84z" />
<glyph unicode="o" horiz-adv-x="923" d="M102 494q0 284 81.5 401t279.5 117t278 -116.5t80 -401.5q0 -286 -80 -402.5t-278 -116.5t-279.5 117t-81.5 402zM190 494q0 -252 60.5 -349.5t212.5 -97.5q103 0 161 42t83.5 137.5t25.5 267.5q0 253 -58.5 348.5t-211.5 95.5q-103 0 -161 -41t-85 -136.5t-27 -266.5z " />
<glyph unicode="p" horiz-adv-x="935" d="M143 -426v1413h68l10 -172q74 96 159 146.5t169 50.5q150 0 215 -122t65 -398q0 -279 -68.5 -398t-223.5 -119q-154 0 -316 107q6 -53 6 -191v-317h-84zM227 139q94 -47 160 -68.5t133 -21.5q121 0 172 99t51 344q0 244 -49.5 345t-165.5 101q-70 0 -139 -43.5 t-162 -142.5v-613z" />
<glyph unicode="q" horiz-adv-x="927" d="M102 494q0 280 76 399t266 119q157 0 342 -66v-1372h-84l-2 393q0 124 11 193q-89 -93 -168.5 -139t-165.5 -46q-142 0 -208.5 125t-66.5 394zM190 487q0 -234 47.5 -336t161.5 -102q74 0 139 40t164 134v670q-123 45 -256 45q-95 0 -149.5 -41.5t-80.5 -139t-26 -270.5z " />
<glyph unicode="r" horiz-adv-x="641" d="M143 0v987h66l10 -172q197 197 356 197h33l-12 -78h-37q-71 0 -143 -42t-189 -138v-754h-84z" />
<glyph unicode="s" horiz-adv-x="825" d="M92 748q0 73 12.5 122t34 77.5t62 43.5t82.5 19q33 3 81 3q14 0 29 -1q177 -4 320 -27l-8 -59q-191 12 -304 14q-27 1 -51 1q-12 -1 -22 -1q-32 0 -57.5 -5.5t-43.5 -17.5t-29 -34t-16.5 -54.5t-5.5 -80.5q0 -97 30 -138.5t95 -52.5l250 -47q93 -19 137.5 -79t44.5 -177 q0 -62 -8.5 -107.5t-28.5 -75.5t-44.5 -49t-64.5 -29t-80 -13t-99 -3q-159 0 -297 25l8 59q113 -12 231 -12h47q76 1 120 8t76.5 29t45 62t12.5 106q0 92 -34 132.5t-99 53.5l-250 47q-91 18 -133.5 78t-42.5 183z" />
<glyph unicode="t" horiz-adv-x="593" d="M49 918v59l146 10v305h84v-305h274v-69h-274v-701q0 -80 29.5 -118t90.5 -38h133l11 -59q-75 -16 -158 -16q-94 0 -142 57.5t-48 165.5v709h-146z" />
<glyph unicode="u" horiz-adv-x="927" d="M137 246v741h84v-725q0 -110 38 -161.5t118 -51.5q72 0 143.5 43t179.5 141v754h84v-987h-67l-8 166q-191 -191 -357 -191q-106 0 -160.5 69t-54.5 202z" />
<glyph unicode="v" horiz-adv-x="851" d="M41 987h90l227 -739q5 -14 56 -182h20q57 174 60 184l225 737h90l-309 -964q-13 -23 -35 -23h-80q-26 0 -33 23z" />
<glyph unicode="w" horiz-adv-x="1341" d="M49 987h88l199 -788q14 -53 33 -138h22l31 140l172 757q3 12 13.5 20.5t23.5 8.5h80q13 0 22.5 -8.5t11.5 -20.5l173 -757q13 -52 32 -140h25q27 126 31 140l198 786h90l-258 -960q-7 -27 -35 -27h-81q-12 0 -23 8.5t-14 20.5l-170 747q-18 88 -35 150h-16 q-5 -27 -16.5 -77.5t-16.5 -72.5l-172 -747q-2 -12 -12 -20.5t-23 -8.5h-80q-30 0 -37 27z" />
<glyph unicode="x" horiz-adv-x="845" d="M49 0l285 512l-264 475h92l239 -438h43l238 438h94l-266 -475l287 -512h-95l-262 481h-34l-263 -481h-94z" />
<glyph unicode="y" horiz-adv-x="847" d="M41 987h90l250 -809q5 -19 16.5 -55.5t16.5 -54.5h20q3 9 17 50.5t20 61.5l246 807h90l-342 -1073q-47 -141 -114.5 -227.5t-182.5 -114.5l-12 51q91 41 143 116t88 191l25 70h-27q-25 0 -37 25z" />
<glyph unicode="z" horiz-adv-x="829" d="M84 0v70l567 845h-563v72h651v-72l-565 -845h571v-70h-661z" />
<glyph unicode="{" horiz-adv-x="505" d="M86 633v78q4 2 12 5q53 21 66 37q22 32 22 126v432q0 140 56.5 202.5t185.5 59.5v-55q-89 0 -124.5 -50t-35.5 -159v-408q1 -121 -25 -164t-108 -65q59 -24 86.5 -47t40 -62t12.5 -112v-525q0 -108 35.5 -158.5t124.5 -50.5v-55q-128 -3 -184.5 60t-56.5 202v549 q0 28 -1.5 48t-10 36t-12.5 24t-22.5 19.5t-25 15t-35.5 17.5z" />
<glyph unicode="|" horiz-adv-x="393" d="M164 -346v1945h65v-1945h-65z" />
<glyph unicode="}" horiz-adv-x="505" d="M72 -283q89 0 124 50.5t35 158.5v525q0 105 27 145.5t113 75.5q-82 22 -108 65t-25 164v408q0 109 -35.5 159t-124.5 50v55q128 3 184.5 -60t56.5 -202v-432q0 -64 8.5 -94t23.5 -41.5t56 -27.5l4.5 -1.5t4 -1.5t4.5 -2v-78q-62 -30 -78 -45q-31 -31 -31 -115v-549 q0 -140 -55.5 -202.5t-183.5 -59.5v55z" />
<glyph unicode="~" horiz-adv-x="868" d="M135 487q-6 98 29 150t96 49q44 -4 91 -24.5t82 -43.5t81 -43.5t88 -23.5q47 -4 66.5 25t19.5 100h47q6 -96 -28.5 -147t-96.5 -46q-51 4 -101 24.5t-83.5 43t-76.5 43t-81 24.5q-47 4 -66.5 -27t-19.5 -104h-47z" />
<glyph unicode="&#xa1;" horiz-adv-x="399" d="M154 831v123q0 19 7.5 27t26.5 8h25q33 0 33 -35v-123q0 -19 -8 -26.5t-25 -7.5h-25q-19 0 -26.5 7.5t-7.5 26.5zM158 246l6 323h69l9 -323v-662h-84v662z" />
<glyph unicode="&#xa2;" horiz-adv-x="833" d="M102 717q0 284 84 401t285 117l14 178h52l-11 -180q117 -8 183 -37l-13 -57q-65 18 -178 22l-51 -891h18q124 0 232 25l10 -57q-119 -39 -256 -39h-10l-15 -199h-51l15 201q-167 17 -237.5 135t-70.5 381zM188 717q0 -228 51.5 -327t176.5 -116l49 887 q-104 -3 -163 -44.5t-86.5 -136.5t-27.5 -263z" />
<glyph unicode="&#xa3;" horiz-adv-x="925" d="M100 715v57h131l-12 303q-3 80 4.5 139.5t27 98.5t44 64t62.5 37.5t75 17t90 4.5q110 0 273 -21l-7 -63q-118 10 -288 10q-114 0 -158 -64.5t-39 -218.5l12 -307h385l-4 -57h-377l9 -207q5 -160 -20.5 -265.5t-98.5 -170.5q33 2 102 2h525v-74h-725v74q81 61 109.5 167 t21.5 267l-9 207h-133z" />
<glyph unicode="&#xa4;" horiz-adv-x="983" d="M125 313l125 152q-76 113 -76 256q0 146 76 256l-123 151l41 43l119 -149q86 92 202 92q118 0 207 -92l119 149l41 -43l-123 -151q74 -115 74 -256q0 -143 -76 -256l127 -154l-43 -41l-121 150q-89 -92 -205 -92t-202 92l-119 -150zM229 721q0 -138 76.5 -236t183.5 -98 t183 98t76 236t-76 237t-183 99t-183.5 -99t-76.5 -237z" />
<glyph unicode="&#xa5;" horiz-adv-x="999" d="M74 1413h92l266 -606q14 -27 64 -145h10q9 24 59 143l266 608h93l-355 -778h285v-57h-309l-2 -3v-165h311v-58h-311v-352h-86v352h-303v58h303v165l-2 3h-301v57h276z" />
<glyph unicode="&#xa6;" horiz-adv-x="397" d="M166 -346v819h65v-819h-65zM166 780v819h65v-819h-65z" />
<glyph unicode="&#xa7;" horiz-adv-x="894" d="M113 1204q0 60 14 102.5t38 68t64 40t84 19.5t107 4q193 -3 354 -25l-6 -61q-154 12 -334 14q-49 1 -77.5 -0.5t-62 -10t-50.5 -25.5t-29 -48.5t-12 -77.5q-1 -82 29.5 -135.5t91.5 -97.5l292 -213q105 -73 134.5 -180.5t7.5 -280.5h-66q13 146 -11.5 238.5t-98.5 144.5 l-299 219q-91 68 -130.5 136t-39.5 169zM119 -281l8 64q210 -14 334 -16h55.5t49.5 3t42.5 9.5t35 19t26.5 30.5t16.5 45t5.5 63q1 82 -30.5 137t-88.5 96l-294 213q-106 72 -135.5 177t-8.5 278h66q-11 -147 12 -235.5t96 -141.5l305 -217q87 -65 126.5 -136t39.5 -174 q0 -48 -8 -85t-21 -62.5t-36.5 -43t-45 -27t-57.5 -14.5t-64 -6t-73 -1q-169 3 -356 24z" />
<glyph unicode="&#xa8;" horiz-adv-x="665" d="M145 1245v115q0 29 27 29h31q26 0 26 -29v-115q0 -28 -26 -28h-31q-27 0 -27 28zM436 1245v115q0 29 27 29h31q26 0 26 -29v-115q0 -28 -26 -28h-31q-27 0 -27 28z" />
<glyph unicode="&#xa9;" horiz-adv-x="1392" d="M109 707q0 208 78.5 376t212.5 261.5t296 93.5q121 0 229 -55t187 -151t125.5 -232.5t46.5 -292.5t-46.5 -293t-125 -232.5t-187 -151t-229.5 -55.5t-229 55.5t-187 151t-125 232.5t-46 293zM162 707q0 -190 72 -346t194.5 -243t267.5 -87t267.5 87t195 243t72.5 346 t-72.5 346t-195 242.5t-267.5 86.5q-109 0 -207 -51.5t-170 -140t-114.5 -214.5t-42.5 -269zM385 713q0 258 71.5 363.5t248.5 105.5q134 0 219 -27l-11 -47q-87 10 -208 10q-141 0 -196.5 -89t-55.5 -316q0 -228 55.5 -318t196.5 -90q152 0 229 14l8 -49q-98 -26 -237 -26 q-177 0 -248.5 105.5t-71.5 363.5z" />
<glyph unicode="&#xaa;" horiz-adv-x="727" d="M119 715v84q0 74 38 115.5t107 41.5h262v80q0 138 -116 138q-102 0 -258 -19l-9 49q184 29 277 29q85 0 129.5 -46.5t44.5 -150.5v-481h-53l-11 123q-43 -52 -113 -92.5t-145 -40.5q-72 0 -112.5 44t-40.5 126zM186 725q0 -118 105 -121q55 -1 121.5 33.5t113.5 85.5v188 l-245 -8q-95 -3 -95 -108v-70z" />
<glyph unicode="&#xab;" horiz-adv-x="768" d="M78 502v24l266 406l43 -31l-227 -387l229 -393l-43 -31zM356 502v24l265 406l43 -31l-226 -387l228 -393l-43 -31z" />
<glyph unicode="&#xac;" horiz-adv-x="970" d="M131 573v68h700v-375h-67v307h-633z" />
<glyph unicode="&#xad;" horiz-adv-x="768" d="M131 481v68h506v-68h-506z" />
<glyph unicode="&#xae;" horiz-adv-x="933" d="M102 981q0 189 106.5 322t258.5 133t258 -133t106 -322q0 -191 -106 -324t-258 -133t-258.5 133t-106.5 324zM141 981q0 -173 95.5 -294.5t230.5 -121.5q134 0 230 121.5t96 294.5q0 171 -96 293.5t-230 122.5q-135 0 -230.5 -122t-95.5 -294zM303 696v568q57 6 180 6 q93 0 131.5 -35t38.5 -127q0 -71 -23.5 -105.5t-78.5 -41.5v-5q44 -9 63 -79l58 -181h-49l-54 176q-22 70 -80 70q-110 0 -141 2v-248h-45zM348 979h135q69 2 96 28t27 97q0 74 -26.5 99.5t-96.5 25.5h-135v-250z" />
<glyph unicode="&#xaf;" horiz-adv-x="657" d="M109 1272v67h440v-67h-440z" />
<glyph unicode="&#xb0;" horiz-adv-x="616" d="M100 1184q0 104 61.5 179t147.5 75q84 0 145.5 -75t61.5 -179t-61 -180t-146 -76q-86 0 -147.5 75.5t-61.5 180.5zM160 1184q0 -81 43.5 -140t105.5 -59q61 0 104.5 59.5t43.5 139.5q0 83 -43 139.5t-105 56.5q-63 0 -106 -56.5t-43 -139.5z" />
<glyph unicode="&#xb1;" horiz-adv-x="974" d="M137 180v68h701v-68h-701zM137 684v66h316v294h71v-294h314v-66h-316v-295h-67v295h-318z" />
<glyph unicode="&#xb2;" horiz-adv-x="718" d="M111 737v39q0 11 12 31l237 311q73 98 106.5 168t33.5 137q0 73 -38.5 95t-121.5 22q-100 0 -217 -22l-6 49q115 32 223 32q49 0 83 -4t64.5 -15t48 -30.5t27.5 -51.5t10 -77q0 -76 -34 -148.5t-111 -172.5l-235 -303q43 2 129 2l282 -2v-60h-493z" />
<glyph unicode="&#xb3;" horiz-adv-x="690" d="M111 743l6 52q131 -15 213 -15q97 0 139.5 45.5t42.5 153.5q0 82 -36 130t-130 48l-141 2v49l141 2q39 1 68 13.5t45 30t25 43.5t11.5 47.5t2.5 48.5q0 86 -39 117.5t-140 31.5q-88 0 -190 -12l-6 49q103 20 205 20q132 0 183.5 -42t51.5 -152q0 -189 -123 -215v-4 q75 -13 107.5 -67.5t34.5 -145.5q2 -130 -52.5 -190t-185.5 -60q-81 0 -233 20z" />
<glyph unicode="&#xb4;" horiz-adv-x="483" d="M94 1161l262 297l52 -59l-279 -279z" />
<glyph unicode="&#xb6;" horiz-adv-x="978" d="M80 922q0 283 112.5 399.5t382.5 116.5q141 0 234 -35v-1403h-72v1360q-98 14 -209 14v-1804h-71v842q-201 23 -289 141.5t-88 368.5z" />
<glyph unicode="&#xb7;" horiz-adv-x="360" d="M131 465v123q0 19 8 27t27 8h29q19 0 26.5 -8t7.5 -27v-123q0 -19 -7.5 -27t-26.5 -8h-29q-19 0 -27 8t-8 27z" />
<glyph unicode="&#xb8;" horiz-adv-x="370" d="M63 -455l15 47q74 -4 121 47.5t49 127.5q0 52 -21 72.5t-77 21.5l10 43q80 6 117 -25t34 -108q-2 -112 -71 -177.5t-177 -48.5z" />
<glyph unicode="&#xb9;" horiz-adv-x="475" d="M70 1495l200 90h68v-848h-68v719q0 43 4 66l-194 -72z" />
<glyph unicode="&#xba;" horiz-adv-x="733" d="M111 885q0 192 57.5 270t198.5 78t198.5 -78t57.5 -270q0 -191 -57.5 -268.5t-198.5 -77.5t-198.5 77.5t-57.5 268.5zM180 885q0 -163 41.5 -226t145.5 -63q103 0 143.5 63t40.5 226q0 165 -40.5 228t-143.5 63q-104 0 -145.5 -63.5t-41.5 -227.5z" />
<glyph unicode="&#xbb;" horiz-adv-x="768" d="M102 121l228 393l-226 387l43 31l265 -406v-24l-267 -412zM379 121l227 393l-225 387l43 31l264 -406v-24l-266 -412z" />
<glyph unicode="&#xbc;" horiz-adv-x="1394" d="M76 1323l200 90h68v-848h-68v719q0 26 7 66l-197 -72zM215 0l764 1413h65l-763 -1413h-66zM768 334l227 514h70l-227 -510q-8 -22 1.5 -39.5t30.5 -17.5h306v264l14 143h51v-407h78v-48l-78 -6v-227h-65v225h-351q-38 0 -56.5 33.5t-0.5 75.5z" />
<glyph unicode="&#xbd;" horiz-adv-x="1441" d="M76 1323l200 90h68v-848h-68v719q0 26 7 66l-197 -72zM209 0l764 1413h67l-764 -1413h-67zM856 0v39q0 18 10 31l240 311q74 97 107 167.5t32 137.5q0 73 -38.5 95t-121.5 22q-95 0 -215 -23l-6 49q118 33 223 33q123 0 178.5 -35.5t55.5 -142.5q0 -77 -34 -149.5 t-111 -172.5l-234 -303q45 2 125 2l285 -2v-59h-496z" />
<glyph unicode="&#xbe;" horiz-adv-x="1544" d="M102 567l7 51q123 -14 215 -14q97 0 138.5 45.5t41.5 153.5q0 39 -6.5 68t-24 55.5t-51.5 40.5t-84 14l-141 2v47l141 4q39 1 68 13.5t44.5 30t24.5 43t11.5 46.5t2.5 47q0 88 -38 120t-138 32q-86 0 -192 -12l-6 49q103 20 204 20q133 0 185.5 -42t52.5 -152 q0 -189 -125 -215v-4q140 -24 143 -213q2 -130 -52.5 -190t-184.5 -60q-84 0 -236 20zM383 0l764 1413h67l-763 -1413h-68zM915 334l230 514h65l-223 -510q-9 -22 1 -39.5t30 -17.5h295v264l14 143h51v-407h86v-48l-86 -6v-227h-65v225h-338q-39 0 -59.5 33.5t-0.5 75.5z " />
<glyph unicode="&#xbf;" horiz-adv-x="825" d="M80 -133q0 63 16.5 119t43.5 99t59 84t64.5 84t60 89.5t45 110t18.5 135.5h76q1 -108 -29 -196t-73 -146.5t-86 -112t-73.5 -118.5t-31.5 -140q-2 -129 59.5 -191.5t190.5 -62.5q41 0 75.5 1t56 2t53 4.5t42.5 5t48.5 7t49.5 7.5l9 -60q-13 -2 -69.5 -13.5t-78.5 -14.5 t-77 -7t-121 -4q-328 0 -328 318zM381 850v123q0 35 33 35h24q19 0 27 -8t8 -27v-123q0 -19 -8 -27t-27 -8h-24q-33 0 -33 35z" />
<glyph unicode="&#xc0;" horiz-adv-x="1003" d="M25 0l389 1386q1 12 12 19.5t23 7.5h106q28 0 35 -27l389 -1386h-92l-135 498h-500l-135 -498h-92zM262 1782l51 59l262 -297l-32 -41zM272 571h459l-178 658l-31 114h-41l-30 -114z" />
<glyph unicode="&#xc1;" horiz-adv-x="1003" d="M25 0l389 1386q1 12 12 19.5t23 7.5h106q28 0 35 -27l389 -1386h-92l-135 498h-500l-135 -498h-92zM272 571h459l-178 658l-31 114h-41l-30 -114zM412 1544l262 297l51 -59l-279 -279z" />
<glyph unicode="&#xc2;" horiz-adv-x="1003" d="M25 0l389 1386q1 12 12 19.5t23 7.5h106q28 0 35 -27l389 -1386h-92l-135 498h-500l-135 -498h-92zM248 1567l221 243h61l222 -243l-33 -39l-213 207h-12l-213 -207zM272 571h459l-178 658l-31 114h-41l-30 -114z" />
<glyph unicode="&#xc3;" horiz-adv-x="1003" d="M25 0l389 1386q1 12 12 19.5t23 7.5h106q28 0 35 -27l389 -1386h-92l-135 498h-500l-135 -498h-92zM252 1585q-4 99 31.5 150t95.5 45q33 -3 65.5 -23t54.5 -42.5t53.5 -43t63.5 -24.5q47 -4 68 24.5t21 97.5h43q6 -94 -28.5 -144t-96.5 -44q-37 3 -72 23.5t-57.5 43 t-52 43t-56.5 23.5q-46 7 -67 -25t-21 -104h-45zM272 571h459l-178 658l-31 114h-41l-30 -114z" />
<glyph unicode="&#xc4;" horiz-adv-x="1003" d="M25 0l389 1386q1 12 12 19.5t23 7.5h106q28 0 35 -27l389 -1386h-92l-135 498h-500l-135 -498h-92zM272 571h459l-178 658l-31 114h-41l-30 -114zM313 1616v115q0 28 27 28h31q26 0 26 -28v-115q0 -29 -26 -29h-31q-27 0 -27 29zM604 1616v115q0 28 27 28h31q26 0 26 -28 v-115q0 -29 -26 -29h-31q-27 0 -27 29z" />
<glyph unicode="&#xc5;" horiz-adv-x="1003" d="M25 0l389 1386q1 12 12 19.5t23 7.5h106q28 0 35 -27l389 -1386h-92l-135 498h-500l-135 -498h-92zM272 571h459l-178 658l-31 114h-41l-30 -114zM336 1671q0 83 49 141t117 58q69 0 117.5 -58t48.5 -141q0 -84 -48.5 -142.5t-117.5 -58.5q-68 0 -117 58.5t-49 142.5z M391 1671q0 -65 32 -106t79 -41q48 0 80 41t32 106q0 63 -32.5 105.5t-79.5 42.5t-79 -42.5t-32 -105.5z" />
<glyph unicode="&#xc6;" horiz-adv-x="1492" d="M8 0l615 1227q57 112 126.5 149t188.5 37q291 0 463 -8l-2 -66h-432q-56 0 -89.5 -43t-33.5 -116v-389l485 -3v-67l-485 -2v-486q0 -74 33 -117.5t90 -43.5h432l2 -64q-152 -8 -465 -8q-76 0 -126 61.5t-50 155.5v315h-393l-263 -532h-96zM401 604h359v582q0 48 17.5 94 t41.5 61h-10q-60 -33 -113 -141z" />
<glyph unicode="&#xc7;" horiz-adv-x="940" d="M115 707q0 206 22 342.5t73.5 224.5t132.5 126t202 38q174 0 295 -37l-13 -62q-135 23 -282 23q-129 0 -202 -63.5t-105.5 -204t-32.5 -387.5t32.5 -388t105.5 -204.5t202 -63.5q173 0 305 27l14 -64q-133 -39 -319 -39q-161 0 -254 71.5t-134.5 229t-41.5 431.5z M385 -479l14 47q74 -4 121 47t49 127q0 52 -21 72.5t-77 21.5l10 43q80 6 117.5 -25.5t34.5 -107.5q-2 -112 -71 -177t-177 -48z" />
<glyph unicode="&#xc8;" horiz-adv-x="913" d="M147 217v979q0 95 53 156t138 61q327 0 483 -8l-2 -64h-465q-56 0 -87 -43t-31 -116v-391l516 -3v-67l-516 -2v-488q0 -73 31 -116t87 -43h465l2 -64q-156 -8 -483 -8q-86 0 -138.5 60.5t-52.5 156.5zM285 1831l51 59l262 -297l-33 -41z" />
<glyph unicode="&#xc9;" horiz-adv-x="913" d="M147 217v979q0 95 53 156t138 61q327 0 483 -8l-2 -64h-465q-56 0 -87 -43t-31 -116v-391l516 -3v-67l-516 -2v-488q0 -73 31 -116t87 -43h465l2 -64q-156 -8 -483 -8q-86 0 -138.5 60.5t-52.5 156.5zM434 1593l262 297l52 -59l-279 -279z" />
<glyph unicode="&#xca;" horiz-adv-x="913" d="M147 217v979q0 95 53 156t138 61q327 0 483 -8l-2 -64h-465q-56 0 -87 -43t-31 -116v-391l516 -3v-67l-516 -2v-488q0 -73 31 -116t87 -43h465l2 -64q-156 -8 -483 -8q-86 0 -138.5 60.5t-52.5 156.5zM272 1616l222 244h61l221 -244l-33 -39l-213 207h-12l-213 -207z" />
<glyph unicode="&#xcb;" horiz-adv-x="913" d="M147 217v979q0 95 53 156t138 61q327 0 483 -8l-2 -64h-465q-56 0 -87 -43t-31 -116v-391l516 -3v-67l-516 -2v-488q0 -73 31 -116t87 -43h465l2 -64q-156 -8 -483 -8q-86 0 -138.5 60.5t-52.5 156.5zM338 1665v115q0 28 27 28h30q27 0 27 -28v-115q0 -29 -27 -29h-30 q-27 0 -27 29zM629 1665v115q0 28 26 28h31q27 0 27 -28v-115q0 -29 -27 -29h-31q-26 0 -26 29z" />
<glyph unicode="&#xcc;" horiz-adv-x="403" d="M-41 1782l51 59l262 -297l-32 -41zM158 0v1413h88v-1413h-88z" />
<glyph unicode="&#xcd;" horiz-adv-x="403" d="M111 1544l262 297l51 -59l-279 -279zM158 0v1413h88v-1413h-88z" />
<glyph unicode="&#xce;" horiz-adv-x="403" d="M-53 1567l221 243h61l222 -243l-33 -39l-213 207h-12l-213 -207zM158 0v1413h88v-1413h-88z" />
<glyph unicode="&#xcf;" horiz-adv-x="403" d="M12 1616v115q0 28 27 28h31q26 0 26 -28v-115q0 -29 -26 -29h-31q-27 0 -27 29zM158 0v1413h88v-1413h-88zM303 1616v115q0 28 27 28h30q27 0 27 -28v-115q0 -29 -27 -29h-30q-27 0 -27 29z" />
<glyph unicode="&#xd0;" d="M41 729v57h125v627q211 19 387 19q159 0 250.5 -70t133.5 -226.5t42 -428.5t-42 -428.5t-133.5 -226.5t-250.5 -70q-184 0 -387 18v729h-125zM252 61q172 -4 301 -4q126 0 198 62.5t105 202.5t33 385q0 244 -33 384t-105 202.5t-198 62.5q-121 0 -301 -4v-566h276v-57 h-276v-668z" />
<glyph unicode="&#xd1;" horiz-adv-x="1142" d="M158 0v1372q0 41 39 41h104q36 0 47 -31l445 -1128q6 -14 69 -176h39q-2 66 -2 192v1143h86v-1372q0 -41 -37 -41h-110q-34 0 -45 31l-457 1155q-35 83 -62 151h-30q2 -51 2 -153v-1184h-88zM334 1585q-4 99 31.5 150t95.5 45q33 -3 65.5 -23t54.5 -42.5t53.5 -43 t63.5 -24.5q47 -4 67.5 24.5t20.5 97.5h43q6 -94 -28 -144t-96 -44q-37 3 -72 23.5t-57.5 43t-52 43t-56.5 23.5q-46 7 -67 -25t-21 -104h-45z" />
<glyph unicode="&#xd2;" d="M115 707q0 276 41.5 433t134.5 227.5t256 70.5q161 0 253.5 -70.5t134.5 -228t42 -432.5t-42 -433t-134.5 -228.5t-253.5 -70.5q-123 0 -204 37.5t-132.5 125.5t-73.5 225t-22 344zM205 707q0 -247 33 -388t106.5 -204.5t202.5 -63.5q128 0 201 63.5t106 204.5t33 388 t-33 388t-106 204t-201 63q-129 0 -202.5 -63t-106.5 -204t-33 -388zM305 1782l51 59l262 -297l-32 -41z" />
<glyph unicode="&#xd3;" d="M115 707q0 276 41.5 433t134.5 227.5t256 70.5q161 0 253.5 -70.5t134.5 -228t42 -432.5t-42 -433t-134.5 -228.5t-253.5 -70.5q-123 0 -204 37.5t-132.5 125.5t-73.5 225t-22 344zM205 707q0 -247 33 -388t106.5 -204.5t202.5 -63.5q128 0 201 63.5t106 204.5t33 388 t-33 388t-106 204t-201 63q-129 0 -202.5 -63t-106.5 -204t-33 -388zM457 1544l262 297l51 -59l-278 -279z" />
<glyph unicode="&#xd4;" d="M115 707q0 276 41.5 433t134.5 227.5t256 70.5q161 0 253.5 -70.5t134.5 -228t42 -432.5t-42 -433t-134.5 -228.5t-253.5 -70.5q-123 0 -204 37.5t-132.5 125.5t-73.5 225t-22 344zM205 707q0 -247 33 -388t106.5 -204.5t202.5 -63.5q128 0 201 63.5t106 204.5t33 388 t-33 388t-106 204t-201 63q-129 0 -202.5 -63t-106.5 -204t-33 -388zM293 1567l221 243h61l222 -243l-33 -39l-213 207h-12l-213 -207z" />
<glyph unicode="&#xd5;" d="M115 707q0 276 41.5 433t134.5 227.5t256 70.5q161 0 253.5 -70.5t134.5 -228t42 -432.5t-42 -433t-134.5 -228.5t-253.5 -70.5q-123 0 -204 37.5t-132.5 125.5t-73.5 225t-22 344zM205 707q0 -247 33 -388t106.5 -204.5t202.5 -63.5q128 0 201 63.5t106 204.5t33 388 t-33 388t-106 204t-201 63q-129 0 -202.5 -63t-106.5 -204t-33 -388zM297 1585q-4 99 31.5 150t95.5 45q42 -4 81.5 -35t78 -62t78.5 -36q47 -4 67.5 24.5t20.5 97.5h43q6 -94 -28.5 -144t-96.5 -44q-37 3 -72 23.5t-57.5 43t-52 43t-56.5 23.5q-46 7 -67 -25t-21 -104h-45z " />
<glyph unicode="&#xd6;" d="M115 707q0 276 41.5 433t134.5 227.5t256 70.5q161 0 253.5 -70.5t134.5 -228t42 -432.5t-42 -433t-134.5 -228.5t-253.5 -70.5q-123 0 -204 37.5t-132.5 125.5t-73.5 225t-22 344zM205 707q0 -247 33 -388t106.5 -204.5t202.5 -63.5q128 0 201 63.5t106 204.5t33 388 t-33 388t-106 204t-201 63q-129 0 -202.5 -63t-106.5 -204t-33 -388zM358 1616v115q0 28 27 28h31q26 0 26 -28v-115q0 -29 -26 -29h-31q-27 0 -27 29zM649 1616v115q0 28 27 28h31q26 0 26 -28v-115q0 -29 -26 -29h-31q-27 0 -27 29z" />
<glyph unicode="&#xd7;" horiz-adv-x="798" d="M92 293l266 297l-266 297l45 53l269 -299l268 299l43 -51l-266 -299l266 -297l-43 -53l-268 299l-269 -299z" />
<glyph unicode="&#xd8;" d="M115 707q0 276 41.5 433t134.5 227.5t256 70.5q132 0 215 -45l49 129l53 -25l-53 -139q88 -73 127 -229t39 -422q0 -275 -42 -433t-134.5 -228.5t-253.5 -70.5q-148 0 -236 56l-53 -140l-51 27l57 152q-80 75 -114.5 228t-34.5 409zM205 707q0 -207 22 -338t72 -205 l432 1149q-66 49 -184 49q-129 0 -202.5 -63t-106.5 -204t-33 -388zM342 115q73 -64 205 -64q128 0 201 63.5t106 204.5t33 388q0 220 -25.5 356t-83.5 205z" />
<glyph unicode="&#xd9;" horiz-adv-x="1095" d="M150 526v887h88v-887q0 -262 69.5 -368.5t241.5 -106.5q169 0 239 106.5t70 368.5v887h88v-887q0 -299 -89.5 -425t-305.5 -126q-219 0 -310 126t-91 425zM309 1782l51 59l263 -297l-33 -41z" />
<glyph unicode="&#xda;" horiz-adv-x="1095" d="M150 526v887h88v-887q0 -262 69.5 -368.5t241.5 -106.5q169 0 239 106.5t70 368.5v887h88v-887q0 -299 -89.5 -425t-305.5 -126q-219 0 -310 126t-91 425zM459 1544l262 297l51 -59l-278 -279z" />
<glyph unicode="&#xdb;" horiz-adv-x="1095" d="M150 526v887h88v-887q0 -262 69.5 -368.5t241.5 -106.5q169 0 239 106.5t70 368.5v887h88v-887q0 -299 -89.5 -425t-305.5 -126q-219 0 -310 126t-91 425zM297 1567l221 243h62l221 -243l-33 -39l-213 207h-12l-213 -207z" />
<glyph unicode="&#xdc;" horiz-adv-x="1095" d="M150 526v887h88v-887q0 -262 69.5 -368.5t241.5 -106.5q169 0 239 106.5t70 368.5v887h88v-887q0 -299 -89.5 -425t-305.5 -126q-219 0 -310 126t-91 425zM362 1616v115q0 28 27 28h31q26 0 26 -28v-115q0 -29 -26 -29h-31q-27 0 -27 29zM653 1616v115q0 28 27 28h31 q26 0 26 -28v-115q0 -29 -26 -29h-31q-27 0 -27 29z" />
<glyph unicode="&#xdd;" horiz-adv-x="907" d="M27 1413h96l268 -649l58 -146h10l57 144l270 651h93l-381 -895v-518h-88v518zM362 1544l263 297l51 -59l-279 -279z" />
<glyph unicode="&#xde;" horiz-adv-x="964" d="M158 0v1413h88v-278q107 8 289 8q131 0 203 -37t105.5 -128.5t33.5 -258.5q0 -168 -33.5 -259.5t-104 -128t-198.5 -36.5q-155 0 -295 12v-307h-88zM246 371h284q98 0 152 29.5t80 104.5t26 214q0 140 -26 215.5t-79.5 105t-152.5 29.5q-218 0 -284 -4v-694z" />
<glyph unicode="&#xdf;" horiz-adv-x="1085" d="M53 918v61l144 8v107q0 72 9 127.5t23.5 94t40 66t52 43t66.5 24t76 11t87 2.5q184 0 268 -51.5t84 -185.5q0 -114 -34.5 -169.5t-123.5 -99.5q-18 -9 -49.5 -23.5t-44 -21t-33 -19.5t-28 -23.5t-17.5 -28t-13 -39.5t-3 -51q0 -67 26 -101.5t81 -56.5l198 -86 q79 -33 115.5 -88.5t36.5 -165.5q0 -61 -8 -106t-26 -75t-39.5 -49t-55 -28.5t-66.5 -13t-80 -3.5q-141 0 -266 23l6 61q103 -14 248 -14q58 2 91 9t61 28t39.5 62t11.5 108q0 62 -16 101t-38 55.5t-63 33.5l-199 86q-69 30 -104 79.5t-35 138.5q0 32 5 58.5t11 46 t20.5 37.5t25.5 29t34.5 25t37.5 21.5t45 22.5t48 24q70 34 95.5 77t25.5 134q0 94 -63.5 132t-206.5 38q-81 0 -130 -12.5t-82 -47t-45.5 -92t-12.5 -151.5v-1090h-86v918h-144z" />
<glyph unicode="&#xe0;" horiz-adv-x="890" d="M98 242v123q0 112 53 173.5t150 61.5h369v125q-2 103 -40 158t-132 55q-127 0 -361 -31l-8 62q5 1 54 9t63.5 10.5t58 8.5t69.5 8t64 4.5t72 2.5q121 0 182.5 -67.5t61.5 -219.5v-725h-64l-14 178q-58 -74 -157 -133t-202 -59q-102 0 -160.5 67t-58.5 189zM184 248 q0 -184 146 -187q75 -3 171 49.5t169 133.5v291l-359 -7q-127 -3 -127 -170v-110zM199 1411l51 59l262 -296l-33 -41z" />
<glyph unicode="&#xe1;" horiz-adv-x="890" d="M98 242v123q0 112 53 173.5t150 61.5h369v125q-2 103 -40 158t-132 55q-127 0 -361 -31l-8 62q5 1 54 9t63.5 10.5t58 8.5t69.5 8t64 4.5t72 2.5q121 0 182.5 -67.5t61.5 -219.5v-725h-64l-14 178q-58 -74 -157 -133t-202 -59q-102 0 -160.5 67t-58.5 189zM184 248 q0 -184 146 -187q75 -3 171 49.5t169 133.5v291l-359 -7q-127 -3 -127 -170v-110zM350 1174l262 296l52 -59l-279 -278z" />
<glyph unicode="&#xe2;" horiz-adv-x="890" d="M98 242v123q0 112 53 173.5t150 61.5h369v125q-2 103 -40 158t-132 55q-127 0 -361 -31l-8 62q5 1 54 9t63.5 10.5t58 8.5t69.5 8t64 4.5t72 2.5q121 0 182.5 -67.5t61.5 -219.5v-725h-64l-14 178q-58 -74 -157 -133t-202 -59q-102 0 -160.5 67t-58.5 189zM184 248 q0 -184 146 -187q75 -3 171 49.5t169 133.5v291l-359 -7q-127 -3 -127 -170v-110zM186 1194l222 244h61l221 -244l-33 -39l-213 207h-12l-213 -207z" />
<glyph unicode="&#xe3;" horiz-adv-x="890" d="M98 242v123q0 112 53 173.5t150 61.5h369v125q-2 103 -40 158t-132 55q-127 0 -361 -31l-8 62q5 1 54 9t63.5 10.5t58 8.5t69.5 8t64 4.5t72 2.5q121 0 182.5 -67.5t61.5 -219.5v-725h-64l-14 178q-58 -74 -157 -133t-202 -59q-102 0 -160.5 67t-58.5 189zM184 248 q0 -184 146 -187q75 -3 171 49.5t169 133.5v291l-359 -7q-127 -3 -127 -170v-110zM190 1214q-4 99 31.5 150t95.5 45q42 -4 81.5 -35t78 -62t78.5 -36q47 -4 67.5 25t20.5 98h43q6 -94 -28.5 -144.5t-96.5 -44.5q-37 3 -72 23.5t-57.5 43t-51.5 43t-56 23.5q-46 7 -67 -25 t-21 -104h-46z" />
<glyph unicode="&#xe4;" horiz-adv-x="890" d="M98 242v123q0 112 53 173.5t150 61.5h369v125q-2 103 -40 158t-132 55q-127 0 -361 -31l-8 62q5 1 54 9t63.5 10.5t58 8.5t69.5 8t64 4.5t72 2.5q121 0 182.5 -67.5t61.5 -219.5v-725h-64l-14 178q-58 -74 -157 -133t-202 -59q-102 0 -160.5 67t-58.5 189zM184 248 q0 -184 146 -187q75 -3 171 49.5t169 133.5v291l-359 -7q-127 -3 -127 -170v-110zM252 1245v115q0 29 27 29h30q27 0 27 -29v-115q0 -28 -27 -28h-30q-27 0 -27 28zM543 1245v115q0 29 26 29h31q27 0 27 -29v-115q0 -28 -27 -28h-31q-26 0 -26 28z" />
<glyph unicode="&#xe5;" horiz-adv-x="890" d="M98 242v123q0 112 53 173.5t150 61.5h369v125q-2 103 -40 158t-132 55q-127 0 -361 -31l-8 62q5 1 54 9t63.5 10.5t58 8.5t69.5 8t64 4.5t72 2.5q121 0 182.5 -67.5t61.5 -219.5v-725h-64l-14 178q-58 -74 -157 -133t-202 -59q-102 0 -160.5 67t-58.5 189zM184 248 q0 -184 146 -187q75 -3 171 49.5t169 133.5v291l-359 -7q-127 -3 -127 -170v-110zM274 1298q0 83 49 141t117 58q69 0 117.5 -58t48.5 -141q0 -84 -48.5 -142t-117.5 -58q-68 0 -117 58t-49 142zM330 1298q0 -65 31.5 -106t78.5 -41q48 0 80.5 41t32.5 106q0 63 -33 105.5 t-80 42.5t-78.5 -42.5t-31.5 -105.5z" />
<glyph unicode="&#xe6;" horiz-adv-x="1439" d="M98 242v123q0 113 52.5 174t150.5 61h369v125q0 102 -39 157.5t-133 55.5q-127 0 -361 -31l-8 62q5 1 54 9t63.5 10.5t58 8.5t69.5 8t64 4.5t72 2.5q176 0 223 -142q81 142 287 142q166 0 246 -72.5t80 -218.5q1 -144 -51 -206t-173 -62h-366q4 -153 36 -241.5 t92.5 -125.5t159.5 -37q127 0 273 25l10 -58q-43 -18 -132.5 -29.5t-160.5 -11.5q-134 0 -215 54t-117 172q-61 -81 -167.5 -148t-217.5 -67q-102 0 -160.5 67t-58.5 189zM184 248q0 -184 146 -187q80 -3 181 53t177 142q-20 97 -20 242v37l-357 -7q-127 -3 -127 -170v-110z M756 520h352q86 0 120 46t34 151q-2 113 -59.5 167t-178.5 54q-147 0 -207 -92.5t-61 -325.5z" />
<glyph unicode="&#xe7;" horiz-adv-x="792" d="M102 494q0 285 84 401.5t287 116.5q145 0 238 -39l-15 -55q-90 20 -211 20q-112 0 -174 -39.5t-91.5 -135.5t-29.5 -269t29.5 -269t91.5 -136t174 -40q132 0 232 23l10 -58q-119 -39 -254 -39q-203 0 -287 117t-84 402zM309 -479l15 47q74 -4 121 47t49 127q0 51 -21 72 t-78 22l11 43q80 6 117 -25t34 -108q-2 -112 -71 -177t-177 -48z" />
<glyph unicode="&#xe8;" horiz-adv-x="874" d="M102 498q0 282 81.5 398t271.5 116q164 0 243.5 -72.5t81.5 -218.5q0 -136 -42 -202t-138 -66h-410q4 -153 36 -241.5t92 -125.5t159 -37q129 0 275 25l8 -58q-43 -18 -132 -29.5t-161 -11.5q-196 0 -280.5 120.5t-84.5 402.5zM190 520h396q60 0 85 50.5t23 146.5 q-1 116 -57.5 168.5t-177.5 52.5q-148 0 -208 -92.5t-61 -325.5zM219 1411l51 59l262 -296l-32 -41z" />
<glyph unicode="&#xe9;" horiz-adv-x="874" d="M102 498q0 282 81.5 398t271.5 116q164 0 243.5 -72.5t81.5 -218.5q0 -136 -42 -202t-138 -66h-410q4 -153 36 -241.5t92 -125.5t159 -37q129 0 275 25l8 -58q-43 -18 -132 -29.5t-161 -11.5q-196 0 -280.5 120.5t-84.5 402.5zM190 520h396q60 0 85 50.5t23 146.5 q-1 116 -57.5 168.5t-177.5 52.5q-148 0 -208 -92.5t-61 -325.5zM371 1174l262 296l51 -59l-278 -278z" />
<glyph unicode="&#xea;" horiz-adv-x="874" d="M102 498q0 282 81.5 398t271.5 116q164 0 243.5 -72.5t81.5 -218.5q0 -136 -42 -202t-138 -66h-410q4 -153 36 -241.5t92 -125.5t159 -37q129 0 275 25l8 -58q-43 -18 -132 -29.5t-161 -11.5q-196 0 -280.5 120.5t-84.5 402.5zM190 520h396q60 0 85 50.5t23 146.5 q-1 116 -57.5 168.5t-177.5 52.5q-148 0 -208 -92.5t-61 -325.5zM207 1194l221 244h61l222 -244l-33 -39l-213 207h-12l-213 -207z" />
<glyph unicode="&#xeb;" horiz-adv-x="874" d="M102 498q0 282 81.5 398t271.5 116q164 0 243.5 -72.5t81.5 -218.5q0 -136 -42 -202t-138 -66h-410q4 -153 36 -241.5t92 -125.5t159 -37q129 0 275 25l8 -58q-43 -18 -132 -29.5t-161 -11.5q-196 0 -280.5 120.5t-84.5 402.5zM190 520h396q60 0 85 50.5t23 146.5 q-1 116 -57.5 168.5t-177.5 52.5q-148 0 -208 -92.5t-61 -325.5zM272 1245v115q0 29 27 29h31q26 0 26 -29v-115q0 -28 -26 -28h-31q-27 0 -27 28zM563 1245v115q0 29 27 29h31q26 0 26 -29v-115q0 -28 -26 -28h-31q-27 0 -27 28z" />
<glyph unicode="&#xec;" horiz-adv-x="385" d="M-51 1411l51 59l262 -296l-33 -41zM150 0v987h83v-987h-83z" />
<glyph unicode="&#xed;" horiz-adv-x="385" d="M100 1174l262 296l52 -59l-279 -278zM150 0v987h83v-987h-83z" />
<glyph unicode="&#xee;" horiz-adv-x="385" d="M-63 1194l221 244h61l221 -244l-32 -39l-213 207h-13l-213 -207zM150 0v987h83v-987h-83z" />
<glyph unicode="&#xef;" horiz-adv-x="385" d="M2 1245v115q0 29 27 29h30q27 0 27 -29v-115q0 -28 -27 -28h-30q-27 0 -27 28zM150 0v987h83v-987h-83zM293 1245v115q0 29 26 29h31q27 0 27 -29v-115q0 -28 -27 -28h-31q-26 0 -26 28z" />
<glyph unicode="&#xf0;" horiz-adv-x="907" d="M104 451q0 226 77 345t253 119q137 0 254 -96q-37 280 -156 416l-145 -127l-33 45l138 121q-112 96 -299 96l12 60q207 8 342 -107l131 115l33 -47l-123 -107q198 -212 198 -711q0 -88 -4.5 -156t-17 -140t-36.5 -123.5t-60.5 -93.5t-92.5 -63.5t-129 -21.5 q-176 0 -259 113.5t-83 362.5zM193 451q0 -217 60.5 -310.5t192.5 -93.5q55 0 96 16.5t69 51.5t45.5 78.5t27 108.5t13 130t3.5 154q0 92 -6 172q-65 48 -124 67t-130 19q-69 0 -118.5 -28.5t-77 -83t-39.5 -123t-12 -158.5z" />
<glyph unicode="&#xf1;" horiz-adv-x="944" d="M143 0v987h70l6 -172q197 197 373 197q106 0 160.5 -69t54.5 -202v-741h-86v725q0 112 -36.5 162.5t-115.5 50.5q-75 0 -151.5 -44t-190.5 -144v-750h-84zM227 1214q-4 99 31.5 150t95.5 45q42 -4 81.5 -35t78 -62t78.5 -36q47 -4 67.5 25t20.5 98h43q6 -94 -28.5 -144.5 t-96.5 -44.5q-37 3 -72 23.5t-57.5 43t-52 43t-56.5 23.5q-46 7 -67 -25t-21 -104h-45z" />
<glyph unicode="&#xf2;" horiz-adv-x="923" d="M102 494q0 284 81.5 401t279.5 117t278 -116.5t80 -401.5q0 -286 -80 -402.5t-278 -116.5t-279.5 117t-81.5 402zM190 494q0 -252 60.5 -349.5t212.5 -97.5q103 0 161 42t83.5 137.5t25.5 267.5q0 253 -58.5 348.5t-211.5 95.5q-103 0 -161 -41t-85 -136.5t-27 -266.5z M223 1411l51 59l263 -296l-33 -41z" />
<glyph unicode="&#xf3;" horiz-adv-x="923" d="M102 494q0 284 81.5 401t279.5 117t278 -116.5t80 -401.5q0 -286 -80 -402.5t-278 -116.5t-279.5 117t-81.5 402zM190 494q0 -252 60.5 -349.5t212.5 -97.5q103 0 161 42t83.5 137.5t25.5 267.5q0 253 -58.5 348.5t-211.5 95.5q-103 0 -161 -41t-85 -136.5t-27 -266.5z M375 1174l262 296l51 -59l-278 -278z" />
<glyph unicode="&#xf4;" horiz-adv-x="923" d="M102 494q0 284 81.5 401t279.5 117t278 -116.5t80 -401.5q0 -286 -80 -402.5t-278 -116.5t-279.5 117t-81.5 402zM190 494q0 -252 60.5 -349.5t212.5 -97.5q103 0 161 42t83.5 137.5t25.5 267.5q0 253 -58.5 348.5t-211.5 95.5q-103 0 -161 -41t-85 -136.5t-27 -266.5z M211 1194l221 244h62l221 -244l-33 -39l-213 207h-12l-213 -207z" />
<glyph unicode="&#xf5;" horiz-adv-x="923" d="M102 494q0 284 81.5 401t279.5 117t278 -116.5t80 -401.5q0 -286 -80 -402.5t-278 -116.5t-279.5 117t-81.5 402zM190 494q0 -252 60.5 -349.5t212.5 -97.5q103 0 161 42t83.5 137.5t25.5 267.5q0 253 -58.5 348.5t-211.5 95.5q-103 0 -161 -41t-85 -136.5t-27 -266.5z M215 1214q-4 99 31.5 150t95.5 45q42 -4 81.5 -35t78 -62t78.5 -36q47 -4 67.5 25t20.5 98h43q6 -94 -28.5 -144.5t-96.5 -44.5q-37 3 -72 23.5t-57.5 43t-52 43t-56.5 23.5q-46 7 -67 -25t-21 -104h-45z" />
<glyph unicode="&#xf6;" horiz-adv-x="923" d="M102 494q0 284 81.5 401t279.5 117t278 -116.5t80 -401.5q0 -286 -80 -402.5t-278 -116.5t-279.5 117t-81.5 402zM190 494q0 -252 60.5 -349.5t212.5 -97.5q103 0 161 42t83.5 137.5t25.5 267.5q0 253 -58.5 348.5t-211.5 95.5q-103 0 -161 -41t-85 -136.5t-27 -266.5z M276 1245v115q0 29 27 29h31q26 0 26 -29v-115q0 -28 -26 -28h-31q-27 0 -27 28zM567 1245v115q0 29 27 29h31q26 0 26 -29v-115q0 -28 -26 -28h-31q-27 0 -27 28z" />
<glyph unicode="&#xf7;" horiz-adv-x="956" d="M127 571v68h700v-68h-700zM428 205v121q0 19 8 26.5t27 7.5h24q20 0 27.5 -7.5t7.5 -26.5v-121q0 -19 -7.5 -27t-27.5 -8h-24q-19 0 -27 8t-8 27zM428 885v121q0 19 8 26.5t27 7.5h24q20 0 27.5 -7.5t7.5 -26.5v-121q0 -19 -7.5 -27t-27.5 -8h-24q-19 0 -27 8t-8 27z" />
<glyph unicode="&#xf8;" horiz-adv-x="925" d="M102 494q0 284 81.5 401t279.5 117q91 0 153 -23l48 125l47 -22l-47 -125q84 -49 120.5 -162t36.5 -311q0 -286 -80 -402.5t-278 -116.5q-92 0 -162 25l-51 -133l-47 24l49 134q-79 51 -114.5 164t-35.5 305zM190 494q0 -155 22 -249t71 -141l307 814q-50 20 -127 20 q-103 0 -161 -41t-85 -136.5t-27 -266.5zM328 74q56 -27 135 -27q103 0 161 42t83.5 137.5t25.5 267.5q0 164 -22.5 258t-75.5 137z" />
<glyph unicode="&#xf9;" horiz-adv-x="927" d="M137 246v741h84v-725q0 -110 38 -161.5t118 -51.5q72 0 143.5 43t179.5 141v754h84v-987h-67l-8 166q-191 -191 -357 -191q-106 0 -160.5 69t-54.5 202zM223 1413l51 60l263 -297l-33 -41z" />
<glyph unicode="&#xfa;" horiz-adv-x="927" d="M137 246v741h84v-725q0 -110 38 -161.5t118 -51.5q72 0 143.5 43t179.5 141v754h84v-987h-67l-8 166q-191 -191 -357 -191q-106 0 -160.5 69t-54.5 202zM375 1176l262 297l51 -60l-278 -278z" />
<glyph unicode="&#xfb;" horiz-adv-x="927" d="M137 246v741h84v-725q0 -110 38 -161.5t118 -51.5q72 0 143.5 43t179.5 141v754h84v-987h-67l-8 166q-191 -191 -357 -191q-106 0 -160.5 69t-54.5 202zM211 1196l221 244h62l221 -244l-33 -39l-213 207h-12l-213 -207z" />
<glyph unicode="&#xfc;" horiz-adv-x="927" d="M137 246v741h84v-725q0 -110 38 -161.5t118 -51.5q72 0 143.5 43t179.5 141v754h84v-987h-67l-8 166q-191 -191 -357 -191q-106 0 -160.5 69t-54.5 202zM276 1247v115q0 29 27 29h31q26 0 26 -29v-115q0 -28 -26 -28h-31q-27 0 -27 28zM567 1247v115q0 29 27 29h31 q26 0 26 -29v-115q0 -28 -26 -28h-31q-27 0 -27 28z" />
<glyph unicode="&#xfd;" horiz-adv-x="847" d="M41 987h90l250 -809q5 -19 16.5 -55.5t16.5 -54.5h20q3 9 17 50.5t20 61.5l246 807h90l-342 -1073q-47 -141 -114.5 -227.5t-182.5 -114.5l-12 51q91 41 143 116t88 191l25 70h-27q-25 0 -37 25zM338 1174l262 296l51 -59l-278 -278z" />
<glyph unicode="&#xfe;" horiz-adv-x="927" d="M143 -426v1860h84v-400q0 -143 -4 -188q152 166 314 166q156 0 222 -119.5t66 -400.5t-67 -399t-223 -118q-153 0 -312 101q4 -44 4 -185v-317h-84zM227 139q176 -92 289 -92q119 0 170 100.5t51 344.5q0 245 -50.5 345.5t-168.5 100.5q-68 0 -135.5 -40t-155.5 -128 v-631z" />
<glyph unicode="&#xff;" horiz-adv-x="847" d="M41 987h90l250 -809q5 -19 16.5 -55.5t16.5 -54.5h20q3 9 17 50.5t20 61.5l246 807h90l-342 -1073q-47 -141 -114.5 -227.5t-182.5 -114.5l-12 51q91 41 143 116t88 191l25 70h-27q-25 0 -37 25zM240 1245v115q0 29 26 29h31q27 0 27 -29v-115q0 -28 -27 -28h-31 q-26 0 -26 28zM530 1245v115q0 29 27 29h31q26 0 26 -29v-115q0 -28 -26 -28h-31q-27 0 -27 28z" />
<glyph unicode="&#x152;" horiz-adv-x="1478" d="M115 707q0 276 41.5 433t134.5 227.5t256 70.5q84 0 139.5 -14t126.5 -52q47 41 113 41q313 0 460 -8l-2 -64h-432q-58 0 -90.5 -43t-32.5 -116v-391l488 -3v-67l-488 -2v-488q0 -73 32.5 -116t90.5 -43h432l2 -64q-152 -8 -466 -8q-63 0 -109 43q-68 -38 -124.5 -53 t-139.5 -15q-123 0 -204 37.5t-132.5 125.5t-73.5 225t-22 344zM205 707q0 -247 33 -388t106.5 -204.5t202.5 -63.5q70 0 116.5 11t104.5 38q-27 59 -27 123v967q0 62 27 121q-56 28 -102.5 39.5t-118.5 11.5q-129 0 -202.5 -61.5t-106.5 -202.5t-33 -391z" />
<glyph unicode="&#x153;" horiz-adv-x="1503" d="M102 494q0 284 81.5 401t279.5 117q124 0 199.5 -44t113.5 -143q38 98 111 142.5t192 44.5q330 0 330 -287q1 -150 -53.5 -210t-186.5 -60h-348q6 -227 72.5 -316.5t216.5 -89.5q122 0 272 25l9 -58q-43 -18 -132.5 -29.5t-160.5 -11.5q-124 0 -202 46.5t-116 146.5 q-38 -102 -114 -147.5t-203 -45.5q-198 0 -279.5 117t-81.5 402zM190 494q0 -252 60.5 -349.5t212.5 -97.5q103 0 161 42t83.5 137.5t25.5 267.5q0 253 -58.5 348.5t-211.5 95.5q-103 0 -161 -41t-85 -136.5t-27 -266.5zM821 520h344q90 0 126.5 45.5t33.5 157.5 q-3 108 -62 161.5t-180 53.5q-143 0 -202 -93.5t-60 -324.5z" />
<glyph unicode="&#x178;" horiz-adv-x="907" d="M27 1413h96l268 -649l58 -146h10l57 144l270 651h93l-381 -895v-518h-88v518zM266 1616v115q0 28 27 28h31q26 0 26 -28v-115q0 -29 -26 -29h-31q-27 0 -27 29zM557 1616v115q0 28 27 28h30q27 0 27 -28v-115q0 -29 -27 -29h-30q-27 0 -27 29z" />
<glyph unicode="&#x2c6;" horiz-adv-x="663" d="M80 1202l221 244h61l222 -244l-33 -39l-213 207h-12l-213 -207z" />
<glyph unicode="&#x2dc;" horiz-adv-x="669" d="M86 1219q-4 98 31.5 149t95.5 45q42 -4 81.5 -35t78 -62t78.5 -36q47 -4 67.5 25t20.5 98h43q6 -94 -28.5 -144.5t-96.5 -44.5q-37 3 -72 23.5t-57.5 43.5t-52 43.5t-56.5 23.5q-46 7 -67 -25t-21 -104h-45z" />
<glyph unicode="&#x2000;" horiz-adv-x="945" />
<glyph unicode="&#x2001;" horiz-adv-x="1890" />
<glyph unicode="&#x2002;" horiz-adv-x="945" />
<glyph unicode="&#x2003;" horiz-adv-x="1890" />
<glyph unicode="&#x2004;" horiz-adv-x="630" />
<glyph unicode="&#x2005;" horiz-adv-x="472" />
<glyph unicode="&#x2006;" horiz-adv-x="315" />
<glyph unicode="&#x2007;" horiz-adv-x="315" />
<glyph unicode="&#x2008;" horiz-adv-x="236" />
<glyph unicode="&#x2009;" horiz-adv-x="378" />
<glyph unicode="&#x200a;" horiz-adv-x="105" />
<glyph unicode="&#x2010;" horiz-adv-x="768" d="M131 481v68h506v-68h-506z" />
<glyph unicode="&#x2011;" horiz-adv-x="768" d="M131 481v68h506v-68h-506z" />
<glyph unicode="&#x2012;" horiz-adv-x="768" d="M131 481v68h506v-68h-506z" />
<glyph unicode="&#x2013;" horiz-adv-x="999" d="M131 481v68h737v-68h-737z" />
<glyph unicode="&#x2014;" horiz-adv-x="1505" d="M131 481v68h1243v-68h-1243z" />
<glyph unicode="&#x2018;" horiz-adv-x="337" d="M125 1098v129q4 147 41 270l39 -14q-10 -100 -10 -230q22 0 22 -28v-127q-3 -35 -35 -35h-26q-17 0 -24 8t-7 27z" />
<glyph unicode="&#x2019;" horiz-adv-x="333" d="M123 1317v127q0 35 33 35h26q17 0 24 -8t7 -27v-129q-3 -144 -39 -271l-41 15q10 103 10 229q-9 0 -15 8.5t-5 20.5z" />
<glyph unicode="&#x201a;" horiz-adv-x="356" d="M131 29v127q1 19 9.5 26.5t27.5 7.5h27q18 0 25 -7.5t7 -26.5v-129q-4 -151 -43 -271l-41 15q13 133 13 229q-10 0 -17.5 8.5t-7.5 20.5z" />
<glyph unicode="&#x201c;" horiz-adv-x="552" d="M123 1098l2 129q3 143 39 270l41 -14q-10 -133 -10 -230q22 0 22 -28v-127q-2 -18 -9.5 -25.5t-25.5 -7.5h-26q-17 0 -24 7.5t-9 25.5zM338 1098l2 129q4 154 39 270l41 -14q-10 -100 -10 -230q10 0 15.5 -7.5t4.5 -20.5v-127q0 -33 -33 -33h-26q-17 0 -24 7.5t-9 25.5z " />
<glyph unicode="&#x201d;" horiz-adv-x="548" d="M123 1317v127q0 35 33 35h26q17 0 24 -8t7 -27v-129q-3 -144 -39 -271l-41 15q10 103 10 229q-9 0 -15 8.5t-5 20.5zM336 1317v127q3 35 35 35h24q18 0 25.5 -8t7.5 -27v-129q-4 -148 -41 -271l-39 15q10 103 10 229q-9 0 -15.5 8.5t-6.5 20.5z" />
<glyph unicode="&#x201e;" horiz-adv-x="569" d="M131 29v127q0 34 35 34h24q18 0 24.5 -7.5t8.5 -26.5l-2 -129q-4 -155 -39 -271l-39 15q11 150 11 229q-11 0 -17.5 8.5t-5.5 20.5zM346 29v127q0 18 8 26t25 8h27q17 0 23.5 -7.5t8.5 -26.5l-2 -129q-4 -155 -39 -271l-41 15q13 133 13 229q-11 0 -17.5 8.5t-5.5 20.5z " />
<glyph unicode="&#x2022;" horiz-adv-x="585" d="M162 539v22q0 78 27 108.5t96 30.5h18q66 0 92.5 -30.5t26.5 -108.5v-22q0 -81 -26.5 -112.5t-92.5 -31.5h-18q-69 0 -96 31.5t-27 112.5z" />
<glyph unicode="&#x2026;" horiz-adv-x="1320" d="M129 35v123q0 19 8 27t27 8h29q19 0 26.5 -8t7.5 -27v-123q0 -19 -7.5 -27t-26.5 -8h-29q-19 0 -27 8t-8 27zM610 35v123q0 19 8 27t27 8h29q19 0 27 -8t8 -27v-123q0 -19 -8 -27t-27 -8h-29q-19 0 -27 8t-8 27zM1094 35v123q0 19 7.5 27t26.5 8h29q19 0 27 -8t8 -27 v-123q0 -19 -8 -27t-27 -8h-29q-19 0 -26.5 8t-7.5 27z" />
<glyph unicode="&#x202f;" horiz-adv-x="378" />
<glyph unicode="&#x2039;" horiz-adv-x="411" d="M45 502v24l266 406l43 -31l-227 -387l229 -393l-43 -31z" />
<glyph unicode="&#x203a;" horiz-adv-x="415" d="M57 121l228 393l-226 387l43 31l267 -406v-24l-269 -412z" />
<glyph unicode="&#x205f;" horiz-adv-x="472" />
<glyph unicode="&#x20ac;" horiz-adv-x="1056" d="M100 557v59h150l-2 91q0 90 4 131h-152v59h154q22 273 123 407t305 134q148 0 266 -37l-12 -64q-111 25 -258 25q-155 -3 -234 -117.5t-100 -347.5h451l-13 -59h-440q-4 -41 -4 -131l2 -91h377l-12 -59h-363q15 -256 94 -380.5t242 -125.5q155 0 272 27l13 -64 q-119 -39 -281 -39q-211 0 -311.5 143t-118.5 439h-152z" />
<glyph unicode="&#x2122;" horiz-adv-x="1566" d="M121 1370v55h518v-55h-227v-723h-66v723h-225zM729 647l27 748q3 30 28 30h74q23 0 29 -22l155 -522q6 -28 29 -107h23q6 27 28 109l154 520q6 22 27 22h77q26 0 29 -30l25 -748h-62l-26 725h-23l-184 -624q-3 -23 -27 -23h-59q-22 0 -29 23l-186 624h-21l-26 -725h-62z " />
<glyph unicode="&#x25fc;" horiz-adv-x="983" d="M0 0v983h983v-983h-983z" />
<glyph unicode="&#xfb03;" horiz-adv-x="1456" d="M51 918v59l139 10v162q0 139 52.5 208.5t165.5 69.5q103 0 198 -10l-6 -61h-162q-91 0 -127.5 -46.5t-36.5 -164.5v-158h435v195q0 143 50 212.5t167 69.5q125 0 194 -10v-61h-164q-91 0 -127 -48t-36 -169v-189h514v-987h-84v915h-430v-915h-84v915l-435 3v-918h-84v918 h-139zM1214 1243v123q0 33 31 33h39q29 0 29 -33v-123q0 -33 -29 -33h-39q-31 0 -31 33z" />
<glyph unicode="&#xfb04;" horiz-adv-x="1568" d="M51 918v59l146 10v162q0 140 51.5 209t165.5 69q104 0 196 -10l-4 -61h-164q-91 0 -126 -46t-35 -165v-158h434v195q0 143 50 212.5t167 69.5q67 0 207.5 -4.5t193.5 -11.5v-1237q0 -76 31.5 -116t89.5 -40h88l10 -53q-43 -16 -122 -16q-84 0 -132.5 56.5t-48.5 158.5 v1194h-288q-89 1 -125.5 -48t-36.5 -171v-189h270v-69h-270v-918h-84v918h-434v-918h-84v918h-146z" />
</font>
</defs>
</svg>
