<?xml version="1.0" standalone="no"?>
<!DOCTYPE svg PUBLIC "-//W3C//DTD SVG 1.1//EN" "http://www.w3.org/Graphics/SVG/1.1/DTD/svg11.dtd" >
<svg xmlns="http://www.w3.org/2000/svg">
<metadata></metadata>
<defs>
<font id="exo_2black_expanded" horiz-adv-x="1798" >
<font-face units-per-em="2048" ascent="1638" descent="-410" />
<missing-glyph horiz-adv-x="565" />
<glyph unicode="&#xfb01;" horiz-adv-x="1855" d="M25 748v272l227 10v113q0 76 24.5 136.5t77.5 108t145.5 73.5t219.5 26q220 0 391 -33l6 -287h-215q-82 0 -111.5 -20t-29.5 -74v-43h473v-282h-473v-748h-508v748h-227zM1243 0v1030h510v-1030h-510zM1243 1290v103q0 145 148 145h215q147 0 147 -145v-103 q0 -145 -147 -145h-215q-148 0 -148 145z" />
<glyph unicode="&#xfb02;" horiz-adv-x="2011" d="M27 748v272l223 10v121q0 73 24.5 132t77.5 106t145 72.5t218 25.5q727 0 1038 -55v-1031q0 -33 28.5 -46t90.5 -13h80l57 -313q-50 -28 -160.5 -44t-195.5 -16q-190 0 -299 79.5t-109 219.5v908h-350q-79 0 -109 -20t-30 -75v-51h297v-282h-297v-748h-506v748h-223z" />
<glyph horiz-adv-x="0" />
<glyph horiz-adv-x="682" />
<glyph unicode=" "  horiz-adv-x="565" />
<glyph unicode="&#x09;" horiz-adv-x="565" />
<glyph unicode="&#xa0;" horiz-adv-x="565" />
<glyph unicode="!" horiz-adv-x="792" d="M145 979v444h502v-444l-51 -506h-399zM168 168v76q0 97 37 132.5t137 35.5h115q100 0 137 -35.5t37 -132.5v-76q0 -97 -37 -132.5t-137 -35.5h-115q-100 0 -137 35.5t-37 132.5z" />
<glyph unicode="&#x22;" horiz-adv-x="1001" d="M90 1413h359l-31 -473h-299zM555 1413h356l-28 -473h-301z" />
<glyph unicode="#" horiz-adv-x="1921" d="M51 358l58 283h313l37 164h-295l59 285h299l74 323h381l-74 -323h291l74 323h377l-74 -323h297l-58 -285h-303l-37 -164h285l-59 -283h-289l-82 -358h-377l82 358h-293l-82 -358h-379l82 358h-307zM801 641h293l36 164h-292z" />
<glyph unicode="$" horiz-adv-x="1550" d="M86 1016q0 229 148.5 325.5t506.5 102.5l25 168h369l-27 -185q179 -17 324 -63l-33 -320q-69 0 -281 1.5t-327 1.5q-68 0 -114.5 -3t-62.5 -6.5t-16 -7.5q0 -13 168 -65l324 -113q221 -85 308 -183t87 -255q0 -151 -56.5 -243.5t-190 -142t-361.5 -57.5l-25 -194h-367 l25 205q-199 17 -406 65l29 352q127 -2 278 -5.5t232.5 -5t124.5 -1.5q201 0 201 10q0 14 -140 52l-352 135q-215 87 -303 183t-88 249z" />
<glyph unicode="%" horiz-adv-x="2422" d="M57 1020q0 126 23.5 206t81.5 129t145 68t223 19q138 0 226 -19t147.5 -67.5t84 -129t24.5 -206.5t-24.5 -206.5t-84 -129t-147.5 -67.5t-226 -19q-136 0 -223 19t-145 68t-81.5 129t-23.5 206zM428 1020q0 -67 2.5 -101t15 -51.5t25.5 -19.5t47 -2h10h11q55 0 70 11 q24 19 27 110q1 22 1 53q0 34 -0.5 57.5t-4 43t-5.5 31.5t-9.5 20.5t-12.5 12.5t-18.5 6.5t-22 2.5h-28.5h-8q-56 0 -70 -8q-25 -15 -29 -93q-1 -28 -1 -73zM532 0l1043 1413h311l-1042 -1413h-312zM1413 391q0 126 24 206.5t82.5 129t145.5 67.5t223 19q137 0 224.5 -19 t146 -68t82.5 -129t24 -206t-24 -206t-82.5 -129t-146 -68t-224.5 -19q-136 0 -223 19t-145.5 67.5t-82.5 129t-24 206.5zM1784 391q0 -44 1 -72.5t6.5 -48.5t10 -29.5t18.5 -15t24 -6t34 -0.5h8h8q22 0 31.5 0.5t23.5 3t19 9.5t12.5 18.5t9.5 31t3.5 45.5t1.5 64t-1.5 64.5 t-3.5 46t-9 31t-12 19t-19 10t-22.5 3t-30.5 0.5h-11h-10q-24 0 -34 -0.5t-23 -6t-17.5 -15t-10 -30t-6.5 -49t-1 -73.5z" />
<glyph unicode="&#x26;" horiz-adv-x="2002" d="M88 360q0 168 85.5 261t279.5 106v12q-163 12 -235.5 89.5t-72.5 236.5q0 63 9 112t31 87.5t51.5 66.5t76.5 48t99.5 32.5t128 20t154 10t184.5 2.5q265 0 436 -31l-58 -321q-312 6 -393 6q-116 0 -153 -22.5t-37 -92.5q0 -66 35 -89.5t139 -23.5h346l25 164h430v-164 h249v-297h-249v-178q0 -32 22 -45.5t80 -13.5h139l58 -307q-67 -28 -181 -44t-198 -16q-230 0 -336 119q-112 -62 -241.5 -90.5t-334.5 -28.5q-305 0 -437 89.5t-132 301.5zM643 469q0 -79 31.5 -102t140.5 -21q37 1 168 4.5t188 3.5v219h-350q-113 0 -145.5 -19t-32.5 -85z " />
<glyph unicode="'" horiz-adv-x="538" d="M90 1413h359l-31 -473h-299z" />
<glyph unicode="(" horiz-adv-x="966" d="M66 639q0 423 198.5 660t624.5 319l59 -205q-107 -27 -184 -93.5t-122 -168.5t-66 -227.5t-21 -282.5q0 -663 393 -774l-59 -205q-426 83 -624.5 320t-198.5 657z" />
<glyph unicode=")" horiz-adv-x="966" d="M20 -133q107 30 183.5 98.5t121 171t65 226.5t20.5 278q0 158 -20.5 282.5t-65 227t-121 169t-183.5 93.5l58 205q426 -82 625.5 -319t199.5 -660q0 -420 -199.5 -657t-625.5 -320z" />
<glyph unicode="*" horiz-adv-x="1183" d="M61 1038l82 246l306 -106v-115l-60 -68zM201 786l297 263l-41 368h272l-39 -364l297 -265l-217 -153l-176 242l-174 -242zM737 1178l305 108l82 -248l-321 -43l-60 68z" />
<glyph unicode="+" horiz-adv-x="1384" d="M70 442v363h436v315h371v-315h438v-363h-438v-315h-373v315h-434z" />
<glyph unicode="," horiz-adv-x="634" d="M82 150l4 94q3 96 41.5 132t134.5 36h109q96 0 134 -36t38 -132v-131q0 -158 -39 -256t-125 -203l-199 57q43 109 47 289q-142 0 -145 150z" />
<glyph unicode="-" horiz-adv-x="997" d="M109 391v275h780v-275h-780z" />
<glyph unicode="." horiz-adv-x="649" d="M88 168v76q0 97 37 132.5t137 35.5h123q100 0 137 -35.5t37 -132.5v-76q0 -97 -37 -132.5t-137 -35.5h-123q-100 0 -137 35.5t-37 132.5z" />
<glyph unicode="/" horiz-adv-x="1519" d="M37 -168l1048 1581h400l-1049 -1581h-399z" />
<glyph unicode="0" horiz-adv-x="1693" d="M86 707q0 217 38.5 356.5t131 225t232 119.5t356.5 34q145 0 253.5 -14.5t195.5 -49.5t145 -89.5t96.5 -137.5t55 -191t16.5 -253q0 -217 -38.5 -356.5t-131 -225.5t-233 -120t-359.5 -34q-144 0 -251.5 14.5t-194 49.5t-144 90t-96 138t-55.5 191t-17 253zM602 707 q0 -68 2 -117.5t9.5 -89t14.5 -65.5t24 -44.5t31.5 -28t42.5 -15t51.5 -6.5t64.5 -1q34 0 55 0.5t46 3.5t39.5 8t31.5 15t26 23.5t19 34.5t14.5 46.5t9 61t6 78t1.5 96.5t-1.5 96t-6 77.5t-9 61.5t-14.5 46.5t-19 34t-26 23.5t-31 15t-39.5 8t-46.5 3.5t-55 0.5 q-33 0 -52.5 -0.5t-44 -3.5t-38.5 -8t-30.5 -15t-25 -23.5t-18.5 -34t-14.5 -46.5t-9 -61t-6 -77.5t-1.5 -96.5z" />
<glyph unicode="1" horiz-adv-x="1171" d="M10 1278l463 135h522v-1413h-522v831q0 118 21 197l-422 -53z" />
<glyph unicode="2" horiz-adv-x="1546" d="M86 0v217q0 51 3 79.5t19.5 63.5t49.5 60l401 328q82 68 170.5 132.5t123.5 91t34 38.5q0 13 -124 12h-21h-21h-25q-47 0 -551 4l-18 369q311 43 637 43q130 0 230 -10t187.5 -35t144 -66t88.5 -104.5t32 -149.5q0 -98 -62 -179t-251 -232l-369 -295q95 51 293 51h409 v-418h-1380z" />
<glyph unicode="3" horiz-adv-x="1490" d="M66 10l16 348q317 -8 510 -8q52 0 79 0.5t62.5 2t52 4t37.5 8.5t29 14t17 20.5t11.5 28t2.5 37.5q0 72 -43.5 94t-184.5 21l-348 -7v299h348q95 0 140.5 10.5t57.5 29t11 57.5q-2 56 -49 76t-180 20q-377 0 -514 4l-17 334q305 39 625 39q345 0 485 -72t140 -258 q0 -85 -12.5 -143.5t-44.5 -105t-90 -72.5t-146 -35v-8q191 -23 265 -102.5t77 -252.5q3 -155 -63 -246.5t-211.5 -133.5t-391.5 -42q-310 0 -671 39z" />
<glyph unicode="4" horiz-adv-x="1722" d="M49 477l449 936h489l-391 -782q-14 -19 0 -31t47 -12h330v332l84 213h395v-545h219v-266l-213 -48h-6v-274h-479v274h-723q-122 0 -183.5 62t-17.5 141z" />
<glyph unicode="5" horiz-adv-x="1460" d="M53 8l47 373q48 -1 225 -3.5t253 -2.5q119 0 179 8t85 26.5t30 55.5q6 45 -65 71t-236 29l-297 39q-69 9 -111.5 52t-39.5 100l49 657h1163l-14 -354h-754l-16 -94l313 -41q122 -11 217.5 -48t152.5 -85.5t94 -111t51 -119.5t14 -116q0 -108 -33 -190t-108.5 -146.5 t-211 -98.5t-327.5 -34q-224 0 -660 33z" />
<glyph unicode="6" horiz-adv-x="1570" d="M88 696q0 137 17.5 243t49 184.5t84.5 134t114.5 90.5t150.5 55t180.5 27.5t214.5 7.5q291 0 479 -49l-20 -293q-154 -2 -459 -2q-85 0 -136 -8.5t-88 -35t-53.5 -71.5t-23.5 -121q71 43 156.5 60.5t208.5 17.5q157 0 261.5 -24.5t166 -78t87 -130t25.5 -189.5 q0 -104 -11.5 -178.5t-42 -137.5t-80 -103t-127.5 -68t-183.5 -40t-249.5 -12q-143 0 -245 12t-186 44t-136.5 83t-88.5 133t-50.5 190.5t-14.5 258.5zM592 573q1 -63 4 -101.5t13.5 -69.5t22.5 -45.5t40.5 -24t58 -11.5t82.5 -2q49 0 81 2.5t55 12t35 20t18.5 35t8 47.5 t1.5 66q0 21 -1 36.5t-8 27.5t-11 19.5t-20 13t-25.5 8t-37.5 4t-44.5 1.5h-57.5q-99 0 -215 -39z" />
<glyph unicode="7" horiz-adv-x="1419" d="M41 1413h1155q109 0 168 -69t22 -158l-550 -1186h-514l438 836q49 123 92 176h-789z" />
<glyph unicode="8" horiz-adv-x="1646" d="M94 352q0 70 15 129.5t49.5 115t101.5 91t162 41.5v8q-71 6 -127 38.5t-88.5 80t-49 100.5t-16.5 105q0 84 17.5 143t62 107t122 76t195.5 42.5t285 14.5q170 0 289 -14.5t196.5 -42.5t121 -76t60.5 -106.5t17 -143.5q0 -52 -16.5 -105t-48.5 -100.5t-88 -80t-127 -38.5 v-8q76 -5 134.5 -30t94 -61t58.5 -85t31.5 -97.5t8.5 -103.5q0 -91 -20 -152t-67 -107.5t-132.5 -72.5t-208 -39t-303.5 -14q-221 -1 -359.5 17.5t-222 65.5t-115.5 118t-32 184zM584 442q0 -82 46 -105.5t195 -23.5q148 0 191 23t43 106q0 90 -43 117t-185 27 q-152 0 -199.5 -28t-47.5 -116zM612 991q0 -70 42 -90t177 -20q131 0 168 20t37 90q0 89 -38.5 112t-172.5 23q-133 0 -173 -23.5t-40 -111.5z" />
<glyph unicode="9" horiz-adv-x="1568" d="M74 899q0 120 20.5 205.5t67 151t127 104.5t197.5 58.5t280 19.5q152 0 256 -11.5t187 -44t132 -82t81 -134t43.5 -190t11.5 -259.5q0 -109 -8.5 -196t-25 -158.5t-45 -125.5t-63.5 -95.5t-86.5 -70t-107.5 -47.5t-132.5 -30t-156 -15t-184.5 -4q-301 0 -518 50l22 294 h494q164 0 228 51t79 189q-73 -45 -159.5 -63.5t-209.5 -18.5q-151 0 -256 28.5t-164 85t-84.5 131t-25.5 177.5zM563 911q0 -17 1 -30t4.5 -24t6 -18.5t11 -13.5t13.5 -10t20 -7t23.5 -4t30 -2t34.5 -1h43h12q101 0 217 41q-1 61 -4.5 100t-14 69t-23 45t-39.5 24.5 t-56.5 11.5t-79.5 2q-48 0 -79 -2.5t-54 -12t-35.5 -20.5t-19.5 -34.5t-9 -47.5t-2 -66z" />
<glyph unicode=":" horiz-adv-x="667" d="M74 170v78q0 96 37.5 132t136.5 36h125q99 0 136.5 -36t37.5 -132v-78q0 -97 -37 -132.5t-137 -35.5h-125q-100 0 -137 35.5t-37 132.5zM74 713v78q0 95 37 130t137 35h125q100 0 137 -35t37 -130v-78q0 -97 -37 -132.5t-137 -35.5h-125q-100 0 -137 35.5t-37 132.5z" />
<glyph unicode=";" horiz-adv-x="686" d="M88 150l4 94q4 96 42 132t134 36h109q96 0 134 -36t38 -132v-131q0 -158 -39 -256t-125 -203l-199 57q43 109 47 289q-142 0 -145 150zM94 713v78q0 95 37 130t137 35h125q100 0 137 -35t37 -130v-78q0 -97 -37 -132.5t-137 -35.5h-125q-100 0 -137 35.5t-37 132.5z" />
<glyph unicode="&#x3c;" horiz-adv-x="1323" d="M70 436v377l1147 313v-381l-723 -122l723 -123v-381z" />
<glyph unicode="=" horiz-adv-x="1488" d="M113 231v340h1265v-340h-1265zM113 676v340h1265v-340h-1265z" />
<glyph unicode="&#x3e;" horiz-adv-x="1318" d="M106 119v381l717 123l-717 122v381l1143 -313v-377z" />
<glyph unicode="?" horiz-adv-x="1384" d="M57 1397q24 4 83.5 14t82.5 13.5t74.5 11t88 10t93.5 6.5t120 5t140 1q302 0 448 -77.5t146 -239.5q0 -60 -24 -112t-63.5 -92t-87.5 -78t-98 -77.5t-93 -82t-74.5 -101t-40.5 -125.5h-403q-5 78 16 151.5t57.5 126.5t81.5 102t85 81t70.5 60t35.5 42q5 12 -2 19 t-30.5 11t-57.5 5.5t-89 1.5q-176 0 -544 4zM418 168v76q0 97 37 132.5t137 35.5h115q100 0 138 -36t38 -132v-76q0 -96 -38 -132t-138 -36h-115q-100 0 -137 35.5t-37 132.5z" />
<glyph unicode="@" horiz-adv-x="2052" d="M98 555q0 127 5 212.5t23 165.5t44.5 128.5t78.5 91.5t114.5 64t163 37.5t215 21t278.5 4.5h422q256 0 381 -93.5t125 -318.5v-583h-373l-37 125q-162 -154 -428 -154q-172 0 -287.5 70t-115.5 194v90q0 116 98 183t274 67h402v14q0 41 -32.5 60.5t-113.5 19.5h-315 q-221 -2 -283 -13q-96 -17 -132 -76q-38 -63 -41 -242q-1 -31 -1 -68q0 -207 30 -281q30 -72 112 -96q71 -20 279 -20h73h94h799v-291q-515 -39 -799 -39q-187 0 -317.5 5t-245.5 21.5t-186.5 37.5t-131 64t-89.5 91.5t-51 128.5t-26.5 166t-5.5 213zM1159 586 q0 -8 11 -16.5t35.5 -15.5t56.5 -7q87 0 219 20v101l-226 -11q-96 -5 -96 -43v-28z" />
<glyph unicode="A" d="M-12 0l493 1282q17 60 65.5 95.5t112.5 35.5h480q64 0 112.5 -35.5t65.5 -95.5l493 -1282h-534l-98 272h-560l-96 -272h-534zM741 618h312l-84 240q-37 99 -43 176h-56q-6 -77 -43 -176z" />
<glyph unicode="B" horiz-adv-x="1699" d="M129 0v1413q276 17 760 17q156 0 264 -10.5t190.5 -35t130 -68t70.5 -105.5t23 -150q0 -155 -77 -232.5t-251 -89.5v-12q209 -13 299 -106t90 -269q0 -87 -25 -150t-73 -105.5t-128.5 -67t-182 -35t-242.5 -10.5q-560 0 -848 16zM641 317h242q134 0 177.5 27t43.5 113 q0 84 -43 108.5t-180 24.5h-240v-273zM641 874h236q113 0 151.5 22.5t38.5 90.5t-40 88.5t-165 20.5l-221 2v-224z" />
<glyph unicode="C" horiz-adv-x="1556" d="M84 707q0 273 80 431t255.5 229t477.5 71q200 0 322.5 -13.5t265.5 -46.5l-39 -366q-81 -1 -158 -1t-189 0.5t-202 0.5q-81 0 -128.5 -12t-79 -46.5t-43 -92t-11.5 -154.5t11.5 -154.5t43 -92.5t79.5 -47t128 -12q373 0 588 15l39 -369q-135 -39 -277 -55.5t-350 -16.5 q-227 0 -379 38t-250.5 126t-141 225.5t-42.5 342.5z" />
<glyph unicode="D" horiz-adv-x="1806" d="M129 0v1413q481 21 764 21q158 0 274.5 -13.5t213 -46.5t159 -86t106 -135t62 -190.5t18.5 -255.5t-18.5 -255.5t-62 -190.5t-106 -135t-159 -86t-213 -46.5t-274.5 -13.5q-389 0 -764 20zM653 338q74 -2 240 -2q68 0 112.5 9.5t78.5 32.5t52 66.5t26.5 106t8.5 156.5 q0 118 -12 187.5t-46 111t-84 55.5t-136 14h-240v-737z" />
<glyph unicode="E" horiz-adv-x="1523" d="M119 330v753q2 150 120 245t308 95q220 0 329 -1t287.5 -8t298.5 -21l-22 -353h-686q-52 0 -81.5 -17.5t-29.5 -41.5v-100h698v-328h-698v-121q0 -22 29.5 -39.5t81.5 -17.5h686l22 -355q-120 -14 -298.5 -21t-287.5 -8t-329 -1q-191 0 -308.5 95t-119.5 245z" />
<glyph unicode="F" horiz-adv-x="1466" d="M123 0v1087q0 147 121.5 241.5t314.5 94.5q212 0 318 -1t278.5 -8.5t286.5 -22.5l-27 -351h-643q-60 0 -91.5 -17.5t-31.5 -41.5v-129h670v-328h-670v-524h-526z" />
<glyph unicode="G" horiz-adv-x="1716" d="M84 705q0 204 45 341.5t148 227t264.5 129t400.5 39.5q364 0 617 -64l-41 -362h-568q-181 0 -248 -66t-67 -241q0 -97 11 -155t41 -92.5t75 -46.5t121 -12q141 0 243 -6v416h504v-813h-385l-47 147q-77 -72 -211 -124t-307 -52q-212 0 -340 70t-192 231.5t-64 432.5z" />
<glyph unicode="H" horiz-adv-x="1826" d="M129 0v1413h524v-491h521v491h524v-1413h-524v575h-521v-575h-524z" />
<glyph unicode="I" horiz-adv-x="780" d="M129 0v1413h522v-1413h-522z" />
<glyph unicode="J" horiz-adv-x="1011" d="M29 29l57 313h123q83 0 120.5 11.5t37.5 39.5v1020h520v-1171q0 -129 -122.5 -201t-338.5 -72q-99 0 -219 15.5t-178 44.5z" />
<glyph unicode="K" horiz-adv-x="1734" d="M129 0v1413h524v-336q0 -102 -22 -186h139l371 522h579l-385 -547q-44 -60 -80 -92.5t-75 -38.5v-10q39 -6 88.5 -48.5t87.5 -96.5l391 -580h-598l-379 573h-135q18 -68 18 -124v-449h-524z" />
<glyph unicode="L" horiz-adv-x="1429" d="M123 322v1091h524v-954q0 -24 31 -42t90 -18h618l25 -376q-121 -15 -281 -23t-266 -9t-297 -1q-214 0 -329 90t-115 242z" />
<glyph unicode="M" horiz-adv-x="2461" d="M102 0l64 1241q6 172 188 172h469q171 0 201 -156l156 -491q10 -30 15.5 -66t9.5 -82t7 -69h29q2 14 8 66.5t12 86t15 64.5l147 491q35 156 207 156h475q181 0 187 -172l67 -1241h-479l-57 1038h-43l-201 -645q-24 -77 -72.5 -115t-132.5 -38h-295q-81 0 -130.5 38 t-74.5 115l-202 645h-41l-49 -1038h-480z" />
<glyph unicode="N" horiz-adv-x="1906" d="M129 0v1239q0 85 47 129.5t135 44.5h277q26 0 48 -6t36 -12t32.5 -24.5t26.5 -27.5t29.5 -37.5t30.5 -39.5l366 -453q71 -89 139 -221h21q-25 146 -25 239l-2 582h490v-1239q0 -85 -47 -129.5t-136 -44.5h-272q-27 0 -49.5 6t-37 12t-33 23.5t-26.5 27t-29.5 38 t-31.5 40.5l-383 474q-75 93 -121 227h-18q25 -150 25 -248v-600h-492z" />
<glyph unicode="O" horiz-adv-x="1830" d="M84 707q0 149 18.5 259.5t62 193t106.5 136t159.5 86.5t212.5 46.5t275 13.5t275.5 -13.5t213 -46.5t159.5 -86.5t106.5 -136t62 -193t18.5 -259.5t-18.5 -259.5t-62 -193.5t-106.5 -136.5t-159.5 -86.5t-213 -46.5t-275.5 -13.5t-275 13.5t-212.5 46.5t-159.5 86.5 t-106.5 136.5t-62 193.5t-18.5 259.5zM635 707q0 -94 8.5 -156t27 -105.5t53 -66t80 -32t114.5 -9.5q86 0 137 14.5t84.5 56t46 111.5t12.5 187q0 94 -8.5 156t-26.5 105t-52.5 65.5t-79 32t-113.5 9.5q-87 0 -138 -14t-85.5 -56t-47 -111.5t-12.5 -186.5z" />
<glyph unicode="P" horiz-adv-x="1654" d="M129 0v1413q278 21 750 21q144 0 249.5 -9.5t189 -32.5t137.5 -59t89.5 -92t50.5 -127.5t15 -169.5q0 -115 -22.5 -195.5t-68.5 -137.5t-125.5 -90t-185.5 -47.5t-256 -14.5q-145 0 -299 16v-475h-524zM653 807h215q130 0 173.5 27t43.5 110q0 86 -43.5 113.5 t-173.5 27.5h-215v-278z" />
<glyph unicode="Q" horiz-adv-x="1830" d="M84 707q0 149 18.5 259.5t62 193t106 136t159 86.5t213 46.5t275.5 13.5t275.5 -13.5t213 -46.5t159 -86.5t105.5 -136t61.5 -193t18.5 -259.5t-18.5 -259.5t-61.5 -193.5t-105.5 -136.5t-159 -86.5t-213 -46.5t-275.5 -13.5t-275.5 13.5t-213 46.5t-159.5 86.5 t-106 136.5t-61.5 193.5t-18.5 259.5zM635 707q0 -94 8.5 -156t27 -105.5t53 -66t80 -32t114.5 -9.5q86 0 137 14.5t84.5 56t46 111.5t12.5 187q0 94 -8.5 156t-26.5 105t-52.5 65.5t-79 32t-113.5 9.5q-87 0 -138 -14t-85.5 -56t-47 -111.5t-12.5 -186.5zM651 -276l117 231 q122 -38 276.5 -68.5t259.5 -46t320 -43.5l-137 -395q-505 128 -836 322z" />
<glyph unicode="R" horiz-adv-x="1736" d="M129 0v1413q278 21 754 21q160 0 277 -13.5t207.5 -44t145.5 -81t83 -123.5t28 -173q0 -63 -18.5 -115.5t-58.5 -99t-113 -76.5t-174 -38v-13q240 -19 288 -225l148 -432h-549l-127 414q-17 52 -53 69t-115 17l-207 2v-502h-516zM645 848h225q136 0 183 23.5t47 95.5 q0 71 -47.5 94.5t-182.5 23.5h-225v-237z" />
<glyph unicode="S" horiz-adv-x="1570" d="M78 1016q0 237 164.5 332.5t560.5 95.5q386 0 647 -80l-31 -320q-73 0 -290.5 1.5t-331.5 1.5q-69 0 -117 -3t-65 -7t-17 -7q0 -13 168 -65l336 -113q226 -85 314.5 -183t88.5 -255q0 -162 -67.5 -257t-227 -141.5t-434.5 -46.5q-338 0 -682 78l33 354q570 -10 647 -10 q207 0 207 6q0 15 -139 52l-363 135q-222 87 -311.5 182.5t-89.5 249.5z" />
<glyph unicode="T" horiz-adv-x="1628" d="M29 1042v371h1570v-371h-524v-1042h-522v1042h-524z" />
<glyph unicode="U" horiz-adv-x="1804" d="M117 594v819h524v-819q0 -81 12 -129.5t44 -77.5t79.5 -39t128.5 -10q78 0 125 10t79 39t44 78t12 129v819h525v-819q0 -175 -39.5 -292t-131 -192t-233.5 -107t-354 -32q-229 0 -381 32t-250.5 107t-141 192t-42.5 292z" />
<glyph unicode="V" horiz-adv-x="1753" d="M2 1413h535l266 -870q20 -56 41 -164h67q11 68 37 164l269 870h534l-461 -1278q-15 -62 -64 -98.5t-118 -36.5h-463q-68 0 -117.5 37t-62.5 98z" />
<glyph unicode="W" horiz-adv-x="2631" d="M53 1413h525l112 -811q17 -105 17 -250h45q4 23 11.5 76t14.5 97t15 79l143 662q8 66 57.5 106.5t122.5 40.5h404q70 0 118.5 -40.5t57.5 -106.5l145 -666q7 -33 13.5 -74.5t14 -96t11.5 -77.5h47q4 167 17 246l112 815h527l-244 -1278q-12 -61 -64 -98t-121 -37h-464 q-69 0 -121.5 37t-59.5 96l-145 711q-14 55 -23 221h-47q-2 -20 -6.5 -69.5t-9 -85.5t-10.5 -68l-142 -709q-7 -59 -60 -96t-122 -37h-467q-70 0 -121 37t-61 98z" />
<glyph unicode="X" horiz-adv-x="1769" d="M-2 0l459 719l-420 694h532l312 -557h4l311 557h537l-424 -694l460 -719h-540l-346 590l-346 -590h-539z" />
<glyph unicode="Y" horiz-adv-x="1703" d="M-18 1413h550l244 -463q17 -30 27 -63t20 -83t13 -63h32q4 17 13 63.5t19 82t26 65.5l243 461h549l-604 -997v-416h-524v408z" />
<glyph unicode="Z" horiz-adv-x="1562" d="M76 0v346l755 721h-731v346h1366v-346l-753 -721h778v-346h-1415z" />
<glyph unicode="[" horiz-adv-x="913" d="M147 -106v1447q0 104 69.5 168t180.5 64h457v-297h-178q-23 0 -38 -13.5t-15 -35.5v-1219q0 -22 15 -35.5t38 -13.5h178v-297h-457q-121 0 -185.5 50.5t-64.5 181.5z" />
<glyph unicode="\" horiz-adv-x="1521" d="M37 1413h401l1049 -1581h-402z" />
<glyph unicode="]" horiz-adv-x="913" d="M59 -41h177q26 0 40.5 13.5t14.5 35.5v1219q0 22 -14.5 35.5t-40.5 13.5h-177v297h457q111 0 180.5 -64t69.5 -168v-1447q0 -104 -69.5 -168t-180.5 -64h-457v297z" />
<glyph unicode="^" horiz-adv-x="1271" d="M66 860l389 504h366l381 -504l-196 -96l-357 313h-22l-367 -313z" />
<glyph unicode="_" horiz-adv-x="1198" d="M0 0h1198v-274h-1198v274z" />
<glyph unicode="`" horiz-adv-x="976" d="M74 1239l205 301l593 -309l-143 -197z" />
<glyph unicode="a" horiz-adv-x="1503" d="M49 260v102q0 125 115.5 197t314.5 72h428q-6 40 -46 59t-132 19q-305 0 -565 -7l-45 306q143 22 363 37.5t368 15.5q142 0 243.5 -22t175.5 -72.5t110 -137t36 -211.5v-618h-401l-56 164q-183 -195 -456 -195q-127 0 -227.5 31.5t-163 98.5t-62.5 161zM545 334 q0 -17 32 -30t91 -13q94 0 239 69v52h-256h-8q-48 0 -72 -12q-26 -13 -26 -35v-31z" />
<glyph unicode="b" horiz-adv-x="1587" d="M106 66v1368h506l6 -267v-19q0 -133 -40 -249q239 162 444 162q266 0 382 -124.5t116 -406.5q0 -555 -695 -555q-177 0 -395.5 23t-323.5 68zM612 305q95 -11 170 -11q17 0 33 1q73 4 108.5 21t53.5 65.5t18 144.5q0 60 -6.5 92.5t-28.5 52t-54.5 24.5t-94.5 5 q-46 0 -112 -4.5t-87 -5.5v-385z" />
<glyph unicode="c" horiz-adv-x="1368" d="M68 518q0 201 68 318.5t219 171t411 53.5q333 0 532 -84l-51 -303q-164 -2 -397 -2q-145 0 -197.5 -31t-52.5 -123q0 -95 52.5 -126.5t197.5 -31.5q246 0 422 15l47 -305q-209 -95 -559 -95q-258 0 -407.5 53.5t-217 171t-67.5 318.5z" />
<glyph unicode="d" horiz-adv-x="1593" d="M72 530q0 157 32 262t100 163.5t158 82t220 23.5q255 0 405 -100q-10 130 -10 243v230h510v-1434h-406l-41 174q-150 -199 -491 -199q-250 0 -363.5 141t-113.5 414zM596 535q0 -40 3.5 -68.5t13.5 -47.5t21 -30t32.5 -16t41 -6.5t52.5 -1.5q35 0 68 2.5t49.5 4.5t53 7.5 t46.5 7.5v336q-4 1 -24.5 6t-27.5 6.5t-25.5 5.5t-30 5.5t-29 3.5t-34 3t-34.5 1q-54 0 -82 -5.5t-52.5 -27.5t-33 -66t-8.5 -120z" />
<glyph unicode="e" horiz-adv-x="1505" d="M59 504q0 304 165.5 430.5t559.5 126.5q239 0 388 -42.5t215 -123t67 -205.5v-5q0 -142 -104 -201q-106 -60 -367 -60h-379q26 -40 84 -58t162 -18q277 0 524 23l43 -293q-229 -103 -624 -103q-199 0 -341.5 35t-228 104t-125 165t-39.5 225zM580 637h260h26q16 -1 22 -1 h4q5 0 12 1q10 1 13 2t8.5 4.5t6.5 8t3.5 12t2.5 16.5v25q0 34 -26 42q-27 9 -113 9q-29 1 -52 1q-29 1 -48 -1q-35 -2 -63 -15t-39.5 -37t-16.5 -67z" />
<glyph unicode="f" horiz-adv-x="1120" d="M25 748v272l227 10v113q0 76 25 136.5t79 108t147.5 73.5t221.5 26q94 0 236 -8.5t229 -24.5l-47 -287h-238q-82 0 -111.5 -20t-29.5 -74v-43h330v-282h-330v-748h-512v748h-227z" />
<glyph unicode="g" horiz-adv-x="1579" d="M29 -76q0 74 44 127.5t146 91.5q-46 50 -49 115q-1 5 -1 11q0 58 34 109q37 55 102 79q-115 35 -166 102t-51 178q0 120 64 189.5t208.5 102t393.5 32.5q233 0 385 -31h428l-25 -170l-143 -22q12 -43 12 -101q0 -123 -62.5 -192.5t-204.5 -101t-392 -31.5q-112 0 -203 6 q-8 -7 -11.5 -16.5t-0.5 -20t12 -20t27.5 -16t44.5 -7.5l481 -14q216 -10 313.5 -90.5t97.5 -241.5q0 -77 -17 -132t-58 -94.5t-96 -64t-144 -38t-187.5 -18.5t-240.5 -5q-182 0 -309.5 10.5t-212 30.5t-132.5 55.5t-67.5 79.5t-19.5 108zM506 4q0 -16 21 -25t76.5 -13.5 t158.5 -4.5q110 0 170 3t81 9t21 17q0 29 -40 36.5t-169 12.5l-290 10q-29 -15 -29 -45zM557 737q0 -44 39.5 -57.5t155.5 -13.5q115 0 152.5 13.5t37.5 57.5q0 41 -38.5 54.5t-151.5 13.5q-115 0 -155 -13.5t-40 -54.5z" />
<glyph unicode="h" horiz-adv-x="1593" d="M109 0v1434h507l5 -283q0 -119 -31 -258q248 168 516 168q189 0 287 -74t98 -217v-770h-506v612q0 18 -22 25.5t-76 7.5q-23 0 -71.5 2t-97 2t-102.5 -4v-645h-507z" />
<glyph unicode="i" horiz-adv-x="718" d="M104 1264v102q0 145 148 145h217q147 0 147 -145v-102q0 -146 -147 -146h-217q-148 0 -148 146zM106 0v1030h506v-1030h-506z" />
<glyph unicode="j" horiz-adv-x="770" d="M-31 -166q96 80 135 155t39 165v876h508v-876q0 -173 -109 -324t-290 -213zM135 1290v103q0 145 148 145h221q73 0 108 -35.5t35 -109.5v-103q0 -74 -35 -109.5t-108 -35.5h-221q-148 0 -148 145z" />
<glyph unicode="k" horiz-adv-x="1574" d="M109 0v1434h507l2 -529q0 -109 -20 -209h113l252 334h577l-246 -328q-83 -104 -141 -137v-8q48 -25 141 -151l293 -406h-579l-301 430h-107q16 -85 16 -149v-281h-507z" />
<glyph unicode="l" horiz-adv-x="892" d="M111 260v1174h507l-2 -1041q0 -33 33 -46t105 -13h92l59 -305q-52 -28 -165.5 -44t-200.5 -16q-199 0 -313.5 77.5t-114.5 213.5z" />
<glyph unicode="m" horiz-adv-x="2310" d="M109 0v1030h403l37 -147q120 93 232 135.5t253 42.5q265 0 342 -158q110 81 218 119.5t239 38.5q186 0 281.5 -74t95.5 -217v-770h-504v612q-2 19 -22.5 26t-79.5 7q-12 0 -48 1q-24 1 -48 1q-12 -1 -23 -1q-35 0 -80 -3v-643h-490v612q2 17 -22.5 25t-79.5 8 q-17 0 -50 1t-69 1t-80 -2v-645h-505z" />
<glyph unicode="n" horiz-adv-x="1570" d="M96 0v1030h406l41 -149q256 180 551 180q189 0 287 -74t98 -217v-770h-506v612q0 18 -22.5 25.5t-78.5 7.5q-195 0 -268 -6l-2 -639h-506z" />
<glyph unicode="o" horiz-adv-x="1568" d="M61 512q0 304 163 426.5t560 122.5q268 0 423.5 -53t226.5 -172t71 -324q0 -200 -71 -316t-226.5 -168.5t-423.5 -52.5q-397 0 -560 120.5t-163 416.5zM594 512q0 -95 16 -139t53.5 -59t120.5 -15q50 0 79.5 4.5t53.5 16.5t35.5 37t17 61t5.5 94q0 75 -7.5 117.5 t-31 67.5t-57 32.5t-95.5 7.5t-96 -7.5t-57 -32.5t-30 -67t-7 -118z" />
<glyph unicode="p" horiz-adv-x="1601" d="M109 -358v1388h411l43 -133q74 66 213.5 112t286.5 46q245 0 357 -141t112 -412q0 -128 -21.5 -221t-61 -153t-104 -95.5t-140.5 -49.5t-181 -14q-264 0 -418 111q10 -142 10 -229v-27v-182h-507zM616 309q11 -2 46.5 -10.5t53.5 -12t50.5 -7t64.5 -3.5q44 0 69.5 3.5 t49.5 15.5t35.5 36t18 64t6.5 101q0 53 -3.5 89.5t-13.5 60t-20 37t-32 19.5t-39.5 7.5t-51.5 1.5q-47 0 -120 -5q-62 -4 -100 -4h-14v-393z" />
<glyph unicode="q" horiz-adv-x="1581" d="M61 506q0 70 8 128t28.5 116.5t53.5 104t86.5 85t125 65.5t170.5 41t221 15q178 0 395.5 -22.5t325.5 -67.5v-1329h-508l-2 252v20q0 144 41 262q-232 -201 -455 -201q-490 0 -490 531zM584 514q0 -37 2.5 -61t11 -42t18.5 -27t33 -14.5t45.5 -6.5t63.5 -1q49 0 124.5 7 t84.5 8v352q-101 11 -167 11q-22 0 -40 -1q-73 -3 -108 -20.5t-51.5 -64t-16.5 -140.5z" />
<glyph unicode="r" horiz-adv-x="1150" d="M109 0v1030h397l43 -147q246 178 522 178h76l-45 -449h-131q-21 0 -89 1q-45 1 -88 1h-42q-62 0 -136 -4v-610h-507z" />
<glyph unicode="s" horiz-adv-x="1411" d="M55 756q0 302 598 305q157 0 346.5 -14t311.5 -35l-33 -277q-178 -2 -518 -2q-206 0 -211 -2q-2 -1 -2 -2q0 -2 11.5 -3t53.5 -7.5t97 -18.5l313 -55q178 -41 259 -113t81 -202q0 -197 -143.5 -275t-489.5 -78q-341 0 -655 48l32 274q148 4 467 4q73 0 172 -1h57h48 q22 2 22 9q0 2 -14 4t-60 10.5t-102 22.5l-303 58q-101 26 -169 61.5t-104 81t-50.5 94.5t-14.5 113z" />
<glyph unicode="t" horiz-adv-x="1114" d="M20 748v272l230 8v264h510v-262h332v-282h-332v-355q0 -31 27.5 -45t93.5 -14h147l57 -305q-75 -28 -201.5 -44t-224.5 -16q-189 0 -298 76t-109 209v494h-232z" />
<glyph unicode="u" horiz-adv-x="1572" d="M100 260v770h508v-610q0 -37 107 -37q10 0 63 -1h40h52q39 2 86 7v641h510v-1030h-401l-41 147q-260 -176 -535 -176q-192 0 -290.5 73t-98.5 216z" />
<glyph unicode="v" horiz-adv-x="1566" d="M2 1030h537l184 -532q10 -27 17.5 -59.5t15.5 -76.5t12 -63h35q2 13 8 49t9.5 54.5t11 46.5t16.5 49l184 532h535l-406 -915q-15 -53 -58.5 -84t-103.5 -31h-432q-58 0 -100 31t-61 84z" />
<glyph unicode="w" horiz-adv-x="2299" d="M23 1030h507l119 -536q17 -68 25 -189h33q6 93 28 189l84 395q7 63 56 102t118 39h310q68 0 116 -39.5t58 -103.5l84 -393q16 -60 28 -189h31q1 8 10.5 80t18.5 109l118 536h508l-286 -907q-14 -56 -59.5 -89.5t-110.5 -33.5h-371q-67 0 -118 40.5t-58 102.5l-88 414 q-8 36 -13.5 103.5t-7.5 82.5h-33q-1 -13 -4 -45.5t-4.5 -49t-5.5 -43t-10 -48.5l-86 -414q-7 -63 -57 -103t-121 -40h-365q-63 0 -108.5 33.5t-59.5 89.5z" />
<glyph unicode="x" horiz-adv-x="1574" d="M2 0l391 524l-360 506h526l229 -346l230 346h524l-358 -506l389 -524h-529l-256 373l-258 -373h-528z" />
<glyph unicode="y" horiz-adv-x="1566" d="M0 1030h539l186 -522q17 -76 33 -213h24q15 42 36.5 125t23.5 88l182 522h541l-439 -981q-20 -55 -46.5 -106t-67.5 -106.5t-89 -100t-114 -82t-141 -57t-172 -19.5q-1 -1 -3 -1q-95 0 -200 24l-37 256q148 23 233 54t138 89h-60q-60 0 -103.5 30t-60.5 83z" />
<glyph unicode="z" horiz-adv-x="1400" d="M74 0v305l583 420h-567v305h1219v-305l-582 -420h598v-305h-1251z" />
<glyph unicode="{" horiz-adv-x="917" d="M57 522v299q79 18 96 28q28 18 31 74v23v322q0 83 38 148.5t118.5 111.5t206 58t301.5 -13v-299q-19 0 -42.5 0.5t-36.5 1t-29 0t-24.5 -1.5t-18 -3t-14 -6t-8.5 -10t-5.5 -14.5t-1.5 -19.5v-232q5 -140 -61 -219t-238 -98q88 -19 149.5 -50t95.5 -72t48.5 -86t15.5 -102 v-354q0 -15 2.5 -24.5t9.5 -15.5t15 -8t24.5 -2.5t31.5 0.5t43 2t52 1v-299q-176 -24 -301 -12.5t-205 57.5t-117.5 111.5t-37.5 148.5v439q0 29 -5.5 46.5t-24 30t-34 18t-56.5 16.5q-12 3 -18 5z" />
<glyph unicode="|" horiz-adv-x="663" d="M156 -346v1945h352v-1945h-352z" />
<glyph unicode="}" horiz-adv-x="919" d="M61 -39q25 0 53 -1t43.5 -2t32 -0.5t24.5 2.5t15.5 8t10 15.5t2.5 24.5v354q1 57 15.5 102t48 86t95 72t150.5 50q-172 19 -238 98t-61 219v232q0 11 -1.5 19.5t-5.5 14.5t-8.5 10t-14 6t-18 3t-24.5 1.5t-29 0t-36.5 -1t-42.5 -0.5v299q176 24 301 12.5t205 -57.5 t117.5 -111.5t37.5 -148.5v-322q0 -37 4.5 -57t18.5 -32.5t33 -18.5t56 -14l15 -3v-299q-83 -23 -101 -34q-36 -24 -36 -82v-439q0 -83 -37.5 -148.5t-117.5 -111.5t-205.5 -57.5t-301.5 12.5v299z" />
<glyph unicode="~" horiz-adv-x="1306" d="M109.5 581q9.5 70 43.5 115t81.5 66t105.5 20q59 0 173.5 -16.5t239.5 -39t140 -24.5q17 -2 29.5 -2t21.5 1t14.5 6t8.5 9t4 15t1.5 18t0.5 23h219q36 -182 -29.5 -277t-193.5 -92q-60 0 -175 17t-233.5 38t-148.5 25q-20 3 -33.5 3.5t-22.5 -4t-13 -7t-6.5 -15t-2.5 -19 v-27.5h-217q-17 97 -7.5 167z" />
<glyph unicode="&#xa1;" horiz-adv-x="757" d="M127 98l53 508h398l51 -508v-446h-502v446zM150 834v77q0 95 37 130.5t137 35.5h114q100 0 137 -35.5t37 -130.5v-77q0 -96 -37.5 -132t-136.5 -36h-114q-99 0 -136.5 36t-37.5 132z" />
<glyph unicode="&#xa2;" horiz-adv-x="1404" d="M72 709q0 276 132.5 399.5t452.5 140.5l23 164h346l-22 -174q180 -17 309 -70l-53 -274q-162 -4 -400 -4q-173 0 -230 -34.5t-57 -147.5t57.5 -148t229.5 -35q246 0 426 13l43 -277q-168 -78 -457 -92l-24 -170h-346l24 182q-246 33 -350 156t-104 371z" />
<glyph unicode="&#xa3;" horiz-adv-x="1558" d="M88 860h186l-20 176q-10 117 19.5 195t103.5 124.5t182.5 65.5t269.5 19q244 0 601 -21l-25 -356q-100 -2 -485 -2q-56 0 -93 -6.5t-50.5 -17.5t-8.5 -25l20 -152h426l-12 -227h-383q3 -37 -1 -68.5t-10.5 -53t-25 -43.5t-29.5 -33t-40 -28t-40.5 -22.5t-45.5 -22.5 q70 23 217 23h645v-385h-1393v385q127 48 171 107.5t34 140.5h-209z" />
<glyph unicode="&#xa4;" horiz-adv-x="1511" d="M80 408l172 135q-49 87 -49 178q0 107 61 199l-170 131l211 198l187 -147q118 53 264 53q144 0 270 -55l193 149l206 -198l-176 -136q58 -92 58 -194q0 -101 -60 -197l178 -135l-208 -199l-195 152q-126 -55 -266 -55q-139 0 -267 53l-184 -147zM492 723 q0 -65 78.5 -113.5t185.5 -48.5q105 0 183.5 48.5t78.5 113.5q0 67 -78 115.5t-184 48.5q-108 0 -186 -48.5t-78 -115.5z" />
<glyph unicode="&#xa5;" horiz-adv-x="1828" d="M47 1413h539l256 -459q9 -15 16.5 -32.5t13.5 -40t9 -37t8.5 -45t7.5 -41.5h41q24 145 55 198l252 457h539l-398 -655h195v-221h-1325v221h188zM256 240v221h1325v-221h-401v-240h-525v240h-399z" />
<glyph unicode="&#xa6;" horiz-adv-x="665" d="M158 -346v819h352v-819h-352zM158 780v819h352v-819h-352z" />
<glyph unicode="&#xa7;" horiz-adv-x="1460" d="M84 1081q0 84 26.5 146t76.5 103.5t130 66t178 35t230 10.5q350 0 618 -25l-32 -325q-59 3 -115 3t-146 -1.5t-169 -1.5q-137 0 -191.5 -5t-60.5 -22q-8 -21 26 -37.5t97 -30.5l321 -92q159 -62 231.5 -137t70.5 -171.5t-60 -221.5h-350q1 24 0.5 41t-5.5 33.5t-7.5 26 t-15.5 21.5t-19 17.5t-29.5 17t-35 16.5t-46.5 20t-55 24l-394 143q-35 10 -59 19t-60 26.5t-60 42t-47.5 59.5t-35.5 85.5t-12 113.5zM86.5 424q1.5 97 58.5 223h351q-4 -90 24 -120t139 -76q32 -13 50 -21l397 -145q25 -7 42 -13t44 -17.5t45.5 -24.5t42 -32t39 -44 t29.5 -56t21 -72t7 -89q0 -198 -156.5 -278.5t-486.5 -80.5q-352 0 -616 25l35 327q61 -3 113 -3.5t148.5 0.5t166.5 1q242 0 254 27q4 11 -2.5 20t-28.5 17.5t-38.5 13.5t-51.5 14l-326 95q-158 62 -230 137t-70.5 172z" />
<glyph unicode="&#xa8;" horiz-adv-x="1103" d="M121 1266v135q0 86 102 86h166q100 0 100 -86v-135q0 -86 -100 -86h-166q-102 0 -102 86zM618 1266v135q0 86 101 86h166q100 0 100 -86v-135q0 -86 -100 -86h-166q-101 0 -101 86z" />
<glyph unicode="&#xa9;" horiz-adv-x="2082" d="M74 707q0 210 128.5 379t349.5 262.5t490 93.5q201 0 380 -55t308.5 -151.5t205 -233.5t75.5 -295q0 -210 -128.5 -379t-350 -263t-490.5 -94t-490 94t-349.5 263t-128.5 379zM322 707q0 -145 97.5 -263t262 -183.5t360.5 -65.5q198 0 362.5 65.5t260.5 183t96 263.5 t-96 263.5t-260.5 183t-362.5 65.5q-196 0 -360.5 -65.5t-262 -183.5t-97.5 -263zM535 709q0 214 117 300.5t403 86.5q122 0 197 -8t169 -27l-26 -252q-58 -2 -342 -2q-90 0 -112.5 -15.5t-22.5 -82.5q0 -70 22 -84.5t113 -14.5q290 0 364 4l29 -249q-160 -46 -391 -46 q-286 0 -403 87t-117 303z" />
<glyph unicode="&#xaa;" horiz-adv-x="1136" d="M88 748v65q0 85 78 134.5t213 49.5h283q-4 20 -28 27.5t-73 7.5q-291 0 -389 -4l-35 219q100 15 251 26t257 11q196 0 290.5 -68.5t94.5 -236.5v-410h-291l-34 107q-125 -129 -314 -129q-129 0 -216 53.5t-87 147.5zM442 799q0 -4 8 -9.5t26.5 -9.5t43.5 -4q63 0 144 31 v43l-148 -10q-74 -6 -74 -27v-14z" />
<glyph unicode="&#xab;" horiz-adv-x="1409" d="M43 463v102l422 404l268 -162l-248 -293l246 -307l-264 -160zM647 463v102l422 404l268 -162l-247 -293l245 -307l-264 -160z" />
<glyph unicode="&#xac;" horiz-adv-x="1492" d="M104 473v334h1268v-522l-375 -2v190h-893z" />
<glyph unicode="&#xad;" horiz-adv-x="999" d="M84 391v275h782v-275h-782z" />
<glyph unicode="&#xae;" horiz-adv-x="1316" d="M66 989q0 124 79 228.5t216.5 165.5t300.5 61q161 0 297.5 -61t215 -165.5t78.5 -228.5q0 -125 -79 -230t-215 -166t-297 -61q-163 0 -300.5 61t-216.5 166t-79 230zM209 989q0 -89 61 -164.5t165.5 -119t226.5 -43.5q184 0 315 95.5t131 231.5q0 133 -131.5 228.5 t-314.5 95.5q-186 0 -319.5 -95.5t-133.5 -228.5zM397 801v401q84 6 275 6q148 0 213 -28t65 -99q0 -32 -32 -58.5t-103 -31.5v-4q21 -1 32.5 -2.5t29.5 -7.5t29.5 -20.5t17.5 -36.5l51 -119h-219l-37 112q-8 11 -18 13t-39 2h-58v-127h-207zM604 1042h64q43 0 57 4t14 15 q0 9 -12 10.5t-59 1.5h-64v-31z" />
<glyph unicode="&#xaf;" horiz-adv-x="1028" d="M96 1200v279h836v-279h-836z" />
<glyph unicode="&#xb0;" horiz-adv-x="858" d="M53 1151q0 122 110.5 206.5t266.5 84.5q154 0 263.5 -84.5t109.5 -206.5q0 -123 -109.5 -208t-263.5 -85q-155 0 -266 85t-111 208zM301 1151q0 -39 37 -65.5t92 -26.5q53 0 90 27t37 65t-38 65t-89 27q-55 0 -92 -26.5t-37 -65.5z" />
<glyph unicode="&#xb1;" horiz-adv-x="1460" d="M109 14v363h1245v-363h-1245zM109 629v360h436v209h370v-209h439v-360h-439v-205h-370v205h-436z" />
<glyph unicode="&#xb2;" horiz-adv-x="1114" d="M90 737v154q0 57 10.5 93t44.5 56l220 123q49 27 95.5 56t72.5 48t26 23q0 10 -96 13q-61 1 -166 1t-186 1l-11 272q191 22 418 22q85 0 148 -4t119 -13.5t93.5 -25.5t64.5 -41.5t39.5 -60.5t12.5 -82q0 -56 -50.5 -113t-127.5 -102l-217 -129q117 23 197 19l227 -7v-303 h-934z" />
<glyph unicode="&#xb3;" horiz-adv-x="1067" d="M84 743l10 263q73 -2 130 -2t113.5 1t90.5 1h59q76 -1 94.5 2.5t18.5 19.5q0 19 -12 23t-59 5q-34 0 -56 1l-231 6v211l231 10q33 1 74 -1q30 -1 37.5 1.5t7.5 15.5q0 14 -20.5 16.5t-104.5 2.5q-164 0 -348 8l-10 252q227 25 423 25q244 0 338.5 -43t94.5 -156 q0 -54 -8.5 -89t-31 -62.5t-64 -42.5t-107.5 -21v-4q140 -13 190.5 -59t50.5 -154q3 -141 -99.5 -197.5t-356.5 -56.5q-210 0 -455 24z" />
<glyph unicode="&#xb4;" horiz-adv-x="978" d="M94 1231l592 309l207 -301l-657 -205z" />
<glyph unicode="&#xb6;" horiz-adv-x="1593" d="M49 922q0 283 201.5 399.5t679.5 116.5q297 0 491 -35v-1403h-317v1151l-115 2v-1583h-319v842q-333 23 -477 141.5t-144 368.5z" />
<glyph unicode="&#xb7;" horiz-adv-x="663" d="M78 492v77q0 95 37.5 130.5t136.5 35.5h125q100 0 137 -35.5t37 -130.5v-77q0 -97 -37 -132.5t-137 -35.5h-125q-99 0 -136.5 36t-37.5 132z" />
<glyph unicode="&#xb8;" horiz-adv-x="673" d="M39 -510l59 174q115 0 153 11q65 19 73 87q1 14 -15 16q-4 0 -129 -1h-37l47 160q54 6 89.5 9t78 6t69 3.5t58 -1t49.5 -6.5t37.5 -13t30 -20t19 -28t11.5 -37t1 -47q-7 -121 -89.5 -199.5t-212 -105.5t-292.5 -8z" />
<glyph unicode="&#xb9;" horiz-adv-x="817" d="M25 1507l288 78h389v-848h-389v434q0 67 17 134l-262 -23z" />
<glyph unicode="&#xba;" horiz-adv-x="1148" d="M78 913q0 203 112 287t388 84q273 0 383 -84t110 -287q0 -200 -109.5 -280t-383.5 -80q-277 0 -388.5 80.5t-111.5 279.5zM461 913q0 -85 22 -108t95 -23q69 0 89.5 22.5t20.5 108.5q0 92 -20.5 116t-89.5 24q-73 0 -95 -24.5t-22 -115.5z" />
<glyph unicode="&#xbb;" horiz-adv-x="1433" d="M84 207l246 307l-246 293l268 162l420 -404v-102l-422 -416zM688 207l246 307l-246 293l268 162l420 -404v-102l-422 -416z" />
<glyph unicode="&#xbc;" horiz-adv-x="2455" d="M47 1335l279 78h385v-848h-385v434q0 78 12 134l-246 -23zM430 0l1057 1413h311l-1059 -1413h-309zM1331 276l281 572h346l-234 -459q-7 -10 -0.5 -12t29.5 -2h164v180l61 121h295v-301h125v-195l-125 -33v-147h-356v147h-457q-76 0 -119 41.5t-10 87.5z" />
<glyph unicode="&#xbd;" horiz-adv-x="2461" d="M47 1335l279 78h385v-848h-385v434q0 78 12 134l-246 -23zM422 0l1055 1413h311l-1057 -1413h-309zM1466 0v180q0 101 56 150l215 100q140 78 207 123q8 3 -12.5 3.5t-82.5 0.5q-160 0 -360 10l-10 273q187 22 409 22q102 0 173.5 -6t132 -22.5t96 -45t54.5 -73 t19 -107.5q0 -35 -47 -89t-127 -97l-250 -131q89 23 152 18l299 -6v-303h-924z" />
<glyph unicode="&#xbe;" horiz-adv-x="2654" d="M78 565l10 262q73 -2 129 -2t111 1t88 1q136 0 150 3q15 6 16 20q0 26 -13.5 30.5t-72.5 4.5h-35l-228 -4v217h228q20 0 49 -2q26 -2 39 0t16.5 6.5t3.5 19.5q0 13 -17 15t-99 4q-75 1 -201 4.5t-139 3.5l-11 252q215 24 422 24q239 0 330.5 -42.5t91.5 -155.5 q0 -108 -42 -156.5t-165 -58.5v-4q137 -13 186.5 -59t51.5 -154q0 -142 -100.5 -199t-352.5 -57q-220 0 -446 26zM641 0l1055 1413h313l-1059 -1413h-309zM1536 276l281 572h346l-234 -459q-6 -10 0.5 -12t32.5 -2h162v180l59 121h299v-301h119v-195l-119 -30v-150h-358v147 h-457q-79 0 -121.5 41t-9.5 88z" />
<glyph unicode="&#xbf;" horiz-adv-x="1374" d="M47 -72q0 60 24 112t63.5 92t87.5 78.5t98 78t93 82.5t74.5 101.5t40.5 125.5h404q6 -93 -24.5 -178.5t-80.5 -146t-101 -107.5t-92.5 -81.5t-47.5 -49.5q-5 -12 1.5 -19.5t31 -11.5t56.5 -5t89 -1q269 0 545 -6l14 -320q-24 -4 -83.5 -14t-82.5 -13.5t-74.5 -11t-88 -10 t-93.5 -6.5t-120 -5t-140 -1q-302 0 -448 77.5t-146 239.5zM498 825v78q0 95 39 130.5t139 35.5h112q100 0 137.5 -35.5t37.5 -130.5v-78q0 -95 -37.5 -131.5t-137.5 -36.5h-112q-100 0 -139 36.5t-39 131.5z" />
<glyph unicode="&#xc0;" d="M-12 0l493 1282q17 60 65.5 95.5t112.5 35.5h480q64 0 112.5 -35.5t65.5 -95.5l493 -1282h-534l-98 272h-560l-96 -272h-534zM340 1677l205 301l594 -309l-144 -196zM741 618h312l-84 240q-37 99 -43 176h-56q-6 -77 -43 -176z" />
<glyph unicode="&#xc1;" d="M-12 0l493 1282q17 60 65.5 95.5t112.5 35.5h480q64 0 112.5 -35.5t65.5 -95.5l493 -1282h-534l-98 272h-560l-96 -272h-534zM645 1669l592 309l207 -301l-658 -204zM741 618h312l-84 240q-37 99 -43 176h-56q-6 -77 -43 -176z" />
<glyph unicode="&#xc2;" d="M-12 0l493 1282q17 60 65.5 95.5t112.5 35.5h480q64 0 112.5 -35.5t65.5 -95.5l493 -1282h-534l-98 272h-560l-96 -272h-534zM354 1622l363 274h368l357 -294l-125 -156l-404 188h-20l-410 -188zM741 618h312l-84 240q-37 99 -43 176h-56q-6 -77 -43 -176z" />
<glyph unicode="&#xc3;" d="M-12 0l493 1282q17 60 65.5 95.5t112.5 35.5h480q64 0 112.5 -35.5t65.5 -95.5l493 -1282h-534l-98 272h-560l-96 -272h-534zM401.5 1702q11.5 72 47 118t83 67t101.5 18q106 -6 264.5 -43.5t177.5 -40.5q59 -8 71.5 6t12.5 67h213q35 -179 -31.5 -279.5t-193.5 -94.5 q-105 6 -261 42t-184 40q-57 7 -69 -5t-12 -59v-6h-213q-18 98 -6.5 170zM741 618h312l-84 240q-37 99 -43 176h-56q-6 -77 -43 -176z" />
<glyph unicode="&#xc4;" d="M-12 0l493 1282q17 60 65.5 95.5t112.5 35.5h480q64 0 112.5 -35.5t65.5 -95.5l493 -1282h-534l-98 272h-560l-96 -272h-534zM463 1649v135q0 86 102 86h166q100 0 100 -86v-135q0 -86 -100 -86h-166q-102 0 -102 86zM741 618h312l-84 240q-37 99 -43 176h-56 q-6 -77 -43 -176zM961 1649v135q0 86 100 86h166q100 0 100 -86v-135q0 -86 -100 -86h-166q-100 0 -100 86z" />
<glyph unicode="&#xc5;" d="M-12 0l493 1282q17 60 65.5 95.5t112.5 35.5h480q64 0 112.5 -35.5t65.5 -95.5l493 -1282h-534l-98 272h-560l-96 -272h-534zM565 1726q0 109 99.5 187t236.5 78q135 0 233.5 -78t98.5 -187q0 -112 -97.5 -189t-234.5 -77q-139 0 -237.5 77t-98.5 189zM741 618h312 l-84 240q-37 99 -43 176h-56q-6 -77 -43 -176zM780 1726q0 -34 35.5 -60t85.5 -26q47 0 82 26t35 60q0 31 -35.5 57.5t-81.5 26.5q-50 0 -85.5 -26t-35.5 -58z" />
<glyph unicode="&#xc6;" horiz-adv-x="2516" d="M-37 0l686 1069q42 77 87 130t113 97t160.5 69t222 38.5t304.5 13.5h120.5h124.5t107.5 -0.5t116.5 -1.5t103 -2.5t115.5 -4t104.5 -6.5t117 -9l-24 -344h-637q-49 0 -82 -16.5t-33 -41.5v-123h658v-301h-658v-143q0 -24 30 -41.5t85 -17.5h637l24 -345 q-127 -14 -299 -21t-275 -8t-315 -1q-163 0 -263 85.5t-111 225.5h-502l-180 -301h-537zM881 639h301v352q0 56 45 121h-33q-11 -11 -27 -29.5t-28.5 -31.5t-22.5 -19z" />
<glyph unicode="&#xc7;" horiz-adv-x="1556" d="M84 707q0 273 80 431t255.5 229t477.5 71q200 0 322.5 -13.5t265.5 -46.5l-39 -366q-81 -1 -158 -1t-189 0.5t-202 0.5q-81 0 -128.5 -12t-79 -46.5t-43 -92t-11.5 -154.5t11.5 -154.5t43 -92.5t79.5 -47t128 -12q373 0 588 15l39 -369q-135 -39 -277 -55.5t-350 -16.5 q-227 0 -379 38t-250.5 126t-141 225.5t-42.5 342.5zM524 -588l60 174q116 0 154 12q63 22 71 87q1 13 -11.5 15t-60.5 1q-61 -2 -108 -2l47 160q55 6 89.5 9t78 6.5t69.5 3.5t57.5 -1.5t49 -6.5t37.5 -12.5t30 -19.5t18.5 -28t11.5 -37t1 -47q-7 -121 -89 -199.5 t-212.5 -106t-292.5 -8.5z" />
<glyph unicode="&#xc8;" horiz-adv-x="1523" d="M119 330v753q2 150 120 245t308 95q220 0 329 -1t287.5 -8t298.5 -21l-22 -353h-686q-52 0 -81.5 -17.5t-29.5 -41.5v-100h698v-328h-698v-121q0 -22 29.5 -39.5t81.5 -17.5h686l22 -355q-120 -14 -298.5 -21t-287.5 -8t-329 -1q-191 0 -308.5 95t-119.5 245zM270 1665 l205 301l594 -309l-143 -197z" />
<glyph unicode="&#xc9;" horiz-adv-x="1523" d="M119 330v753q2 150 120 245t308 95q220 0 329 -1t287.5 -8t298.5 -21l-22 -353h-686q-52 0 -81.5 -17.5t-29.5 -41.5v-100h698v-328h-698v-121q0 -22 29.5 -39.5t81.5 -17.5h686l22 -355q-120 -14 -298.5 -21t-287.5 -8t-329 -1q-191 0 -308.5 95t-119.5 245zM575 1657 l592 309l207 -301l-657 -205z" />
<glyph unicode="&#xca;" horiz-adv-x="1523" d="M119 330v753q2 150 120 245t308 95q220 0 329 -1t287.5 -8t298.5 -21l-22 -353h-686q-52 0 -81.5 -17.5t-29.5 -41.5v-100h698v-328h-698v-121q0 -22 29.5 -39.5t81.5 -17.5h686l22 -355q-120 -14 -298.5 -21t-287.5 -8t-329 -1q-191 0 -308.5 95t-119.5 245zM285 1610 l362 274h369l356 -295l-125 -155l-403 188h-21l-409 -188z" />
<glyph unicode="&#xcb;" horiz-adv-x="1523" d="M119 330v753q2 150 120 245t308 95q220 0 329 -1t287.5 -8t298.5 -21l-22 -353h-686q-52 0 -81.5 -17.5t-29.5 -41.5v-100h698v-328h-698v-121q0 -22 29.5 -39.5t81.5 -17.5h686l22 -355q-120 -14 -298.5 -21t-287.5 -8t-329 -1q-191 0 -308.5 95t-119.5 245zM393 1636 v136q0 86 103 86h166q100 0 100 -86v-136q0 -86 -100 -86h-166q-103 0 -103 86zM891 1636v136q0 86 100 86h166q100 0 100 -86v-136q0 -86 -100 -86h-166q-100 0 -100 86z" />
<glyph unicode="&#xcc;" horiz-adv-x="780" d="M-168 1677l205 301l594 -309l-144 -196zM129 0v1413h522v-1413h-522z" />
<glyph unicode="&#xcd;" horiz-adv-x="780" d="M129 0v1413h522v-1413h-522zM135 1669l592 309l207 -301l-658 -204z" />
<glyph unicode="&#xce;" horiz-adv-x="780" d="M-154 1622l363 274h369l356 -294l-125 -156l-403 188h-21l-410 -188zM129 0v1413h522v-1413h-522z" />
<glyph unicode="&#xcf;" horiz-adv-x="780" d="M-45 1649v135q0 86 102 86h166q101 0 101 -86v-135q0 -86 -101 -86h-166q-102 0 -102 86zM129 0v1413h522v-1413h-522zM453 1649v135q0 86 100 86h166q100 0 100 -86v-135q0 -86 -100 -86h-166q-100 0 -100 86z" />
<glyph unicode="&#xd0;" d="M20 606v240h109v567q477 21 762 21q158 0 274.5 -13.5t213 -46.5t159 -86t106 -135t62 -190.5t18.5 -255.5t-18.5 -255.5t-62 -190.5t-106 -135t-159 -86t-213 -46.5t-274.5 -13.5q-390 0 -762 20v606h-109zM651 338q74 -2 240 -2q68 0 112.5 9.5t78.5 32.5t52 66.5 t26.5 106t8.5 156.5q0 118 -12 187.5t-46 111t-84 55.5t-136 14h-240v-229h307v-240h-307v-268z" />
<glyph unicode="&#xd1;" horiz-adv-x="1906" d="M129 0v1239q0 85 47 129.5t135 44.5h277q26 0 48 -6t36 -12t32.5 -24.5t26.5 -27.5t29.5 -37.5t30.5 -39.5l366 -453q71 -89 139 -221h21q-25 146 -25 239l-2 582h490v-1239q0 -85 -47 -129.5t-136 -44.5h-272q-27 0 -49.5 6t-37 12t-33 23.5t-26.5 27t-29.5 38 t-31.5 40.5l-383 474q-75 93 -121 227h-18q25 -150 25 -248v-600h-492zM474.5 1702q11.5 72 47.5 118t83.5 67t101.5 18q106 -6 264.5 -43.5t177.5 -40.5q59 -8 71.5 6t12.5 67h213q35 -179 -31.5 -279.5t-193.5 -94.5q-105 6 -261 42t-184 40q-18 2 -31 2t-22 -0.5 t-14.5 -6l-8.5 -8.5t-4.5 -15t-1.5 -18v-24h-213q-18 98 -6.5 170z" />
<glyph unicode="&#xd2;" horiz-adv-x="1830" d="M84 707q0 149 18.5 259.5t62 193t106.5 136t159.5 86.5t212.5 46.5t275 13.5t275.5 -13.5t213 -46.5t159.5 -86.5t106.5 -136t62 -193t18.5 -259.5t-18.5 -259.5t-62 -193.5t-106.5 -136.5t-159.5 -86.5t-213 -46.5t-275.5 -13.5t-275 13.5t-212.5 46.5t-159.5 86.5 t-106.5 136.5t-62 193.5t-18.5 259.5zM354 1677l205 301l594 -309l-143 -196zM635 707q0 -94 8.5 -156t27 -105.5t53 -66t80 -32t114.5 -9.5q86 0 137 14.5t84.5 56t46 111.5t12.5 187q0 94 -8.5 156t-26.5 105t-52.5 65.5t-79 32t-113.5 9.5q-87 0 -138 -14t-85.5 -56 t-47 -111.5t-12.5 -186.5z" />
<glyph unicode="&#xd3;" horiz-adv-x="1830" d="M84 707q0 149 18.5 259.5t62 193t106.5 136t159.5 86.5t212.5 46.5t275 13.5t275.5 -13.5t213 -46.5t159.5 -86.5t106.5 -136t62 -193t18.5 -259.5t-18.5 -259.5t-62 -193.5t-106.5 -136.5t-159.5 -86.5t-213 -46.5t-275.5 -13.5t-275 13.5t-212.5 46.5t-159.5 86.5 t-106.5 136.5t-62 193.5t-18.5 259.5zM635 707q0 -94 8.5 -156t27 -105.5t53 -66t80 -32t114.5 -9.5q86 0 137 14.5t84.5 56t46 111.5t12.5 187q0 94 -8.5 156t-26.5 105t-52.5 65.5t-79 32t-113.5 9.5q-87 0 -138 -14t-85.5 -56t-47 -111.5t-12.5 -186.5zM657 1669l592 309 l207 -301l-657 -204z" />
<glyph unicode="&#xd4;" horiz-adv-x="1830" d="M84 707q0 149 18.5 259.5t62 193t106.5 136t159.5 86.5t212.5 46.5t275 13.5t275.5 -13.5t213 -46.5t159.5 -86.5t106.5 -136t62 -193t18.5 -259.5t-18.5 -259.5t-62 -193.5t-106.5 -136.5t-159.5 -86.5t-213 -46.5t-275.5 -13.5t-275 13.5t-212.5 46.5t-159.5 86.5 t-106.5 136.5t-62 193.5t-18.5 259.5zM369 1622l362 274h369l356 -294l-125 -156l-403 188h-21l-409 -188zM635 707q0 -94 8.5 -156t27 -105.5t53 -66t80 -32t114.5 -9.5q86 0 137 14.5t84.5 56t46 111.5t12.5 187q0 94 -8.5 156t-26.5 105t-52.5 65.5t-79 32t-113.5 9.5 q-87 0 -138 -14t-85.5 -56t-47 -111.5t-12.5 -186.5z" />
<glyph unicode="&#xd5;" horiz-adv-x="1830" d="M84 707q0 149 18.5 259.5t62 193t106.5 136t159.5 86.5t212.5 46.5t275 13.5t275.5 -13.5t213 -46.5t159.5 -86.5t106.5 -136t62 -193t18.5 -259.5t-18.5 -259.5t-62 -193.5t-106.5 -136.5t-159.5 -86.5t-213 -46.5t-275.5 -13.5t-275 13.5t-212.5 46.5t-159.5 86.5 t-106.5 136.5t-62 193.5t-18.5 259.5zM413.5 1702q11.5 72 47 118t83 67t101.5 18q106 -6 264.5 -43.5t177.5 -40.5q59 -8 71.5 6t12.5 67h213q35 -179 -31.5 -279.5t-193.5 -94.5q-105 6 -260.5 42t-183.5 40q-18 2 -31 2t-22 -0.5t-14.5 -6l-8.5 -8.5t-4.5 -15t-1.5 -18 v-24h-213q-18 98 -6.5 170zM635 707q0 -94 8.5 -156t27 -105.5t53 -66t80 -32t114.5 -9.5q86 0 137 14.5t84.5 56t46 111.5t12.5 187q0 94 -8.5 156t-26.5 105t-52.5 65.5t-79 32t-113.5 9.5q-87 0 -138 -14t-85.5 -56t-47 -111.5t-12.5 -186.5z" />
<glyph unicode="&#xd6;" horiz-adv-x="1830" d="M84 707q0 149 18.5 259.5t62 193t106.5 136t159.5 86.5t212.5 46.5t275 13.5t275.5 -13.5t213 -46.5t159.5 -86.5t106.5 -136t62 -193t18.5 -259.5t-18.5 -259.5t-62 -193.5t-106.5 -136.5t-159.5 -86.5t-213 -46.5t-275.5 -13.5t-275 13.5t-212.5 46.5t-159.5 86.5 t-106.5 136.5t-62 193.5t-18.5 259.5zM477 1649v135q0 86 103 86h165q101 0 101 -86v-135q0 -86 -101 -86h-165q-103 0 -103 86zM635 707q0 -94 8.5 -156t27 -105.5t53 -66t80 -32t114.5 -9.5q86 0 137 14.5t84.5 56t46 111.5t12.5 187q0 94 -8.5 156t-26.5 105t-52.5 65.5 t-79 32t-113.5 9.5q-87 0 -138 -14t-85.5 -56t-47 -111.5t-12.5 -186.5zM975 1649v135q0 86 100 86h166q100 0 100 -86v-135q0 -86 -100 -86h-166q-100 0 -100 86z" />
<glyph unicode="&#xd7;" horiz-adv-x="1316" d="M47 393l299 207l-299 207l236 270l376 -260l377 260l234 -270l-299 -207l299 -207l-234 -266l-377 260l-376 -260z" />
<glyph unicode="&#xd8;" horiz-adv-x="1843" d="M76 707q0 149 18.5 259.5t61.5 193t105.5 136t158.5 86.5t212 46.5t275 13.5q127 0 211 -8l154 254l362 -193l-106 -178q113 -79 164 -225.5t51 -384.5q0 -149 -18.5 -259.5t-62 -193.5t-106 -136.5t-159.5 -86.5t-213.5 -46.5t-276.5 -13.5q-109 0 -200 6l-160 -262 l-367 195l113 184q-114 79 -165.5 226t-51.5 387zM627 707q0 -117 12.5 -187t46 -111.5t84.5 -56t137 -14.5q69 0 114.5 9.5t80 32t53 66t27 105.5t8.5 156q0 117 -12.5 186.5t-47 111.5t-85.5 56t-138 14q-69 0 -113.5 -9.5t-79 -32t-52.5 -65.5t-26.5 -105t-8.5 -156z" />
<glyph unicode="&#xd9;" horiz-adv-x="1804" d="M117 594v819h524v-819q0 -81 12 -129.5t44 -77.5t79.5 -39t128.5 -10q78 0 125 10t79 39t44 78t12 129v819h525v-819q0 -175 -39.5 -292t-131 -192t-233.5 -107t-354 -32q-229 0 -381 32t-250.5 107t-141 192t-42.5 292zM350 1677l205 301l594 -309l-143 -196z" />
<glyph unicode="&#xda;" horiz-adv-x="1804" d="M117 594v819h524v-819q0 -81 12 -129.5t44 -77.5t79.5 -39t128.5 -10q78 0 125 10t79 39t44 78t12 129v819h525v-819q0 -175 -39.5 -292t-131 -192t-233.5 -107t-354 -32q-229 0 -381 32t-250.5 107t-141 192t-42.5 292zM653 1669l592 309l207 -301l-657 -204z" />
<glyph unicode="&#xdb;" horiz-adv-x="1804" d="M117 594v819h524v-819q0 -81 12 -129.5t44 -77.5t79.5 -39t128.5 -10q78 0 125 10t79 39t44 78t12 129v819h525v-819q0 -175 -39.5 -292t-131 -192t-233.5 -107t-354 -32q-229 0 -381 32t-250.5 107t-141 192t-42.5 292zM365 1622l362 274h369l356 -294l-125 -156 l-403 188h-21l-409 -188z" />
<glyph unicode="&#xdc;" horiz-adv-x="1804" d="M117 594v819h524v-819q0 -81 12 -129.5t44 -77.5t79.5 -39t128.5 -10q78 0 125 10t79 39t44 78t12 129v819h525v-819q0 -175 -39.5 -292t-131 -192t-233.5 -107t-354 -32q-229 0 -381 32t-250.5 107t-141 192t-42.5 292zM473 1649v135q0 86 102 86h166q101 0 101 -86 v-135q0 -86 -101 -86h-166q-102 0 -102 86zM971 1649v135q0 86 100 86h166q100 0 100 -86v-135q0 -86 -100 -86h-166q-100 0 -100 86z" />
<glyph unicode="&#xdd;" horiz-adv-x="1703" d="M-18 1413h550l244 -463q17 -30 27 -63t20 -83t13 -63h32q4 17 13 63.5t19 82t26 65.5l243 461h549l-604 -997v-416h-524v408zM600 1669l592 309l207 -301l-658 -204z" />
<glyph unicode="&#xde;" horiz-adv-x="1630" d="M129 0v1413h526v-225h209q141 0 244 -9.5t185.5 -32.5t135.5 -59t88 -91.5t49.5 -127t14.5 -168.5q0 -115 -22 -195.5t-67 -137t-123 -89t-181 -47t-250 -14.5q-136 0 -283 16v-233h-526zM655 565h199q121 0 162 27t41 108q0 83 -41.5 111.5t-161.5 28.5h-199v-275z" />
<glyph unicode="&#xdf;" horiz-adv-x="1927" d="M27 748v270l223 12v141q0 192 165.5 275.5t549.5 83.5q165 0 282 -14t194 -40t121.5 -71.5t62 -101t17.5 -134.5q0 -124 -116 -243q-12 -11 -28 -25.5t-23.5 -21t-18.5 -16.5t-15 -14.5t-10.5 -11t-8 -11t-4.5 -9.5t-3.5 -10.5l-1 -11t-0.5 -13.5q0 -9 6.5 -18t20.5 -19 t27.5 -18.5t37.5 -23t41 -25.5l142 -100q124 -81 169.5 -137t45.5 -144q0 -73 -26.5 -129t-87 -100t-167.5 -67.5t-258 -23.5q-150 0 -467 23l33 291q100 2 315 2h19q29 0 41.5 0.5t28 2.5t20 7t8.5 14t4 23q0 23 -40.5 52.5t-127.5 78.5l-102 61q-165 86 -158 228 q1 33 25 72t62.5 85t49.5 62q13 20 42.5 54.5t46 59t16.5 40.5q0 23 -4 35.5t-14 22.5t-35 13.5t-58.5 5.5t-93.5 2q-137 0 -178 -18t-41 -82v-1112h-506v748h-223z" />
<glyph unicode="&#xe0;" horiz-adv-x="1503" d="M49 260v102q0 125 115.5 197t314.5 72h428q-6 40 -46 59t-132 19q-305 0 -565 -7l-45 306q143 22 363 37.5t368 15.5q142 0 243.5 -22t175.5 -72.5t110 -137t36 -211.5v-618h-401l-56 164q-183 -195 -456 -195q-127 0 -227.5 31.5t-163 98.5t-62.5 161zM205 1286l205 301 l594 -309l-144 -197zM545 334q0 -17 32 -30t91 -13q94 0 239 69v52h-256q-54 1 -80 -12t-26 -35v-31z" />
<glyph unicode="&#xe1;" horiz-adv-x="1503" d="M49 260v102q0 125 115.5 197t314.5 72h428q-6 40 -46 59t-132 19q-305 0 -565 -7l-45 306q143 22 363 37.5t368 15.5q142 0 243.5 -22t175.5 -72.5t110 -137t36 -211.5v-618h-401l-56 164q-183 -195 -456 -195q-127 0 -227.5 31.5t-163 98.5t-62.5 161zM510 1278l592 309 l207 -301l-658 -205zM545 334q0 -17 32 -30t91 -13q94 0 239 69v52h-256q-54 1 -80 -12t-26 -35v-31z" />
<glyph unicode="&#xe2;" horiz-adv-x="1503" d="M49 260v102q0 125 115.5 197t314.5 72h428q-6 40 -46 59t-132 19q-305 0 -565 -7l-45 306q143 22 363 37.5t368 15.5q142 0 243.5 -22t175.5 -72.5t110 -137t36 -211.5v-618h-401l-56 164q-183 -195 -456 -195q-127 0 -227.5 31.5t-163 98.5t-62.5 161zM219 1231l363 274 h368l357 -295l-125 -155l-404 188h-20l-410 -188zM545 334q0 -17 32 -30t91 -13q94 0 239 69v52h-256q-54 1 -80 -12t-26 -35v-31z" />
<glyph unicode="&#xe3;" horiz-adv-x="1503" d="M49 260v102q0 125 115.5 197t314.5 72h428q-6 40 -46 59t-132 19q-305 0 -565 -7l-45 306q143 22 363 37.5t368 15.5q142 0 243.5 -22t175.5 -72.5t110 -137t36 -211.5v-618h-401l-56 164q-183 -195 -456 -195q-127 0 -227.5 31.5t-163 98.5t-62.5 161zM265.5 1313 q11.5 72 47.5 118t83.5 67t101.5 18q106 -6 264.5 -43.5t177.5 -40.5q59 -8 71.5 6t12.5 67h213q35 -179 -31.5 -280t-193.5 -95q-105 6 -261 42t-184 40q-21 3 -35 3.5t-23.5 -4t-14 -7t-7 -15t-2.5 -19v-27.5h-213q-18 98 -6.5 170zM545 334q0 -17 32 -30t91 -13 q94 0 239 69v52h-256q-54 1 -80 -12t-26 -35v-31z" />
<glyph unicode="&#xe4;" horiz-adv-x="1503" d="M49 260v102q0 125 115.5 197t314.5 72h428q-6 40 -46 59t-132 19q-305 0 -565 -7l-45 306q143 22 363 37.5t368 15.5q142 0 243.5 -22t175.5 -72.5t110 -137t36 -211.5v-618h-401l-56 164q-183 -195 -456 -195q-127 0 -227.5 31.5t-163 98.5t-62.5 161zM328 1257v136 q0 86 102 86h166q100 0 100 -86v-136q0 -86 -100 -86h-166q-102 0 -102 86zM545 334q0 -17 32 -30t91 -13q94 0 239 69v52h-256q-54 1 -80 -12t-26 -35v-31zM825 1257v136q0 86 101 86h166q100 0 100 -86v-136q0 -86 -100 -86h-166q-101 0 -101 86z" />
<glyph unicode="&#xe5;" horiz-adv-x="1503" d="M49 260v102q0 125 115.5 197t314.5 72h428q-6 40 -46 59t-132 19q-305 0 -565 -7l-45 306q143 22 363 37.5t368 15.5q142 0 243.5 -22t175.5 -72.5t110 -137t36 -211.5v-618h-401l-56 164q-183 -195 -456 -195q-127 0 -227.5 31.5t-163 98.5t-62.5 161zM430 1337 q0 109 99.5 187t236.5 78q135 0 233.5 -78t98.5 -187q0 -112 -97.5 -189t-234.5 -77q-139 0 -237.5 77t-98.5 189zM545 334q0 -17 32 -30t91 -13q94 0 239 69v52h-256q-54 1 -80 -12t-26 -35v-31zM645 1337q0 -34 35.5 -60t85.5 -26q47 0 82 26t35 60q0 31 -35.5 57.5 t-81.5 26.5q-50 0 -85.5 -26t-35.5 -58z" />
<glyph unicode="&#xe6;" horiz-adv-x="2308" d="M47 260v102q0 119 113.5 190t308.5 71h416q-2 43 -41 64.5t-129 21.5q-302 0 -555 -7l-45 306q140 22 357.5 37.5t361.5 15.5q222 0 346 -55q149 55 419 55q235 0 381 -42.5t211 -123t66 -205.5q2 -146 -101.5 -206t-359.5 -60h-375q26 -40 83 -58t159 -18q269 0 512 23 l47 -293q-229 -103 -616 -103q-463 0 -627 203q-187 -209 -490 -209q-193 0 -317.5 75.5t-124.5 215.5zM543 334q0 -17 30 -30t86 -13q82 0 238 74l-8 45l-246 2q-100 3 -100 -47v-31zM1399 637h254h30.5t25.5 -0.5t18.5 0.5t15 2t10 4.5t8 8t3.5 12t2.5 16.5t0.5 22 q0 36 -29 45t-124 9q-120 3 -163 -17.5t-52 -101.5z" />
<glyph unicode="&#xe7;" horiz-adv-x="1368" d="M68 518q0 201 68 318.5t219 171t411 53.5q333 0 532 -84l-51 -303q-164 -2 -397 -2q-145 0 -197.5 -31t-52.5 -123q0 -95 52.5 -126.5t197.5 -31.5q246 0 422 15l47 -305q-209 -95 -559 -95q-258 0 -407.5 53.5t-217 171t-67.5 318.5zM399 -547l60 174q116 0 154 12 q63 22 71 87q1 13 -11.5 15t-60.5 1q-61 -2 -108 -2l47 160q55 6 89.5 9t78 6.5t69.5 3.5t57.5 -1.5t49 -6.5t37.5 -12.5t30 -19.5t18.5 -28t11.5 -37t1 -47q-7 -121 -89 -199.5t-212.5 -106t-292.5 -8.5z" />
<glyph unicode="&#xe8;" horiz-adv-x="1505" d="M59 504q0 304 165.5 430.5t559.5 126.5q239 0 388 -42.5t215 -123t67 -205.5q2 -146 -104 -206t-367 -60h-379q26 -40 84 -58t162 -18q277 0 524 23l43 -293q-229 -103 -624 -103q-199 0 -341.5 35t-228 104t-125 165t-39.5 225zM233 1286l205 301l594 -309l-143 -197z M580 637h260h26.5t21.5 -0.5t16 0.5t13 2t8.5 4.5t6.5 8t3.5 12t2.5 16.5v22q1 36 -26 45t-113 9q-65 2 -100 -0.5t-63 -15t-39.5 -36.5t-16.5 -67z" />
<glyph unicode="&#xe9;" horiz-adv-x="1505" d="M59 504q0 304 165.5 430.5t559.5 126.5q239 0 388 -42.5t215 -123t67 -205.5q2 -146 -104 -206t-367 -60h-379q26 -40 84 -58t162 -18q277 0 524 23l43 -293q-229 -103 -624 -103q-199 0 -341.5 35t-228 104t-125 165t-39.5 225zM537 1278l591 309l207 -301l-657 -205z M580 637h260h26.5t21.5 -0.5t16 0.5t13 2t8.5 4.5t6.5 8t3.5 12t2.5 16.5v22q1 36 -26 45t-113 9q-65 2 -100 -0.5t-63 -15t-39.5 -36.5t-16.5 -67z" />
<glyph unicode="&#xea;" horiz-adv-x="1505" d="M59 504q0 304 165.5 430.5t559.5 126.5q239 0 388 -42.5t215 -123t67 -205.5q2 -146 -104 -206t-367 -60h-379q26 -40 84 -58t162 -18q277 0 524 23l43 -293q-229 -103 -624 -103q-199 0 -341.5 35t-228 104t-125 165t-39.5 225zM248 1231l362 274h369l356 -295 l-125 -155l-403 188h-21l-409 -188zM580 637h260h26.5t21.5 -0.5t16 0.5t13 2t8.5 4.5t6.5 8t3.5 12t2.5 16.5v22q1 36 -26 45t-113 9q-65 2 -100 -0.5t-63 -15t-39.5 -36.5t-16.5 -67z" />
<glyph unicode="&#xeb;" horiz-adv-x="1505" d="M59 504q0 304 165.5 430.5t559.5 126.5q239 0 388 -42.5t215 -123t67 -205.5q2 -146 -104 -206t-367 -60h-379q26 -40 84 -58t162 -18q277 0 524 23l43 -293q-229 -103 -624 -103q-199 0 -341.5 35t-228 104t-125 165t-39.5 225zM356 1257v136q0 86 103 86h166 q100 0 100 -86v-136q0 -86 -100 -86h-166q-103 0 -103 86zM580 637h260h26.5t21.5 -0.5t16 0.5t13 2t8.5 4.5t6.5 8t3.5 12t2.5 16.5v22q1 36 -26 45t-113 9q-65 2 -100 -0.5t-63 -15t-39.5 -36.5t-16.5 -67zM854 1257v136q0 86 100 86h166q101 0 101 -86v-136 q0 -41 -26 -63.5t-75 -22.5h-166q-100 0 -100 86z" />
<glyph unicode="&#xec;" horiz-adv-x="743" d="M-186 1286l204 301l594 -309l-143 -197zM117 0v1030h510v-1030h-510z" />
<glyph unicode="&#xed;" horiz-adv-x="743" d="M117 0v1030h510v-1030h-510zM117 1278l592 309l206 -301l-657 -205z" />
<glyph unicode="&#xee;" horiz-adv-x="743" d="M-172 1231l362 274h369l356 -295l-124 -155l-404 188h-20l-410 -188zM117 0v1030h510v-1030h-510z" />
<glyph unicode="&#xef;" horiz-adv-x="743" d="M-63 1257v136q0 86 102 86h166q100 0 100 -86v-136q0 -86 -100 -86h-166q-102 0 -102 86zM117 0v1030h510v-1030h-510zM434 1257v136q0 86 101 86h165q101 0 101 -86v-136q0 -41 -26 -63.5t-75 -22.5h-165q-101 0 -101 86z" />
<glyph unicode="&#xf0;" horiz-adv-x="1570" d="M76 436q0 262 134 378t454 116q146 0 245 -23q-54 131 -190 187t-389 39l43 297q287 18 508 -52l241 228l221 -203l-176 -166q158 -117 239 -284t81 -353q0 -151 -27 -258.5t-79 -179.5t-141 -114t-200.5 -59.5t-269.5 -17.5q-357 0 -525.5 113.5t-168.5 351.5zM608 446 q0 -92 33 -119.5t135 -27.5q33 0 54 1.5t41.5 7t32 13t22.5 24.5t15.5 36.5t8.5 52.5t5 70t1 92v4q-106 8 -176 8h-22q-30 0 -43 -0.5t-33 -3t-28.5 -8.5t-19.5 -17.5t-15.5 -29t-7.5 -43t-3 -60.5z" />
<glyph unicode="&#xf1;" horiz-adv-x="1570" d="M96 0v1030h406l41 -149q256 180 551 180q189 0 287 -74t98 -217v-770h-506v612q0 18 -22.5 25.5t-78.5 7.5q-195 0 -268 -6l-2 -639h-506zM296.5 1313q11.5 72 47 118t83 67t101.5 18q106 -6 265 -43.5t178 -40.5q59 -8 71.5 6t12.5 67h213q35 -179 -32 -280t-194 -95 q-105 6 -260.5 42t-183.5 40q-21 3 -35 3.5t-23.5 -4t-14 -7t-7 -15t-2.5 -19v-27.5h-213q-18 98 -6.5 170z" />
<glyph unicode="&#xf2;" horiz-adv-x="1568" d="M61 512q0 304 163 426.5t560 122.5q268 0 423.5 -53t226.5 -172t71 -324q0 -200 -71 -316t-226.5 -168.5t-423.5 -52.5q-397 0 -560 120.5t-163 416.5zM221 1286l205 301l594 -309l-143 -197zM594 512q0 -95 16 -139t53.5 -59t120.5 -15q50 0 79.5 4.5t53.5 16.5t35.5 37 t17 61t5.5 94q0 75 -7.5 117.5t-31 67.5t-57 32.5t-95.5 7.5t-96 -7.5t-57 -32.5t-30 -67t-7 -118z" />
<glyph unicode="&#xf3;" horiz-adv-x="1568" d="M61 512q0 304 163 426.5t560 122.5q268 0 423.5 -53t226.5 -172t71 -324q0 -200 -71 -316t-226.5 -168.5t-423.5 -52.5q-397 0 -560 120.5t-163 416.5zM526 1278l592 309l207 -301l-657 -205zM594 512q0 -95 16 -139t53.5 -59t120.5 -15q50 0 79.5 4.5t53.5 16.5t35.5 37 t17 61t5.5 94q0 75 -7.5 117.5t-31 67.5t-57 32.5t-95.5 7.5t-96 -7.5t-57 -32.5t-30 -67t-7 -118z" />
<glyph unicode="&#xf4;" horiz-adv-x="1568" d="M61 512q0 304 163 426.5t560 122.5q268 0 423.5 -53t226.5 -172t71 -324q0 -200 -71 -316t-226.5 -168.5t-423.5 -52.5q-397 0 -560 120.5t-163 416.5zM236 1231l362 274h369l356 -295l-125 -155l-403 188h-21l-409 -188zM594 512q0 -95 16 -139t53.5 -59t120.5 -15 q50 0 79.5 4.5t53.5 16.5t35.5 37t17 61t5.5 94q0 75 -7.5 117.5t-31 67.5t-57 32.5t-95.5 7.5t-96 -7.5t-57 -32.5t-30 -67t-7 -118z" />
<glyph unicode="&#xf5;" horiz-adv-x="1568" d="M61 512q0 304 163 426.5t560 122.5q268 0 423.5 -53t226.5 -172t71 -324q0 -200 -71 -316t-226.5 -168.5t-423.5 -52.5q-397 0 -560 120.5t-163 416.5zM282.5 1313q11.5 72 47 118t83 67t101.5 18q106 -6 264.5 -43.5t177.5 -40.5q59 -8 71.5 6t12.5 67h213 q35 -179 -31.5 -280t-193.5 -95q-105 6 -260.5 42t-183.5 40q-21 3 -35 3.5t-23.5 -4t-14 -7t-7 -15t-2.5 -19v-27.5h-213q-18 98 -6.5 170zM594 512q0 -95 16 -139t53.5 -59t120.5 -15q50 0 79.5 4.5t53.5 16.5t35.5 37t17 61t5.5 94q0 75 -7.5 117.5t-31 67.5t-57 32.5 t-95.5 7.5t-96 -7.5t-57 -32.5t-30 -67t-7 -118z" />
<glyph unicode="&#xf6;" horiz-adv-x="1568" d="M61 512q0 304 163 426.5t560 122.5q268 0 423.5 -53t226.5 -172t71 -324q0 -200 -71 -316t-226.5 -168.5t-423.5 -52.5q-397 0 -560 120.5t-163 416.5zM344 1257v136q0 86 102 86h166q101 0 101 -86v-136q0 -86 -101 -86h-166q-102 0 -102 86zM594 512q0 -95 16 -139 t53.5 -59t120.5 -15q50 0 79.5 4.5t53.5 16.5t35.5 37t17 61t5.5 94q0 75 -7.5 117.5t-31 67.5t-57 32.5t-95.5 7.5t-96 -7.5t-57 -32.5t-30 -67t-7 -118zM842 1257v136q0 86 100 86h166q100 0 100 -86v-136q0 -86 -100 -86h-166q-100 0 -100 86z" />
<glyph unicode="&#xf7;" horiz-adv-x="1413" d="M76 426v340h1265v-340h-1265zM461 158v22q0 104 40 142t146 38h121q104 0 144 -38.5t40 -141.5v-22q0 -101 -40.5 -141t-143.5 -40h-121q-105 0 -145.5 39.5t-40.5 141.5zM461 1006v22q0 104 40 142t146 38h121q104 0 144 -38.5t40 -141.5v-22q0 -102 -40.5 -141.5 t-143.5 -39.5h-121q-106 0 -146 39t-40 142z" />
<glyph unicode="&#xf8;" horiz-adv-x="1589" d="M53 512q0 154 38.5 257.5t126.5 169t223.5 94t336.5 28.5q82 0 119 -2l141 241l289 -153l-90 -152q138 -58 200 -174t62 -309q0 -200 -71 -316t-226.5 -168.5t-423.5 -52.5q-30 0 -137 5l-133 -228l-287 156l82 139q-131 58 -190.5 170t-59.5 295zM588 512q0 -95 16 -139 t53.5 -59t120.5 -15q62 0 95.5 6.5t56.5 30.5t30 64t7 112q0 76 -7 118t-30 67t-56.5 32.5t-95.5 7.5t-96 -7.5t-57 -32.5t-30 -67t-7 -118z" />
<glyph unicode="&#xf9;" horiz-adv-x="1572" d="M100 260v770h508v-610q0 -37 107 -37q10 0 63 -1t92 0.5t86 6.5v641h510v-1030h-401l-41 147q-260 -176 -535 -176q-192 0 -290.5 73t-98.5 216zM231 1313l205 301l594 -309l-143 -197z" />
<glyph unicode="&#xfa;" horiz-adv-x="1572" d="M100 260v770h508v-610q0 -37 107 -37q10 0 63 -1t92 0.5t86 6.5v641h510v-1030h-401l-41 147q-260 -176 -535 -176q-192 0 -290.5 73t-98.5 216zM537 1305l591 309l207 -301l-657 -205z" />
<glyph unicode="&#xfb;" horiz-adv-x="1572" d="M100 260v770h508v-610q0 -37 107 -37q10 0 63 -1t92 0.5t86 6.5v641h510v-1030h-401l-41 147q-260 -176 -535 -176q-192 0 -290.5 73t-98.5 216zM246 1257l362 275h369l356 -295l-125 -156l-403 189h-21l-409 -189z" />
<glyph unicode="&#xfc;" horiz-adv-x="1572" d="M100 260v770h508v-610q0 -37 107 -37q10 0 63 -1t92 0.5t86 6.5v641h510v-1030h-401l-41 147q-260 -176 -535 -176q-192 0 -290.5 73t-98.5 216zM354 1284v135q0 86 103 86h166q100 0 100 -86v-135q0 -86 -100 -86h-166q-103 0 -103 86zM852 1284v135q0 86 100 86h166 q101 0 101 -86v-135q0 -41 -26 -63.5t-75 -22.5h-166q-100 0 -100 86z" />
<glyph unicode="&#xfd;" horiz-adv-x="1566" d="M0 1030h539l186 -522q17 -76 33 -213h24q15 42 36.5 125t23.5 88l182 522h541l-439 -981q-20 -55 -46.5 -106t-67.5 -106.5t-89 -100t-114 -82t-141 -57t-171.5 -20t-203.5 23.5l-37 256q148 23 233 54t138 89h-60q-60 0 -103.5 30t-60.5 83zM532 1278l592 309l207 -301 l-657 -205z" />
<glyph unicode="&#xfe;" horiz-adv-x="1585" d="M109 -358v1792h507v-170q3 -141 -16 -310l8 -12q169 113 430 113q255 0 370.5 -142.5t115.5 -410.5q0 -128 -21 -220.5t-59.5 -152.5t-101.5 -95t-138.5 -49t-179.5 -14q-258 0 -418 90q13 -123 10 -237v-182h-507zM616 305q11 -2 45.5 -8t52 -8.5t48 -5t59.5 -2.5 q37 0 58.5 1.5t44.5 8.5t34.5 20.5t22.5 37.5t14.5 60t3.5 87q0 52 -4 88t-14.5 60t-21.5 37.5t-33 20t-41 8t-54 1.5q-53 0 -129 -7t-86 -8v-391z" />
<glyph unicode="&#xff;" horiz-adv-x="1566" d="M0 1030h539l186 -522q17 -76 33 -213h24q15 42 36.5 125t23.5 88l182 522h541l-439 -981q-20 -55 -46.5 -106t-67.5 -106.5t-89 -100t-114 -82t-141 -57t-171.5 -20t-203.5 23.5l-37 256q148 23 233 54t138 89h-60q-60 0 -103.5 30t-60.5 83zM352 1257v136q0 86 103 86 h166q100 0 100 -86v-136q0 -86 -100 -86h-166q-103 0 -103 86zM850 1257v136q0 86 100 86h166q101 0 101 -86v-136q0 -41 -26 -63.5t-75 -22.5h-166q-100 0 -100 86z" />
<glyph unicode="&#x152;" horiz-adv-x="2555" d="M84 707q0 149 18.5 259.5t61 193t104.5 136t157 86.5t210 46.5t272 13.5q268 0 475 -56q84 37 199 37q218 0 325.5 -1t283.5 -8t294 -21l-24 -353h-648q-55 0 -83.5 -17.5t-28.5 -41.5v-113h665v-301h-665v-135q0 -23 29 -40t83 -17h648l24 -355q-119 -14 -297.5 -21 t-287 -8t-328.5 -1q-126 0 -223 51q-184 -70 -441 -70q-157 0 -272 13.5t-210 46.5t-157 86.5t-104.5 136.5t-61 193.5t-18.5 259.5zM639 707q0 -156 23.5 -233t78.5 -106.5t166 -29.5q169 0 264 18v703q-88 16 -264 16q-111 0 -166 -29.5t-78.5 -106.5t-23.5 -232z" />
<glyph unicode="&#x153;" horiz-adv-x="2392" d="M68 512q0 205 70 324t223.5 172t418.5 53q297 0 453 -70q158 64 434 64q241 0 389 -42.5t213 -124.5t66 -212q2 -135 -111 -197.5t-385 -62.5h-334q27 -39 82 -56.5t154 -17.5q267 0 510 23l47 -291q-228 -105 -617 -105q-277 0 -446 76q-159 -70 -455 -70 q-264 0 -418 52.5t-224 168.5t-70 316zM600 512q0 -72 7 -112t29 -63.5t54 -30.5t90 -7q109 0 148 30t43 132v37q0 39 2 57q-2 59 -11.5 94.5t-33 55t-55 26t-85.5 6.5q-81 0 -118.5 -16t-53.5 -62.5t-16 -146.5zM1481 631h235q88 0 109 8t20 49q-1 42 -36 53t-134 11 q-108 2 -146.5 -19t-47.5 -102z" />
<glyph unicode="&#x178;" horiz-adv-x="1703" d="M-18 1413h550l244 -463q17 -30 27 -63t20 -83t13 -63h32q4 17 13 63.5t19 82t26 65.5l243 461h549l-604 -997v-416h-524v408zM420 1649v135q0 86 102 86h166q100 0 100 -86v-135q0 -86 -100 -86h-166q-102 0 -102 86zM918 1649v135q0 86 100 86h166q100 0 100 -86v-135 q0 -86 -100 -86h-166q-100 0 -100 86z" />
<glyph unicode="&#x2c6;" horiz-adv-x="1222" d="M68 1243l362 275h369l356 -295l-125 -156l-403 188h-21l-409 -188z" />
<glyph unicode="&#x2dc;" horiz-adv-x="1173" d="M95.5 1292q11.5 72 47.5 118t83.5 67t101.5 18q106 -6 264.5 -43.5t177.5 -40.5q59 -8 71.5 6.5t12.5 67.5h213q35 -179 -31.5 -280t-193.5 -95q-105 6 -261 42t-184 40q-18 2 -31 2t-22 -0.5t-14.5 -6l-8.5 -8.5t-4.5 -15t-1.5 -18v-24h-213q-18 98 -6.5 170z" />
<glyph unicode="&#x2000;" horiz-adv-x="995" />
<glyph unicode="&#x2001;" horiz-adv-x="1991" />
<glyph unicode="&#x2002;" horiz-adv-x="995" />
<glyph unicode="&#x2003;" horiz-adv-x="1991" />
<glyph unicode="&#x2004;" horiz-adv-x="663" />
<glyph unicode="&#x2005;" horiz-adv-x="497" />
<glyph unicode="&#x2006;" horiz-adv-x="331" />
<glyph unicode="&#x2007;" horiz-adv-x="331" />
<glyph unicode="&#x2008;" horiz-adv-x="248" />
<glyph unicode="&#x2009;" horiz-adv-x="398" />
<glyph unicode="&#x200a;" horiz-adv-x="110" />
<glyph unicode="&#x2010;" horiz-adv-x="997" d="M109 391v275h780v-275h-780z" />
<glyph unicode="&#x2011;" horiz-adv-x="997" d="M109 391v275h780v-275h-780z" />
<glyph unicode="&#x2012;" horiz-adv-x="997" d="M109 391v275h780v-275h-780z" />
<glyph unicode="&#x2013;" horiz-adv-x="1396" d="M109 391v275h1181v-275h-1181z" />
<glyph unicode="&#x2014;" horiz-adv-x="2177" d="M109 391v275h1959v-275h-1959z" />
<glyph unicode="&#x2018;" horiz-adv-x="563" d="M133 905v119q0 145 32 234t103 186l164 -53q-35 -97 -39 -263q118 0 121 -135l-4 -88q-3 -87 -34.5 -119t-110.5 -32h-91q-79 0 -110 32t-31 119z" />
<glyph unicode="&#x2019;" horiz-adv-x="555" d="M41 1182l4 86q3 87 34.5 120t110.5 33h91q79 0 110 -33t31 -120v-119q0 -144 -32 -233.5t-103 -184.5l-164 51q35 97 39 265q-115 0 -121 135z" />
<glyph unicode="&#x201a;" horiz-adv-x="585" d="M59 150l4 94q3 96 34.5 132t111.5 36h90q79 0 110 -36t31 -132v-131q0 -158 -32 -256t-103 -203l-164 57q35 114 39 289q-118 0 -121 150z" />
<glyph unicode="&#x201c;" horiz-adv-x="1083" d="M127 905v119q-1 144 32.5 234t106.5 184l166 -49q-35 -97 -39 -265q119 0 125 -135l-6 -88q-3 -88 -34 -119.5t-113 -31.5h-93q-81 0 -113 32.5t-32 118.5zM655 905v119q0 144 33.5 234t106.5 184l168 -49q-35 -97 -39 -265q59 0 90 -35t33 -100l-5 -88q-3 -87 -35 -119 t-114 -32h-92q-81 0 -113.5 32.5t-32.5 118.5z" />
<glyph unicode="&#x201d;" horiz-adv-x="1075" d="M41 1182l4 86q3 87 34.5 120t110.5 33h91q79 0 110 -33t31 -120v-119q0 -144 -32 -233.5t-103 -184.5l-164 51q35 97 39 265q-115 0 -121 135zM561 1182l4 86q3 87 35 120t111 33h90q79 0 110 -33t31 -120v-119q0 -144 -32 -233.5t-103 -184.5l-164 51q35 97 39 265 q-115 0 -121 135z" />
<glyph unicode="&#x201e;" horiz-adv-x="1107" d="M102 92l4 84q3 84 34.5 116t111.5 32h88q80 0 111.5 -32t31.5 -116v-115q0 -141 -32 -227t-103 -180l-166 51q37 101 41 256q-118 0 -121 131zM621 92l4 84q3 84 34.5 116t110.5 32h90q80 0 110.5 -32t30.5 -116v-115q1 -142 -31 -228t-104 -179l-164 51q35 95 39 256 q-114 0 -120 131z" />
<glyph unicode="&#x2022;" horiz-adv-x="956" d="M137 539v36q0 152 72 211.5t258 59.5h43q172 0 240.5 -60t68.5 -211v-36q0 -163 -68 -226t-241 -63h-43q-188 0 -259 62.5t-71 226.5z" />
<glyph unicode="&#x2026;" horiz-adv-x="2899" d="M88 168v76q0 97 37 132.5t137 35.5h123q100 0 137 -35.5t37 -132.5v-76q0 -97 -37 -132.5t-137 -35.5h-123q-100 0 -137 35.5t-37 132.5zM1214 168v76q0 96 37.5 132t137.5 36h124q100 0 137.5 -36t37.5 -132v-76q0 -96 -37.5 -132t-137.5 -36h-124q-100 0 -137.5 36 t-37.5 132zM2339 168v76q0 97 37 132.5t137 35.5h125q100 0 137 -35.5t37 -132.5v-76q0 -97 -37 -132.5t-137 -35.5h-125q-100 0 -137 35.5t-37 132.5z" />
<glyph unicode="&#x202f;" horiz-adv-x="398" />
<glyph unicode="&#x2039;" horiz-adv-x="829" d="M61 463v102l422 404l269 -162l-246 -293l244 -307l-265 -160z" />
<glyph unicode="&#x203a;" horiz-adv-x="833" d="M78 207l250 307l-248 293l266 162l422 -404v-102l-422 -416z" />
<glyph unicode="&#x205f;" horiz-adv-x="497" />
<glyph unicode="&#x20ac;" horiz-adv-x="1693" d="M72 440v230h1239l-27 -230h-422q53 -46 191 -65q89 -12 250 -8t280 22l39 -342q-227 -72 -528 -72q-382 0 -578 112t-252 353h-192zM74 739v232h188q56 242 252 354.5t580 112.5q259 0 483 -60l-43 -340q-9 0 -80.5 4.5t-133.5 7t-140.5 1t-126.5 -10.5 q-130 -26 -183 -69h494l-27 -232h-1263z" />
<glyph unicode="&#x2122;" horiz-adv-x="2603" d="M106 1180v245h936v-245h-292v-533h-349v533h-295zM1122 647l33 666q3 112 119 112h313q111 0 129 -102l66 -203q5 -23 9.5 -65t6.5 -56h12q6 22 12 63t9 56l57 205q21 102 133 102h318q114 0 123 -112l30 -666h-315l-33 531h-22l-86 -283q-21 -100 -135 -100h-191 q-117 0 -135 100l-86 283h-25l-26 -531h-316z" />
<glyph unicode="&#x25fc;" horiz-adv-x="1034" d="M0 0v1034h1034v-1034h-1034z" />
<glyph unicode="&#xfb03;" horiz-adv-x="2820" d="M25 748v272l213 10v92q2 76 28 136.5t79.5 108t144 73.5t212.5 26q86 0 210 -8t200 -24l-49 -287h-189q-82 0 -112.5 -21t-30.5 -73v-23h498v113q0 76 25 136.5t79 108t146.5 73.5t218.5 26q205 0 379 -33l4 -287h-203q-92 0 -125 -20t-33 -74v-43h478v-282h-478v-748 h-491v748h-498v-748h-493v748h-213zM2208 0v1030h510v-1030h-510zM2208 1290v103q0 145 147 145h215q76 0 112 -35.5t36 -109.5v-103q0 -74 -36 -109.5t-112 -35.5h-215q-147 0 -147 145z" />
<glyph unicode="&#xfb04;" horiz-adv-x="3004" d="M25 748v272l227 10v92q3 76 29.5 136.5t80 108t143.5 73.5t212 26q86 0 210 -8.5t199 -23.5l-47 -287h-190q-80 0 -110.5 -21t-30.5 -73v-23h495v121q0 73 24.5 132t77.5 106t145 72.5t218 25.5q727 0 1036 -55v-1031q0 -33 29 -46t90 -13h82l57 -313q-52 -28 -162 -44 t-196 -16q-190 0 -298 79t-108 220v908h-364q-73 0 -105 -20t-32 -75v-51h305v-282h-305v-748h-494v748h-495v-748h-496v748h-227z" />
</font>
</defs>
</svg>
