<?xml version="1.0" standalone="no"?>
<!DOCTYPE svg PUBLIC "-//W3C//DTD SVG 1.1//EN" "http://www.w3.org/Graphics/SVG/1.1/DTD/svg11.dtd" >
<svg xmlns="http://www.w3.org/2000/svg">
<metadata></metadata>
<defs>
<font id="exo_2black_condensed" horiz-adv-x="1198" >
<font-face units-per-em="2048" ascent="1638" descent="-410" />
<missing-glyph horiz-adv-x="346" />
<glyph unicode="&#xfb01;" horiz-adv-x="1251" d="M6 782v226l131 10v129q0 332 322 332q166 0 266 -25v-237h-125q-42 0 -59 -26.5t-17 -94.5v-78h656v-1018h-387v782h-269v-782h-387v782h-131zM799 1276v108q0 113 114 113h154q117 0 117 -113v-108q0 -113 -117 -113h-154q-114 0 -114 113z" />
<glyph unicode="&#xfb02;" horiz-adv-x="1316" d="M4 782v226l131 10v129q0 332 318 332q497 0 723 -45v-1082q0 -47 14.5 -67.5t46.5 -20.5h45l41 -241q-35 -23 -116 -37.5t-140 -14.5q-129 0 -202.5 75t-73.5 206v971h-201q-38 -2 -53 -29.5t-15 -97.5v-78h166v-236h-166v-782h-387v782h-131z" />
<glyph horiz-adv-x="0" />
<glyph horiz-adv-x="682" />
<glyph unicode=" "  horiz-adv-x="346" />
<glyph unicode="&#x09;" horiz-adv-x="346" />
<glyph unicode="&#xa0;" horiz-adv-x="346" />
<glyph unicode="!" horiz-adv-x="567" d="M90 915v508h379v-508l-39 -456h-301zM109 133v90q0 74 27.5 100.5t103.5 26.5h88q75 0 101 -26t26 -101v-90q0 -76 -26.5 -104.5t-100.5 -28.5h-88q-75 0 -103 29t-28 104z" />
<glyph unicode="&#x22;" horiz-adv-x="663" d="M49 1413h254l-22 -461h-211zM358 1413h252l-20 -461h-213z" />
<glyph unicode="#" horiz-adv-x="1255" d="M37 383l43 227h188l33 234h-195l44 223h184l49 346h281l-50 -346h136l49 346h284l-49 -346h191l-43 -223h-181l-32 -234h186l-43 -227h-176l-55 -383h-281l53 383h-133l-53 -383h-287l56 383h-199zM551 610h133l33 234h-133z" />
<glyph unicode="$" horiz-adv-x="1042" d="M39 1034q0 114 22.5 189t75.5 123t133.5 69.5t204.5 26.5l23 176h284l-24 -191q122 -13 217 -51l-23 -258q-104 4 -428 4q-57 0 -76.5 -14.5t-19.5 -67.5q0 -44 19.5 -67t82.5 -51l209 -103q145 -70 206 -168.5t61 -255.5q0 -116 -20 -192t-69.5 -127.5t-129 -75 t-201.5 -27.5l-21 -206h-282l20 219q-143 19 -252 49l23 272q328 -12 438 -12q60 0 81 17.5t21 74.5q0 46 -13.5 68t-59.5 43l-236 114q-142 70 -204 168.5t-62 253.5z" />
<glyph unicode="%" horiz-adv-x="1542" d="M29 1020q0 162 30 252.5t95.5 129t181.5 38.5q117 0 183 -38.5t96 -128.5t30 -253q0 -238 -68 -329t-241 -91q-171 0 -239 91t-68 329zM307 1020q0 -78 1 -118t4.5 -64.5t9 -30.5t16.5 -6q10 0 15.5 6t9.5 30t5 65.5t1 117.5q0 75 -1 117t-5 65.5t-9.5 30t-15.5 6.5 q-11 0 -16.5 -6t-9 -31t-4.5 -64.5t-1 -117.5zM352 0l615 1413h223l-612 -1413h-226zM897 395q0 238 68 329t239 91q117 0 183.5 -39t97.5 -129.5t31 -251.5q0 -162 -31 -253.5t-97.5 -131t-183.5 -39.5q-116 0 -181.5 39.5t-95.5 130.5t-30 254zM1176 395q0 -178 7 -201 q5 -18 23 -18q9 0 14 6t8 31t4 65t1 117t-1 117t-4 64t-8 30t-14 6q-22 0 -26 -30t-4 -169v-18z" />
<glyph unicode="&#x26;" horiz-adv-x="1267" d="M45 358q0 169 53.5 263.5t173.5 107.5v8q-101 12 -145.5 91.5t-44.5 238.5q0 83 10.5 142t36 100.5t59.5 67t91.5 39.5t120.5 19t157 5q171 0 281 -27l-50 -258q-30 0 -105 3t-136 3q-41 0 -53.5 -28.5t-12.5 -126.5q0 -92 14.5 -124t57.5 -32h180l23 192h325v-192h129 l-2 -250h-127v-244q0 -48 11.5 -68t35.5 -20h80l41 -245q-43 -23 -125 -37.5t-137 -14.5q-169 0 -237 133q-59 -70 -136.5 -100.5t-201.5 -30.5q-196 0 -281.5 87t-85.5 298zM465 440q0 -107 11 -136.5t61 -29.5q99 9 182 54v272h-187q-47 0 -57 -28t-10 -132z" />
<glyph unicode="'" horiz-adv-x="354" d="M49 1413h254l-22 -461h-211z" />
<glyph unicode="(" horiz-adv-x="622" d="M33 639q0 414 132.5 651t414.5 328l38 -162q-117 -69 -164.5 -270.5t-47.5 -544.5q0 -337 47.5 -540t164.5 -277l-38 -162q-282 92 -414.5 329t-132.5 648z" />
<glyph unicode=")" horiz-adv-x="622" d="M4 -176q119 74 168 278t49 539q0 341 -49 543.5t-168 271.5l43 162q282 -90 412.5 -327t130.5 -652q0 -412 -130.5 -648.5t-412.5 -328.5z" />
<glyph unicode="*" horiz-adv-x="763" d="M33 1069l59 199l187 -105l2 -92l-43 -55zM119 799l192 262l-30 354h204l-30 -350l190 -264l-156 -125l-106 248l-102 -246zM487 1163l187 105l63 -197l-200 -55l-45 55z" />
<glyph unicode="+" horiz-adv-x="851" d="M33 479v281h256v334h282v-334h250v-281h-250v-329h-282v329h-256z" />
<glyph unicode="," horiz-adv-x="428" d="M45 119l8 104q0 75 25.5 101t97.5 26h66q74 0 104 -27t31 -100l2 -131q-1 -134 -31 -226t-92 -188l-129 50q25 89 33 272q-115 0 -115 119z" />
<glyph unicode="-" horiz-adv-x="610" d="M66 408v231h481v-231h-481z" />
<glyph unicode="." horiz-adv-x="430" d="M47 133v90q0 74 27.5 100.5t103.5 26.5h78q77 0 104 -26t27 -101v-90q0 -76 -27.5 -104.5t-103.5 -28.5h-78q-75 0 -103 29t-28 104z" />
<glyph unicode="/" horiz-adv-x="1011" d="M27 -156l655 1569h303l-655 -1569h-303z" />
<glyph unicode="0" horiz-adv-x="1114" d="M45 707q0 281 49 438t159.5 226t307.5 69q145 0 239.5 -36t156 -123.5t87 -225t25.5 -348.5q0 -280 -49 -438t-157.5 -227t-301.5 -69q-148 0 -244.5 36.5t-158.5 124t-87.5 225t-25.5 348.5zM444 707q0 -191 9.5 -281t33 -123t72.5 -33q31 0 50 10.5t33.5 35.5t21 77.5 t9.5 124.5t3 189t-3 189t-9.5 124t-21 77t-33.5 35.5t-50 10.5q-49 0 -72.5 -33t-33 -123t-9.5 -280z" />
<glyph unicode="1" horiz-adv-x="776" d="M-33 1274l305 139h396v-1413h-396v926q0 98 15 174l-275 -74z" />
<glyph unicode="2" horiz-adv-x="1021" d="M43 0v205q0 100 55 155l238 324q103 139 154.5 224.5t52.5 138.5q-1 40 -18 50.5t-70 10.5q-219 0 -389 -8l-15 291q222 47 457 47q84 0 148.5 -9t121.5 -32t93.5 -61t57.5 -98.5t21 -141.5q0 -127 -32 -213.5t-144 -223.5l-274 -340q63 19 143 19h330v-338h-930z" />
<glyph unicode="3" horiz-adv-x="974" d="M35 10l10 281q205 -10 326 -10q98 0 128.5 31.5t30.5 136.5q0 90 -23 125t-91 32h-226v248h226q37 0 60 10t34 31.5t14 45.5t2 63q1 82 -22 106.5t-94 24.5q-68 0 -183 -1t-155 -1l-13 270q212 37 424 37q236 0 323 -70t87 -258q0 -165 -43 -251t-160 -105v-8 q131 -23 182.5 -105.5t53.5 -249.5q0 -227 -101 -323.5t-344 -96.5q-193 0 -446 37z" />
<glyph unicode="4" horiz-adv-x="1114" d="M10 514l281 899h362l-225 -801q-6 -26 1.5 -41.5t25.5 -15.5h159v360l66 222h289v-582h125v-223l-123 -35h-2v-297h-355v297h-493q-62 0 -96.5 66.5t-14.5 150.5z" />
<glyph unicode="5" horiz-adv-x="958" d="M33 16l30 295q234 -16 308 -16q89 0 122 34.5t39 121.5q3 62 -11.5 96.5t-39 47.5t-71.5 21l-240 31q-46 6 -73.5 42.5t-24.5 88.5l32 635h787l-14 -287h-482l-12 -188l238 -33q74 -11 129 -43t87.5 -74t52 -102t26 -117.5t6.5 -130.5q0 -100 -23 -181t-73.5 -146 t-139 -100.5t-209.5 -35.5q-182 0 -444 41z" />
<glyph unicode="6" horiz-adv-x="1034" d="M47 694q0 120 7.5 216.5t25 171t40.5 130.5t58 95.5t74.5 65t93.5 40t109.5 20t128.5 5.5q203 0 336 -41l-17 -242q-102 2 -319 2q-37 0 -61 -4t-42.5 -17t-28.5 -31.5t-16.5 -54t-8.5 -76t-3 -106.5q79 66 223 66q105 0 173 -24t108.5 -79.5t56.5 -134t16 -198.5 q0 -142 -20.5 -235t-73.5 -160.5t-146 -97.5t-237 -30q-90 0 -156 13t-121 45t-91.5 84.5t-61.5 133.5t-36 189t-11 254zM424 633q1 -102 4 -164t9 -107t18.5 -66t29.5 -29.5t45 -8.5q25 0 42.5 4.5t29 18.5t17.5 28t9.5 45t4 57t0.5 76q0 109 -21 143t-88 34 q-50 0 -100 -31z" />
<glyph unicode="7" horiz-adv-x="915" d="M29 1413h762q78 0 121.5 -57.5t17.5 -134.5l-355 -1221h-378l262 944q27 99 65 152h-477z" />
<glyph unicode="8" horiz-adv-x="1087" d="M49 352q0 77 9 137t31.5 114.5t66.5 87t108 38.5v8q-48 6 -84.5 35.5t-57.5 76t-31.5 100t-10.5 112.5q0 69 7.5 120t27 95.5t52.5 73.5t84.5 50t123.5 30.5t168 9.5q145 1 237 -20t142.5 -70.5t69 -116.5t18.5 -172q0 -79 -20 -148t-64.5 -118.5t-106.5 -57.5v-8 q52 -5 91 -28.5t62.5 -57.5t37.5 -83t19 -98t5 -110q0 -71 -8.5 -123.5t-30.5 -96.5t-57.5 -73t-90.5 -49.5t-129.5 -30t-174.5 -10.5q-196 -1 -303.5 39t-149 120.5t-41.5 223.5zM426 428q0 -105 23.5 -138.5t99.5 -33.5q72 0 94.5 33.5t22.5 138.5q0 109 -24 143.5 t-95 34.5q-77 1 -99 -33t-22 -145zM434 1010q0 -90 24.5 -120t92.5 -30q64 0 83 29t19 121q0 102 -21 134t-83 32q-69 0 -92 -32t-23 -134z" />
<glyph unicode="9" horiz-adv-x="1036" d="M37 915q1 98 8.5 167.5t27 131.5t52.5 101.5t85 68.5t125 41.5t171 12.5q99 0 169 -13t125 -46t89 -84t56.5 -134.5t31 -188.5t8.5 -253q1 -161 -11 -277t-41.5 -199.5t-69.5 -135t-105 -81.5t-138 -40.5t-178 -10.5q-213 0 -360 41l14 244q119 -2 348 -2q91 0 121 57.5 t33 223.5q-73 -60 -213 -60q-99 0 -168.5 31t-108 91t-55 136t-16.5 178zM410 926q0 -108 18 -143t80 -35q49 0 92 28q0 251 -15 316t-81 65q-24 0 -40 -4.5t-26.5 -19.5t-16 -28t-8 -46.5t-3 -56.5t-0.5 -76z" />
<glyph unicode=":" horiz-adv-x="468" d="M49 133v92q0 73 28 100t103 27h78q76 0 103.5 -26.5t27.5 -100.5v-92q0 -74 -27.5 -102.5t-103.5 -28.5h-78q-75 0 -103 28.5t-28 102.5zM49 719v90q0 75 28 102t103 27h78q76 0 103.5 -27t27.5 -102v-90q0 -76 -27.5 -104.5t-103.5 -28.5h-78q-75 0 -103 29t-28 104z " />
<glyph unicode=";" horiz-adv-x="462" d="M59 119l9 104q0 75 25 101t97 26h66q74 0 104 -27t31 -100l2 -131q-1 -134 -31 -226t-92 -188l-129 50q25 89 33 272q-115 0 -115 119zM61 719v90q0 75 28.5 102t103.5 27h77q76 0 103.5 -27t27.5 -102v-90q0 -76 -27.5 -104.5t-103.5 -28.5h-77q-75 0 -103.5 29 t-28.5 104z" />
<glyph unicode="&#x3c;" horiz-adv-x="829" d="M33 473v295l735 326v-297l-414 -176l414 -183v-295z" />
<glyph unicode="=" horiz-adv-x="946" d="M66 260v268h815v-268h-815zM66 700v269h815v-269h-815z" />
<glyph unicode="&#x3e;" horiz-adv-x="825" d="M66 143v295l405 183l-405 176v297l727 -326v-295z" />
<glyph unicode="?" horiz-adv-x="917" d="M37 1405q18 4 76 16t80 15.5t72.5 10.5t104.5 9t126 2q198 0 294.5 -77.5t96.5 -239.5q0 -60 -15 -113t-40.5 -93.5t-56 -79.5t-62.5 -80t-60.5 -84.5t-50 -103.5t-29.5 -128h-297q-5 97 11.5 183t45 146t57.5 108.5t53 92t28 74.5q10 49 -7.5 70.5t-64.5 21.5 q-116 0 -354 -4zM248 133v90q0 74 29 100.5t102 26.5h86q77 0 104 -26t27 -101v-90q0 -76 -27.5 -104.5t-103.5 -28.5h-86q-73 0 -102 29t-29 104z" />
<glyph unicode="@" horiz-adv-x="1374" d="M55 551q0 98 2 168.5t9.5 138.5t17.5 114t30 89.5t43.5 69.5t61.5 49.5t80.5 35.5t103.5 21t127.5 11.5t155.5 2.5h279q175 0 261.5 -85t86.5 -285v-600h-277l-30 133q-103 -160 -258 -160q-112 0 -192.5 70t-80.5 192v94q0 108 74 172t196 64h220v35q0 57 -17.5 79.5 t-62.5 22.5h-197q-58 0 -86.5 -0.5t-66 -7t-52.5 -16.5t-35 -33t-26 -51t-13.5 -77t-8.5 -105.5t-1 -141.5q0 -116 2 -183t20.5 -120.5t32.5 -75.5t65.5 -36.5t90 -15.5t134.5 -1h36h533v-242q-359 -33 -539 -33q-128 0 -216.5 4.5t-167.5 20t-127.5 36t-89 62.5t-61.5 89 t-35 125t-18 162t-4 208zM813 569q0 -67 68 -67q40 0 84 59v115l-97 -8q-24 -3 -39.5 -20t-15.5 -46v-33z" />
<glyph unicode="A" horiz-adv-x="1161" d="M-23 0l293 1311q10 47 46.5 74.5t86.5 27.5h355q50 0 88 -27.5t51 -74.5l287 -1311h-402l-53 330h-291l-53 -330h-408zM485 614h197l-57 353q-17 106 -21 151h-45q-3 -71 -16 -151z" />
<glyph unicode="B" horiz-adv-x="1120" d="M76 0v1413q192 17 524 17q127 0 209 -16.5t137 -59t78 -113t23 -180.5q0 -155 -50.5 -233.5t-165.5 -90.5v-8q134 -13 194 -107.5t60 -269.5q0 -109 -24.5 -180.5t-79.5 -113t-131 -58t-191 -16.5q-386 0 -583 16zM463 260h121q66 0 86 32.5t20 137.5q0 112 -19.5 146.5 t-88.5 35.5h-119v-352zM463 852h117q55 0 70.5 29t15.5 123q0 93 -15.5 121t-72.5 28h-115v-301z" />
<glyph unicode="C" horiz-adv-x="1028" d="M43 707q0 272 53.5 430.5t170.5 229.5t317 71q130 0 212.5 -12t178.5 -40l-29 -290q-119 6 -362 6q-51 0 -77.5 -34.5t-37 -117t-10.5 -243.5t10.5 -243.5t37 -117.5t77.5 -35q267 0 389 17l28 -289q-92 -34 -186.5 -49t-230.5 -15q-200 0 -317 71.5t-170.5 230 t-53.5 430.5z" />
<glyph unicode="D" horiz-adv-x="1191" d="M76 0v1413q289 19 514 19q159 0 260.5 -33t170 -117t96.5 -222t28 -353t-28 -353t-96.5 -222t-170 -117t-260.5 -33q-249 0 -514 18zM471 272h119q56 0 84 39t39.5 129t11.5 267t-11.5 267.5t-39.5 129.5t-84 39h-119v-871z" />
<glyph unicode="E" horiz-adv-x="1009" d="M70 301v811q1 138 75.5 223.5t188.5 85.5q472 0 639 -24l-19 -283h-413q-29 0 -51.5 -23.5t-22.5 -62.5v-166h426v-268h-426v-207q0 -42 22.5 -66t51.5 -24h413l19 -281q-167 -24 -639 -24q-112 0 -187.5 86t-76.5 223z" />
<glyph unicode="F" horiz-adv-x="974" d="M72 0v1108q0 139 77 226t191 87q463 0 621 -26l-21 -281h-401q-28 0 -49 -23.5t-21 -62.5v-194h412v-271h-412v-563h-397z" />
<glyph unicode="G" horiz-adv-x="1132" d="M45 709q0 277 53.5 435t169.5 227t318 69q170 0 258.5 -11t191.5 -43l-30 -284q-393 6 -426 6q-50 0 -74.5 -32t-34.5 -116t-10 -255q0 -159 14.5 -243.5t46.5 -119.5t92 -35q57 0 93 19v489h378v-815h-290l-35 150q-45 -70 -128 -123.5t-186 -53.5q-211 0 -306 171 t-95 565z" />
<glyph unicode="H" horiz-adv-x="1208" d="M76 0v1413h395v-520h262v520h400v-1413h-400v606h-262v-606h-395z" />
<glyph unicode="I" horiz-adv-x="548" d="M76 0v1413h395v-1413h-395z" />
<glyph unicode="J" horiz-adv-x="704" d="M10 23l41 251h88q48 0 74.5 21.5t26.5 62.5v1055h391v-1139q0 -144 -87 -223.5t-239 -79.5q-72 0 -163.5 14t-131.5 38z" />
<glyph unicode="K" horiz-adv-x="1159" d="M76 0v1413h395v-373q0 -88 -18 -176h57l227 549h426l-243 -555q-14 -26 -33.5 -50t-42.5 -46.5t-25 -24.5v-10q85 -77 115 -133l248 -594h-445l-225 600h-57q16 -72 16 -129v-471h-395z" />
<glyph unicode="L" horiz-adv-x="952" d="M72 305v1108h395v-1014q0 -37 22 -60.5t48 -23.5h393l16 -297q-193 -26 -622 -26q-95 0 -173.5 91t-78.5 222z" />
<glyph unicode="M" horiz-adv-x="1622" d="M57 0l41 1272q3 141 133 141h324q127 0 152 -123l75 -614q19 -131 21 -207h16q2 26 6.5 96.5t8.5 108.5l77 616q8 60 46 91.5t104 31.5h330q132 0 135 -141l41 -1272h-353l-36 1116h-19l-117 -780q-4 -60 -42.5 -90.5t-100.5 -30.5h-178q-127 0 -148 121l-116 780h-19 l-28 -1116h-353z" />
<glyph unicode="N" horiz-adv-x="1236" d="M76 0v1274q0 67 35 103t100 36h151q62 0 95.5 -26t58.5 -89l215 -458q21 -58 47.5 -171t36.5 -147h8q-12 145 -12 332v559h352v-1274q0 -139 -135 -139h-149q-59 0 -94 26.5t-60 88.5l-211 471q-13 36 -25.5 81.5t-19.5 78.5t-18.5 86t-16.5 77h-12q14 -191 14 -327 l-2 -582h-358z" />
<glyph unicode="O" d="M43 707q0 146 12.5 255t40.5 191.5t70 136.5t105.5 88t141.5 48t183 14q128 0 217 -21t156.5 -70t106.5 -134.5t58 -208.5t19 -299q0 -219 -28 -359t-96.5 -224.5t-170.5 -117.5t-262 -33q-158 0 -259.5 33t-169.5 117.5t-96 224.5t-28 359zM463 707q0 -179 11.5 -269 t40 -128t85.5 -38t85.5 38t40 128t11.5 269q0 135 -5.5 215t-21.5 131t-41.5 69.5t-68.5 18.5q-57 0 -85.5 -38t-40 -127.5t-11.5 -268.5z" />
<glyph unicode="P" horiz-adv-x="1107" d="M76 0v1413q190 19 512 19q149 0 242.5 -21t154 -76.5t84 -144t23.5 -229.5t-22.5 -231.5t-77.5 -145t-137 -76t-210 -21.5q-69 0 -174 11v-498h-395zM471 772h109q66 0 89 39t23 150q0 113 -22 150.5t-90 37.5h-109v-377z" />
<glyph unicode="Q" horiz-adv-x="1202" d="M45 707q0 146 12.5 255t40.5 191.5t70 136.5t105.5 88t141.5 48t183 14q128 0 217 -21t156.5 -70t106.5 -134.5t58 -208.5t19 -299q0 -219 -28 -359t-96.5 -224.5t-170.5 -117.5t-262 -33q-158 0 -259.5 33t-169.5 117.5t-96 224.5t-28 359zM414 -254l84 193 q215 -90 555 -146l-86 -328q-339 100 -553 281zM461 707q0 -179 11.5 -269t40 -128t85.5 -38t85.5 38t40 128t11.5 269q0 135 -5.5 215t-21.5 131t-41.5 69.5t-68.5 18.5q-57 0 -85.5 -38t-40 -127.5t-11.5 -268.5z" />
<glyph unicode="R" horiz-adv-x="1157" d="M76 0v1413q190 19 514 19q137 0 230 -20t158 -69t94.5 -130.5t29.5 -204.5q0 -146 -56.5 -235t-189.5 -107v-11q165 -34 203 -219l86 -436h-410l-73 424q-12 62 -32.5 83t-66.5 21h-98v-528h-389zM465 817h117h4q69 1 92 33q24 34 24 131q0 101 -23.5 134.5t-96.5 33.5 h-117v-332z" />
<glyph unicode="S" horiz-adv-x="1042" d="M41 1034q0 122 25.5 200t87 125t153.5 65t236 18q258 0 434 -66l-23 -258q-104 4 -428 4q-57 0 -76.5 -14.5t-19.5 -67.5q0 -44 19.5 -67t82.5 -51l209 -103q145 -70 206 -168.5t61 -255.5q0 -98 -15 -167t-48 -120t-90 -80t-137 -43t-194 -14q-227 0 -473 64l25 280 q328 -12 438 -12q60 0 81 16.5t21 67.5q0 46 -13.5 68t-59.5 43l-236 114q-142 70 -204 168.5t-62 253.5z" />
<glyph unicode="T" horiz-adv-x="1050" d="M8 1110v303h1036v-303h-321v-1110h-397v1110h-318z" />
<glyph unicode="U" d="M68 578v835h395v-835q0 -180 29 -243t114 -63q79 0 106 62.5t27 243.5v835h396v-835q0 -226 -50 -356.5t-160 -189.5t-300 -59q-308 0 -432.5 135.5t-124.5 469.5z" />
<glyph unicode="V" horiz-adv-x="1144" d="M-8 1413h409l136 -958q2 -26 8 -80.5t8 -79.5h39l20 160l131 958h410l-276 -1304q-8 -50 -43 -79.5t-89 -29.5h-346q-51 0 -87.5 30t-45.5 79z" />
<glyph unicode="W" horiz-adv-x="1691" d="M25 1413h381l57 -909q-1 -18 1 -96q1 -47 1 -83v-44h24q23 159 29 223l70 790q3 53 41.5 86t91.5 33h250q53 0 88 -32.5t41 -86.5l76 -792q3 -88 26 -221h27q-3 8 -3 45q0 26 2 66q4 98 3 108l49 913h383l-141 -1307q-4 -46 -43.5 -76t-87.5 -30h-314q-54 0 -93 30.5 t-42 78.5l-72 833q-9 99 -12 197h-27q0 -99 -12 -201l-67 -829q-3 -48 -42.5 -78.5t-88.5 -30.5h-320q-51 0 -90 30t-45 76z" />
<glyph unicode="X" horiz-adv-x="1157" d="M-20 0l290 721l-268 692h387l191 -532l190 532h383l-264 -692l289 -721h-381l-217 569l-213 -569h-387z" />
<glyph unicode="Y" horiz-adv-x="1126" d="M-20 1413h407l133 -473q22 -81 29 -188h26q24 149 35 188l131 473h408l-387 -967v-446h-397v451z" />
<glyph unicode="Z" horiz-adv-x="1030" d="M35 0v285l485 843h-465v285h920v-285l-490 -843h506v-285h-956z" />
<glyph unicode="[" horiz-adv-x="612" d="M92 -150v1534q0 84 50.5 136.5t131.5 52.5h306v-234h-91q-17 0 -26.5 -12t-9.5 -31v-1357q0 -19 9.5 -31t26.5 -12h91v-234h-306q-88 0 -135 42.5t-47 145.5z" />
<glyph unicode="\" horiz-adv-x="1009" d="M27 1413h301l655 -1569h-301z" />
<glyph unicode="]" horiz-adv-x="612" d="M33 -104h88q17 0 28 12t11 31v1357q0 19 -11 31t-28 12h-88v234h305q82 0 131 -52.5t49 -136.5v-1534q0 -84 -49 -136t-131 -52h-305v234z" />
<glyph unicode="^" horiz-adv-x="849" d="M49 840l236 479h282l230 -479l-150 -80l-215 330h-10l-225 -330z" />
<glyph unicode="_" horiz-adv-x="757" d="M0 0h758v-231h-758v231z" />
<glyph unicode="`" horiz-adv-x="675" d="M94 1274l127 248l412 -305l-105 -162z" />
<glyph unicode="a" horiz-adv-x="1003" d="M23 264v103q0 122 75.5 191t204.5 69h260v22q-1 61 -19.5 86t-60.5 25q-198 0 -374 -10l-39 247q97 22 244 37t264 15q90 0 155 -20t114 -66t73 -125t24 -193v-645h-305l-29 129q-113 -158 -297 -158q-122 0 -206 78t-84 215zM393 317q0 -77 68 -77q53 0 102 30v158h-102 q-29 0 -48.5 -21t-19.5 -53v-37z" />
<glyph unicode="b" horiz-adv-x="1050" d="M61 57v1377h385l5 -297q1 -15 1 -31q0 -93 -26 -197q122 140 266 140q185 0 254.5 -119.5t69.5 -407.5q0 -66 -5 -121.5t-18.5 -113t-35 -102.5t-57.5 -85.5t-84 -67t-115 -42t-150 -15.5q-116 0 -270.5 22t-219.5 60zM444 721l2 -471q50 -9 81 -9q8 0 16 1q32 2 48 25.5 t23 81t7 169.5q0 137 -21.5 187.5t-69.5 50.5q-42 0 -86 -35z" />
<glyph unicode="c" horiz-adv-x="897" d="M35 510q0 297 103 418t358 121q95 0 195.5 -17.5t168.5 -56.5l-35 -236q-62 0 -145.5 1t-114.5 1q-75 0 -101 -47.5t-26 -183.5t26 -182.5t101 -46.5q166 0 275 16l34 -244q-147 -78 -380 -78q-254 0 -356.5 120.5t-102.5 414.5z" />
<glyph unicode="d" horiz-adv-x="1056" d="M41 522q0 203 35.5 320t101.5 162t176 45q162 0 260 -76q-4 136 -4 207v254h387v-1434h-309l-33 172q-76 -197 -307 -197q-162 0 -234.5 138t-72.5 409zM436 524q0 -103 9.5 -155.5t26 -69t48.5 -16.5q60 0 90 24v459q-42 22 -92 22q-31 0 -47 -17.5t-25.5 -75.5 t-9.5 -171z" />
<glyph unicode="e" horiz-adv-x="1011" d="M35 504q0 301 111 423t389 122q239 0 344.5 -89t107.5 -272v-12q0 -90 -29 -144q-31 -58 -113.5 -89t-228.5 -31h-176q7 -81 36 -110.5t97 -29.5q121 0 355 21l35 -230q-162 -88 -431 -88t-383 127t-114 402zM436 608h80q65 0 86 18.5t21 67.5q-1 54 -21 75.5t-57 21.5 h-9q-52 -1 -74 -33q-22 -36 -26 -150z" />
<glyph unicode="f" horiz-adv-x="724" d="M6 782v226l131 10v137q0 324 326 324q209 0 317 -25l-32 -237h-146q-42 0 -58 -25.5t-16 -91.5v-82h193v-236h-193v-782h-391v782h-131z" />
<glyph unicode="g" horiz-adv-x="1030" d="M2 -66q0 66 30.5 114.5t108.5 84.5q-44 45 -52 110q-2 15 -2 29q0 49 21 93q28 57 80 84q-147 68 -147 270q0 179 105 254.5t350 75.5q150 0 252 -31h284l-20 -150l-92 -16q16 -59 16 -129q0 -177 -101 -250.5t-343 -73.5q-66 0 -134 7q-10 -19 -11 -40t17 -39t52 -22 l311 -31q146 -15 210 -89t64 -214q0 -88 -19.5 -149t-55.5 -100t-100 -61t-139.5 -30t-186.5 -8q-133 0 -220 10.5t-143.5 30.5t-85 59.5t-39 87t-10.5 123.5zM356 -14q0 -63 28.5 -81t119.5 -18q80 0 111.5 17.5t31.5 70.5q0 31 -28.5 43t-98.5 21l-139 16q-25 -25 -25 -69 zM401 723q0 -60 18.5 -81t72.5 -21q50 0 68 21t18 81q0 61 -17.5 81.5t-68.5 20.5q-55 0 -73 -20t-18 -82z" />
<glyph unicode="h" horiz-adv-x="1058" d="M59 0v1434h385l5 -322q0 -87 -19 -203q155 140 309 140q126 0 192 -73.5t66 -211.5v-764h-387v641q0 46 -17.5 65t-55.5 19q-30 0 -93 -39v-686h-385z" />
<glyph unicode="i" horiz-adv-x="520" d="M63 1260v108q0 113 117 113h154q117 0 117 -113v-108q0 -113 -117 -113h-154q-117 0 -117 113zM68 0v1018h383v-1018h-383z" />
<glyph unicode="j" horiz-adv-x="518" d="M-57 -227q69 76 96 149.5t27 167.5v928h383v-928q0 -154 -78 -287t-213 -198zM55 1276v108q0 113 117 113h158q55 0 84.5 -29.5t29.5 -83.5v-108q0 -113 -114 -113h-158q-117 0 -117 113z" />
<glyph unicode="k" horiz-adv-x="1052" d="M59 0v1434h385v-564q0 -112 -16 -196h39l149 344h424l-168 -340q-19 -35 -48.5 -67t-53.5 -48v-4q21 -14 51.5 -52t50.5 -75l199 -432h-420l-182 453h-39q14 -93 14 -150v-303h-385z" />
<glyph unicode="l" horiz-adv-x="614" d="M61 256v1178h381l2 -1078q0 -84 84 -84h60l39 -249q-38 -23 -120.5 -37.5t-141.5 -14.5q-142 0 -223 75.5t-81 209.5z" />
<glyph unicode="m" horiz-adv-x="1484" d="M59 0v1018h295l39 -152q50 65 90.5 102.5t91.5 59t113 21.5q171 0 221 -152q62 79 125.5 115.5t147.5 36.5q245 0 245 -285v-764h-383v641q0 46 -12.5 65t-40.5 19q-26 0 -63 -35v-690h-371v641q-1 46 -13.5 65t-39.5 19q-25 0 -62 -29v-696h-383z" />
<glyph unicode="n" horiz-adv-x="1058" d="M59 0v1018h291l43 -156q80 92 171.5 139.5t178.5 47.5q126 0 192 -73.5t66 -211.5v-764h-387v641q0 46 -17.5 65t-55.5 19q-33 0 -99 -43l2 -682h-385z" />
<glyph unicode="o" horiz-adv-x="1040" d="M35 508q0 297 108 419t375 122t377.5 -122.5t110.5 -418.5q0 -293 -110.5 -414t-377.5 -121q-268 0 -375.5 120.5t-107.5 414.5zM438 508q0 -112 7 -167t24.5 -77t52.5 -22q49 0 62.5 50t13.5 216q0 170 -13.5 220t-62.5 50q-35 0 -52.5 -22t-24.5 -77.5t-7 -170.5z" />
<glyph unicode="p" horiz-adv-x="1044" d="M59 -375v1393h308l28 -148q34 75 113.5 124.5t183.5 49.5q163 0 236 -138t73 -408q0 -154 -18 -256.5t-57.5 -162t-94.5 -84t-137 -24.5q-164 0 -256 74q4 -140 4 -189v-16v-215h-383zM442 252q35 -21 86 -21q31 0 46.5 18.5t23.5 75.5t8 171q0 112 -10 170t-27.5 76 t-50.5 18q-34 0 -50 -15t-26 -45v-448z" />
<glyph unicode="q" horiz-adv-x="1050" d="M35 502q0 105 10 181.5t39 149t79.5 117.5t135 72t201.5 27q120 0 271.5 -22.5t219.5 -63.5l-4 -2v-1336h-387l2 275q0 113 21 215q-47 -61 -115 -101.5t-146 -40.5q-75 0 -131.5 22.5t-93.5 64.5t-60 108.5t-32.5 147t-9.5 186.5zM430 502q0 -124 22.5 -171.5 t75.5 -47.5q41 0 72 22v471q-49 6 -86 6q-34 -3 -51.5 -27t-25 -81.5t-7.5 -171.5z" />
<glyph unicode="r" horiz-adv-x="774" d="M59 0v1018h303l35 -150q161 181 328 181h53l-35 -353h-92q-82 0 -207 -37v-659h-385z" />
<glyph unicode="s" horiz-adv-x="944" d="M33 752q0 154 89.5 225t315.5 72q276 -4 447 -43l-25 -230h-334q-86 0 -103 -5t-17 -36q0 -22 10.5 -29.5t56.5 -22.5q17 -6 27 -9l192 -64q119 -42 175.5 -110.5t56.5 -194.5q0 -188 -92.5 -258t-319.5 -70q-261 0 -469 39l29 232q39 -2 305 -2q64 0 94 1t50.5 6.5 t25 14t4.5 25.5q0 25 -13.5 34.5t-71.5 29.5q-14 5 -22 8l-184 61q-71 23 -117 54t-69.5 74t-32 88t-8.5 110z" />
<glyph unicode="t" horiz-adv-x="741" d="M10 782v226l137 8v276h394v-274h188v-236h-188v-426q0 -84 63 -84h86l41 -249q-56 -23 -144 -37.5t-159 -14.5q-126 0 -203.5 78t-77.5 211v522h-137z" />
<glyph unicode="u" horiz-adv-x="1046" d="M55 258v760h385v-641q-1 -43 16.5 -64.5t47.5 -21.5q38 0 94 37v690h389v-1018h-303l-37 160q-80 -96 -161.5 -141.5t-176.5 -45.5q-254 0 -254 285z" />
<glyph unicode="v" horiz-adv-x="1026" d="M-12 1018h405l90 -590q6 -31 21 -190h22q7 104 23 190l84 590h405l-239 -928q-12 -40 -46 -65t-75 -25h-328q-45 0 -78 24.5t-45 65.5z" />
<glyph unicode="w" horiz-adv-x="1488" d="M8 1018h377l47 -604l12 -176h21q12 174 12 176l58 491q6 52 41.5 82.5t85.5 30.5h157q53 0 89 -31t42 -84l56 -489q9 -87 12 -176h18q9 61 19 176l41 604h381l-164 -920q-9 -44 -43.5 -71t-79.5 -27h-242q-51 0 -86 32t-41 83l-63 503q-8 88 -8 152v25h-21 q-5 -146 -8 -177l-59 -503q-6 -51 -42.5 -83t-87.5 -32h-241q-46 0 -79 27t-42 71z" />
<glyph unicode="x" horiz-adv-x="1048" d="M-8 0l246 520l-228 498h352l162 -375l166 375h348l-227 -498l246 -520h-352l-181 399l-182 -399h-350z" />
<glyph unicode="y" horiz-adv-x="1034" d="M-12 1018h407l86 -598q2 -17 9.5 -80t13.5 -96h14q23 96 33 176l86 598h407l-264 -1006q-11 -42 -26 -82t-37.5 -83.5t-49.5 -80t-62.5 -71.5t-77.5 -57.5t-93 -39.5q-49 -16 -105 -16h-7q-59 1 -129 12l-27 211q101 28 161.5 74t92.5 121h-68q-44 0 -76 25t-43 67z" />
<glyph unicode="z" horiz-adv-x="909" d="M35 0v256l366 510h-352v252h813v-252l-370 -510h380v-256h-837z" />
<glyph unicode="{" horiz-adv-x="606" d="M27 551v242q43 20 52 30q19 24 19 107v350q0 166 115 249t350 44v-234q-59 0 -78.5 -17.5t-19.5 -80.5v-272q2 -138 -40.5 -207t-158.5 -90q114 -36 158.5 -105t46.5 -184v-395q0 -63 18.5 -77.5t79.5 -14.5v-234q-237 -39 -352 44t-115 249v467q0 43 -7.5 66t-18 32.5 t-38.5 24.5q-7 4 -11 6z" />
<glyph unicode="|" horiz-adv-x="473" d="M102 -346v1945h269v-1945h-269z" />
<glyph unicode="}" horiz-adv-x="604" d="M35 -104q60 0 78 14.5t18 77.5v395q2 115 46.5 184t160.5 105q-116 21 -159.5 90.5t-41.5 206.5v272q0 63 -19 80.5t-77 17.5v234q234 39 348.5 -44t114.5 -249v-350q0 -52 6.5 -76.5t17 -33.5t39.5 -22q7 -3 11 -5v-242q-3 -2 -16.5 -9.5t-15.5 -9t-12 -8t-11.5 -9.5 t-8 -10.5t-7 -14.5t-3.5 -17.5t-3.5 -22.5t-0.5 -28v-467q0 -166 -115.5 -249t-349.5 -44v234z" />
<glyph unicode="~" horiz-adv-x="823" d="M61 432q-26 160 20.5 245t127.5 85q45 -4 197 -49.5t155 -46.5q34 -8 40.5 8t6.5 78h156q27 -161 -17 -248t-131 -82q-46 1 -195.5 45.5t-160.5 46.5q-34 8 -40.5 -7t-6.5 -75h-152z" />
<glyph unicode="&#xa1;" horiz-adv-x="538" d="M78 139l39 459h301l39 -459v-504h-379v504zM96 831v93q0 75 28 104t103 29h88q74 0 100.5 -28.5t26.5 -104.5v-93q0 -76 -26.5 -103.5t-100.5 -27.5h-88q-75 0 -103 28t-28 103z" />
<glyph unicode="&#xa2;" horiz-adv-x="958" d="M37 711q0 278 88.5 400.5t304.5 135.5l21 166h301l-23 -188q85 -21 133 -49l-35 -228q-113 -6 -260 -6q-68 0 -91 -46.5t-23 -184.5q0 -135 23.5 -182.5t90.5 -47.5q159 0 275 17l35 -244q-121 -63 -295 -76l-21 -178h-307l27 205q-131 44 -187.5 164t-56.5 342z" />
<glyph unicode="&#xa3;" horiz-adv-x="1021" d="M49 840h117l-14 207q-7 118 11 194t67.5 119.5t121.5 60.5t183 17q166 0 409 -21l-22 -282q-15 0 -33.5 -0.5t-40.5 -0.5t-84 -0.5t-154 -0.5q-39 0 -55 -23.5t-16 -81.5l16 -188h246l-13 -189h-217l4 -45q5 -60 -1.5 -107.5t-24.5 -82t-35.5 -57t-43.5 -50.5 q-13 -13 -19 -20q47 18 151 18h379v-307h-928v307q84 47 110 119t19 180l-4 45h-127z" />
<glyph unicode="&#xa4;" horiz-adv-x="950" d="M39 381l125 147q-37 92 -37 191q0 108 43 205l-121 149l160 156l108 -133q71 47 160 47q85 0 162 -49l111 135l157 -156l-123 -151q43 -94 43 -203q0 -112 -45 -207l125 -143l-155 -156l-115 131q-71 -47 -160 -47q-85 0 -162 49l-106 -131zM340 721q0 -84 40.5 -145.5 t92.5 -61.5q57 0 96 61t39 146q0 88 -39.5 149.5t-95.5 61.5q-52 0 -92.5 -62.5t-40.5 -148.5z" />
<glyph unicode="&#xa5;" horiz-adv-x="1060" d="M-53 1413h411l129 -493q27 -88 27 -191h27q1 9 5.5 45.5t7 53t8 44t11.5 48.5l132 493h409l-268 -690h203v-227h-1051v227h215zM-2 193v223h1051v-223h-322v-193h-397v193h-332z" />
<glyph unicode="&#xa6;" horiz-adv-x="468" d="M100 -346v819h269v-819h-269zM100 780v819h269v-819h-269z" />
<glyph unicode="&#xa7;" horiz-adv-x="952" d="M41 1114q0 78 18.5 134.5t52.5 93.5t89.5 59t121.5 30.5t156 8.5q226 0 408 -25l-29 -260q-40 2 -256 2q-85 0 -113 -9t-34 -48q-4 -24 7.5 -46t21 -30t36.5 -31l189 -123q81 -44 127.5 -95.5t62 -116.5t7 -137.5t-39.5 -168.5h-252l115 -78q4 -3 25 -18.5t29.5 -22.5 t28.5 -26t29.5 -34t24.5 -41.5t22.5 -53.5t13 -64.5t5.5 -79.5q0 -97 -26 -160t-83 -99t-134 -50t-193 -14q-257 0 -405 24l24 263q78 -4 258 -4q82 0 112 10.5t36 46.5q4 24 -7 45t-25 32.5t-40 28.5l-182 125q-82 45 -129.5 96.5t-63.5 115.5t-7 136t42 166h252l-119 82 q-6 6 -31 26t-39.5 33t-37.5 42t-35.5 58.5t-22.5 76t-10 100.5zM348 688q1 -74 13.5 -115t39.5 -68.5t88 -66.5l113 -78q-4 109 -30 153t-115 99z" />
<glyph unicode="&#xa8;" horiz-adv-x="737" d="M76 1264v127q0 75 63 75h129q64 0 64 -75v-127q0 -76 -64 -76h-129q-63 0 -63 76zM401 1264v127q0 75 66 75h127q34 0 47.5 -18t13.5 -57v-127q0 -39 -13.5 -57.5t-47.5 -18.5h-127q-66 0 -66 76z" />
<glyph unicode="&#xa9;" horiz-adv-x="1280" d="M33 707q0 209 80.5 377.5t219 262t306.5 93.5q170 0 309 -93.5t219 -262t80 -377.5t-80 -377.5t-219 -262.5t-309 -94q-168 0 -306.5 94t-219 262.5t-80.5 377.5zM221 707q0 -239 122.5 -397t299.5 -158q176 0 300 158.5t124 396.5t-124 396.5t-300 158.5 q-177 0 -299.5 -158t-122.5 -397zM328 711q0 225 71.5 315t251.5 90q78 0 124 -6t110 -23l-19 -200q-35 0 -100 1t-117 1q-24 0 -28.5 -29.5t-4.5 -148.5q0 -122 4 -150.5t29 -28.5q167 0 228 7l20 -201q-115 -41 -246 -41q-180 0 -251.5 92.5t-71.5 321.5z" />
<glyph unicode="&#xaa;" horiz-adv-x="718" d="M41 739v72q0 82 51 129t141 47h152v10q0 35 -12 50.5t-39 15.5q-144 0 -238 -6l-24 178q61 13 163.5 24t163.5 11q135 0 200 -62t65 -213v-428h-224l-18 74q-66 -96 -182 -96q-83 0 -141 51.5t-58 142.5zM307 784q0 -43 33 -43q19 0 45 15v98l-45 -6q-33 -13 -33 -45v-19 z" />
<glyph unicode="&#xab;" horiz-adv-x="933" d="M25 473v82l266 406l201 -130l-138 -317l135 -330l-200 -125zM432 473v82l266 406l199 -130l-135 -317l133 -330l-199 -125z" />
<glyph unicode="&#xac;" horiz-adv-x="942" d="M57 496v266h815v-481h-286v215h-529z" />
<glyph unicode="&#xad;" horiz-adv-x="616" d="M66 408v231h481v-231h-481z" />
<glyph unicode="&#xae;" horiz-adv-x="802" d="M31 987q0 189 107.5 322t262.5 133t263 -133t108 -322q0 -191 -108 -324t-263 -133t-262.5 133t-107.5 324zM135 987q0 -146 79 -249t187 -103t187.5 103t79.5 249q0 144 -79.5 246t-187.5 102t-187 -102t-79 -246zM236 772v445q51 6 172 6q91 0 131.5 -29.5t40.5 -106.5 q0 -95 -78 -102v-4q16 -3 27 -7.5t23 -21.5t17 -45l23 -135h-160l-14 131q-4 18 -9.5 23.5t-17.5 5.5v-160h-155zM391 1028h10q15 1 18 8t3 30v7q0 34 -5 38q-4 3 -16 3h-10v-86z" />
<glyph unicode="&#xaf;" horiz-adv-x="671" d="M63 1214v230h549v-230h-549z" />
<glyph unicode="&#xb0;" horiz-adv-x="532" d="M25 1161q0 115 72 197t167 82q102 0 173 -80.5t71 -198.5t-72 -200t-172 -82q-98 0 -168.5 82t-70.5 200zM182 1161q0 -47 24 -78.5t58 -31.5q35 0 58.5 31.5t23.5 78.5t-24 77t-58 30t-58 -30t-24 -77z" />
<glyph unicode="&#xb1;" horiz-adv-x="913" d="M63 59v281h787v-281h-787zM63 641v281h254v231h279l2 -231h252v-281h-250l2 -225h-285v225h-254z" />
<glyph unicode="&#xb2;" horiz-adv-x="720" d="M53 737v146q0 69 39 118l113 154q110 127 131 170q6 23 -2.5 30t-32.5 7q-37 0 -109 -1t-126 -1l-7 215q138 24 279 24q172 0 243.5 -47t71.5 -184q0 -22 -9.5 -45.5t-18.5 -38t-35.5 -49.5t-38.5 -53l-150 -213q43 14 97 14l170 -6l2 -240h-617z" />
<glyph unicode="&#xb3;" horiz-adv-x="690" d="M45 743l6 209q113 -6 209 -6q60 0 75 13t15 57q0 35 -11 48t-48 13l-146 8v177l146 4q35 3 46 15.5t11 43.5t-10 41t-45 10h-223l-7 203q158 23 283 23q162 0 224.5 -42.5t62.5 -154.5q0 -103 -27.5 -152.5t-109.5 -62.5v-4q89 -13 121 -60.5t34 -152.5 q2 -138 -66.5 -195t-236.5 -57q-131 0 -303 22z" />
<glyph unicode="&#xb4;" horiz-adv-x="675" d="M59 1217l414 305l127 -248l-440 -219z" />
<glyph unicode="&#xb6;" horiz-adv-x="1058" d="M33 922q0 283 131.5 399.5t445.5 116.5q201 0 338 -35l-4 -86v-1317h-219v1212l-74 2v-1644h-221v842q-212 23 -304.5 142t-92.5 368z" />
<glyph unicode="&#xb7;" horiz-adv-x="436" d="M49 483v90q0 75 28 102t103 27h78q76 0 103.5 -27t27.5 -102v-90q0 -76 -27.5 -104.5t-103.5 -28.5h-78q-75 0 -103 29t-28 104z" />
<glyph unicode="&#xb8;" horiz-adv-x="444" d="M14 -498l35 152q69 -2 111.5 21.5t48.5 88.5q1 21 -15 25t-92 4h-20l35 135q109 14 179 12.5t102 -35t28 -110.5q-5 -109 -61.5 -181.5t-147 -100t-203.5 -11.5z" />
<glyph unicode="&#xb9;" horiz-adv-x="546" d="M2 1503l184 82h291v-848h-291v504q0 75 13 115l-162 -33z" />
<glyph unicode="&#xba;" horiz-adv-x="718" d="M33 907q0 198 73.5 280.5t253.5 82.5q178 0 250 -82t72 -281q0 -197 -72 -276.5t-250 -79.5q-180 0 -253.5 80t-73.5 276zM326 907q0 -106 5.5 -137t28.5 -31q22 0 29.5 33t7.5 135q0 105 -7.5 137.5t-29.5 32.5q-23 0 -28.5 -30t-5.5 -140z" />
<glyph unicode="&#xbb;" horiz-adv-x="933" d="M37 831l201 130l266 -406v-82l-264 -414l-201 125l133 330zM444 831l199 130l266 -406v-82l-264 -414l-199 125l134 330z" />
<glyph unicode="&#xbc;" horiz-adv-x="1609" d="M35 1331l164 82h290v-848h-290v504q0 84 10 115l-139 -33zM299 0l631 1413h225l-633 -1413h-223zM860 299l172 549h252l-135 -471q-6 -25 12 -25h76v201l43 127h223v-328h74v-164l-70 -26h-4v-162h-266v162h-299q-43 0 -66.5 39.5t-11.5 97.5z" />
<glyph unicode="&#xbd;" horiz-adv-x="1599" d="M35 1331l164 82h290v-848h-290v504q0 84 10 115l-139 -33zM309 0l629 1413h221l-627 -1413h-223zM954 0v145q0 41 8.5 68.5t34.5 50.5l103 154q20 27 51.5 67.5t49 64t26.5 38.5q7 23 -0.5 30t-28.5 7q-34 0 -104.5 -1t-122.5 -1l-10 215q133 24 268 24q85 0 139.5 -9.5 t96 -34.5t59.5 -70.5t18 -116.5q0 -100 -98 -228l-141 -172q53 15 92 15l159 -6l2 -240h-602z" />
<glyph unicode="&#xbe;" horiz-adv-x="1720" d="M45 567l6 209q113 -6 205 -6q55 0 67.5 11.5t12.5 56.5q0 40 -9 53.5t-40 13.5h-142v178l142 2q29 -1 36 11.5t7 50.5q0 21 -0.5 27t-4 14.5t-12 10t-24.5 1.5h-219l-7 203q134 20 279 20q156 0 215 -42t59 -152q0 -105 -27 -155t-106 -60v-4q85 -13 116.5 -60.5 t33.5 -152.5q2 -139 -64.5 -197.5t-228.5 -58.5q-142 0 -295 26zM412 0l630 1413h224l-631 -1413h-223zM969 299l174 549h252l-135 -471q-8 -25 16 -25h70v201l45 127h221v-328h78v-164l-72 -26h-6v-162h-266v162h-295q-45 0 -68 39t-14 98z" />
<glyph unicode="&#xbf;" horiz-adv-x="913" d="M29 -86q0 69 20.5 130t51.5 103.5t69 92t71.5 95t60 114t34.5 147.5h297q5 -97 -11.5 -183t-44.5 -146t-57 -108.5t-53 -91t-29 -73.5q-10 -51 8.5 -72.5t71.5 -21.5q106 0 352 4l9 -254q-16 -3 -57.5 -12.5t-56.5 -12t-50.5 -9t-59.5 -8.5t-62.5 -5.5t-80.5 -4.5t-94 -1 q-198 0 -293.5 77.5t-95.5 239.5zM311 834v88q0 76 27.5 104.5t103.5 28.5h84q77 0 104 -28.5t27 -104.5v-88q0 -76 -27 -105t-104 -29h-84q-76 0 -103.5 29t-27.5 105z" />
<glyph unicode="&#xc0;" horiz-adv-x="1161" d="M-23 0l293 1311q10 47 46.5 74.5t86.5 27.5h355q50 0 88 -27.5t51 -74.5l287 -1311h-402l-53 330h-291l-53 -330h-408zM238 1692l127 247l411 -305l-104 -161zM485 614h197l-57 353q-17 106 -21 151h-45q-3 -71 -16 -151z" />
<glyph unicode="&#xc1;" horiz-adv-x="1161" d="M-23 0l293 1311q10 47 46.5 74.5t86.5 27.5h355q50 0 88 -27.5t51 -74.5l287 -1311h-402l-53 330h-291l-53 -330h-408zM399 1634l414 305l127 -247l-440 -219zM485 614h197l-57 353q-17 106 -21 151h-45q-3 -71 -16 -151z" />
<glyph unicode="&#xc2;" horiz-adv-x="1161" d="M-23 0l293 1311q10 47 46.5 74.5t86.5 27.5h355q50 0 88 -27.5t51 -74.5l287 -1311h-402l-53 330h-291l-53 -330h-408zM199 1604l241 268h279l231 -281l-78 -131l-284 189h-10l-297 -189zM485 614h197l-57 353q-17 106 -21 151h-45q-3 -71 -16 -151z" />
<glyph unicode="&#xc3;" horiz-adv-x="1161" d="M-23 0l293 1311q10 47 46.5 74.5t86.5 27.5h355q50 0 88 -27.5t51 -74.5l287 -1311h-402l-53 330h-291l-53 -330h-408zM248 1542q-27 161 20.5 248t124.5 80q65 -6 162.5 -46t126.5 -46q30 -7 36.5 7.5t6.5 66.5v8h160q27 -157 -17 -245.5t-129 -82.5q-65 6 -164.5 48.5 t-121.5 47.5q-32 6 -38.5 -8.5t-6.5 -63.5v-14h-160zM485 614h197l-57 353q-17 106 -21 151h-45q-3 -71 -16 -151z" />
<glyph unicode="&#xc4;" horiz-adv-x="1161" d="M-23 0l293 1311q10 47 46.5 74.5t86.5 27.5h355q50 0 88 -27.5t51 -74.5l287 -1311h-402l-53 330h-291l-53 -330h-408zM285 1634v127q0 76 63 76h129q64 0 64 -76v-127q0 -75 -64 -75h-129q-63 0 -63 75zM485 614h197l-57 353q-17 106 -21 151h-45q-3 -71 -16 -151z M610 1634v127q0 76 66 76h127q34 0 47.5 -18.5t13.5 -57.5v-127q0 -39 -13.5 -57t-47.5 -18h-127q-66 0 -66 75z" />
<glyph unicode="&#xc5;" horiz-adv-x="1161" d="M-23 0l293 1311q10 47 46.5 74.5t86.5 27.5h355q50 0 88 -27.5t51 -74.5l287 -1311h-402l-53 330h-291l-53 -330h-408zM356 1706q0 104 66.5 178t157.5 74q89 0 155 -74.5t66 -177.5t-65.5 -174.5t-155.5 -71.5q-93 0 -158.5 71t-65.5 175zM485 614h197l-57 353 q-17 106 -21 151h-45q-3 -71 -16 -151zM504 1706q0 -41 22 -68.5t54 -27.5q31 0 53 27.5t22 68.5t-22 69.5t-53 28.5t-53.5 -28.5t-22.5 -69.5z" />
<glyph unicode="&#xc6;" horiz-adv-x="1611" d="M-31 0l379 1112q32 87 71.5 140.5t110.5 92.5t177 54.5t268 15.5h69h71h63.5t68 -0.5t61.5 -1.5t68 -2.5t62.5 -3.5t69.5 -4.5t67 -5.5l-16 -277h-390q-29 0 -46 -24.5t-17 -65.5v-174h393v-256h-393v-217q0 -41 19.5 -64.5t43.5 -23.5h390l16 -279q-171 -24 -584 -24 q-115 0 -182.5 86t-67.5 223v51h-260l-108 -352h-404zM567 631h174v411q0 92 17 134h-25q-16 -34 -28 -99z" />
<glyph unicode="&#xc7;" horiz-adv-x="1028" d="M43 707q0 272 53.5 430.5t170.5 229.5t317 71q130 0 212.5 -12t178.5 -40l-29 -290q-119 6 -362 6q-51 0 -77.5 -34.5t-37 -117t-10.5 -243.5t10.5 -243.5t37 -117.5t77.5 -35q267 0 389 17l28 -289q-92 -34 -186.5 -49t-230.5 -15q-200 0 -317 71.5t-170.5 230 t-53.5 430.5zM319 -555l35 152q69 -2 111.5 21.5t48.5 88.5q1 21 -15 25t-92 4h-20l35 135q109 14 179 12.5t102 -35t28 -110.5q-5 -109 -61.5 -181.5t-147 -100t-203.5 -11.5z" />
<glyph unicode="&#xc8;" horiz-adv-x="1009" d="M70 301v811q1 138 75.5 223.5t188.5 85.5q472 0 639 -24l-19 -283h-413q-29 0 -51.5 -23.5t-22.5 -62.5v-166h426v-268h-426v-207q0 -42 22.5 -66t51.5 -24h413l19 -281q-167 -24 -639 -24q-112 0 -187.5 86t-76.5 223zM209 1702l127 248l412 -305l-105 -162z" />
<glyph unicode="&#xc9;" horiz-adv-x="1009" d="M70 301v811q1 138 75.5 223.5t188.5 85.5q472 0 639 -24l-19 -283h-413q-29 0 -51.5 -23.5t-22.5 -62.5v-166h426v-268h-426v-207q0 -42 22.5 -66t51.5 -24h413l19 -281q-167 -24 -639 -24q-112 0 -187.5 86t-76.5 223zM371 1645l413 305l127 -248l-440 -219z" />
<glyph unicode="&#xca;" horiz-adv-x="1009" d="M70 301v811q1 138 75.5 223.5t188.5 85.5q472 0 639 -24l-19 -283h-413q-29 0 -51.5 -23.5t-22.5 -62.5v-166h426v-268h-426v-207q0 -42 22.5 -66t51.5 -24h413l19 -281q-167 -24 -639 -24q-112 0 -187.5 86t-76.5 223zM170 1614l242 268h278l232 -280l-78 -132l-285 189 h-10l-297 -189z" />
<glyph unicode="&#xcb;" horiz-adv-x="1009" d="M70 301v811q1 138 75.5 223.5t188.5 85.5q472 0 639 -24l-19 -283h-413q-29 0 -51.5 -23.5t-22.5 -62.5v-166h426v-268h-426v-207q0 -42 22.5 -66t51.5 -24h413l19 -281q-167 -24 -639 -24q-112 0 -187.5 86t-76.5 223zM256 1645v127q0 75 63 75h130q63 0 63 -75v-127 q0 -76 -63 -76h-130q-63 0 -63 76zM582 1645v127q0 75 65 75h127q34 0 48 -18.5t14 -56.5v-127q0 -38 -14 -57t-48 -19h-127q-65 0 -65 76z" />
<glyph unicode="&#xcc;" horiz-adv-x="548" d="M-68 1692l127 247l412 -305l-104 -161zM76 0v1413h395v-1413h-395z" />
<glyph unicode="&#xcd;" horiz-adv-x="548" d="M76 0v1413h395v-1413h-395zM94 1634l414 305l127 -247l-440 -219z" />
<glyph unicode="&#xce;" horiz-adv-x="548" d="M-106 1604l241 268h279l231 -281l-78 -131l-284 189h-11l-297 -189zM76 0v1413h395v-1413h-395z" />
<glyph unicode="&#xcf;" horiz-adv-x="548" d="M-20 1634v127q0 76 63 76h129q64 0 64 -76v-127q0 -75 -64 -75h-129q-63 0 -63 75zM76 0v1413h395v-1413h-395zM305 1634v127q0 76 66 76h127q34 0 47.5 -18.5t13.5 -57.5v-127q0 -39 -13.5 -57t-47.5 -18h-127q-66 0 -66 75z" />
<glyph unicode="&#xd0;" horiz-adv-x="1183" d="M4 637v192h66v584q289 19 514 19q159 0 260.5 -33t170 -117t96.5 -222t28 -353t-28 -353t-96.5 -222t-170 -117t-260.5 -33q-249 0 -514 18v637h-66zM465 272h119q56 0 84 39t39.5 129t11.5 267t-11.5 267.5t-39.5 129.5t-84 39h-119v-314h160v-192h-160v-365z" />
<glyph unicode="&#xd1;" horiz-adv-x="1236" d="M76 0v1274q0 67 35 103t100 36h151q62 0 95.5 -26t58.5 -89l215 -458q21 -58 47.5 -171t36.5 -147h8q-12 145 -12 332v559h352v-1274q0 -139 -135 -139h-149q-59 0 -94 26.5t-60 88.5l-211 471q-13 36 -25.5 81.5t-19.5 78.5t-18.5 86t-16.5 77h-12q14 -191 14 -327 l-2 -582h-358zM315 1542q-27 161 21 248t125 80q65 -6 162.5 -46t126.5 -46q30 -7 36.5 7.5t6.5 66.5v8h159q27 -157 -16.5 -245.5t-128.5 -82.5q-65 6 -165 48.5t-122 47.5q-32 6 -38.5 -8.5t-6.5 -63.5v-14h-160z" />
<glyph unicode="&#xd2;" d="M43 707q0 146 12.5 255t40.5 191.5t70 136.5t105.5 88t141.5 48t183 14q128 0 217 -21t156.5 -70t106.5 -134.5t58 -208.5t19 -299q0 -219 -28 -359t-96.5 -224.5t-170.5 -117.5t-262 -33q-158 0 -259.5 33t-169.5 117.5t-96 224.5t-28 359zM258 1692l127 247l412 -305 l-105 -161zM463 707q0 -179 11.5 -269t40 -128t85.5 -38t85.5 38t40 128t11.5 269q0 135 -5.5 215t-21.5 131t-41.5 69.5t-68.5 18.5q-57 0 -85.5 -38t-40 -127.5t-11.5 -268.5z" />
<glyph unicode="&#xd3;" d="M43 707q0 146 12.5 255t40.5 191.5t70 136.5t105.5 88t141.5 48t183 14q128 0 217 -21t156.5 -70t106.5 -134.5t58 -208.5t19 -299q0 -219 -28 -359t-96.5 -224.5t-170.5 -117.5t-262 -33q-158 0 -259.5 33t-169.5 117.5t-96 224.5t-28 359zM420 1634l414 305l127 -247 l-441 -219zM463 707q0 -179 11.5 -269t40 -128t85.5 -38t85.5 38t40 128t11.5 269q0 135 -5.5 215t-21.5 131t-41.5 69.5t-68.5 18.5q-57 0 -85.5 -38t-40 -127.5t-11.5 -268.5z" />
<glyph unicode="&#xd4;" d="M43 707q0 146 12.5 255t40.5 191.5t70 136.5t105.5 88t141.5 48t183 14q128 0 217 -21t156.5 -70t106.5 -134.5t58 -208.5t19 -299q0 -219 -28 -359t-96.5 -224.5t-170.5 -117.5t-262 -33q-158 0 -259.5 33t-169.5 117.5t-96 224.5t-28 359zM219 1604l242 268h278 l232 -281l-78 -131l-285 189h-10l-297 -189zM463 707q0 -179 11.5 -269t40 -128t85.5 -38t85.5 38t40 128t11.5 269q0 135 -5.5 215t-21.5 131t-41.5 69.5t-68.5 18.5q-57 0 -85.5 -38t-40 -127.5t-11.5 -268.5z" />
<glyph unicode="&#xd5;" d="M43 707q0 146 12.5 255t40.5 191.5t70 136.5t105.5 88t141.5 48t183 14q128 0 217 -21t156.5 -70t106.5 -134.5t58 -208.5t19 -299q0 -219 -28 -359t-96.5 -224.5t-170.5 -117.5t-262 -33q-158 0 -259.5 33t-169.5 117.5t-96 224.5t-28 359zM268 1542q-27 161 21 248 t125 80q65 -6 162 -46t126 -46q30 -7 36.5 7.5t6.5 66.5v8h160q27 -157 -16.5 -245.5t-128.5 -82.5q-65 6 -165 48.5t-122 47.5q-32 6 -38.5 -8.5t-6.5 -63.5v-14h-160zM463 707q0 -179 11.5 -269t40 -128t85.5 -38t85.5 38t40 128t11.5 269q0 135 -5.5 215t-21.5 131 t-41.5 69.5t-68.5 18.5q-57 0 -85.5 -38t-40 -127.5t-11.5 -268.5z" />
<glyph unicode="&#xd6;" d="M43 707q0 146 12.5 255t40.5 191.5t70 136.5t105.5 88t141.5 48t183 14q128 0 217 -21t156.5 -70t106.5 -134.5t58 -208.5t19 -299q0 -219 -28 -359t-96.5 -224.5t-170.5 -117.5t-262 -33q-158 0 -259.5 33t-169.5 117.5t-96 224.5t-28 359zM305 1634v127q0 76 64 76h129 q63 0 63 -76v-127q0 -75 -63 -75h-129q-64 0 -64 75zM463 707q0 -179 11.5 -269t40 -128t85.5 -38t85.5 38t40 128t11.5 269q0 135 -5.5 215t-21.5 131t-41.5 69.5t-68.5 18.5q-57 0 -85.5 -38t-40 -127.5t-11.5 -268.5zM631 1634v127q0 76 65 76h127q34 0 48 -19t14 -57 v-127q0 -38 -14 -56.5t-48 -18.5h-127q-65 0 -65 75z" />
<glyph unicode="&#xd7;" horiz-adv-x="862" d="M29 367l215 231l-215 229l172 215l229 -243l225 243l179 -215l-218 -229l218 -231l-179 -211l-225 241l-229 -241z" />
<glyph unicode="&#xd8;" d="M43 707q0 146 12.5 255t40.5 191.5t70 136.5t105.5 88t141.5 48t183 14q53 0 78 -2l94 204l297 -139l-78 -170q88 -77 127 -226.5t39 -399.5q0 -219 -28 -359t-96.5 -224.5t-170.5 -117.5t-262 -33q-41 0 -107 4l-100 -210l-295 141l92 192q-76 81 -109.5 226.5 t-33.5 380.5zM463 707q0 -179 11.5 -269t40 -128t85.5 -38t85.5 38t40 128t11.5 269q0 135 -5.5 215t-21.5 131t-41.5 69.5t-68.5 18.5q-57 0 -85.5 -38t-40 -127.5t-11.5 -268.5z" />
<glyph unicode="&#xd9;" d="M68 578v835h395v-835q0 -180 29 -243t114 -63q79 0 106 62.5t27 243.5v835h396v-835q0 -226 -50 -356.5t-160 -189.5t-300 -59q-308 0 -432.5 135.5t-124.5 469.5zM258 1692l127 247l412 -305l-105 -161z" />
<glyph unicode="&#xda;" d="M68 578v835h395v-835q0 -180 29 -243t114 -63q79 0 106 62.5t27 243.5v835h396v-835q0 -226 -50 -356.5t-160 -189.5t-300 -59q-308 0 -432.5 135.5t-124.5 469.5zM420 1634l414 305l127 -247l-441 -219z" />
<glyph unicode="&#xdb;" d="M68 578v835h395v-835q0 -180 29 -243t114 -63q79 0 106 62.5t27 243.5v835h396v-835q0 -226 -50 -356.5t-160 -189.5t-300 -59q-308 0 -432.5 135.5t-124.5 469.5zM219 1604l242 268h278l232 -281l-78 -131l-285 189h-10l-297 -189z" />
<glyph unicode="&#xdc;" d="M68 578v835h395v-835q0 -180 29 -243t114 -63q79 0 106 62.5t27 243.5v835h396v-835q0 -226 -50 -356.5t-160 -189.5t-300 -59q-308 0 -432.5 135.5t-124.5 469.5zM305 1634v127q0 76 64 76h129q63 0 63 -76v-127q0 -75 -63 -75h-129q-64 0 -64 75zM631 1634v127 q0 76 65 76h127q34 0 48 -19t14 -57v-127q0 -38 -14 -56.5t-48 -18.5h-127q-65 0 -65 75z" />
<glyph unicode="&#xdd;" horiz-adv-x="1126" d="M-20 1413h407l133 -473q22 -81 29 -188h26q24 149 35 188l131 473h408l-387 -967v-446h-397v451zM385 1634l414 305l127 -247l-441 -219z" />
<glyph unicode="&#xde;" horiz-adv-x="1073" d="M76 0v1413h399v-233h94q115 0 194 -14t137.5 -45.5t91.5 -87.5t48 -135t15 -193q0 -187 -42.5 -289t-133 -143.5t-254.5 -41.5q-77 0 -150 9v-240h-399zM475 520h84q60 0 78 36t18 149q0 115 -18.5 152.5t-77.5 37.5h-84v-375z" />
<glyph unicode="&#xdf;" horiz-adv-x="1251" d="M4 780v230l131 8v131q0 209 106 286.5t382 77.5q109 0 184.5 -12t125.5 -35.5t78 -65t39 -93t11 -127.5q0 -40 -9.5 -80.5t-18 -64.5t-36.5 -93q-5 -11 -16 -34.5t-15.5 -35t-11.5 -29.5t-9.5 -32.5t-2.5 -28.5q0 -21 13.5 -41.5t42 -49.5t40.5 -44l72 -86 q44 -43 66 -67.5t42 -58t26.5 -68t6.5 -84.5q0 -81 -15 -135t-53 -94t-107 -58.5t-175 -18.5q-117 0 -317 23l22 240q24 1 49.5 1t69.5 -0.5t84 -0.5q32 0 40.5 8.5t8.5 48.5q0 22 -21 45.5t-63.5 58.5t-64.5 58l-17 53q-59 54 -86.5 110t-27.5 134q0 72 16.5 116t67.5 127 q31 56 41 86.5t10 71.5q0 90 -95 90q-63 0 -79.5 -26t-16.5 -117v-1104h-387v780h-131z" />
<glyph unicode="&#xe0;" horiz-adv-x="1003" d="M23 264v103q0 122 75.5 191t204.5 69h260v22q-1 61 -19.5 86t-60.5 25q-198 0 -374 -10l-39 247q97 22 244 37t264 15q90 0 155 -20t114 -66t73 -125t24 -193v-645h-305l-29 129q-113 -158 -297 -158q-122 0 -206 78t-84 215zM186 1313l127 248l412 -306l-104 -161z M393 317q0 -77 68 -77q53 0 102 30v158h-102q-29 0 -48.5 -21t-19.5 -53v-37z" />
<glyph unicode="&#xe1;" horiz-adv-x="1003" d="M23 264v103q0 122 75.5 191t204.5 69h260v22q-1 61 -19.5 86t-60.5 25q-198 0 -374 -10l-39 247q97 22 244 37t264 15q90 0 155 -20t114 -66t73 -125t24 -193v-645h-305l-29 129q-113 -158 -297 -158q-122 0 -206 78t-84 215zM348 1255l414 306l127 -248l-440 -219z M393 317q0 -77 68 -77q53 0 102 30v158h-102q-29 0 -48.5 -21t-19.5 -53v-37z" />
<glyph unicode="&#xe2;" horiz-adv-x="1003" d="M23 264v103q0 122 75.5 191t204.5 69h260v22q-1 61 -19.5 86t-60.5 25q-198 0 -374 -10l-39 247q97 22 244 37t264 15q90 0 155 -20t114 -66t73 -125t24 -193v-645h-305l-29 129q-113 -158 -297 -158q-122 0 -206 78t-84 215zM147 1225l242 268h279l231 -281l-78 -131 l-284 189h-11l-297 -189zM393 317q0 -77 68 -77q53 0 102 30v158h-102q-29 0 -48.5 -21t-19.5 -53v-37z" />
<glyph unicode="&#xe3;" horiz-adv-x="1003" d="M23 264v103q0 122 75.5 191t204.5 69h260v22q-1 61 -19.5 86t-60.5 25q-198 0 -374 -10l-39 247q97 22 244 37t264 15q90 0 155 -20t114 -66t73 -125t24 -193v-645h-305l-29 129q-113 -158 -297 -158q-122 0 -206 78t-84 215zM197 1163q-27 161 20.5 248t124.5 80 q65 -6 162.5 -46t126.5 -46q30 -7 36.5 7.5t6.5 66.5v8h160q27 -157 -17 -245.5t-129 -82.5q-65 6 -165 48.5t-122 47.5q-32 6 -38.5 -8.5t-6.5 -63.5v-14h-159zM393 317q0 -77 68 -77q53 0 102 30v158h-102q-29 0 -48.5 -21t-19.5 -53v-37z" />
<glyph unicode="&#xe4;" horiz-adv-x="1003" d="M23 264v103q0 122 75.5 191t204.5 69h260v22q-1 61 -19.5 86t-60.5 25q-198 0 -374 -10l-39 247q97 22 244 37t264 15q90 0 155 -20t114 -66t73 -125t24 -193v-645h-305l-29 129q-113 -158 -297 -158q-122 0 -206 78t-84 215zM233 1255v127q0 76 64 76h129q63 0 63 -76 v-127q0 -75 -63 -75h-129q-64 0 -64 75zM393 317q0 -77 68 -77q53 0 102 30v158h-102q-29 0 -48.5 -21t-19.5 -53v-37zM559 1255v127q0 76 66 76h127q34 0 47.5 -18.5t13.5 -57.5v-127q0 -39 -13.5 -57t-47.5 -18h-127q-66 0 -66 75z" />
<glyph unicode="&#xe5;" horiz-adv-x="1003" d="M23 264v103q0 122 75.5 191t204.5 69h260v22q-1 61 -19.5 86t-60.5 25q-198 0 -374 -10l-39 247q97 22 244 37t264 15q90 0 155 -20t114 -66t73 -125t24 -193v-645h-305l-29 129q-113 -158 -297 -158q-122 0 -206 78t-84 215zM305 1327q0 104 66 178t157 74 q89 0 155.5 -74.5t66.5 -177.5t-66 -174.5t-156 -71.5q-93 0 -158 71t-65 175zM393 317q0 -77 68 -77q53 0 102 30v158h-102q-29 0 -48.5 -21t-19.5 -53v-37zM453 1327q0 -41 21.5 -68.5t53.5 -27.5q31 0 53.5 27.5t22.5 68.5t-22.5 69.5t-53.5 28.5t-53 -28.5t-22 -69.5z " />
<glyph unicode="&#xe6;" horiz-adv-x="1492" d="M23 264v103q0 117 74 186.5t198 69.5h244v26q0 60 -16 85.5t-52 25.5q-191 0 -362 -10l-39 247q94 22 237.5 37t257.5 15q124 0 201 -39q101 39 262 39q231 0 332.5 -89t103.5 -272q2 -73 -15 -123t-60 -85.5t-117.5 -51.5t-186.5 -16h-159q6 -82 34.5 -111t102.5 -29 q113 0 344 21l37 -230q-90 -49 -189 -68.5t-233 -19.5q-283 0 -397 156q-114 -160 -324 -160q-118 0 -198 78t-80 215zM393 317q0 -77 60 -77q59 0 108 34q-15 57 -22 154h-82q-27 0 -45.5 -21t-18.5 -53v-37zM924 608h53q74 0 99.5 18.5t25.5 67.5q-3 97 -68 97 q-60 3 -83 -25.5t-27 -120.5v-37z" />
<glyph unicode="&#xe7;" horiz-adv-x="897" d="M35 510q0 297 103 418t358 121q95 0 195.5 -17.5t168.5 -56.5l-35 -236q-62 0 -145.5 1t-114.5 1q-75 0 -101 -47.5t-26 -183.5t26 -182.5t101 -46.5q166 0 275 16l34 -244q-147 -78 -380 -78q-254 0 -356.5 120.5t-102.5 414.5zM244 -530l35 151q69 -2 111 22t48 89 q1 22 -15.5 25t-111.5 3l35 136q109 14 179 12.5t102 -35.5t28 -111q-7 -162 -122.5 -239t-288.5 -53z" />
<glyph unicode="&#xe8;" horiz-adv-x="1011" d="M35 504q0 301 111 423t389 122q239 0 344.5 -89t107.5 -272q2 -98 -29 -156t-113.5 -89t-228.5 -31h-176q7 -81 36 -110.5t97 -29.5q121 0 355 21l35 -230q-162 -88 -431 -88t-383 127t-114 402zM213 1313l127 248l412 -306l-105 -161zM436 608h80q65 0 86 18.5t21 67.5 q-1 54 -21 75.5t-57 21.5q-61 3 -83.5 -32.5t-25.5 -150.5z" />
<glyph unicode="&#xe9;" horiz-adv-x="1011" d="M35 504q0 301 111 423t389 122q239 0 344.5 -89t107.5 -272q2 -98 -29 -156t-113.5 -89t-228.5 -31h-176q7 -81 36 -110.5t97 -29.5q121 0 355 21l35 -230q-162 -88 -431 -88t-383 127t-114 402zM375 1255l413 306l127 -248l-440 -219zM436 608h80q65 0 86 18.5t21 67.5 q-1 54 -21 75.5t-57 21.5q-61 3 -83.5 -32.5t-25.5 -150.5z" />
<glyph unicode="&#xea;" horiz-adv-x="1011" d="M35 504q0 301 111 423t389 122q239 0 344.5 -89t107.5 -272q2 -98 -29 -156t-113.5 -89t-228.5 -31h-176q7 -81 36 -110.5t97 -29.5q121 0 355 21l35 -230q-162 -88 -431 -88t-383 127t-114 402zM174 1225l242 268h278l232 -281l-78 -131l-285 189h-10l-297 -189z M436 608h80q65 0 86 18.5t21 67.5q-1 54 -21 75.5t-57 21.5q-61 3 -83.5 -32.5t-25.5 -150.5z" />
<glyph unicode="&#xeb;" horiz-adv-x="1011" d="M35 504q0 301 111 423t389 122q239 0 344.5 -89t107.5 -272q2 -98 -29 -156t-113.5 -89t-228.5 -31h-176q7 -81 36 -110.5t97 -29.5q121 0 355 21l35 -230q-162 -88 -431 -88t-383 127t-114 402zM260 1255v127q0 76 64 76h129q63 0 63 -76v-127q0 -75 -63 -75h-129 q-64 0 -64 75zM436 608h80q65 0 86 18.5t21 67.5q-1 54 -21 75.5t-57 21.5q-61 3 -83.5 -32.5t-25.5 -150.5zM586 1255v127q0 76 65 76h127q34 0 48 -19t14 -57v-127q0 -38 -14 -56.5t-48 -18.5h-127q-65 0 -65 75z" />
<glyph unicode="&#xec;" horiz-adv-x="522" d="M-82 1313l127 248l412 -306l-105 -161zM68 0v1018h385v-1018h-385z" />
<glyph unicode="&#xed;" horiz-adv-x="522" d="M68 0v1018h385v-1018h-385zM80 1255l414 306l127 -248l-441 -219z" />
<glyph unicode="&#xee;" horiz-adv-x="522" d="M-121 1225l242 268h278l232 -281l-78 -131l-285 189h-10l-297 -189zM68 0v1018h385v-1018h-385z" />
<glyph unicode="&#xef;" horiz-adv-x="522" d="M-35 1255v127q0 76 64 76h129q63 0 63 -76v-127q0 -75 -63 -75h-129q-64 0 -64 75zM68 0v1018h385v-1018h-385zM291 1255v127q0 76 65 76h127q34 0 48 -19t14 -57v-127q0 -38 -14 -56.5t-48 -18.5h-127q-65 0 -65 75z" />
<glyph unicode="&#xf0;" horiz-adv-x="1071" d="M33 438q0 255 91.5 372.5t313.5 117.5q72 0 137 -8q-46 156 -157.5 219t-298.5 49l37 242q224 17 411 -60l168 168l213 -211l-133 -131q201 -229 201 -602q0 -342 -110.5 -481.5t-385.5 -139.5q-249 0 -368 113.5t-119 351.5zM436 449q0 -124 17 -165.5t69 -41.5 q59 0 75.5 68t16.5 284v61q-29 2 -90 2q-52 0 -70 -39.5t-18 -168.5z" />
<glyph unicode="&#xf1;" horiz-adv-x="1058" d="M59 0v1018h291l43 -156q80 92 171.5 139.5t178.5 47.5q126 0 192 -73.5t66 -211.5v-764h-387v641q0 46 -17.5 65t-55.5 19q-33 0 -99 -43l2 -682h-385zM209 1163q-27 161 20.5 248t124.5 80q65 -6 162.5 -46t126.5 -46q30 -7 36.5 7.5t6.5 66.5v8h160q27 -157 -17 -245.5 t-129 -82.5q-65 6 -164.5 48.5t-121.5 47.5q-32 6 -38.5 -8.5t-6.5 -63.5v-14h-160z" />
<glyph unicode="&#xf2;" horiz-adv-x="1040" d="M35 508q0 297 108 419t375 122t377.5 -122.5t110.5 -418.5q0 -293 -110.5 -414t-377.5 -121q-268 0 -375.5 120.5t-107.5 414.5zM193 1313l126 248l412 -306l-104 -161zM438 508q0 -112 7 -167t24.5 -77t52.5 -22q49 0 62.5 50t13.5 216q0 170 -13.5 220t-62.5 50 q-35 0 -52.5 -22t-24.5 -77.5t-7 -170.5z" />
<glyph unicode="&#xf3;" horiz-adv-x="1040" d="M35 508q0 297 108 419t375 122t377.5 -122.5t110.5 -418.5q0 -293 -110.5 -414t-377.5 -121q-268 0 -375.5 120.5t-107.5 414.5zM354 1255l414 306l127 -248l-440 -219zM438 508q0 -112 7 -167t24.5 -77t52.5 -22q49 0 62.5 50t13.5 216q0 170 -13.5 220t-62.5 50 q-35 0 -52.5 -22t-24.5 -77.5t-7 -170.5z" />
<glyph unicode="&#xf4;" horiz-adv-x="1040" d="M35 508q0 297 108 419t375 122t377.5 -122.5t110.5 -418.5q0 -293 -110.5 -414t-377.5 -121q-268 0 -375.5 120.5t-107.5 414.5zM154 1225l241 268h279l231 -281l-78 -131l-284 189h-11l-296 -189zM438 508q0 -112 7 -167t24.5 -77t52.5 -22q49 0 62.5 50t13.5 216 q0 170 -13.5 220t-62.5 50q-35 0 -52.5 -22t-24.5 -77.5t-7 -170.5z" />
<glyph unicode="&#xf5;" horiz-adv-x="1040" d="M35 508q0 297 108 419t375 122t377.5 -122.5t110.5 -418.5q0 -293 -110.5 -414t-377.5 -121q-268 0 -375.5 120.5t-107.5 414.5zM203 1163q-27 161 20.5 248t124.5 80q65 -6 162.5 -46t126.5 -46q30 -7 36.5 7.5t6.5 66.5v8h160q27 -157 -17 -245.5t-129 -82.5 q-65 6 -164.5 48.5t-121.5 47.5q-23 5 -33 -3.5t-11.5 -22t-1.5 -49.5v-11h-159zM438 508q0 -112 7 -167t24.5 -77t52.5 -22q49 0 62.5 50t13.5 216q0 170 -13.5 220t-62.5 50q-35 0 -52.5 -22t-24.5 -77.5t-7 -170.5z" />
<glyph unicode="&#xf6;" horiz-adv-x="1040" d="M35 508q0 297 108 419t375 122t377.5 -122.5t110.5 -418.5q0 -293 -110.5 -414t-377.5 -121q-268 0 -375.5 120.5t-107.5 414.5zM240 1255v127q0 76 63 76h129q64 0 64 -76v-127q0 -75 -64 -75h-129q-63 0 -63 75zM438 508q0 -112 7 -167t24.5 -77t52.5 -22q49 0 62.5 50 t13.5 216q0 170 -13.5 220t-62.5 50q-35 0 -52.5 -22t-24.5 -77.5t-7 -170.5zM565 1255v127q0 76 66 76h127q34 0 47.5 -18.5t13.5 -57.5v-127q0 -39 -13.5 -57t-47.5 -18h-127q-66 0 -66 75z" />
<glyph unicode="&#xf7;" horiz-adv-x="880" d="M33 465v268h815v-268h-815zM250 172v47q0 81 30.5 111t112.5 30h90q84 0 115 -30t31 -111v-47q0 -80 -31.5 -110.5t-114.5 -30.5h-90q-81 0 -112 30.5t-31 110.5zM250 971v49q0 81 30.5 111t112.5 30h90q84 0 115 -30t31 -111v-49q0 -78 -31.5 -109t-114.5 -31h-90 q-81 0 -112 30.5t-31 109.5z" />
<glyph unicode="&#xf8;" horiz-adv-x="1040" d="M35 508q0 297 108 419t375 122q68 0 150 -11l59 125l205 -119l-51 -104q125 -119 125 -432q0 -293 -110.5 -414t-377.5 -121q-82 0 -141 11l-49 -105l-205 115l39 80q-67 62 -97 167.5t-30 266.5zM438 508q0 -112 7 -167t24.5 -77t52.5 -22q49 0 62.5 50t13.5 216 q0 170 -13.5 220t-62.5 50q-35 0 -52.5 -22t-24.5 -77.5t-7 -170.5z" />
<glyph unicode="&#xf9;" horiz-adv-x="1046" d="M55 258v760h385v-641q-1 -43 16.5 -64.5t47.5 -21.5q38 0 94 37v690h389v-1018h-303l-37 160q-80 -96 -161.5 -141.5t-176.5 -45.5q-254 0 -254 285zM186 1331l127 248l412 -305l-104 -162z" />
<glyph unicode="&#xfa;" horiz-adv-x="1046" d="M55 258v760h385v-641q-1 -43 16.5 -64.5t47.5 -21.5q38 0 94 37v690h389v-1018h-303l-37 160q-80 -96 -161.5 -141.5t-176.5 -45.5q-254 0 -254 285zM348 1274l414 305l127 -248l-440 -219z" />
<glyph unicode="&#xfb;" horiz-adv-x="1046" d="M55 258v760h385v-641q-1 -43 16.5 -64.5t47.5 -21.5q38 0 94 37v690h389v-1018h-303l-37 160q-80 -96 -161.5 -141.5t-176.5 -45.5q-254 0 -254 285zM147 1243l242 268h279l231 -280l-78 -131l-284 188h-11l-297 -188z" />
<glyph unicode="&#xfc;" horiz-adv-x="1046" d="M55 258v760h385v-641q-1 -43 16.5 -64.5t47.5 -21.5q38 0 94 37v690h389v-1018h-303l-37 160q-80 -96 -161.5 -141.5t-176.5 -45.5q-254 0 -254 285zM233 1274v127q0 76 64 76h129q63 0 63 -76v-127q0 -76 -63 -76h-129q-64 0 -64 76zM559 1274v127q0 76 66 76h127 q34 0 47.5 -18.5t13.5 -57.5v-127q0 -39 -13.5 -57.5t-47.5 -18.5h-127q-66 0 -66 76z" />
<glyph unicode="&#xfd;" horiz-adv-x="1034" d="M-12 1018h407l86 -598q2 -17 9.5 -80t13.5 -96h14q23 96 33 176l86 598h407l-264 -1006q-11 -42 -26 -82t-37.5 -83.5t-49.5 -80t-62.5 -71.5t-77.5 -57.5t-93.5 -39.5t-111 -16t-129.5 12l-27 211q101 28 161.5 74t92.5 121h-68q-44 0 -76 25t-43 67zM348 1255l414 306 l127 -248l-440 -219z" />
<glyph unicode="&#xfe;" horiz-adv-x="1050" d="M59 -375v1809h385v-234q0 -65 -10 -270q83 112 273 112q164 0 236.5 -135t72.5 -407q0 -154 -20 -258t-62.5 -162.5t-98.5 -82.5t-137 -24q-170 0 -262 88q8 -144 8 -221v-215h-385zM444 254q38 -23 93 -23q32 0 48 18t24.5 75t8.5 170q0 116 -8 173.5t-23.5 76 t-47.5 18.5q-26 0 -45 -8.5t-25.5 -15t-24.5 -27.5v-457z" />
<glyph unicode="&#xff;" horiz-adv-x="1034" d="M-12 1018h407l86 -598q2 -17 9.5 -80t13.5 -96h14q23 96 33 176l86 598h407l-264 -1006q-11 -42 -26 -82t-37.5 -83.5t-49.5 -80t-62.5 -71.5t-77.5 -57.5t-93.5 -39.5t-111 -16t-129.5 12l-27 211q101 28 161.5 74t92.5 121h-68q-44 0 -76 25t-43 67zM233 1255v127 q0 76 64 76h129q63 0 63 -76v-127q0 -75 -63 -75h-129q-64 0 -64 75zM559 1255v127q0 76 66 76h127q34 0 47.5 -18.5t13.5 -57.5v-127q0 -39 -13.5 -57t-47.5 -18h-127q-66 0 -66 75z" />
<glyph unicode="&#x152;" horiz-adv-x="1662" d="M47 707q0 219 28 359t95 224t166 117t252 33q172 0 303 -49q55 30 121 30q455 0 616 -24l-18 -283h-402q-22 0 -40.5 -23.5t-18.5 -62.5v-172h403v-256h-403v-213q0 -41 18.5 -65.5t40.5 -24.5h402l18 -281q-157 -24 -608 -24q-82 0 -146 45q-114 -64 -286 -64 q-153 0 -252 33t-166 117.5t-95 224.5t-28 359zM467 707q0 -91 2 -153t7 -113.5t13 -81.5t22 -51t32.5 -28.5t44.5 -7.5q115 0 164 25v8v803v12q-58 21 -164 21q-39 0 -62 -18t-36.5 -70.5t-18 -130.5t-4.5 -215z" />
<glyph unicode="&#x153;" horiz-adv-x="1527" d="M35 508q0 297 106 419t365 122q176 0 280 -58q106 53 289 53q222 0 325 -89.5t103 -264.5q0 -154 -73.5 -215t-272.5 -61h-186q6 -85 32.5 -115.5t94.5 -30.5q132 0 346 25l37 -234q-90 -49 -189 -68.5t-231 -19.5q-167 0 -275 60q-104 -58 -280 -58q-259 0 -365 120.5 t-106 414.5zM438 508q0 -166 12 -216t56 -50q46 0 63.5 39.5t20.5 158.5l-2 62q0 48 2 71q-3 124 -18.5 164.5t-57.5 40.5q-50 0 -63 -49.5t-13 -220.5zM967 604h59q71 0 89.5 16.5t21.5 75.5q1 52 -13 71t-47 19q-64 3 -85.5 -31t-24.5 -151z" />
<glyph unicode="&#x178;" horiz-adv-x="1126" d="M-20 1413h407l133 -473q22 -81 29 -188h26q24 149 35 188l131 473h408l-387 -967v-446h-397v451zM270 1634v127q0 76 64 76h129q63 0 63 -76v-127q0 -75 -63 -75h-129q-64 0 -64 75zM596 1634v127q0 76 66 76h126q34 0 48 -19t14 -57v-127q0 -38 -14 -56.5t-48 -18.5 h-126q-66 0 -66 75z" />
<glyph unicode="&#x2c6;" horiz-adv-x="813" d="M27 1227l241 268h279l231 -281l-78 -131l-284 189h-10l-297 -189z" />
<glyph unicode="&#x2dc;" horiz-adv-x="780" d="M74 1147q-27 161 20.5 248t124.5 80q65 -6 162.5 -46.5t126.5 -46.5q30 -7 36.5 7.5t6.5 66.5v8h160q27 -157 -16.5 -245t-129.5 -82q-65 6 -164.5 48.5t-121.5 47.5q-23 5 -33 -3.5t-11.5 -22t-1.5 -49.5v-11h-159z" />
<glyph unicode="&#x2000;" horiz-adv-x="979" />
<glyph unicode="&#x2001;" horiz-adv-x="1958" />
<glyph unicode="&#x2002;" horiz-adv-x="979" />
<glyph unicode="&#x2003;" horiz-adv-x="1958" />
<glyph unicode="&#x2004;" horiz-adv-x="652" />
<glyph unicode="&#x2005;" horiz-adv-x="489" />
<glyph unicode="&#x2006;" horiz-adv-x="326" />
<glyph unicode="&#x2007;" horiz-adv-x="326" />
<glyph unicode="&#x2008;" horiz-adv-x="244" />
<glyph unicode="&#x2009;" horiz-adv-x="391" />
<glyph unicode="&#x200a;" horiz-adv-x="108" />
<glyph unicode="&#x2010;" horiz-adv-x="610" d="M66 408v231h481v-231h-481z" />
<glyph unicode="&#x2011;" horiz-adv-x="610" d="M66 408v231h481v-231h-481z" />
<glyph unicode="&#x2012;" horiz-adv-x="610" d="M66 408v231h481v-231h-481z" />
<glyph unicode="&#x2013;" horiz-adv-x="860" d="M66 408v231h731v-231h-731z" />
<glyph unicode="&#x2014;" horiz-adv-x="1339" d="M66 408v231h1210v-231h-1210z" />
<glyph unicode="&#x2018;" horiz-adv-x="356" d="M10 1090q1 121 28 204t83 170l117 -45q-23 -81 -31 -248q102 0 102 -106l-6 -94q0 -69 -22.5 -93t-87.5 -24h-60q-66 0 -93 24.5t-28 92.5z" />
<glyph unicode="&#x2019;" horiz-adv-x="350" d="M45 1231l6 96q0 68 23.5 92.5t87.5 24.5h59q66 0 93 -25t28 -92l2 -121q-1 -121 -28 -204.5t-83 -170.5l-114 46q20 81 28 247q-102 0 -102 107z" />
<glyph unicode="&#x201a;" horiz-adv-x="368" d="M53 119l6 102q2 73 24.5 99t86.5 26h59q65 0 92.5 -27t28.5 -98l2 -129q-1 -131 -27.5 -221t-82.5 -184l-115 49q21 92 29 266q-103 0 -103 117z" />
<glyph unicode="&#x201c;" horiz-adv-x="686" d="M23 1090q1 121 28.5 203.5t85.5 170.5l115 -47q-22 -86 -29 -246q107 0 107 -106l-8 -94q0 -67 -24.5 -92t-90.5 -25h-55q-68 0 -97 25.5t-30 91.5zM434 1090q1 120 28.5 202.5t86.5 171.5l113 -47q-22 -86 -29 -246q106 0 106 -106l-8 -94q0 -67 -24.5 -92t-90.5 -25 h-55q-66 0 -95 25.5t-30 91.5z" />
<glyph unicode="&#x201d;" horiz-adv-x="679" d="M45 1231l6 96q0 68 23.5 92.5t87.5 24.5h59q66 0 93 -25t28 -92l2 -121q-1 -121 -28 -204.5t-83 -170.5l-114 46q20 81 28 247q-102 0 -102 107zM375 1231l6 96q0 68 23.5 92.5t87.5 24.5h59q66 0 93 -25t28 -92l2 -121q-1 -121 -28 -204.5t-83 -170.5l-117 46 q23 81 31 247q-102 0 -102 107z" />
<glyph unicode="&#x201e;" horiz-adv-x="694" d="M55 86l6 94q0 68 23.5 92.5t87.5 24.5h59q66 0 93 -25t28 -92l2 -119q-1 -122 -28 -205.5t-82 -168.5l-115 43q22 86 29 247q-103 0 -103 109zM385 86l6 94q0 68 23.5 92.5t87.5 24.5h59q66 0 93 -25t28 -92l2 -119q-1 -121 -28 -205t-83 -169l-116 43q22 77 30 247 q-102 0 -102 109z" />
<glyph unicode="&#x2022;" horiz-adv-x="632" d="M82 539v34q0 132 49 183t178 51h35q118 0 164.5 -51.5t46.5 -182.5v-34q0 -142 -46 -196t-165 -54h-35q-130 0 -178.5 53.5t-48.5 196.5z" />
<glyph unicode="&#x2026;" horiz-adv-x="1527" d="M47 133v90q0 74 27.5 100.5t103.5 26.5h78q77 0 104 -26t27 -101v-90q0 -76 -27.5 -104.5t-103.5 -28.5h-78q-75 0 -103 29t-28 104zM596 133v90q0 74 27.5 100.5t103.5 26.5h78q77 0 104 -26t27 -101v-90q0 -76 -27.5 -104.5t-103.5 -28.5h-78q-75 0 -103 29t-28 104z M1145 133v90q0 74 27.5 100.5t103.5 26.5h78q77 0 104 -26t27 -101v-90q0 -76 -27.5 -104.5t-103.5 -28.5h-78q-75 0 -103 29t-28 104z" />
<glyph unicode="&#x202f;" horiz-adv-x="391" />
<glyph unicode="&#x2039;" horiz-adv-x="497" d="M10 473v82l266 406l201 -130l-135 -317l133 -330l-201 -125z" />
<glyph unicode="&#x203a;" horiz-adv-x="497" d="M23 184l137 330l-135 317l200 130l264 -406v-82l-264 -414z" />
<glyph unicode="&#x205f;" horiz-adv-x="489" />
<glyph unicode="&#x20ac;" horiz-adv-x="1191" d="M63 465v211h867l-23 -211h-268q13 -89 42.5 -124t92.5 -44q48 -6 153.5 -3t172.5 17l30 -272q-146 -64 -325 -64q-278 0 -415.5 113t-172.5 377h-154zM66 743v215h153q38 261 175.5 370.5t414.5 109.5q155 0 276 -52l-30 -274q-30 4 -117.5 7t-159.5 -3 q-61 -11 -94.5 -47.5t-48.5 -110.5h338l-23 -215h-884z" />
<glyph unicode="&#x2122;" horiz-adv-x="1667" d="M66 1227v198h602v-198h-170v-580h-262v580h-170zM702 647l17 686q3 92 90 92h223q41 0 69 -21t32 -61l12 -290q0 -78 2 -115h6q0 43 4 117l4 288q4 39 32 60.5t69 21.5h229q87 0 90 -92l16 -686h-233l-21 582h-12l-18 -375q-12 -78 -99 -78h-131q-41 0 -67.5 20.5 t-30.5 57.5l-18 375h-17l-10 -582h-238z" />
<glyph unicode="&#x25fc;" horiz-adv-x="1013" d="M0 0v1014h1014v-1014h-1014z" />
<glyph unicode="&#xfb03;" horiz-adv-x="1888" d="M6 782v226l135 10h15v117q2 75 17 131t49.5 101t96.5 68t150 23q196 0 297 -24l-39 -238h-133q-42 0 -56 -24t-14 -93v-61h275v129q0 332 315 332q156 0 258 -25v-237h-119q-54 0 -72 -25t-18 -96v-78h656v-1018h-387v782h-269v-782h-364v782h-275v-782h-368v782h-150z M1438 1276v108q0 113 114 113h156q113 0 113 -113v-108q0 -113 -113 -113h-156q-114 0 -114 113z" />
<glyph unicode="&#xfb04;" horiz-adv-x="1951" d="M6 782v226l131 10v117q3 76 19 131.5t50.5 100.5t96.5 68t152 23q201 0 299 -24l-39 -238h-131q-44 0 -60 -24.5t-16 -92.5v-61h274v129q0 332 318 332q495 0 721 -45v-1082q0 -47 14.5 -67.5t48.5 -20.5h43l41 -241q-35 -23 -115.5 -37.5t-140.5 -14.5 q-129 0 -203.5 75.5t-74.5 205.5v971h-217q-66 -4 -66 -127v-78h184v-236h-184v-782h-369v782h-274v-782h-371v782h-131z" />
</font>
</defs>
</svg>
