<?xml version="1.0" standalone="no"?>
<!DOCTYPE svg PUBLIC "-//W3C//DTD SVG 1.1//EN" "http://www.w3.org/Graphics/SVG/1.1/DTD/svg11.dtd" >
<svg xmlns="http://www.w3.org/2000/svg">
<metadata></metadata>
<defs>
<font id="exo_2extra_bold_condensed" horiz-adv-x="1187" >
<font-face units-per-em="2048" ascent="1638" descent="-410" />
<missing-glyph horiz-adv-x="348" />
<glyph unicode="&#xfb01;" horiz-adv-x="1228" d="M10 788v218l133 10v131q0 330 314 330q158 0 258 -23v-227h-125q-45 0 -62.5 -28t-17.5 -101v-82h643v-1016h-367v788h-276v-788h-367v788h-133zM791 1274v108q0 107 108 107h148q110 0 110 -107v-108q0 -107 -110 -107h-148q-108 0 -108 107z" />
<glyph unicode="&#xfb02;" horiz-adv-x="1300" d="M8 788v218l133 10v131q0 157 72.5 243.5t237.5 86.5q488 0 700 -41v-1094q0 -92 66 -92h47l39 -230q-34 -21 -111 -34t-135 -13q-126 0 -198.5 73t-72.5 202v985h-206q-40 -2 -56 -31.5t-16 -103.5v-82h170v-228h-170v-788h-367v788h-133z" />
<glyph horiz-adv-x="0" />
<glyph horiz-adv-x="682" />
<glyph unicode=" "  horiz-adv-x="348" />
<glyph unicode="&#x09;" horiz-adv-x="348" />
<glyph unicode="&#xa0;" horiz-adv-x="348" />
<glyph unicode="!" horiz-adv-x="557" d="M96 905v518h359v-518l-37 -448h-285zM113 127v92q0 70 26 95.5t97 25.5h83q72 0 96.5 -25t24.5 -96v-92q0 -73 -25 -100t-96 -27h-83q-70 0 -96.5 27.5t-26.5 99.5z" />
<glyph unicode="&#x22;" horiz-adv-x="657" d="M55 1413h244l-23 -459h-202zM358 1413h242l-20 -459h-205z" />
<glyph unicode="#" horiz-adv-x="1245" d="M39 389l41 215h188l35 248h-194l41 211h184l49 350h268l-49 -350h148l49 350h270l-49 -350h190l-41 -211h-180l-35 -248h187l-41 -215h-176l-56 -389h-268l55 389h-147l-55 -389h-271l56 389h-199zM537 604h147l35 248h-148z" />
<glyph unicode="$" horiz-adv-x="1030" d="M45 1038q0 115 22.5 190t75 122t131 67.5t199.5 24.5l21 178h272l-25 -190q119 -16 217 -52l-22 -248q-178 7 -418 7q-62 0 -83 -16.5t-21 -78.5q0 -52 20.5 -77.5t83.5 -51.5l209 -100q142 -66 202 -165t60 -257q0 -227 -89.5 -319t-324.5 -99l-20 -211h-270l20 224 q-127 14 -248 47l21 260q290 -10 428 -10q66 0 89 19.5t23 82.5q0 53 -15 77.5t-64 45.5l-234 110q-139 67 -199.5 165.5t-60.5 254.5z" />
<glyph unicode="%" horiz-adv-x="1536" d="M33 1020q0 237 67 328.5t236 91.5q171 0 238 -91t67 -329q0 -237 -67 -328.5t-238 -91.5q-168 0 -235.5 92t-67.5 328zM297 1020q0 -78 1.5 -120t6 -67.5t12 -32.5t21.5 -7t21.5 7t12 32.5t6 67.5t1.5 120t-1.5 119.5t-6 67.5t-12 33t-21.5 7t-21.5 -7t-12 -33t-6 -67.5 t-1.5 -119.5zM348 0l627 1413h213l-623 -1413h-217zM895 395q0 237 67 328.5t236 91.5q170 0 238.5 -92t68.5 -328q0 -237 -68.5 -329.5t-238.5 -92.5t-236.5 92t-66.5 330zM1159 395q0 -152 6.5 -189.5t34.5 -37.5q12 0 19 7.5t12 32.5t6.5 68t1.5 119t-1.5 119.5 t-6.5 68.5t-12 32.5t-19 7.5q-29 0 -35 -37t-6 -191z" />
<glyph unicode="&#x26;" horiz-adv-x="1267" d="M51 358q0 169 54 263.5t174 107.5v8q-101 12 -146 91.5t-45 238.5q0 83 10.5 142t36 100.5t59.5 67t91 39.5t119 19t155 5q169 0 277 -27l-45 -248q-29 0 -106.5 3t-135.5 3q-51 0 -66.5 -29.5t-15.5 -131.5q0 -97 16.5 -130.5t65.5 -33.5h190l23 198h309v-198h135 l-2 -240h-133v-258q0 -50 11.5 -70t37.5 -20h84l39 -238q-43 -21 -121.5 -34t-132.5 -13q-170 0 -235 136q-60 -72 -138 -104t-202 -32q-195 0 -279 87t-84 298zM449 434q0 -108 13 -140t68 -32q44 3 100 19.5t97 42.5v282h-197q-54 0 -67.5 -32.5t-13.5 -139.5z" />
<glyph unicode="'" horiz-adv-x="354" d="M55 1413h244l-23 -459h-202z" />
<glyph unicode="(" horiz-adv-x="620" d="M37 639q0 412 130 649.5t406 329.5l39 -154q-121 -72 -171 -276t-50 -547q0 -337 50.5 -542t170.5 -283l-39 -154q-276 94 -406 331t-130 646z" />
<glyph unicode=")" horiz-adv-x="620" d="M8 -184q123 78 174 282.5t51 542.5q0 344 -51 547.5t-174 275.5l41 154q277 -92 405 -328.5t128 -650.5q0 -411 -128 -647.5t-405 -329.5z" />
<glyph unicode="*" horiz-adv-x="761" d="M37 1075l57 189l187 -103l2 -88l-41 -53zM123 801l190 262l-28 352h194l-30 -348l188 -264l-148 -119l-108 250l-105 -248zM481 1161l189 103l59 -187l-201 -57l-43 53z" />
<glyph unicode="+" horiz-adv-x="860" d="M39 485v267h260v335h268v-335h256v-267h-256v-331h-268v331h-260z" />
<glyph unicode="," horiz-adv-x="423" d="M51 113l6 106q2 71 26 96t93 25h64q70 0 98.5 -26t28.5 -95l2 -131q-1 -131 -29.5 -221.5t-87.5 -181.5l-125 45q27 105 31 270q-107 0 -107 113z" />
<glyph unicode="-" horiz-adv-x="620" d="M70 412v223h483v-223h-483z" />
<glyph unicode="." horiz-adv-x="428" d="M53 127v92q0 70 26 95.5t97 25.5h78q72 0 97.5 -25t25.5 -96v-92q0 -73 -26 -100t-97 -27h-78q-70 0 -96.5 27.5t-26.5 99.5z" />
<glyph unicode="/" horiz-adv-x="997" d="M27 -154l655 1567h287l-654 -1567h-288z" />
<glyph unicode="0" horiz-adv-x="1103" d="M51 707q0 168 16.5 287.5t52 207t95.5 139t142.5 75.5t197.5 24q142 0 235 -37t153 -124.5t85 -225t25 -346.5t-25 -346.5t-85 -225.5t-153 -125t-235 -37q-191 0 -299.5 70t-156.5 227.5t-48 436.5zM428 707q0 -192 11 -285.5t36.5 -128.5t77.5 -35q55 0 81.5 35.5 t37 128t10.5 285.5t-10.5 285t-37 127.5t-81.5 35.5q-52 0 -77.5 -35t-36.5 -128t-11 -285z" />
<glyph unicode="1" horiz-adv-x="770" d="M-23 1274l304 139h372v-1413h-372v942q0 99 12 170l-270 -76z" />
<glyph unicode="2" horiz-adv-x="1011" d="M49 0v197q0 95 51 149l244 336q104 141 155 228t52 145q-1 44 -21 56.5t-77 12.5q-181 0 -383 -12l-13 279q217 47 445 47q105 0 179.5 -14.5t134.5 -51t90 -104.5t30 -168q0 -128 -33 -217.5t-145 -227.5l-277 -348q64 17 148 17h329v-324h-909z" />
<glyph unicode="3" horiz-adv-x="968" d="M41 10l10 271q205 -13 324 -13q101 0 133.5 33.5t32.5 142.5q0 94 -25 132.5t-98 35.5h-223v238h223q75 0 97 38.5t20 121.5q1 86 -24 111.5t-101 25.5q-154 0 -334 -4l-13 260q209 37 414 37q232 0 319 -70.5t87 -257.5q0 -80 -8.5 -137.5t-30 -105t-61.5 -75.5t-99 -38 v-8q128 -23 178.5 -106t52.5 -249q0 -226 -100 -323t-338 -97q-186 0 -436 37z" />
<glyph unicode="4" horiz-adv-x="1103" d="M16 520l283 893h344l-231 -805q-6 -28 1.5 -43.5t26.5 -15.5h174v366l62 222h276v-588h129v-215l-127 -33h-2v-301h-338v301h-483q-65 0 -101 67.5t-14 151.5z" />
<glyph unicode="5" horiz-adv-x="950" d="M37 18l31 281q207 -18 305 -18q95 0 129.5 36.5t40.5 128.5q4 99 -28.5 133.5t-115.5 47.5l-225 28q-45 6 -72 41.5t-24 85.5l33 631h768l-13 -276h-481l-12 -205l227 -31q94 -14 157.5 -55.5t96 -107.5t45 -137t12.5 -165q0 -99 -22.5 -179t-72 -145t-136.5 -101 t-207 -36q-184 0 -436 43z" />
<glyph unicode="6" horiz-adv-x="1024" d="M53 694q0 160 13.5 278.5t44 200.5t71 134t103.5 81t131 39.5t164 10.5q196 0 327 -39l-16 -234q-100 2 -311 2q-44 0 -71.5 -7.5t-47.5 -25t-30 -54t-15 -86t-6 -130.5q84 70 227 70q103 0 170.5 -24.5t107.5 -80t56 -135t16 -200.5q0 -111 -12 -190t-43 -144 t-83.5 -104t-133 -60t-193.5 -21q-108 0 -182.5 20t-131.5 67t-90 131t-49 205.5t-16 295.5zM410 637q1 -88 2.5 -144.5t6.5 -103.5t12.5 -71.5t21.5 -41.5t30.5 -22.5t42.5 -5.5q27 0 46 4.5t31.5 19.5t19 29t10 47t4 59t0.5 78q0 115 -22.5 152t-92.5 37q-56 0 -112 -37z " />
<glyph unicode="7" horiz-adv-x="909" d="M31 1413h749q75 0 116 -55.5t17 -130.5l-352 -1227h-360l266 965q27 93 63 145h-483z" />
<glyph unicode="8" horiz-adv-x="1077" d="M55 352q0 79 9 139t31 114t65 85.5t106 38.5v8q-47 6 -83 35t-56.5 75t-30.5 99.5t-10 114.5q0 105 18 171.5t67.5 116t138 70.5t227.5 21q95 0 166 -9.5t121.5 -30.5t83.5 -50t51.5 -73.5t26 -95t7.5 -120.5q0 -126 -48 -219.5t-138 -104.5v-8q64 -7 107.5 -38.5 t65.5 -85.5t31 -114t9 -139q0 -85 -13 -144t-44.5 -106t-87 -74t-138 -41.5t-200.5 -15.5q-144 -1 -237 19.5t-147.5 69t-76 117.5t-21.5 175zM412 424q0 -108 25 -143t106 -35q78 0 102.5 35t24.5 143q0 114 -25.5 150t-103.5 36q-82 1 -105.5 -35t-23.5 -151zM422 1014 q0 -95 25.5 -126.5t97.5 -31.5q70 0 91 31t21 127q0 104 -23.5 138t-90.5 34q-73 0 -97 -33.5t-24 -138.5z" />
<glyph unicode="9" horiz-adv-x="1026" d="M43 920q0 145 18.5 236.5t68.5 158t139.5 95t230.5 28.5q98 0 167 -13t123.5 -47t87.5 -85t54.5 -134.5t30 -187.5t8.5 -252q0 -120 -6.5 -215t-22 -170t-37 -130.5t-55.5 -95.5t-72.5 -65.5t-93 -40.5t-112 -21t-134.5 -6q-207 0 -350 39l14 236q115 -2 336 -2 q96 0 128.5 61t37.5 236q-77 -66 -219 -66q-98 0 -166 31.5t-106 93t-54 138t-16 178.5zM395 928q0 -112 20.5 -151.5t86.5 -39.5q52 0 104 35q0 93 -1 146.5t-5 103.5t-10.5 73.5t-19 42.5t-29.5 24t-43 5q-29 0 -48 -9.5t-30.5 -24.5t-16.5 -48.5t-6.5 -65.5t-1.5 -91z " />
<glyph unicode=":" horiz-adv-x="462" d="M55 127v92q0 72 26 97.5t97 25.5h78q72 0 97.5 -25.5t25.5 -97.5v-92q0 -71 -26 -98t-97 -27h-78q-70 0 -96.5 27t-26.5 98zM55 719v92q0 72 26 97.5t97 25.5h78q72 0 97.5 -25.5t25.5 -97.5v-92q0 -71 -26 -98t-97 -27h-78q-70 0 -96.5 27t-26.5 98z" />
<glyph unicode=";" horiz-adv-x="458" d="M66 113l6 106q2 71 25.5 96t92.5 25h64q70 0 98.5 -26t28.5 -95l2 -131q-1 -131 -29.5 -221.5t-87.5 -181.5l-125 45q27 105 31 270q-106 0 -106 113zM68 719v92q0 72 25.5 97.5t96.5 25.5h78q72 0 97.5 -25.5t25.5 -97.5v-92q0 -71 -26 -98t-97 -27h-78q-70 0 -96 27 t-26 98z" />
<glyph unicode="&#x3c;" horiz-adv-x="833" d="M39 479v279l729 329v-280l-424 -189l424 -190v-281z" />
<glyph unicode="=" horiz-adv-x="948" d="M72 266v254h807v-254h-807zM72 705v253h807v-253h-807z" />
<glyph unicode="&#x3e;" horiz-adv-x="831" d="M70 147v281l417 190l-417 189v280l723 -329v-279z" />
<glyph unicode="?" horiz-adv-x="907" d="M39 1407q23 4 75 15t76.5 15t72 10.5t101 8.5t123.5 2q196 0 291.5 -77.5t95.5 -239.5q0 -82 -28.5 -151.5t-71 -123t-86 -107.5t-79.5 -131.5t-46 -170.5h-282q-4 97 13 183t46 146t59 108.5t54 93.5t28 79q10 53 -10.5 77.5t-73.5 24.5q-171 0 -350 -6zM254 127v92 q0 70 27.5 95.5t97.5 25.5h82q72 0 98.5 -25.5t26.5 -95.5v-92q0 -72 -26.5 -99.5t-98.5 -27.5h-82q-69 0 -97 28t-28 99z" />
<glyph unicode="@" horiz-adv-x="1355" d="M61 551q0 122 3.5 204.5t15.5 159.5t29.5 123t52 87t76.5 61.5t109 35.5t143.5 19t185.5 4h274q170 0 254 -83t84 -279v-604h-262l-31 137q-104 -162 -260 -162q-111 0 -188.5 69t-77.5 191v96q0 107 70.5 170.5t189.5 63.5h229v39q0 60 -18.5 83t-65.5 23h-196 q-76 0 -111.5 -2t-76 -17t-54 -38t-28 -77t-17 -121.5t-2.5 -182.5q0 -70 0.5 -119.5t6.5 -95t8.5 -75t18 -55.5t23 -40.5t35.5 -26.5t43 -16.5t58.5 -8t69.5 -3.5h86h28h522v-232q-329 -31 -526 -31q-125 0 -211.5 4.5t-163 19.5t-124 35.5t-87.5 62t-60 88.5t-33.5 125 t-17.5 161t-4 207zM788 567q0 -75 70 -75q51 0 100 67v119l-110 -8q-60 -7 -60 -70v-33z" />
<glyph unicode="A" horiz-adv-x="1148" d="M-18 0l299 1317q9 44 44 70t81 26h337q46 0 82 -26t49 -70l293 -1317h-381l-57 340h-305l-57 -340h-385zM471 614h211l-64 371q-15 95 -20 148h-45q-7 -79 -18 -148z" />
<glyph unicode="B" horiz-adv-x="1110" d="M82 0v1413q187 17 510 17q126 0 206.5 -16.5t134.5 -59t76.5 -113t22.5 -180.5q0 -155 -50 -233.5t-163 -90.5v-8q133 -13 192.5 -108t59.5 -269q0 -109 -24 -180.5t-78.5 -113t-130 -58t-189.5 -16.5q-375 0 -567 16zM449 250h131q71 0 93.5 34t22.5 142 q0 116 -22.5 152.5t-98.5 37.5h-126v-366zM449 848h124q62 0 80.5 31.5t18.5 128.5q0 96 -18.5 125.5t-82.5 29.5h-122v-315z" />
<glyph unicode="C" horiz-adv-x="1017" d="M49 707q0 273 52.5 431t167 229t311.5 71q128 0 208 -11t177 -38l-29 -279q-119 8 -356 8q-56 0 -85 -36.5t-41 -122.5t-12 -252t12 -252.5t41 -123t85 -36.5q268 0 383 16l28 -274q-93 -33 -186 -47.5t-225 -14.5q-197 0 -311.5 71.5t-167 229.5t-52.5 431z" />
<glyph unicode="D" horiz-adv-x="1181" d="M82 0v1413q285 19 504 19q124 0 211 -21.5t153 -70.5t104.5 -134t57 -206t18.5 -293t-18.5 -293t-57 -206t-104.5 -134t-153 -70.5t-211 -21.5q-243 0 -504 18zM457 264l129 -2q60 0 91 39.5t43.5 132.5t12.5 273t-12.5 273t-43.5 133t-91 40h-129v-889z" />
<glyph unicode="E" horiz-adv-x="1001" d="M76 295v823q1 136 75 219.5t189 83.5q456 0 621 -24l-17 -271h-420q-29 0 -50 -23.5t-21 -64.5v-180h430v-256h-430v-225q0 -44 20.5 -68t50.5 -24h420l17 -269q-165 -24 -621 -24q-114 0 -188.5 84t-75.5 219z" />
<glyph unicode="F" horiz-adv-x="964" d="M78 0v1112q0 139 76 224t192 85q446 0 602 -26l-18 -269h-404q-31 0 -51 -23.5t-20 -64.5v-209h415v-258h-415v-571h-377z" />
<glyph unicode="G" horiz-adv-x="1122" d="M51 709q0 279 53 437t167.5 226t316.5 68q159 0 247.5 -10.5t186.5 -40.5l-29 -273q-258 8 -409 8q-58 0 -86.5 -32.5t-41 -121t-12.5 -268.5q0 -163 14.5 -250.5t47.5 -124t94 -36.5t111 26v498h358v-815h-276l-33 147q-45 -70 -128 -122t-188 -52q-207 0 -300 172 t-93 564z" />
<glyph unicode="H" horiz-adv-x="1198" d="M82 0v1413h375v-526h282v526h377v-1413h-377v612h-282v-612h-375z" />
<glyph unicode="I" horiz-adv-x="538" d="M82 0v1413h375v-1413h-375z" />
<glyph unicode="J" horiz-adv-x="690" d="M14 20l39 242h86q48 0 74.5 23t26.5 67v1061h370v-1132q0 -147 -84 -227.5t-231 -80.5q-71 0 -156.5 12.5t-124.5 34.5z" />
<glyph unicode="K" horiz-adv-x="1142" d="M82 0v1413h375v-379q0 -84 -19 -174h62l237 553h404l-252 -557q-14 -25 -32.5 -48t-40.5 -45t-25 -26v-10q77 -67 112 -131l256 -596h-420l-237 606h-62q17 -80 17 -131v-475h-375z" />
<glyph unicode="L" horiz-adv-x="942" d="M78 303v1110h375v-1024q0 -41 21 -64.5t50 -23.5h394l14 -283q-187 -26 -598 -26q-104 0 -180 89.5t-76 221.5z" />
<glyph unicode="M" horiz-adv-x="1605" d="M63 0l41 1278q3 135 127 135h314q121 0 143 -117l84 -637q19 -132 21 -204h16q3 29 8 97t10 105l84 639q18 117 144 117h317q126 0 129 -135l43 -1278h-336l-37 1128h-22l-121 -802q-4 -57 -41 -87t-98 -30h-178q-119 0 -140 117l-125 802h-18l-29 -1128h-336z" />
<glyph unicode="N" horiz-adv-x="1230" d="M82 0v1280q0 64 33.5 98.5t95.5 34.5h160q59 0 91 -24.5t54 -83.5l219 -514q20 -54 45 -159t37 -147h8q-10 144 -10 318v610h338v-1280q0 -65 -33.5 -99t-97.5 -34h-158q-57 0 -90 25t-55 84l-215 528q-17 44 -30 92.5t-29.5 123.5t-20.5 91h-12q14 -179 14 -311l-2 -633 h-342z" />
<glyph unicode="O" d="M49 707q0 146 12 254.5t40 191t69 137t103.5 88.5t139 48t179.5 14q104 0 181 -14t139.5 -48t104 -88.5t70 -137t40.5 -191.5t12 -254t-12 -254t-40.5 -191.5t-70 -137t-104 -88.5t-139.5 -48.5t-181 -14.5q-124 0 -211 21.5t-153 71t-104 135.5t-56.5 208.5t-18.5 297.5 zM446 707q0 -182 12.5 -274.5t43.5 -131.5t92 -39q47 0 75 19t45.5 71.5t24 135t6.5 219.5q0 182 -13 274.5t-44.5 131t-93.5 38.5q-61 0 -92 -38.5t-43.5 -131t-12.5 -274.5z" />
<glyph unicode="P" horiz-adv-x="1093" d="M82 0v1413q185 19 500 19q146 0 236.5 -21t149.5 -76t82 -143t23 -229t-22 -230t-76 -143t-134 -75t-206 -21q-80 0 -178 10v-504h-375zM457 766h116q71 0 96 41t25 156q0 119 -24 157.5t-97 38.5h-116v-393z" />
<glyph unicode="Q" horiz-adv-x="1191" d="M51 707q0 146 12 254.5t40 191t69 137t103.5 88.5t139 48t179.5 14q104 0 181 -14t139.5 -48t104 -88.5t70 -137t40.5 -191.5t12 -254t-12 -254t-40.5 -191.5t-70 -137t-104 -88.5t-139.5 -48.5t-181 -14.5q-124 0 -211 21.5t-153 71t-104 135.5t-56.5 208.5t-18.5 297.5 zM416 -250l80 187q211 -89 546 -146l-84 -315q-328 99 -542 274zM444 707q0 -182 13 -275t44.5 -131.5t92.5 -38.5t92 38.5t44 131.5t13 275t-13 274.5t-44 131t-92 38.5t-92.5 -38.5t-44.5 -131.5t-13 -274z" />
<glyph unicode="R" horiz-adv-x="1142" d="M82 0v1413q185 19 502 19q134 0 224.5 -20t153 -68.5t91 -130t28.5 -203.5q0 -150 -54 -238t-185 -106v-11q159 -38 194 -217l88 -438h-387l-75 426q-13 64 -35 86.5t-68 22.5h-108v-535h-369zM451 811h124h4q73 0 99 35q27 36 27 139q0 104 -26.5 139t-103.5 35h-124 v-348z" />
<glyph unicode="S" horiz-adv-x="1030" d="M45 1038q0 122 25 199.5t85.5 123.5t149 63.5t227.5 17.5q252 0 426 -64l-20 -248q-179 7 -418 7q-62 0 -83 -16.5t-21 -78.5q0 -52 20.5 -77.5t83.5 -51.5l209 -100q142 -66 202 -165t60 -257q0 -123 -22.5 -201t-78.5 -128t-145 -70.5t-229 -20.5q-219 0 -459 62 l23 266q290 -10 428 -10q66 0 89.5 18.5t23.5 77.5q0 53 -15.5 77t-64.5 46l-234 110q-140 67 -201 165.5t-61 254.5z" />
<glyph unicode="T" horiz-adv-x="1042" d="M12 1122v291h1022v-291h-325v-1122h-377v1122h-320z" />
<glyph unicode="U" d="M74 573v840h375v-840q0 -126 13.5 -191.5t45 -92.5t92.5 -27q85 0 114 63.5t29 247.5v840h373v-840q0 -332 -111.5 -466t-388.5 -134q-202 0 -319 58.5t-170 188t-53 353.5z" />
<glyph unicode="V" horiz-adv-x="1130" d="M-4 1413h387l143 -973q1 -5 9 -67t10 -92h41l20 159l144 973h387l-283 -1311q-8 -47 -40.5 -74.5t-82.5 -27.5h-330q-47 0 -82.5 28t-44.5 74z" />
<glyph unicode="W" horiz-adv-x="1681" d="M29 1413h362l64 -928q4 -138 4 -197v-20h26q2 20 13 99.5t14 117.5l78 815q3 50 39.5 81.5t87.5 31.5h246q51 0 84.5 -31t39.5 -82l80 -817q4 -60 27 -215h29q-2 52 -2 72.5t3 73t3 67.5l57 932h365l-146 -1313q-4 -43 -41.5 -71.5t-83.5 -28.5h-305q-50 0 -87.5 28.5 t-41.5 73.5l-78 856q-12 133 -14 193h-27q-3 -108 -14 -195l-74 -854q-3 -44 -40.5 -73t-86.5 -29h-307q-48 0 -85.5 28.5t-43.5 71.5z" />
<glyph unicode="X" horiz-adv-x="1142" d="M-14 0l290 723l-268 690h369l196 -545l195 545h365l-265 -690l289 -723h-364l-220 584l-219 -584h-368z" />
<glyph unicode="Y" horiz-adv-x="1107" d="M-16 1413h385l141 -483q19 -72 31 -189h24q25 152 35 189l141 483h385l-385 -962v-451h-374v455z" />
<glyph unicode="Z" horiz-adv-x="1019" d="M41 0v274l491 865h-473v274h902v-274l-496 -865h512v-274h-936z" />
<glyph unicode="[" horiz-adv-x="606" d="M98 -158v1551q0 80 48 130t124 50h299v-223h-94q-17 0 -27 -11.5t-10 -29.5v-1383q0 -18 10 -29.5t27 -11.5h94v-223h-299q-83 0 -127.5 40.5t-44.5 139.5z" />
<glyph unicode="\" horiz-adv-x="995" d="M27 1413h286l656 -1567h-287z" />
<glyph unicode="]" horiz-adv-x="606" d="M37 -115h94q17 0 28 12t11 29v1383q0 17 -11 29t-28 12h-94v223h297q79 0 126.5 -50t47.5 -130v-1551q0 -80 -47.5 -130t-126.5 -50h-297v223z" />
<glyph unicode="^" horiz-adv-x="837" d="M49 836l238 473h266l233 -473l-143 -76l-217 332h-10l-228 -332z" />
<glyph unicode="_" horiz-adv-x="753" d="M0 0h754v-223h-754v223z" />
<glyph unicode="`" horiz-adv-x="663" d="M84 1280l127 238l399 -306l-98 -153z" />
<glyph unicode="a" horiz-adv-x="993" d="M29 264v103q0 122 74.5 191t201.5 69h264v28q-1 64 -21.5 89.5t-68.5 25.5q-194 0 -368 -10l-37 235q97 22 240.5 37t252.5 15q183 0 273 -89t90 -307v-651h-289l-29 133q-114 -160 -297 -160q-121 0 -203.5 77.5t-82.5 213.5zM381 315q0 -86 70 -86q59 0 118 41v162 h-120q-31 0 -49.5 -22.5t-18.5 -57.5v-37z" />
<glyph unicode="b" horiz-adv-x="1040" d="M68 55v1379h364l4 -304v-23q0 -104 -24 -202q121 142 270 142q180 0 249.5 -120t69.5 -407q0 -96 -10 -170.5t-40 -147.5t-79 -121t-132 -77t-195 -29t-262 21.5t-215 58.5zM430 723l2 -483q58 -10 90 -10q8 0 15 1q53 3 71.5 61t18.5 224q0 146 -22 198t-77 52 q-48 0 -98 -43z" />
<glyph unicode="c" horiz-adv-x="886" d="M39 508q0 296 102 417.5t351 121.5q92 0 190.5 -17t165.5 -55l-33 -225q-222 4 -258 4q-80 0 -107.5 -50t-27.5 -196q0 -143 28 -192.5t107 -49.5q156 0 272 17l33 -232q-146 -76 -373 -76q-248 0 -349 120t-101 413z" />
<glyph unicode="d" horiz-adv-x="1046" d="M45 520q0 202 36 319t102 162.5t175 45.5q161 0 260 -78q-4 136 -4 205v260h367v-1434h-293l-31 166q-85 -191 -307 -191q-161 0 -233 137.5t-72 407.5zM420 522q0 -107 10 -162.5t28 -73.5t52 -18q67 0 104 37v463q-52 27 -104 27q-34 0 -52 -18t-28 -78t-10 -177z" />
<glyph unicode="e" horiz-adv-x="999" d="M39 504q0 203 47.5 320t152 170t285.5 53q236 0 339.5 -88.5t105.5 -270.5v-12q-1 -90 -29 -145q-30 -59 -108.5 -90t-213.5 -31h-194q9 -89 39 -120.5t102 -31.5q100 0 346 23l33 -222q-161 -84 -418 -84q-264 0 -375.5 126t-111.5 403zM420 602h102q61 0 81 20.5 t20 69.5q-1 59 -22.5 82t-65.5 23h-10q-36 -1 -56 -13q-23 -14 -35 -56.5t-14 -125.5z" />
<glyph unicode="f" horiz-adv-x="716" d="M10 788v218l133 10v141q0 320 318 320q199 0 309 -23l-33 -227h-145q-45 0 -61.5 -26.5t-16.5 -94.5v-90h197v-228h-197v-788h-371v788h-133z" />
<glyph unicode="g" horiz-adv-x="1019" d="M8 -72q0 68 31 117.5t108 85.5q-43 45 -51 109q-3 16 -3 32q0 47 20 90q26 57 75 84q-141 68 -141 271q0 180 101 255t341 75q150 0 248 -31h281l-19 -146l-96 -16q19 -62 19 -133q0 -177 -99.5 -250.5t-337.5 -73.5q-71 0 -133 6q-9 -20 -9.5 -41.5t16.5 -40t49 -22.5 l309 -35q143 -15 205.5 -89t62.5 -214q0 -85 -19 -145t-54 -98.5t-97 -60t-136 -30t-183 -8.5q-128 0 -213 10.5t-140.5 30.5t-84.5 59t-39.5 86.5t-10.5 122.5zM346 -25q0 -65 28.5 -82.5t123.5 -17.5q88 0 119.5 17.5t31.5 74.5q0 37 -27.5 49.5t-101.5 22.5l-141 18 q-33 -33 -33 -82zM387 721q0 -64 20 -87.5t78 -23.5q57 0 78 24t21 87q0 64 -20.5 86t-78.5 22q-59 0 -78.5 -22t-19.5 -86z" />
<glyph unicode="h" horiz-adv-x="1048" d="M66 0v1434h364l4 -330q0 -93 -18 -199q161 142 313 142q123 0 188.5 -73.5t65.5 -211.5v-762h-367v647q0 51 -17 71.5t-56 20.5q-36 0 -113 -49v-690h-364z" />
<glyph unicode="i" horiz-adv-x="509" d="M70 1260v108q0 107 108 107h148q58 0 84 -26t26 -81v-108q0 -55 -26 -81t-84 -26h-148q-108 0 -108 107zM74 0v1016h362v-1016h-362z" />
<glyph unicode="j" horiz-adv-x="509" d="M-47 -238q66 77 92.5 151t26.5 167v936h362v-936q0 -152 -74 -282t-204 -195zM63 1274v108q0 52 27.5 79.5t81.5 27.5h152q52 0 80 -28t28 -79v-108q0 -107 -108 -107h-152q-109 0 -109 107z" />
<glyph unicode="k" horiz-adv-x="1032" d="M66 0v1434h364v-572q0 -91 -16 -192h43l157 346h404l-176 -342q-17 -33 -45.5 -63.5t-51.5 -47.5v-4q20 -14 49.5 -51t47.5 -72l205 -436h-398l-190 457h-43q14 -93 14 -150v-307h-364z" />
<glyph unicode="l" horiz-adv-x="604" d="M68 256v1178h360l2 -1084q0 -46 21 -67t65 -21h59l37 -242q-36 -21 -115 -34t-137 -13q-137 0 -214.5 74.5t-77.5 208.5z" />
<glyph unicode="m" horiz-adv-x="1480" d="M66 0v1016h280l37 -150q76 96 141 138.5t154 42.5q171 0 221 -152q63 79 127.5 115.5t147.5 36.5q243 0 243 -285v-762h-362v647q0 50 -13.5 71t-44.5 21t-79 -45v-694h-353v647q0 51 -13.5 71.5t-43.5 20.5q-31 0 -80 -41v-698h-362z" />
<glyph unicode="n" horiz-adv-x="1048" d="M66 0v1016h278l41 -154q78 90 169.5 137.5t178.5 47.5q123 0 187.5 -73.5t64.5 -211.5v-762h-364v647q0 51 -18 71.5t-56 20.5q-42 0 -119 -53l2 -686h-364z" />
<glyph unicode="o" horiz-adv-x="1030" d="M39 506q0 297 106.5 419t366.5 122q262 0 370.5 -122.5t108.5 -418.5q0 -292 -108.5 -412.5t-370.5 -120.5q-260 0 -366.5 120.5t-106.5 412.5zM422 506q0 -115 8 -172t27.5 -80t58.5 -23t57.5 23.5t25.5 79t7 172.5q0 120 -7 176.5t-25.5 80t-57.5 23.5t-58.5 -23 t-27.5 -81t-8 -176z" />
<glyph unicode="p" horiz-adv-x="1036" d="M66 -379v1395h290l27 -150q34 75 116.5 125.5t186.5 50.5q161 0 233 -138t72 -406q0 -203 -35 -320t-100 -162t-174 -45q-162 0 -258 78q4 -140 4 -189v-16v-223h-362zM428 248q48 -25 100 -25q35 0 52.5 19t26.5 77.5t9 176.5q0 115 -10 175t-28.5 79.5t-53.5 19.5 q-36 0 -56 -17t-40 -53v-452z" />
<glyph unicode="q" horiz-adv-x="1040" d="M39 502q0 105 10 182t39 149t79 116.5t132.5 71t196.5 26.5q116 0 263.5 -22.5t215.5 -63.5l-4 -3v-1337h-367l2 281q0 113 21 215q-47 -62 -117 -103t-150 -41q-177 0 -249 129t-72 400zM414 500q0 -131 23 -181.5t81 -50.5q45 0 86 33v481q-59 9 -88 9h-10 q-37 -3 -56 -28t-27.5 -85t-8.5 -178z" />
<glyph unicode="r" horiz-adv-x="763" d="M66 0v1016h286l33 -150q169 181 328 181h51l-33 -336h-90q-75 0 -211 -43v-668h-364z" />
<glyph unicode="s" horiz-adv-x="933" d="M37 752q0 155 87.5 224.5t309.5 70.5q265 -4 436 -43l-24 -220h-330q-88 0 -106.5 -6t-18.5 -41q0 -7 0.5 -12t1.5 -9t3.5 -7.5t4.5 -6.5t7.5 -5.5t9 -4.5t12.5 -5.5t14.5 -5t18.5 -6t22 -7.5l197 -66q117 -40 171 -107.5t54 -193.5q0 -96 -21.5 -158.5t-72.5 -99.5 t-124.5 -51.5t-186.5 -14.5q-254 0 -453 37l27 224q41 -2 299 -2q44 0 69 0.5t47.5 2.5t33 5t18.5 9.5t10 14.5t2 21q0 30 -16.5 41.5t-77.5 31.5q-10 3 -15 5l-186 63q-133 43 -178 117t-45 205z" />
<glyph unicode="t" horiz-adv-x="733" d="M14 788v218l138 8v278h372v-276h193v-228h-193v-438q0 -48 15.5 -68t50.5 -20h90l39 -242q-53 -22 -139 -34.5t-154 -12.5q-125 0 -199.5 77t-74.5 212v526h-138z" />
<glyph unicode="u" horiz-adv-x="1036" d="M61 256v760h365v-647v-8q0 -87 68 -87q40 0 108 48v694h369v-1016h-289l-33 154q-156 -181 -338 -181q-250 0 -250 283z" />
<glyph unicode="v" horiz-adv-x="1011" d="M-8 1016h383l98 -600q10 -49 23 -189h22q11 120 25 189l94 600h383l-244 -930q-12 -38 -43 -62t-71 -24h-310q-44 0 -74.5 23.5t-41.5 62.5z" />
<glyph unicode="w" horiz-adv-x="1476" d="M10 1016h359l55 -617q7 -65 14 -174h21q7 109 14 174l57 510q6 49 40 78t81 29h164q51 0 85 -29t40 -80l57 -508q9 -89 15 -174h18q8 54 19 174l51 617h362l-170 -922q-9 -43 -41 -68.5t-75 -25.5h-238q-47 0 -81 31t-40 78l-63 520q-11 112 -11 176h-20 q-4 -113 -10 -176l-62 -520q-5 -47 -39.5 -78t-83.5 -31h-233q-44 0 -76 25.5t-41 68.5z" />
<glyph unicode="x" horiz-adv-x="1030" d="M-4 0l246 520l-228 496h338l162 -379l168 379h334l-228 -496l246 -520h-336l-184 408l-182 -408h-336z" />
<glyph unicode="y" horiz-adv-x="1017" d="M-8 1016h385l94 -613q5 -28 12.5 -85t12.5 -85h14q24 96 33 170l96 613h387l-268 -1010q-13 -48 -31 -92t-45 -92.5t-60 -86.5t-77.5 -72.5t-97 -52.5t-117.5 -26q-22 -3 -44 -3q-46 0 -96 11l-26 203q102 29 162 77.5t92 127.5h-66q-41 0 -71 24t-41 64z" />
<glyph unicode="z" horiz-adv-x="903" d="M41 0v246l377 528h-365v242h799v-242l-383 -528h393v-246h-821z" />
<glyph unicode="{" horiz-adv-x="600" d="M31 557v229q45 20 54 31q19 24 19 109v356q0 164 111 245.5t338 45.5v-223q-60 0 -80 -19t-20 -86v-280q2 -137 -40 -204.5t-157 -88.5q114 -36 157.5 -103.5t45.5 -181.5v-403q0 -66 19.5 -82.5t80.5 -16.5v-223q-228 -36 -338 45.5t-110 245.5v473q0 43 -9 67t-19 32.5 t-42 25.5q-6 4 -10 6z" />
<glyph unicode="|" horiz-adv-x="466" d="M106 -346v1945h254v-1945h-254z" />
<glyph unicode="}" horiz-adv-x="598" d="M39 -115q61 0 80.5 16.5t19.5 82.5v403q2 114 45.5 181.5t157.5 103.5q-114 21 -156.5 89t-40.5 204v280q0 67 -20 86t-80 19v223q225 37 337 -45.5t112 -245.5v-356q0 -54 6.5 -79t17 -34.5t40.5 -22.5q6 -3 9 -4v-229q-47 -27 -57 -38q-23 -25 -23 -93v-473 q0 -164 -111.5 -245.5t-336.5 -45.5v223z" />
<glyph unicode="~" horiz-adv-x="827" d="M68 436q-25 156 20 239t125 83q47 -4 194 -50.5t156 -48.5q34 -8 41.5 8t7.5 73v8h150q25 -157 -18.5 -242t-127.5 -80q-48 1 -193.5 46.5t-160.5 47.5q-34 8 -40.5 -8t-6.5 -76h-147z" />
<glyph unicode="&#xa1;" horiz-adv-x="528" d="M84 147l37 449h285l36 -449v-516h-358v516zM100 831v95q0 71 26.5 99t96.5 28h84q71 0 96 -27.5t25 -99.5v-95q0 -71 -25 -97.5t-96 -26.5h-84q-70 0 -96.5 26.5t-26.5 97.5z" />
<glyph unicode="&#xa2;" horiz-adv-x="940" d="M41 711q0 279 88 400.5t303 133.5l21 168h282l-22 -186q92 -23 137 -49l-33 -220q-55 -2 -258 -2q-74 0 -100.5 -50t-26.5 -195q0 -142 26.5 -192t100.5 -50q163 0 272 16l33 -233q-118 -59 -291 -72l-20 -180h-289l27 203q-135 42 -192.5 162t-57.5 346z" />
<glyph unicode="&#xa3;" horiz-adv-x="1013" d="M53 836h117l-14 213q-7 117 11.5 193.5t68 119.5t119 59.5t177.5 16.5q163 0 400 -21l-21 -270q-2 0 -78.5 -1t-232.5 -1q-42 0 -60 -25t-18 -88l17 -196h252l-11 -181h-225l4 -55q5 -63 -2 -111.5t-27 -86t-36 -58.5t-47 -54q-9 -9 -13 -14q50 17 148 17h387v-293h-912 v293q84 47 110 121.5t19 185.5l-4 55h-127z" />
<glyph unicode="&#xa4;" horiz-adv-x="954" d="M45 377l125 147q-39 92 -39 195q0 114 45 209l-121 149l150 148l110 -135q73 51 164 51q88 0 164 -51l113 135l147 -148l-123 -153q45 -92 45 -205q0 -115 -47 -211l125 -143l-147 -148l-113 133q-76 -51 -164 -51q-90 0 -166 51l-108 -131zM332 721q0 -88 43.5 -152.5 t99.5 -64.5q60 0 101.5 63.5t41.5 153.5t-42 154.5t-101 64.5q-56 0 -99.5 -65t-43.5 -154z" />
<glyph unicode="&#xa5;" horiz-adv-x="1058" d="M-43 1413h391l137 -500q26 -84 29 -188h25q2 15 8.5 58t12 73t13.5 57l142 500h387l-273 -696h203v-217h-1016v217h213zM16 207v215h1016v-215h-315v-207h-377v207h-324z" />
<glyph unicode="&#xa6;" horiz-adv-x="462" d="M104 -346v819h254v-819h-254zM104 780v819h254v-819h-254z" />
<glyph unicode="&#xa7;" horiz-adv-x="946" d="M47 1120q0 95 26.5 158.5t83 98.5t132 49t186.5 14q223 0 402 -25l-27 -250q-41 2 -258 2q-88 0 -118 -9.5t-36 -49.5q-3 -7 -1 -16.5t1.5 -14.5t4 -13t6 -12t7.5 -11l9 -10.5t10 -10t10.5 -9t11.5 -9t11 -9.5l192 -129q79 -44 125 -95.5t62 -116t7.5 -137t-38.5 -167.5 h-246l109 -76q2 -1 20.5 -15t23.5 -18t23 -19t24.5 -23.5t21.5 -27t21.5 -33.5t17 -38.5t15 -47t8 -53.5t3.5 -63q0 -77 -17.5 -132t-50 -91t-86.5 -57t-118.5 -29t-153.5 -8q-247 0 -401 25l24 249q80 -4 262 -4q84 0 114 11t36 51q4 27 -7 49.5t-25.5 35t-39.5 29.5 l-188 132q-80 44 -126.5 95.5t-62.5 115t-7.5 135t38.5 166.5h248l-115 79q-6 6 -31.5 26.5t-39.5 33.5t-36.5 42t-35 58t-22 75t-9.5 99zM338 705q1 -113 27.5 -161t113.5 -104l127 -88q-1 79 -12.5 121.5t-39.5 73t-89 69.5z" />
<glyph unicode="&#xa8;" horiz-adv-x="731" d="M80 1264v125q0 73 63 73h121q64 0 64 -73v-125q0 -74 -64 -74h-121q-63 0 -63 74zM401 1264v125q0 73 66 73h119q61 0 61 -73v-125q0 -74 -61 -74h-119q-66 0 -66 74z" />
<glyph unicode="&#xa9;" horiz-adv-x="1290" d="M39 707q0 209 80.5 377.5t219 262t306.5 93.5q169 0 307.5 -93.5t218.5 -262t80 -377.5t-80 -377.5t-218.5 -262.5t-307.5 -94q-168 0 -306.5 94t-219 262.5t-80.5 377.5zM217 707q0 -242 125 -403t305 -161q88 0 167.5 42.5t138 116.5t92.5 179.5t34 225.5 q0 160 -58 289.5t-157 201.5t-217 72q-180 0 -305 -160.5t-125 -402.5zM332 711q0 227 72 318t251 91q128 0 234 -28l-19 -191q-35 0 -100 1t-117 1q-32 0 -39.5 -34.5t-7.5 -157.5q0 -125 7.5 -159t39.5 -34q177 0 230 6l18 -190q-112 -41 -246 -41q-178 0 -250.5 94 t-72.5 324z" />
<glyph unicode="&#xaa;" horiz-adv-x="720" d="M47 737v72q0 82 50 129t139 47h159v14q0 37 -13 53.5t-42 16.5q-146 0 -240 -6l-22 170q61 13 161 24t162 11q131 0 194.5 -61.5t63.5 -209.5v-432h-210l-19 80q-70 -100 -188 -100q-81 0 -138 51t-57 141zM299 782q0 -49 37 -49q24 0 59 21v102l-59 -6 q-14 -4 -25.5 -16.5t-11.5 -32.5v-19z" />
<glyph unicode="&#xab;" horiz-adv-x="923" d="M31 475v78l264 405l190 -122l-141 -322l139 -334l-188 -119zM428 475v78l264 405l191 -122l-142 -322l140 -334l-189 -119z" />
<glyph unicode="&#xac;" horiz-adv-x="946" d="M63 500v252h807v-473h-270v221h-537z" />
<glyph unicode="&#xad;" horiz-adv-x="626" d="M70 412v223h483v-223h-483z" />
<glyph unicode="&#xae;" horiz-adv-x="813" d="M37 987q0 189 108 322t263 133q101 0 185.5 -61t133.5 -165.5t49 -228.5q0 -125 -49 -230t-133.5 -166t-185.5 -61q-155 0 -263 133t-108 324zM135 987q0 -148 81 -252t192 -104q110 0 190 104t80 252q0 145 -80 248.5t-190 103.5q-111 0 -192 -103.5t-81 -248.5z M242 766v455q51 6 172 6q91 0 131.5 -30t40.5 -107q0 -99 -80 -107v-4q56 -9 67 -74l25 -139h-154l-16 135q-4 20 -9.5 25.5t-19.5 5.5h-10v-166h-147zM389 1026h19q8 1 13 3t8 4t4 10t1 12.5v19.5q0 23 -1 30.5t-6 12t-19 4.5h-19v-96z" />
<glyph unicode="&#xaf;" horiz-adv-x="669" d="M68 1217v221h540v-221h-540z" />
<glyph unicode="&#xb0;" horiz-adv-x="538" d="M31 1163q0 114 71 195.5t166 81.5q100 0 170 -80t70 -197q0 -116 -70.5 -198t-169.5 -82q-97 0 -167 82t-70 198zM184 1163q0 -49 24 -81.5t60 -32.5q35 0 58.5 32.5t23.5 81.5t-24 80t-58 31q-36 0 -60 -31t-24 -80z" />
<glyph unicode="&#xb1;" horiz-adv-x="919" d="M70 68v266h782v-266h-782zM70 643v268h258v234h264l2 -234h258v-268h-258l2 -229h-268v229h-258z" />
<glyph unicode="&#xb2;" horiz-adv-x="718" d="M57 737v140q0 64 37 114l121 162q107 123 131 178q6 26 -4 33.5t-39 7.5q-36 0 -107.5 -1t-125.5 -1l-7 205q138 24 275 24q168 0 238.5 -46t70.5 -181q0 -16 -4 -32.5t-9 -29t-17.5 -31.5t-20.5 -30t-27 -36.5t-28 -38.5l-152 -216q49 15 98 15l175 -6l2 -230h-607z" />
<glyph unicode="&#xb3;" horiz-adv-x="688" d="M49 743l6 199q111 -6 209 -6q63 0 79.5 15t16.5 63q0 38 -12 52.5t-53 14.5l-145 9v170l145 2q39 3 51 18t12 49q0 35 -11.5 46t-51.5 11h-221l-6 193q154 23 276 23q159 0 221 -42.5t62 -154.5q0 -102 -27.5 -152t-107.5 -63v-4q88 -13 119.5 -61t33.5 -152 q2 -137 -65.5 -194.5t-233.5 -57.5q-125 0 -297 22z" />
<glyph unicode="&#xb4;" horiz-adv-x="663" d="M63 1212l400 306l127 -238l-432 -221z" />
<glyph unicode="&#xb6;" horiz-adv-x="1048" d="M35 922q0 283 130 399.5t439 116.5q198 0 330 -35l-2 -41v-1362h-213v1223l-78 2v-1655h-211v842q-210 23 -302.5 142.5t-92.5 367.5z" />
<glyph unicode="&#xb7;" horiz-adv-x="434" d="M55 481v94q0 70 27 95.5t98 25.5h76q73 0 99 -25t26 -96v-94q0 -71 -26 -98t-99 -27h-76q-70 0 -97.5 27t-27.5 98z" />
<glyph unicode="&#xb8;" horiz-adv-x="440" d="M18 -496l35 148q146 -4 156 112q1 24 -16 27.5t-107 3.5l33 131q105 14 172.5 12t98.5 -35.5t28 -109.5q-7 -158 -119.5 -234.5t-280.5 -54.5z" />
<glyph unicode="&#xb9;" horiz-adv-x="540" d="M6 1503l184 82h277v-848h-277v516q0 73 13 113l-164 -35z" />
<glyph unicode="&#xba;" horiz-adv-x="720" d="M39 905q0 199 72.5 281t248.5 82t247 -82t71 -281q0 -197 -70.5 -276.5t-247.5 -79.5t-249 80t-72 276zM315 905q0 -108 8 -141t37 -33t38.5 34t9.5 140q0 76 -4 112t-14 50t-30 14q-29 0 -37 -32.5t-8 -143.5z" />
<glyph unicode="&#xbb;" horiz-adv-x="923" d="M41 836l190 122l267 -405v-78l-265 -414l-190 119l139 334zM438 836l191 122l264 -405v-78l-264 -414l-189 119l140 334z" />
<glyph unicode="&#xbc;" horiz-adv-x="1591" d="M37 1331l166 82h276v-848h-276v516q0 82 10 113l-145 -35zM291 0l641 1413h215l-641 -1413h-215zM854 303l172 545h242l-140 -473q-6 -27 15 -27h84v205l43 127h211v-332h73v-158l-71 -24h-2v-166h-254v166h-297q-44 0 -67.5 39.5t-8.5 97.5z" />
<glyph unicode="&#xbd;" horiz-adv-x="1587" d="M37 1331l166 82h276v-848h-276v516q0 82 10 113l-145 -35zM299 0l637 1413h213l-637 -1413h-213zM944 0v139q0 77 43 115l111 162q107 137 127 178q7 26 -2.5 33.5t-34.5 7.5q-34 0 -104.5 -1t-122.5 -1l-11 205q133 24 267 24q83 0 137 -9t94 -34t58 -69.5t18 -114.5 q0 -104 -101 -236l-147 -178q56 15 94 15l168 -7l2 -229h-596z" />
<glyph unicode="&#xbe;" horiz-adv-x="1708" d="M49 567l6 199q111 -6 205 -6q58 0 72 13.5t14 62.5q0 42 -10 57.5t-45 15.5h-141v170l141 4q23 -1 34 7.5t13 21t2 39.5q0 39 -7 49t-42 10h-217l-6 193q131 20 272 20q155 0 213.5 -42t58.5 -152q0 -103 -27 -154t-106 -61v-4q85 -13 116.5 -61t33.5 -152 q2 -137 -64 -196.5t-225 -59.5q-142 0 -291 26zM410 0l641 1413h213l-639 -1413h-215zM967 303l176 545h241l-139 -473q-9 -27 17 -27h79v205l43 127h211v-332h78v-158l-74 -24h-4v-166h-254v166h-292q-46 0 -69 38.5t-13 98.5z" />
<glyph unicode="&#xbf;" horiz-adv-x="903" d="M31 -90q0 61 15 114t40 94t55.5 80t62 80t59 85t48 104t27.5 129h283q4 -98 -13 -184.5t-46 -146.5t-59 -108.5t-54.5 -92.5t-28.5 -78q-10 -55 11 -79t77 -24q108 0 350 4l8 -241q-17 -4 -65 -14.5t-64.5 -13.5t-58.5 -10t-73.5 -9t-81.5 -4.5t-109 -2.5 q-194 0 -288.5 78t-94.5 240zM313 836v90q0 71 26.5 98t98.5 27h80q73 0 99 -27t26 -98v-90q0 -73 -26 -100t-99 -27h-80q-72 0 -98.5 27.5t-26.5 99.5z" />
<glyph unicode="&#xc0;" horiz-adv-x="1148" d="M-18 0l299 1317q9 44 44 70t81 26h337q46 0 82 -26t49 -70l293 -1317h-381l-57 340h-305l-57 -340h-385zM231 1694l127 237l400 -305l-99 -153zM471 614h211l-64 371q-15 95 -20 148h-45q-7 -79 -18 -148z" />
<glyph unicode="&#xc1;" horiz-adv-x="1148" d="M-18 0l299 1317q9 44 44 70t81 26h337q46 0 82 -26t49 -70l293 -1317h-381l-57 340h-305l-57 -340h-385zM399 1626l400 305l127 -237l-432 -221zM471 614h211l-64 371q-15 95 -20 148h-45q-7 -79 -18 -148z" />
<glyph unicode="&#xc2;" horiz-adv-x="1148" d="M-18 0l299 1317q9 44 44 70t81 26h337q46 0 82 -26t49 -70l293 -1317h-381l-57 340h-305l-57 -340h-385zM203 1599l237 269h265l229 -279l-78 -127l-276 191h-11l-286 -191zM471 614h211l-64 371q-15 95 -20 148h-45q-7 -79 -18 -148z" />
<glyph unicode="&#xc3;" horiz-adv-x="1148" d="M-18 0l299 1317q9 44 44 70t81 26h337q46 0 82 -26t49 -70l293 -1317h-381l-57 340h-305l-57 -340h-385zM250 1544q-26 156 20 240.5t123 77.5q64 -6 158.5 -47t126.5 -48q22 -5 32 3t11.5 22t1.5 51v8h151q27 -152 -16.5 -237.5t-126.5 -79.5q-65 6 -162 49.5t-120 48.5 q-35 7 -42.5 -10.5t-7.5 -73.5v-4h-149zM471 614h211l-64 371q-15 95 -20 148h-45q-7 -79 -18 -148z" />
<glyph unicode="&#xc4;" horiz-adv-x="1148" d="M-18 0l299 1317q9 44 44 70t81 26h337q46 0 82 -26t49 -70l293 -1317h-381l-57 340h-305l-57 -340h-385zM285 1632v125q0 74 63 74h121q63 0 63 -74v-125q0 -73 -63 -73h-121q-63 0 -63 73zM471 614h211l-64 371q-15 95 -20 148h-45q-7 -79 -18 -148zM606 1632v125 q0 74 66 74h119q61 0 61 -74v-125q0 -73 -61 -73h-119q-66 0 -66 73z" />
<glyph unicode="&#xc5;" horiz-adv-x="1148" d="M-18 0l299 1317q9 44 44 70t81 26h337q46 0 82 -26t49 -70l293 -1317h-381l-57 340h-305l-57 -340h-385zM354 1702q0 102 64.5 175t154.5 73q87 0 152.5 -73t65.5 -175t-64.5 -172t-153.5 -70q-91 0 -155 70t-64 172zM471 614h211l-64 371q-15 95 -20 148h-45 q-7 -79 -18 -148zM498 1702q0 -43 21.5 -70.5t53.5 -27.5q31 0 53.5 28t22.5 70t-22.5 71t-53.5 29t-53 -29t-22 -71z" />
<glyph unicode="&#xc6;" horiz-adv-x="1601" d="M-29 0l394 1120q32 85 71 137.5t107.5 90t170 52.5t255.5 15h69h70.5h62.5t67.5 -0.5t61 -1.5t66.5 -2.5t61 -3.5t68 -4.5t66 -5.5l-17 -264h-391q-31 0 -49.5 -26t-18.5 -69v-184h400v-248h-400v-231q0 -45 20 -68.5t48 -23.5h391l17 -267q-169 -24 -576 -24 q-114 0 -180 84.5t-66 218.5v67h-270l-115 -362h-383zM555 629h184v424q0 87 21 133h-25q-23 -47 -35 -101z" />
<glyph unicode="&#xc7;" horiz-adv-x="1017" d="M49 707q0 273 52.5 431t167 229t311.5 71q128 0 208 -11t177 -38l-29 -279q-119 8 -356 8q-56 0 -85 -36.5t-41 -122.5t-12 -252t12 -252.5t41 -123t85 -36.5q268 0 383 16l28 -274q-93 -33 -186 -47.5t-225 -14.5q-197 0 -311.5 71.5t-167 229.5t-52.5 431zM324 -549 l34 148q146 -4 156 112q1 24 -16 27.5t-107 3.5l33 131q105 14 172.5 12t98.5 -35.5t28 -109.5q-7 -158 -119 -234.5t-280 -54.5z" />
<glyph unicode="&#xc8;" horiz-adv-x="1001" d="M76 295v823q1 136 75 219.5t189 83.5q456 0 621 -24l-17 -271h-420q-29 0 -50 -23.5t-21 -64.5v-180h430v-256h-430v-225q0 -44 20.5 -68t50.5 -24h420l17 -269q-165 -24 -621 -24q-114 0 -188.5 84t-75.5 219zM205 1708l127 238l399 -306l-98 -153z" />
<glyph unicode="&#xc9;" horiz-adv-x="1001" d="M76 295v823q1 136 75 219.5t189 83.5q456 0 621 -24l-17 -271h-420q-29 0 -50 -23.5t-21 -64.5v-180h430v-256h-430v-225q0 -44 20.5 -68t50.5 -24h420l17 -269q-165 -24 -621 -24q-114 0 -188.5 84t-75.5 219zM373 1640l399 306l127 -238l-432 -221z" />
<glyph unicode="&#xca;" horiz-adv-x="1001" d="M76 295v823q1 136 75 219.5t189 83.5q456 0 621 -24l-17 -271h-420q-29 0 -50 -23.5t-21 -64.5v-180h430v-256h-430v-225q0 -44 20.5 -68t50.5 -24h420l17 -269q-165 -24 -621 -24q-114 0 -188.5 84t-75.5 219zM176 1614l238 268h264l229 -278l-78 -127l-276 190h-10 l-287 -190z" />
<glyph unicode="&#xcb;" horiz-adv-x="1001" d="M76 295v823q1 136 75 219.5t189 83.5q456 0 621 -24l-17 -271h-420q-29 0 -50 -23.5t-21 -64.5v-180h430v-256h-430v-225q0 -44 20.5 -68t50.5 -24h420l17 -269q-165 -24 -621 -24q-114 0 -188.5 84t-75.5 219zM258 1647v125q0 73 64 73h120q64 0 64 -73v-125 q0 -74 -64 -74h-120q-31 0 -47.5 19.5t-16.5 54.5zM580 1647v125q0 73 65 73h119q61 0 61 -73v-125q0 -74 -61 -74h-119q-65 0 -65 74z" />
<glyph unicode="&#xcc;" horiz-adv-x="538" d="M-72 1694l127 237l400 -305l-99 -153zM82 0v1413h375v-1413h-375z" />
<glyph unicode="&#xcd;" horiz-adv-x="538" d="M82 0v1413h375v-1413h-375zM96 1626l400 305l127 -237l-433 -221z" />
<glyph unicode="&#xce;" horiz-adv-x="538" d="M-100 1599l237 269h264l230 -279l-78 -127l-277 191h-10l-286 -191zM82 0v1413h375v-1413h-375z" />
<glyph unicode="&#xcf;" horiz-adv-x="538" d="M-18 1632v125q0 74 63 74h121q63 0 63 -74v-125q0 -73 -63 -73h-121q-63 0 -63 73zM82 0v1413h375v-1413h-375zM303 1632v125q0 74 66 74h118q62 0 62 -74v-125q0 -73 -62 -73h-118q-66 0 -66 73z" />
<glyph unicode="&#xd0;" horiz-adv-x="1175" d="M8 643v184h70v586q285 19 504 19q124 0 211 -21.5t153 -70.5t104.5 -134t57 -206t18.5 -293t-18.5 -293t-57 -206t-104.5 -134t-153 -70.5t-211 -21.5q-243 0 -504 18v643h-70zM453 264l129 -2q60 0 91 39.5t43.5 132.5t12.5 273t-12.5 273t-43.5 133t-91 40h-129v-326 h165v-184h-165v-379z" />
<glyph unicode="&#xd1;" horiz-adv-x="1230" d="M82 0v1280q0 64 33.5 98.5t95.5 34.5h160q59 0 91 -24.5t54 -83.5l219 -514q20 -54 45 -159t37 -147h8q-10 144 -10 318v610h338v-1280q0 -65 -33.5 -99t-97.5 -34h-158q-57 0 -90 25t-55 84l-215 528q-17 44 -30 92.5t-29.5 123.5t-20.5 91h-12q14 -179 14 -311l-2 -633 h-342zM315 1544q-26 156 20.5 240.5t123.5 77.5q64 -6 158 -47t126 -48q22 -5 32 3t11.5 22t1.5 51v8h152q27 -152 -16.5 -237.5t-126.5 -79.5q-65 6 -163 49.5t-120 48.5q-34 7 -41.5 -10t-7.5 -71v-7h-150z" />
<glyph unicode="&#xd2;" d="M49 707q0 146 12 254.5t40 191t69 137t103.5 88.5t139 48t179.5 14q104 0 181 -14t139.5 -48t104 -88.5t70 -137t40.5 -191.5t12 -254t-12 -254t-40.5 -191.5t-70 -137t-104 -88.5t-139.5 -48.5t-181 -14.5q-124 0 -211 21.5t-153 71t-104 135.5t-56.5 208.5t-18.5 297.5 zM252 1694l127 237l399 -305l-98 -153zM446 707q0 -182 12.5 -274.5t43.5 -131.5t92 -39q47 0 75 19t45.5 71.5t24 135t6.5 219.5q0 182 -13 274.5t-44.5 131t-93.5 38.5q-61 0 -92 -38.5t-43.5 -131t-12.5 -274.5z" />
<glyph unicode="&#xd3;" d="M49 707q0 146 12 254.5t40 191t69 137t103.5 88.5t139 48t179.5 14q104 0 181 -14t139.5 -48t104 -88.5t70 -137t40.5 -191.5t12 -254t-12 -254t-40.5 -191.5t-70 -137t-104 -88.5t-139.5 -48.5t-181 -14.5q-124 0 -211 21.5t-153 71t-104 135.5t-56.5 208.5t-18.5 297.5 zM422 1626l399 305l127 -237l-432 -221zM446 707q0 -182 12.5 -274.5t43.5 -131.5t92 -39q47 0 75 19t45.5 71.5t24 135t6.5 219.5q0 182 -13 274.5t-44.5 131t-93.5 38.5q-61 0 -92 -38.5t-43.5 -131t-12.5 -274.5z" />
<glyph unicode="&#xd4;" d="M49 707q0 146 12 254.5t40 191t69 137t103.5 88.5t139 48t179.5 14q104 0 181 -14t139.5 -48t104 -88.5t70 -137t40.5 -191.5t12 -254t-12 -254t-40.5 -191.5t-70 -137t-104 -88.5t-139.5 -48.5t-181 -14.5q-124 0 -211 21.5t-153 71t-104 135.5t-56.5 208.5t-18.5 297.5 zM225 1599l238 269h264l229 -279l-77 -127l-277 191h-10l-287 -191zM446 707q0 -182 12.5 -274.5t43.5 -131.5t92 -39q47 0 75 19t45.5 71.5t24 135t6.5 219.5q0 182 -13 274.5t-44.5 131t-93.5 38.5q-61 0 -92 -38.5t-43.5 -131t-12.5 -274.5z" />
<glyph unicode="&#xd5;" d="M49 707q0 146 12 254.5t40 191t69 137t103.5 88.5t139 48t179.5 14q104 0 181 -14t139.5 -48t104 -88.5t70 -137t40.5 -191.5t12 -254t-12 -254t-40.5 -191.5t-70 -137t-104 -88.5t-139.5 -48.5t-181 -14.5q-124 0 -211 21.5t-153 71t-104 135.5t-56.5 208.5t-18.5 297.5 zM270 1544q-26 156 20.5 240.5t123.5 77.5q64 -6 158 -47t126 -48q22 -5 32 3t11.5 22t1.5 51v8h152q27 -152 -16.5 -237.5t-126.5 -79.5q-65 6 -163 49.5t-120 48.5q-34 7 -41.5 -10t-7.5 -71v-7h-150zM446 707q0 -182 12.5 -274.5t43.5 -131.5t92 -39q47 0 75 19 t45.5 71.5t24 135t6.5 219.5q0 182 -13 274.5t-44.5 131t-93.5 38.5q-61 0 -92 -38.5t-43.5 -131t-12.5 -274.5z" />
<glyph unicode="&#xd6;" d="M49 707q0 146 12 254.5t40 191t69 137t103.5 88.5t139 48t179.5 14q104 0 181 -14t139.5 -48t104 -88.5t70 -137t40.5 -191.5t12 -254t-12 -254t-40.5 -191.5t-70 -137t-104 -88.5t-139.5 -48.5t-181 -14.5q-124 0 -211 21.5t-153 71t-104 135.5t-56.5 208.5t-18.5 297.5 zM305 1632v125q0 35 16.5 54.5t47.5 19.5h120q64 0 64 -74v-125q0 -73 -64 -73h-120q-64 0 -64 73zM446 707q0 -182 12.5 -274.5t43.5 -131.5t92 -39q47 0 75 19t45.5 71.5t24 135t6.5 219.5q0 182 -13 274.5t-44.5 131t-93.5 38.5q-61 0 -92 -38.5t-43.5 -131t-12.5 -274.5 zM627 1632v125q0 74 65 74h119q61 0 61 -74v-125q0 -73 -61 -73h-119q-65 0 -65 73z" />
<glyph unicode="&#xd7;" horiz-adv-x="854" d="M33 362l217 236l-217 233l162 205l231 -248l229 248l168 -205l-219 -233l219 -236l-168 -200l-229 246l-231 -246z" />
<glyph unicode="&#xd8;" d="M49 707q0 146 12 254.5t40 191t69 137t103.5 88.5t139 48t179.5 14q32 0 94 -4l92 202l281 -133l-80 -174q84 -79 122 -228t38 -396q0 -145 -12 -254t-40.5 -191.5t-70 -137t-104 -88.5t-139.5 -48.5t-181 -14.5q-41 0 -115 4l-98 -208l-281 135l92 194 q-74 81 -107.5 227t-33.5 382zM446 707q0 -182 12.5 -274.5t43.5 -131.5t92 -39q47 0 75 19t45.5 71.5t24 135t6.5 219.5q0 182 -13 274.5t-44.5 131t-93.5 38.5q-61 0 -92 -38.5t-43.5 -131t-12.5 -274.5z" />
<glyph unicode="&#xd9;" d="M74 573v840h375v-840q0 -126 13.5 -191.5t45 -92.5t92.5 -27q85 0 114 63.5t29 247.5v840h373v-840q0 -332 -111.5 -466t-388.5 -134q-202 0 -319 58.5t-170 188t-53 353.5zM252 1694l127 237l399 -305l-98 -153z" />
<glyph unicode="&#xda;" d="M74 573v840h375v-840q0 -126 13.5 -191.5t45 -92.5t92.5 -27q85 0 114 63.5t29 247.5v840h373v-840q0 -332 -111.5 -466t-388.5 -134q-202 0 -319 58.5t-170 188t-53 353.5zM422 1626l399 305l127 -237l-432 -221z" />
<glyph unicode="&#xdb;" d="M74 573v840h375v-840q0 -126 13.5 -191.5t45 -92.5t92.5 -27q85 0 114 63.5t29 247.5v840h373v-840q0 -332 -111.5 -466t-388.5 -134q-202 0 -319 58.5t-170 188t-53 353.5zM225 1599l238 269h264l229 -279l-77 -127l-277 191h-10l-287 -191z" />
<glyph unicode="&#xdc;" d="M74 573v840h375v-840q0 -126 13.5 -191.5t45 -92.5t92.5 -27q85 0 114 63.5t29 247.5v840h373v-840q0 -332 -111.5 -466t-388.5 -134q-202 0 -319 58.5t-170 188t-53 353.5zM305 1632v125q0 35 16.5 54.5t47.5 19.5h120q64 0 64 -74v-125q0 -73 -64 -73h-120 q-64 0 -64 73zM627 1632v125q0 74 65 74h119q61 0 61 -74v-125q0 -73 -61 -73h-119q-65 0 -65 73z" />
<glyph unicode="&#xdd;" horiz-adv-x="1107" d="M-16 1413h385l141 -483q19 -72 31 -189h24q25 152 35 189l141 483h385l-385 -962v-451h-374v455zM383 1626l399 305l127 -237l-432 -221z" />
<glyph unicode="&#xde;" horiz-adv-x="1062" d="M82 0v1413h379v-235h104q141 0 229 -21t145 -76t79 -143.5t22 -230.5q0 -187 -42 -288.5t-131 -142t-251 -40.5q-53 0 -155 8v-244h-379zM461 510h94q66 0 86.5 39t20.5 158q0 121 -20.5 159.5t-86.5 38.5h-94v-395z" />
<glyph unicode="&#xdf;" horiz-adv-x="1239" d="M8 786v222l133 8v129q0 108 24.5 177.5t82.5 111.5t145 58.5t223 16.5q135 0 219 -17t132.5 -58t66 -99.5t17.5 -152.5q0 -59 -15 -107.5t-55 -134.5q-4 -8 -16.5 -29.5t-16.5 -29.5l-12.5 -25t-11.5 -27t-6 -24t-3 -27q0 -17 10 -35t21.5 -30.5t33.5 -33.5t34 -34 l80 -88q82 -75 110.5 -128t28.5 -148q0 -110 -28.5 -173.5t-104.5 -97t-211 -33.5q-117 0 -311 23l20 229q25 1 52.5 1t71 -0.5t79.5 -0.5q40 0 50.5 10t10.5 54q0 24 -19 46.5t-61.5 58t-62.5 55.5l-33 59q-59 52 -87 108t-28 134q0 53 12 94.5t27 67.5t56 88q33 56 44 86 t11 71q0 51 -27 72.5t-80 21.5q-68 0 -87 -28t-19 -125v-1102h-367v786h-133z" />
<glyph unicode="&#xe0;" horiz-adv-x="993" d="M29 264v103q0 122 74.5 191t201.5 69h264v28q-1 64 -21.5 89.5t-68.5 25.5q-194 0 -368 -10l-37 235q97 22 240.5 37t252.5 15q183 0 273 -89t90 -307v-651h-289l-29 133q-114 -160 -297 -160q-121 0 -203.5 77.5t-82.5 213.5zM176 1317l127 237l399 -305l-98 -153z M381 315q0 -86 70 -86q59 0 118 41v162h-120q-31 0 -49.5 -22.5t-18.5 -57.5v-37z" />
<glyph unicode="&#xe1;" horiz-adv-x="993" d="M29 264v103q0 122 74.5 191t201.5 69h264v28q-1 64 -21.5 89.5t-68.5 25.5q-194 0 -368 -10l-37 235q97 22 240.5 37t252.5 15q183 0 273 -89t90 -307v-651h-289l-29 133q-114 -160 -297 -160q-121 0 -203.5 77.5t-82.5 213.5zM346 1249l399 305l127 -237l-432 -221z M381 315q0 -86 70 -86q59 0 118 41v162h-120q-31 0 -49.5 -22.5t-18.5 -57.5v-37z" />
<glyph unicode="&#xe2;" horiz-adv-x="993" d="M29 264v103q0 122 74.5 191t201.5 69h264v28q-1 64 -21.5 89.5t-68.5 25.5q-194 0 -368 -10l-37 235q97 22 240.5 37t252.5 15q183 0 273 -89t90 -307v-651h-289l-29 133q-114 -160 -297 -160q-121 0 -203.5 77.5t-82.5 213.5zM150 1223l237 268h264l230 -279l-78 -127 l-277 191h-10l-287 -191zM381 315q0 -86 70 -86q59 0 118 41v162h-120q-31 0 -49.5 -22.5t-18.5 -57.5v-37z" />
<glyph unicode="&#xe3;" horiz-adv-x="993" d="M29 264v103q0 122 74.5 191t201.5 69h264v28q-1 64 -21.5 89.5t-68.5 25.5q-194 0 -368 -10l-37 235q97 22 240.5 37t252.5 15q183 0 273 -89t90 -307v-651h-289l-29 133q-114 -160 -297 -160q-121 0 -203.5 77.5t-82.5 213.5zM195 1167q-26 156 20 240.5t123 77.5 q64 -6 158.5 -46.5t126.5 -47.5q22 -5 32 3t11.5 22t1.5 51v8h151q27 -152 -16.5 -238t-126.5 -80q-65 6 -163 49.5t-120 48.5q-34 7 -41.5 -10t-7.5 -71v-7h-149zM381 315q0 -86 70 -86q59 0 118 41v162h-120q-31 0 -49.5 -22.5t-18.5 -57.5v-37z" />
<glyph unicode="&#xe4;" horiz-adv-x="993" d="M29 264v103q0 122 74.5 191t201.5 69h264v28q-1 64 -21.5 89.5t-68.5 25.5q-194 0 -368 -10l-37 235q97 22 240.5 37t252.5 15q183 0 273 -89t90 -307v-651h-289l-29 133q-114 -160 -297 -160q-121 0 -203.5 77.5t-82.5 213.5zM229 1255v125q0 35 16.5 54.5t47.5 19.5 h121q63 0 63 -74v-125q0 -73 -63 -73h-121q-64 0 -64 73zM381 315q0 -86 70 -86q59 0 118 41v162h-120q-31 0 -49.5 -22.5t-18.5 -57.5v-37zM551 1255v125q0 74 65 74h119q62 0 62 -74v-125q0 -73 -62 -73h-119q-65 0 -65 73z" />
<glyph unicode="&#xe5;" horiz-adv-x="993" d="M29 264v103q0 122 74.5 191t201.5 69h264v28q-1 64 -21.5 89.5t-68.5 25.5q-194 0 -368 -10l-37 235q97 22 240.5 37t252.5 15q183 0 273 -89t90 -307v-651h-289l-29 133q-114 -160 -297 -160q-121 0 -203.5 77.5t-82.5 213.5zM299 1325q0 102 64.5 175t154.5 73 q87 0 152 -73t65 -175t-64 -172t-153 -70q-91 0 -155 70t-64 172zM381 315q0 -86 70 -86q59 0 118 41v162h-120q-31 0 -49.5 -22.5t-18.5 -57.5v-37zM442 1325q0 -42 22 -70t54 -28q31 0 53.5 28t22.5 70t-22.5 71t-53.5 29t-53.5 -29t-22.5 -71z" />
<glyph unicode="&#xe6;" horiz-adv-x="1484" d="M29 264v103q0 118 72.5 187t195.5 69h250v32q0 64 -18 89.5t-60 25.5q-187 0 -358 -10l-37 235q94 22 235 37t248 15q130 0 205 -41q99 41 262 41q226 0 327 -88.5t103 -270.5q2 -147 -76 -212.5t-282 -65.5h-181q7 -90 37.5 -121t106.5 -31q97 0 338 23l37 -222 q-164 -84 -414 -84q-146 0 -242 39.5t-151 122.5q-114 -164 -322 -164q-118 0 -197 77.5t-79 213.5zM381 315q0 -86 61 -86q66 0 127 45q-19 75 -22 158h-101q-29 0 -47 -22.5t-18 -57.5v-37zM911 602h82q69 0 92 20.5t23 69.5q-1 58 -20.5 81.5t-57.5 23.5q-70 3 -93 -34.5 t-26 -160.5z" />
<glyph unicode="&#xe7;" horiz-adv-x="886" d="M39 508q0 296 102 417.5t351 121.5q92 0 190.5 -17t165.5 -55l-33 -225q-222 4 -258 4q-80 0 -107.5 -50t-27.5 -196q0 -143 28 -192.5t107 -49.5q156 0 272 17l33 -232q-146 -76 -373 -76q-248 0 -349 120t-101 413zM248 -526l35 147q145 -4 155 113q1 22 -13.5 26 t-83.5 4h-26l33 132q105 14 172.5 12t98.5 -36t28 -110q-7 -158 -119 -234t-280 -54z" />
<glyph unicode="&#xe8;" horiz-adv-x="999" d="M39 504q0 203 47.5 320t152 170t285.5 53q236 0 339.5 -88.5t105.5 -270.5q2 -98 -28.5 -157t-109 -90t-213.5 -31h-194q9 -89 39 -120.5t102 -31.5q100 0 346 23l33 -222q-161 -84 -418 -84q-264 0 -375.5 126t-111.5 403zM199 1317l127 237l399 -305l-98 -153zM420 602 h102q61 0 81 20.5t20 69.5q-1 59 -22.5 82t-65.5 23q-43 2 -66 -12.5t-35 -57t-14 -125.5z" />
<glyph unicode="&#xe9;" horiz-adv-x="999" d="M39 504q0 203 47.5 320t152 170t285.5 53q236 0 339.5 -88.5t105.5 -270.5q2 -98 -28.5 -157t-109 -90t-213.5 -31h-194q9 -89 39 -120.5t102 -31.5q100 0 346 23l33 -222q-161 -84 -418 -84q-264 0 -375.5 126t-111.5 403zM369 1249l399 305l127 -237l-432 -221z M420 602h102q61 0 81 20.5t20 69.5q-1 59 -22.5 82t-65.5 23q-43 2 -66 -12.5t-35 -57t-14 -125.5z" />
<glyph unicode="&#xea;" horiz-adv-x="999" d="M39 504q0 203 47.5 320t152 170t285.5 53q236 0 339.5 -88.5t105.5 -270.5q2 -98 -28.5 -157t-109 -90t-213.5 -31h-194q9 -89 39 -120.5t102 -31.5q100 0 346 23l33 -222q-161 -84 -418 -84q-264 0 -375.5 126t-111.5 403zM172 1223l238 268h264l229 -279l-78 -127 l-276 191h-10l-287 -191zM420 602h102q61 0 81 20.5t20 69.5q-1 59 -22.5 82t-65.5 23q-43 2 -66 -12.5t-35 -57t-14 -125.5z" />
<glyph unicode="&#xeb;" horiz-adv-x="999" d="M39 504q0 203 47.5 320t152 170t285.5 53q236 0 339.5 -88.5t105.5 -270.5q2 -98 -28.5 -157t-109 -90t-213.5 -31h-194q9 -89 39 -120.5t102 -31.5q100 0 346 23l33 -222q-161 -84 -418 -84q-264 0 -375.5 126t-111.5 403zM254 1255v125q0 74 63 74h121q64 0 64 -74 v-125q0 -73 -64 -73h-121q-63 0 -63 73zM420 602h102q61 0 81 20.5t20 69.5q-1 59 -22.5 82t-65.5 23q-43 2 -66 -12.5t-35 -57t-14 -125.5zM575 1255v125q0 74 66 74h119q61 0 61 -74v-125q0 -73 -61 -73h-119q-66 0 -66 73z" />
<glyph unicode="&#xec;" horiz-adv-x="512" d="M-86 1317l127 237l399 -305l-98 -153zM74 0v1016h364v-1016h-364z" />
<glyph unicode="&#xed;" horiz-adv-x="512" d="M74 0v1016h364v-1016h-364zM82 1249l399 305l127 -237l-432 -221z" />
<glyph unicode="&#xee;" horiz-adv-x="512" d="M-113 1223l238 268h264l229 -279l-77 -127l-277 191h-10l-287 -191zM74 0v1016h364v-1016h-364z" />
<glyph unicode="&#xef;" horiz-adv-x="512" d="M-33 1255v125q0 35 16.5 54.5t47.5 19.5h121q63 0 63 -74v-125q0 -73 -63 -73h-121q-64 0 -64 73zM74 0v1016h364v-1016h-364zM289 1255v125q0 74 65 74h119q62 0 62 -74v-125q0 -73 -62 -73h-119q-65 0 -65 73z" />
<glyph unicode="&#xf0;" horiz-adv-x="1054" d="M39 440q0 252 90 369t307 117q73 0 146 -11q-46 166 -156 231.5t-297 51.5l35 232q233 15 407 -62l162 160l203 -201l-133 -129q194 -225 194 -606q0 -169 -24.5 -283.5t-82 -191t-149.5 -110.5t-229 -34q-242 0 -357.5 114t-115.5 353zM420 449q0 -128 19.5 -173 t74.5 -45q65 0 83.5 71t18.5 292l-2 70q-62 4 -98 4q-38 0 -57.5 -17.5t-29 -64.5t-9.5 -137z" />
<glyph unicode="&#xf1;" horiz-adv-x="1048" d="M66 0v1016h278l41 -154q78 90 169.5 137.5t178.5 47.5q123 0 187.5 -73.5t64.5 -211.5v-762h-364v647q0 51 -18 71.5t-56 20.5q-42 0 -119 -53l2 -686h-364zM213 1167q-26 156 20 240.5t123 77.5q64 -6 158.5 -46.5t126.5 -47.5q22 -5 32 3t11.5 22t1.5 51v8h152 q27 -152 -16.5 -238t-127.5 -80q-65 6 -162 49.5t-120 48.5q-35 7 -42.5 -10.5t-7.5 -73.5v-4h-149z" />
<glyph unicode="&#xf2;" horiz-adv-x="1030" d="M39 506q0 297 106.5 419t366.5 122q262 0 370.5 -122.5t108.5 -418.5q0 -292 -108.5 -412.5t-370.5 -120.5q-260 0 -366.5 120.5t-106.5 412.5zM184 1317l127 237l400 -305l-99 -153zM422 506q0 -115 8 -172t27.5 -80t58.5 -23t57.5 23.5t25.5 79t7 172.5q0 120 -7 176.5 t-25.5 80t-57.5 23.5t-58.5 -23t-27.5 -81t-8 -176z" />
<glyph unicode="&#xf3;" horiz-adv-x="1030" d="M39 506q0 297 106.5 419t366.5 122q262 0 370.5 -122.5t108.5 -418.5q0 -292 -108.5 -412.5t-370.5 -120.5q-260 0 -366.5 120.5t-106.5 412.5zM354 1249l400 305l127 -237l-432 -221zM422 506q0 -115 8 -172t27.5 -80t58.5 -23t57.5 23.5t25.5 79t7 172.5 q0 120 -7 176.5t-25.5 80t-57.5 23.5t-58.5 -23t-27.5 -81t-8 -176z" />
<glyph unicode="&#xf4;" horiz-adv-x="1030" d="M39 506q0 297 106.5 419t366.5 122q262 0 370.5 -122.5t108.5 -418.5q0 -292 -108.5 -412.5t-370.5 -120.5q-260 0 -366.5 120.5t-106.5 412.5zM158 1223l237 268h264l230 -279l-78 -127l-276 191h-11l-286 -191zM422 506q0 -115 8 -172t27.5 -80t58.5 -23t57.5 23.5 t25.5 79t7 172.5q0 120 -7 176.5t-25.5 80t-57.5 23.5t-58.5 -23t-27.5 -81t-8 -176z" />
<glyph unicode="&#xf5;" horiz-adv-x="1030" d="M39 506q0 297 106.5 419t366.5 122q262 0 370.5 -122.5t108.5 -418.5q0 -292 -108.5 -412.5t-370.5 -120.5q-260 0 -366.5 120.5t-106.5 412.5zM203 1167q-26 156 20 240.5t123 77.5q64 -6 158.5 -46.5t126.5 -47.5q22 -5 32 3t11.5 22t1.5 51v8h151q27 -152 -16.5 -238 t-126.5 -80q-65 6 -163 49.5t-120 48.5q-34 7 -41.5 -10t-7.5 -71v-7h-149zM422 506q0 -115 8 -172t27.5 -80t58.5 -23t57.5 23.5t25.5 79t7 172.5q0 120 -7 176.5t-25.5 80t-57.5 23.5t-58.5 -23t-27.5 -81t-8 -176z" />
<glyph unicode="&#xf6;" horiz-adv-x="1030" d="M39 506q0 297 106.5 419t366.5 122q262 0 370.5 -122.5t108.5 -418.5q0 -292 -108.5 -412.5t-370.5 -120.5q-260 0 -366.5 120.5t-106.5 412.5zM238 1255v125q0 74 63 74h121q63 0 63 -74v-125q0 -73 -63 -73h-121q-63 0 -63 73zM422 506q0 -115 8 -172t27.5 -80 t58.5 -23t57.5 23.5t25.5 79t7 172.5q0 120 -7 176.5t-25.5 80t-57.5 23.5t-58.5 -23t-27.5 -81t-8 -176zM559 1255v125q0 74 66 74h118q62 0 62 -74v-125q0 -73 -62 -73h-118q-66 0 -66 73z" />
<glyph unicode="&#xf7;" horiz-adv-x="886" d="M39 473v254h807v-254h-807zM262 174v53q0 76 29.5 104.5t107.5 28.5h84q78 0 108 -28.5t30 -104.5v-53q0 -75 -30 -104t-108 -29h-84q-78 0 -107.5 29t-29.5 104zM262 965v53q0 76 29.5 104.5t107.5 28.5h84q78 0 108 -28.5t30 -104.5v-53q0 -74 -30 -102.5t-108 -28.5 h-84q-78 0 -107.5 28.5t-29.5 102.5z" />
<glyph unicode="&#xf8;" horiz-adv-x="1030" d="M39 506q0 297 106.5 419t366.5 122q64 0 147 -11l62 129l201 -114l-54 -111q123 -120 123 -434q0 -292 -108.5 -412.5t-370.5 -120.5q-62 0 -141 11l-54 -113l-200 111l45 94q-123 120 -123 430zM422 506q0 -115 8 -172t27.5 -80t58.5 -23t57.5 23.5t25.5 79t7 172.5 q0 120 -7 176.5t-25.5 80t-57.5 23.5t-58.5 -23t-27.5 -81t-8 -176z" />
<glyph unicode="&#xf9;" horiz-adv-x="1036" d="M61 256v760h365v-647q-3 -95 68 -95q40 0 108 48v694h369v-1016h-289l-33 154q-156 -181 -338 -181q-250 0 -250 283zM180 1335l127 238l400 -305l-99 -154z" />
<glyph unicode="&#xfa;" horiz-adv-x="1036" d="M61 256v760h365v-647q-3 -95 68 -95q40 0 108 48v694h369v-1016h-289l-33 154q-156 -181 -338 -181q-250 0 -250 283zM350 1268l400 305l127 -238l-433 -221z" />
<glyph unicode="&#xfb;" horiz-adv-x="1036" d="M61 256v760h365v-647q-3 -95 68 -95q40 0 108 48v694h369v-1016h-289l-33 154q-156 -181 -338 -181q-250 0 -250 283zM154 1241l237 268h264l230 -278l-78 -127l-277 190h-10l-287 -190z" />
<glyph unicode="&#xfc;" horiz-adv-x="1036" d="M61 256v760h365v-647q-3 -95 68 -95q40 0 108 48v694h369v-1016h-289l-33 154q-156 -181 -338 -181q-250 0 -250 283zM233 1272v125q0 73 64 73h121q63 0 63 -73v-125q0 -74 -63 -74h-121q-31 0 -47.5 19.5t-16.5 54.5zM555 1272v125q0 73 66 73h118q62 0 62 -73v-125 q0 -74 -62 -74h-118q-66 0 -66 74z" />
<glyph unicode="&#xfd;" horiz-adv-x="1017" d="M-8 1016h385l94 -613q5 -28 12.5 -85t12.5 -85h14q24 96 33 170l96 613h387l-268 -1010q-13 -48 -31 -92t-45 -92.5t-60 -86.5t-77.5 -72.5t-97 -52.5t-117.5 -26t-140 8l-26 203q102 29 162 77.5t92 127.5h-66q-41 0 -71 24t-41 64zM346 1249l399 305l127 -237 l-432 -221z" />
<glyph unicode="&#xfe;" horiz-adv-x="1040" d="M66 -379v1813h364v-244q0 -59 -10 -264q86 114 274 114q163 0 235 -134t72 -408q0 -153 -20 -256.5t-61.5 -162t-97.5 -82.5t-136 -24q-165 0 -264 86q8 -140 8 -215v-223h-364zM430 248q52 -27 102 -27q36 0 55 20t28.5 79t9.5 174q0 119 -9 178.5t-26.5 79.5t-52.5 20 q-26 0 -46.5 -9t-31 -19t-29.5 -31v-465z" />
<glyph unicode="&#xff;" horiz-adv-x="1017" d="M-8 1016h385l94 -613q5 -28 12.5 -85t12.5 -85h14q24 96 33 170l96 613h387l-268 -1010q-13 -48 -31 -92t-45 -92.5t-60 -86.5t-77.5 -72.5t-97 -52.5t-117.5 -26t-140 8l-26 203q102 29 162 77.5t92 127.5h-66q-41 0 -71 24t-41 64zM231 1255v125q0 35 16.5 54.5 t47.5 19.5h121q63 0 63 -74v-125q0 -73 -63 -73h-121q-64 0 -64 73zM553 1255v125q0 74 65 74h119q62 0 62 -74v-125q0 -73 -62 -73h-119q-65 0 -65 73z" />
<glyph unicode="&#x152;" horiz-adv-x="1648" d="M51 707q0 217 27.5 357t93.5 224.5t163.5 118t248.5 33.5q173 0 301 -51q56 32 121 32q445 0 604 -24l-19 -271h-401q-28 0 -47 -23.5t-19 -64.5v-184h410v-248h-410v-229q0 -44 19 -68t47 -24h401l19 -269q-157 -24 -600 -24q-80 0 -144 45q-117 -64 -282 -64 q-151 0 -248.5 33.5t-163 118t-93.5 225t-28 357.5zM449 707q0 -184 11 -275.5t39 -130.5t85 -39q113 0 166 23v18v807v20q-59 21 -166 21q-29 0 -49 -8t-35.5 -29t-25 -52t-15.5 -83t-8 -116t-2 -156z" />
<glyph unicode="&#x153;" horiz-adv-x="1521" d="M39 506q0 296 104.5 418.5t358.5 122.5q179 0 280 -62q105 57 287 57q220 0 322 -89t102 -261q0 -156 -72 -218t-264 -62h-196q6 -91 35 -123.5t102 -32.5q134 0 338 25l34 -224q-158 -86 -409 -86q-172 0 -279 64q-101 -62 -280 -62q-253 0 -358 120.5t-105 412.5z M422 506q0 -117 6 -172.5t22.5 -79t51.5 -23.5q54 0 73.5 42t22.5 167l-2 64q0 46 2 69q-3 127 -21.5 170t-66.5 43q-56 0 -72 -52.5t-16 -227.5zM956 600h84q67 0 85 18t20 80q1 54 -16.5 75.5t-57.5 21.5q-67 2 -89.5 -35.5t-25.5 -159.5z" />
<glyph unicode="&#x178;" horiz-adv-x="1107" d="M-16 1413h385l141 -483q19 -72 31 -189h24q25 152 35 189l141 483h385l-385 -962v-451h-374v455zM266 1632v125q0 35 16.5 54.5t47.5 19.5h121q63 0 63 -74v-125q0 -73 -63 -73h-121q-64 0 -64 73zM588 1632v125q0 74 65 74h119q62 0 62 -74v-125q0 -73 -62 -73h-119 q-65 0 -65 73z" />
<glyph unicode="&#x2c6;" horiz-adv-x="802" d="M33 1223l237 268h265l229 -279l-78 -127l-276 191h-11l-286 -191z" />
<glyph unicode="&#x2dc;" horiz-adv-x="772" d="M76 1153q-26 156 20 240t123 77q64 -6 158.5 -46.5t126.5 -47.5q22 -5 32 3t11.5 22t1.5 51v8h151q27 -152 -16.5 -237.5t-126.5 -79.5q-65 6 -163 49.5t-120 48.5q-34 7 -41.5 -10t-7.5 -71v-7h-149z" />
<glyph unicode="&#x2000;" horiz-adv-x="975" />
<glyph unicode="&#x2001;" horiz-adv-x="1950" />
<glyph unicode="&#x2002;" horiz-adv-x="975" />
<glyph unicode="&#x2003;" horiz-adv-x="1950" />
<glyph unicode="&#x2004;" horiz-adv-x="650" />
<glyph unicode="&#x2005;" horiz-adv-x="487" />
<glyph unicode="&#x2006;" horiz-adv-x="325" />
<glyph unicode="&#x2007;" horiz-adv-x="325" />
<glyph unicode="&#x2008;" horiz-adv-x="243" />
<glyph unicode="&#x2009;" horiz-adv-x="390" />
<glyph unicode="&#x200a;" horiz-adv-x="108" />
<glyph unicode="&#x2010;" horiz-adv-x="620" d="M70 412v223h483v-223h-483z" />
<glyph unicode="&#x2011;" horiz-adv-x="620" d="M70 412v223h483v-223h-483z" />
<glyph unicode="&#x2012;" horiz-adv-x="620" d="M70 412v223h483v-223h-483z" />
<glyph unicode="&#x2013;" horiz-adv-x="870" d="M70 412v223h733v-223h-733z" />
<glyph unicode="&#x2014;" horiz-adv-x="1351" d="M70 412v223h1214v-223h-1214z" />
<glyph unicode="&#x2018;" horiz-adv-x="360" d="M20 1102q1 117 27 199t80 167l115 -43q-25 -88 -29 -245q96 0 96 -103l-6 -96q0 -64 -22 -87.5t-84 -23.5h-60q-63 0 -88.5 24t-25.5 87z" />
<glyph unicode="&#x2019;" horiz-adv-x="354" d="M47 1239l8 96q0 66 22 89.5t85 23.5h59q63 0 89 -24t26 -89l2 -118q-1 -117 -27 -199.5t-80 -167.5l-114 43q24 85 28 246q-98 0 -98 100z" />
<glyph unicode="&#x201a;" horiz-adv-x="372" d="M57 111l6 104q0 69 22.5 94t84.5 25h59q64 0 90 -25.5t27 -93.5l2 -129q-1 -125 -27 -213t-79 -178l-115 45q22 93 29 262q-99 0 -99 109z" />
<glyph unicode="&#x201c;" horiz-adv-x="686" d="M31 1100q1 118 27.5 200.5t82.5 167.5l113 -45q-24 -106 -27 -243q101 0 101 -103l-9 -96q0 -63 -23.5 -87t-86.5 -24h-55q-64 0 -92 24.5t-29 86.5zM428 1100q1 118 28 200.5t83 167.5l112 -45q-21 -83 -28 -243q100 0 100 -103l-6 -96q0 -63 -24 -87t-87 -24h-55 q-65 0 -92.5 24.5t-28.5 86.5z" />
<glyph unicode="&#x201d;" horiz-adv-x="679" d="M47 1239l8 96q0 66 22 89.5t85 23.5h59q63 0 89 -24t26 -89l2 -118q-1 -117 -27 -199.5t-80 -167.5l-114 43q24 85 28 246q-98 0 -98 100zM375 1239l6 96q0 66 22 89.5t84 23.5h60q63 0 89 -24t26 -89l2 -118q-1 -117 -27 -199.5t-80 -167.5l-115 43q25 88 29 246 q-96 0 -96 100z" />
<glyph unicode="&#x201e;" horiz-adv-x="696" d="M59 82l7 96q0 66 22 89.5t84 23.5h59q64 0 89.5 -24t25.5 -89l2 -119q-1 -118 -27 -200t-79 -166l-115 43q23 81 31 246q-99 0 -99 100zM385 82l6 96q0 66 22.5 89.5t84.5 23.5h59q64 0 90 -24t27 -89l2 -119q-1 -117 -27 -199t-80 -167l-114 43q20 81 28 246 q-98 0 -98 100z" />
<glyph unicode="&#x2022;" horiz-adv-x="630" d="M88 539v32q0 128 47 178t172 50h35q114 0 158.5 -50t44.5 -178v-32q0 -137 -44.5 -189.5t-158.5 -52.5h-35q-126 0 -172.5 52t-46.5 190z" />
<glyph unicode="&#x2026;" horiz-adv-x="1523" d="M53 127v92q0 70 26 95.5t97 25.5h78q72 0 97.5 -25t25.5 -96v-92q0 -73 -26 -100t-97 -27h-78q-70 0 -96.5 27.5t-26.5 99.5zM602 127v92q0 70 26 95.5t97 25.5h78q72 0 97.5 -25t25.5 -96v-92q0 -73 -26 -100t-97 -27h-78q-70 0 -96.5 27.5t-26.5 99.5zM1149 127v92 q0 70 27 95.5t98 25.5h76q72 0 98.5 -25.5t26.5 -95.5v-92q0 -72 -26.5 -99.5t-98.5 -27.5h-76q-71 0 -98 27.5t-27 99.5z" />
<glyph unicode="&#x202f;" horiz-adv-x="390" />
<glyph unicode="&#x2039;" horiz-adv-x="503" d="M20 475v78l265 405l190 -122l-141 -322l139 -334l-188 -119z" />
<glyph unicode="&#x203a;" horiz-adv-x="503" d="M31 180l143 334l-141 322l190 122l264 -405v-78l-264 -414z" />
<glyph unicode="&#x205f;" horiz-adv-x="487" />
<glyph unicode="&#x20ac;" horiz-adv-x="1189" d="M68 469v207h852l-23 -207h-274q15 -97 48.5 -137t102.5 -49q52 -6 152.5 -2t167.5 18l30 -262q-142 -62 -321 -62q-274 0 -409.5 114.5t-170.5 379.5h-155zM70 745v211h155q38 260 174.5 371t407.5 111q156 0 276 -49l-30 -265q-30 6 -117.5 9t-157.5 -3 q-67 -11 -103.5 -50.5t-53.5 -123.5h346l-23 -211h-874z" />
<glyph unicode="&#x2122;" horiz-adv-x="1660" d="M70 1237v188h596v-188h-174v-590h-248v590h-174zM705 647l18 690q3 88 84 88h215q84 0 96 -77l21 -306q0 -77 4 -114h6l6 116l14 304q6 37 32 57t65 20h219q83 0 86 -88l16 -690h-221l-20 592h-15l-28 -393q-12 -74 -95 -74h-127q-38 0 -63 19.5t-31 54.5l-29 393h-16 l-12 -592h-225z" />
<glyph unicode="&#x25fc;" horiz-adv-x="1013" d="M0 0v1014h1014v-1014h-1014z" />
<glyph unicode="&#xfb03;" horiz-adv-x="1857" d="M10 788v218l137 10h11v121q1 74 16.5 130.5t50 100t94 66t144.5 22.5q189 0 287 -22l-37 -228h-129q-45 0 -60.5 -25t-15.5 -96v-69h285v131q0 158 71.5 244t235.5 86q150 0 252 -23v-227h-121q-55 0 -73.5 -27t-18.5 -102v-82h643v-1016h-365v788h-278v-788h-346v788 h-285v-788h-350v788h-148zM1421 1274v108q0 107 107 107h149q107 0 107 -107v-108q0 -107 -107 -107h-149q-107 0 -107 107z" />
<glyph unicode="&#xfb04;" horiz-adv-x="1927" d="M10 788v218l133 10v121q3 75 19 130.5t50 99.5t94.5 66.5t146.5 22.5q190 0 288 -22l-36 -228h-130q-46 0 -62.5 -25.5t-16.5 -95.5v-69h284v131q0 157 72.5 243.5t237.5 86.5q485 0 700 -41v-1094q0 -48 15 -70t50 -22h46l38 -230q-34 -21 -110 -34t-135 -13 q-126 0 -198.5 73t-72.5 202v985h-221q-72 -4 -72 -135v-82h189v-228h-189v-788h-350v788h-284v-788h-353v788h-133z" />
</font>
</defs>
</svg>
