<?xml version="1.0" standalone="no"?>
<!DOCTYPE svg PUBLIC "-//W3C//DTD SVG 1.1//EN" "http://www.w3.org/Graphics/SVG/1.1/DTD/svg11.dtd" >
<svg xmlns="http://www.w3.org/2000/svg">
<metadata></metadata>
<defs>
<font id="exo_2extra_light_expanded" horiz-adv-x="1589" >
<font-face units-per-em="2048" ascent="1638" descent="-410" />
<missing-glyph horiz-adv-x="610" />
<glyph unicode="&#xfb01;" horiz-adv-x="1406" d="M82 915v62l231 10v199q0 141 78 209.5t260 68.5q168 0 258 -10l-4 -61h-229q-157 0 -221 -47t-64 -164v-195h805v-987h-76v915h-729v-915h-78v915h-231zM1106 1243v123q0 33 37 33h33q34 0 34 -33v-123q0 -33 -34 -33h-33q-37 0 -37 33z" />
<glyph unicode="&#xfb02;" horiz-adv-x="1636" d="M84 915v62l231 10v195q0 143 77.5 212.5t258.5 69.5q95 0 311.5 -4.5t280.5 -11.5v-1237q0 -76 53.5 -116t155.5 -40h152l10 -53q-59 -16 -176 -16q-125 0 -199 57t-74 158v1194h-487q-157 1 -221 -48t-64 -171v-189h445v-72h-445v-915h-78v915h-231z" />
<glyph horiz-adv-x="0" />
<glyph horiz-adv-x="682" />
<glyph unicode=" "  horiz-adv-x="610" />
<glyph unicode="&#x09;" horiz-adv-x="610" />
<glyph unicode="&#xa0;" horiz-adv-x="610" />
<glyph unicode="!" horiz-adv-x="620" d="M260 35v123q0 19 8.5 27t28.5 8h29q36 0 36 -35v-123q0 -35 -36 -35h-29q-20 0 -28.5 8t-8.5 27zM270 743v680h80v-680l-8 -323h-66z" />
<glyph unicode="&#x22;" horiz-adv-x="827" d="M207 1413h74l-7 -430h-63zM547 1413h74l-7 -430h-61z" />
<glyph unicode="#" horiz-adv-x="1746" d="M141 459l13 63h307l96 428h-303l12 64h305l91 399h77l-90 -399h592l90 399h76l-90 -399h289l-13 -64h-290l-97 -428h287l-10 -63h-291l-105 -459h-75l104 459h-592l-104 -459h-76l102 459h-305zM539 522h591l97 428h-592z" />
<glyph unicode="$" horiz-adv-x="1452" d="M164 1071q0 63 8 113t26.5 87.5t42 64.5t61.5 45.5t77 30t97 17t113 7t132 0.5h39l14 209h60l-15 -211q207 -6 402 -27l-7 -61q-41 1 -182 7t-217 7l-43 -612l160 -21q202 -23 286.5 -109.5t84.5 -267.5q0 -71 -12.5 -126t-34.5 -94t-60 -67t-80 -44.5t-105 -26 t-124.5 -12.5t-147.5 -3h-24l-19 -249h-61l18 249q-246 4 -458 27l8 64q289 -13 456 -13l46 623l-185 22q-191 23 -273.5 111.5t-82.5 259.5zM244 1069q0 -143 64 -207.5t220 -83.5l181 -22l45 604h-33q-76 0 -117.5 -1t-97 -4.5t-84 -11.5t-64 -22t-52.5 -35t-33.5 -51.5 t-22.5 -71.5t-6 -94zM721 55h22q94 1 157 5t121 15.5t93 31.5t61.5 53t37 79.5t10.5 110.5q0 153 -66 216.5t-233 82.5l-158 21z" />
<glyph unicode="%" horiz-adv-x="2318" d="M143 1020q0 222 90.5 320t311.5 98q222 0 312.5 -98t90.5 -320t-90.5 -320t-312.5 -98q-221 0 -311.5 98t-90.5 320zM215 1020q0 -194 73 -277.5t257 -83.5t258 83.5t74 277.5t-74 277t-258 83t-257 -83t-73 -277zM485 0l1270 1413h72l-1270 -1413h-72zM1372 403 q0 221 91 319.5t313 98.5q220 0 309.5 -98t89.5 -320q0 -223 -89.5 -321t-309.5 -98q-222 0 -313 98.5t-91 320.5zM1444 403q0 -195 73.5 -278.5t258.5 -83.5q183 0 256 84t73 278t-73 277.5t-256 83.5q-185 0 -258.5 -83t-73.5 -278z" />
<glyph unicode="&#x26;" horiz-adv-x="2043" d="M188 356q0 172 83 266t280 107v8q-166 10 -237.5 91.5t-71.5 238.5q0 55 8.5 99t23 79.5t41 62t56.5 46.5t75.5 34t91.5 22.5t111 13.5t128.5 6.5t148.5 1.5q227 0 422 -19l-13 -61q-79 6 -413 6q-120 0 -200 -4t-152.5 -15.5t-114.5 -31.5t-74 -54t-44.5 -81t-12.5 -113 q0 -89 23 -145.5t79.5 -89.5t139.5 -45.5t216 -12.5h602l15 305h59v-305h373l-8 -68h-365v-483q0 -156 209 -156h231l9 -57q-115 -16 -230 -16q-141 0 -215.5 52t-79.5 150q-128 -113 -283 -159.5t-382 -46.5q-289 0 -409 82t-120 292zM272 365q0 -174 97.5 -241t347.5 -67 q236 0 389 52t276 167v422h-600q-284 0 -397 -70.5t-113 -262.5z" />
<glyph unicode="'" horiz-adv-x="487" d="M207 1413h74l-7 -430h-63z" />
<glyph unicode="(" horiz-adv-x="915" d="M162 639q0 390 154.5 627.5t482.5 351.5l12 -49q-291 -112 -429 -338.5t-138 -589.5q0 -357 138 -584.5t429 -345.5l-12 -49q-328 115 -482.5 352.5t-154.5 624.5z" />
<glyph unicode=")" horiz-adv-x="915" d="M106 -289q290 118 428 345.5t138 584.5q0 363 -138 589.5t-428 338.5l11 49q328 -114 482.5 -351.5t154.5 -627.5q0 -387 -154.5 -624.5t-482.5 -352.5z" />
<glyph unicode="*" horiz-adv-x="1167" d="M168 1157l25 60l323 -91l-2 -26l-12 -19zM307 834l252 262l-10 317h69l-14 -317l252 -265l-51 -34l-223 254l-220 -252zM651 1100v26l326 88l24 -59l-337 -74z" />
<glyph unicode="+" horiz-adv-x="1433" d="M160 575v68h522v377h70v-377h522v-68h-524v-376h-66v376h-524z" />
<glyph unicode="," horiz-adv-x="512" d="M205 31l4 127q-3 35 35 35h26q36 0 39 -35l-2 -131q-4 -149 -53 -275l-37 15q12 123 12 233q-11 0 -18 9t-6 22z" />
<glyph unicode="-" horiz-adv-x="1230" d="M203 481v68h825v-68h-825z" />
<glyph unicode="." horiz-adv-x="509" d="M203 35v123q0 35 37 35h30q37 0 37 -35v-123q0 -35 -37 -35h-30q-37 0 -37 35z" />
<glyph unicode="/" horiz-adv-x="1298" d="M88 -125l1047 1538h75l-1044 -1538h-78z" />
<glyph unicode="0" horiz-adv-x="1515" d="M182 707q0 193 29.5 327t96.5 226t177.5 135t272.5 43t272.5 -43t178 -135t97 -226t29.5 -327t-29.5 -327t-97 -226.5t-178 -135.5t-272.5 -43t-272.5 43t-177.5 135.5t-96.5 226.5t-29.5 327zM264 707q0 -349 110.5 -502.5t383.5 -153.5q140 0 235 38t152.5 120.5 t82.5 202.5t25 295t-25 295t-83 202.5t-152.5 120t-234.5 37.5q-273 0 -383.5 -153t-110.5 -502z" />
<glyph unicode="1" horiz-adv-x="966" d="M86 1266l500 147h80v-1413h-80v1229q0 59 10 100l-496 -123z" />
<glyph unicode="2" horiz-adv-x="1449" d="M147 0v51q0 27 17 41l629 543q190 163 271 284t75 240q-2 45 -17 78.5t-44.5 55.5t-65 36t-89 21t-104 9.5t-121.5 2.5q-242 0 -518 -43l-16 63q182 34 292.5 45t231.5 11q110 0 187.5 -6.5t147.5 -24.5t112 -50t66 -83.5t24 -124.5q0 -137 -85.5 -263.5t-279.5 -295.5 l-594 -514q102 2 301 2h740v-78h-1160z" />
<glyph unicode="3" horiz-adv-x="1435" d="M147 10l17 66q321 -25 522 -25q257 0 369 79t112 267q0 54 -10.5 97t-40 85t-78 70t-130 45.5t-189.5 18.5l-342 2v63l342 4q105 2 181.5 23.5t117.5 52t65 75.5t30 82.5t5 84.5q-3 154 -103.5 208t-367.5 54q-224 0 -452 -23l-19 64q256 35 471 35q308 0 428.5 -70.5 t120.5 -255.5q0 -310 -289 -356v-8q181 -22 258 -113.5t82 -241.5q6 -216 -120.5 -317t-430.5 -101q-211 0 -549 35z" />
<glyph unicode="4" horiz-adv-x="1556" d="M139 563l588 850h88l-594 -858q-25 -38 -1 -67t79 -29h829v448l23 238h57v-686h222v-62l-222 -8v-389h-80v387h-862q-85 0 -126 56.5t-1 119.5z" />
<glyph unicode="5" horiz-adv-x="1372" d="M160 31l16 65q263 -47 463 -47q123 0 212.5 18t143.5 48t85.5 78.5t42.5 100.5t12 124q0 61 -10 107.5t-36.5 82.5t-56.5 61t-87.5 42t-111 27t-145.5 15.5t-171.5 7.5t-207.5 3l-43 2q-19 2 -30.5 13.5t-10.5 29.5l39 604h895l-10 -74h-815l-31 -501l150 -2 q120 -3 208.5 -9t171.5 -19t140 -33.5t105 -51.5t76 -74t43 -100t15 -131q0 -53 -4.5 -95t-19 -90t-39 -83.5t-67.5 -70t-101 -56.5t-142.5 -35t-189.5 -13q-214 0 -489 56z" />
<glyph unicode="6" horiz-adv-x="1462" d="M190 633q0 132 8.5 235.5t29 185.5t48 141.5t71 102.5t92 70t118 42.5t142 21.5t169.5 6q191 0 320 -27l-23 -61q-102 14 -297 14q-86 0 -149.5 -5t-123.5 -18.5t-102 -35.5t-79 -57.5t-61 -83.5t-41.5 -115t-26.5 -150t-11 -190q118 112 235.5 155t297.5 43 q193 0 300 -46t152.5 -147.5t45.5 -283.5q0 -76 -7.5 -132t-28.5 -110.5t-59.5 -91t-98 -65.5t-147 -42.5t-204.5 -13.5q-123 0 -211.5 14t-152.5 49t-103.5 82.5t-62.5 126t-31.5 168t-8.5 218.5zM274 627q0 -84 3 -145t12 -121t25 -101t41.5 -78.5t61.5 -60.5t86 -40 t113.5 -24.5t145.5 -7.5q100 0 174.5 11t125 35t83 54.5t50 77t24 94.5t6.5 115q0 113 -18.5 185.5t-67 123t-131 72t-211.5 21.5q-154 0 -272 -42t-251 -153v-16z" />
<glyph unicode="7" horiz-adv-x="1302" d="M96 1413h1020q65 0 80.5 -20.5t-8.5 -69.5l-596 -1323h-84l569 1255q18 43 39 84h-1014z" />
<glyph unicode="8" horiz-adv-x="1579" d="M201 352q0 183 68.5 273.5t232.5 103.5v8q-137 12 -200.5 92t-63.5 232q0 80 15.5 137.5t53 103.5t101 73.5t158 42t225.5 14.5q165 0 272.5 -21t168.5 -69t85 -114t24 -167q0 -152 -62.5 -232t-199.5 -92v-8q163 -13 232 -104t69 -273q0 -83 -16 -140.5t-54.5 -103 t-106.5 -71.5t-168 -40t-244 -15q-141 -1 -241.5 12.5t-168.5 40t-107.5 72t-56 104t-16.5 141.5zM281 362q0 -86 22 -141t79.5 -93t155.5 -53.5t253 -15.5q157 0 255 15.5t155 53.5t78 92.5t21 141.5q0 75 -8.5 126t-33 90t-58.5 61.5t-95 36t-132 18t-180 4.5 q-110 -1 -183 -5.5t-134 -19t-95.5 -36.5t-58.5 -61t-32.5 -89.5t-8.5 -124.5zM315 1057q0 -63 8.5 -107t31.5 -77t55.5 -52.5t89.5 -32t124.5 -16.5t168.5 -4q103 0 172 4.5t124.5 17t86.5 32t51.5 53.5t27.5 76.5t7 105.5q0 88 -18.5 142t-71 91.5t-143.5 52.5t-238 15 q-116 0 -196.5 -10.5t-136 -31t-86.5 -57.5t-44 -84.5t-13 -117.5z" />
<glyph unicode="9" horiz-adv-x="1464" d="M158 967q0 118 24.5 200.5t84.5 146t167.5 94t265.5 30.5q79 0 142 -5t116 -17.5t93 -28.5t72 -44.5t54 -57.5t38 -75.5t25.5 -91.5t15 -111.5t7 -129.5t1.5 -152q0 -162 -16 -280t-54 -201.5t-88.5 -135.5t-131 -82t-170 -40.5t-216.5 -10.5q-197 0 -338 27l20 61 q136 -12 318 -12q113 0 191.5 9.5t149.5 35.5t115 71.5t76.5 119t46.5 177t15 245.5q-118 -115 -235.5 -159t-297.5 -44q-136 0 -232 30.5t-152.5 91.5t-81.5 143.5t-25 195.5zM238 963q0 -97 19.5 -165.5t66.5 -120t130 -77t205 -25.5q154 0 271 41.5t252 153.5 q0 74 -1.5 125t-6 107.5t-12.5 93t-21.5 76t-32 63.5t-45.5 48t-61 37.5t-79.5 24.5t-100 15t-122.5 4q-111 0 -192.5 -18t-133 -50t-82.5 -83.5t-42.5 -110.5t-11.5 -139z" />
<glyph unicode=":" horiz-adv-x="487" d="M180 35v123q0 19 8.5 27t28.5 8h29q39 0 39 -35v-123q0 -35 -39 -35h-29q-20 0 -28.5 8t-8.5 27zM180 727v125q0 19 8.5 27t28.5 8h29q39 0 39 -35v-125q0 -35 -39 -35h-29q-20 0 -28.5 8t-8.5 27z" />
<glyph unicode=";" horiz-adv-x="514" d="M184 727v125q0 19 8 27t27 8h31q39 0 39 -35v-125q0 -35 -39 -35h-31q-19 0 -27 8t-8 27zM186 31l4 127q-6 35 35 35h27q33 0 39 -35l-4 -131q-4 -155 -51 -275l-37 15q12 123 12 233q-11 0 -18.5 9t-6.5 22z" />
<glyph unicode="&#x3c;" horiz-adv-x="1396" d="M152 571v70l1048 369v-70l-973 -334l973 -325v-70z" />
<glyph unicode="=" horiz-adv-x="1521" d="M205 344v68h1114v-68h-1114zM205 778v68h1114v-68h-1114z" />
<glyph unicode="&#x3e;" horiz-adv-x="1396" d="M197 211v70l972 325l-972 334v70l1048 -369v-70z" />
<glyph unicode="?" horiz-adv-x="1320" d="M117 1419q16 2 67 9t66.5 9t58.5 7t70.5 6.5t73.5 4t96.5 3t112.5 0.5q522 0 522 -317q0 -63 -27.5 -118.5t-72 -98t-98 -84t-107.5 -84.5t-98.5 -89.5t-72.5 -110t-28 -136.5h-76q0 80 27.5 148.5t71.5 117.5t97 93t106 83t97 78t71.5 88.5t27.5 104.5 q1 130 -107.5 191.5t-337.5 61.5q-50 0 -93.5 -0.5t-75.5 -1t-70 -2.5l-57 -3t-58 -4l-52 -4t-59.5 -5.5t-62.5 -5.5zM590 35v123q0 19 8 27t27 8h30q19 0 27 -8t8 -27v-123q0 -19 -8 -27t-27 -8h-30q-19 0 -27 8t-8 27z" />
<glyph unicode="@" horiz-adv-x="1802" d="M221 543q0 112 3.5 186.5t16.5 144.5t31 111t55.5 78t81 54.5t116 31t152 17.5t197.5 5h375q353 0 353 -253v-652h-58l-12 162q-94 -64 -268 -119t-340 -55q-156 0 -243 58t-87 165v109q0 97 79 149.5t224 52.5h633v127q0 43 -14 75.5t-45.5 58.5t-89 39t-138.5 12h-364 q-108 0 -173 -2t-133 -11.5t-103.5 -23.5t-71.5 -44.5t-51 -67.5t-28.5 -99.5t-16.5 -133t-3 -175.5q0 -87 2 -148.5t10 -119.5t16.5 -95.5t31 -72.5t44 -55t63.5 -37t81 -24.5t106 -13.5t129.5 -7t159.5 -1h645v-63q-426 -8 -641 -8q-130 -1 -218.5 1.5t-169 15.5 t-128.5 31t-90 55.5t-62 80.5t-34.5 115.5t-18.5 150.5t-4 195zM670 485q0 -158 256 -161q146 -1 318 46t286 117v248l-627 -8q-233 -6 -233 -147v-95z" />
<glyph unicode="A" d="M39 0l653 1386q10 27 39 27h125q31 0 41 -27l653 -1386h-86l-233 498h-871l-235 -498h-86zM395 571h801l-309 658q-10 20 -28 57.5t-28 56.5h-75q-38 -83 -51 -114z" />
<glyph unicode="B" horiz-adv-x="1581" d="M244 0v1413q202 17 522 17q169 0 277 -16.5t181 -59t103.5 -113t30.5 -180.5q0 -154 -74.5 -233t-236.5 -91v-8q197 -13 280.5 -107t83.5 -270q0 -110 -29 -180.5t-98.5 -112.5t-172.5 -58.5t-265 -16.5q-385 0 -602 16zM324 61q192 -4 518 -4q112 0 188.5 8t136.5 27.5 t94 54.5t51 86.5t17 126.5q0 100 -26.5 164t-90 102.5t-156.5 54t-239 17.5h-493v-637zM324 766h493q105 1 177 9t128.5 27t88 52.5t47.5 82t16 118.5q0 75 -17.5 126t-52.5 86t-98 54t-142.5 27t-197.5 8q-270 0 -442 -4v-586z" />
<glyph unicode="C" horiz-adv-x="1511" d="M178 707q0 205 35 342t117.5 225t210 126t319.5 38q274 0 467 -37l-18 -62q-216 23 -449 23q-169 0 -281 -33.5t-184 -112t-102.5 -201t-30.5 -308.5t30.5 -308.5t102.5 -201.5t184 -112.5t281 -33.5q280 0 488 27l16 -64q-207 -39 -504 -39q-192 0 -320 38t-210 126.5 t-117 225.5t-35 342z" />
<glyph unicode="D" horiz-adv-x="1705" d="M244 0v1413q334 19 612 19q251 0 395.5 -70t210.5 -226.5t66 -428.5t-66 -428.5t-210.5 -226.5t-395.5 -70q-292 0 -612 18zM324 63q468 -6 532 -6q220 0 346 62.5t183 202.5t57 385q0 184 -30 305.5t-100.5 199.5t-180 111t-275.5 33q-58 0 -532 -6v-1287z" />
<glyph unicode="E" horiz-adv-x="1468" d="M229 217v979q0 95 78 156t201 61q522 0 782 -8l-6 -64h-760q-96 0 -155.5 -43.5t-59.5 -115.5v-391l867 -3v-67l-867 -2v-488q0 -72 59.5 -115.5t155.5 -43.5h760l6 -64q-260 -8 -782 -8q-122 0 -200.5 61t-78.5 156z" />
<glyph unicode="F" horiz-adv-x="1415" d="M238 0v1194q0 98 77 158.5t199 60.5q510 0 764 -10l-4 -62h-742q-96 0 -155.5 -43.5t-59.5 -115.5v-404h848v-69h-848v-709h-79z" />
<glyph unicode="G" horiz-adv-x="1646" d="M178 709q0 207 35.5 343.5t119 224t213 124.5t324.5 37q306 0 523 -37l-17 -62q-242 23 -504 23q-175 0 -288 -31.5t-187 -108.5t-104.5 -201t-30.5 -316q0 -349 122.5 -501.5t408.5 -152.5q91 0 170.5 15t151.5 48t114.5 57.5t113.5 70.5v577h80v-819h-55l-18 178 q-251 -203 -568 -203q-323 0 -463.5 173.5t-140.5 560.5z" />
<glyph unicode="H" horiz-adv-x="1695" d="M244 0v1413h80v-618h1048v618h80v-1413h-80v721h-1048v-721h-80z" />
<glyph unicode="I" horiz-adv-x="567" d="M244 0v1413h80v-1413h-80z" />
<glyph unicode="J" horiz-adv-x="829" d="M90 2l10 57h152q262 0 262 193v1161h80v-1161q0 -266 -328 -266q-78 0 -176 16z" />
<glyph unicode="K" horiz-adv-x="1466" d="M244 0v1413h78v-473q0 -82 -9 -168h293l635 641h105l-609 -614q-23 -25 -63 -60v-4q49 -44 63 -61l652 -674h-105l-680 702h-289q7 -69 7 -170v-532h-78z" />
<glyph unicode="L" horiz-adv-x="1316" d="M238 223v1190h79v-1182q0 -72 59.5 -115.5t155.5 -43.5h719v-62q-244 -10 -735 -10q-124 0 -201 63t-77 160z" />
<glyph unicode="M" horiz-adv-x="2230" d="M207 0l80 1370q0 20 12.5 31.5t32.5 11.5h123q31 0 41 -29l493 -991q19 -36 51 -103.5t41 -86.5h68q78 165 92 194l494 987q10 29 39 29h124q21 0 33.5 -11.5t12.5 -31.5l77 -1370h-79l-78 1341h-64l-586 -1179q-13 -29 -38 -29h-121q-29 0 -39 29l-586 1179h-63 l-78 -1341h-82z" />
<glyph unicode="N" horiz-adv-x="1781" d="M244 0v1372q0 41 43 41h114q32 0 54 -31l805 -1128q24 -35 118 -176h78v192v1143h80v-1372q0 -41 -45 -41h-121q-32 0 -51 31l-825 1155q-54 73 -101 151h-69v-153v-1184h-80z" />
<glyph unicode="O" horiz-adv-x="1720" d="M178 707q0 207 35 344t117.5 224.5t210 125t319.5 37.5q193 0 320.5 -37.5t209.5 -125t117 -224.5t35 -344t-35 -344t-117 -225t-209.5 -125.5t-320.5 -37.5q-192 0 -319.5 37.5t-210 125.5t-117.5 225t-35 344zM262 707q0 -186 30.5 -308.5t102.5 -201.5t184 -112.5 t281 -33.5t281 33.5t184 112.5t102.5 201.5t30.5 308.5t-30.5 308.5t-102.5 201t-184 112t-281 33.5t-281 -33.5t-184 -112t-102.5 -201t-30.5 -308.5z" />
<glyph unicode="P" horiz-adv-x="1507" d="M244 0v1413q226 17 592 17q151 0 249 -19.5t164 -68t93.5 -129t27.5 -205.5q0 -126 -27.5 -207t-93.5 -129t-163 -67t-248 -19q-346 0 -514 14v-600h-80zM324 659h510q129 0 211.5 15.5t138.5 55.5t79 107t23 171t-23 170.5t-79 106.5t-138.5 55.5t-211.5 15.5 q-366 0 -510 -6v-691z" />
<glyph unicode="Q" horiz-adv-x="1720" d="M178 707q0 207 35 344t117.5 224.5t210.5 125t321 37.5q192 0 319.5 -37.5t209 -125t116.5 -224.5t35 -344t-35 -344t-116.5 -225t-209 -125.5t-319.5 -37.5q-193 0 -321 37.5t-210.5 125.5t-117.5 225t-35 344zM262 707q0 -186 30.5 -308.5t102.5 -201.5t184.5 -112.5 t282.5 -33.5q169 0 280.5 33.5t183 112.5t102 201.5t30.5 308.5q0 247 -57.5 388t-186 204t-352.5 63q-170 0 -282.5 -33.5t-184.5 -112t-102.5 -201t-30.5 -308.5zM735 -150l37 50q241 -121 604 -166l-22 -84q-358 44 -619 200z" />
<glyph unicode="R" horiz-adv-x="1574" d="M244 0v1413q226 17 592 17q121 0 206 -12t149.5 -38.5t102 -73.5t56 -114t18.5 -162q0 -184 -79 -269t-257 -104v-10q67 -15 119 -66.5t84 -129.5l201 -451h-90l-193 444q-45 96 -116.5 137.5t-180.5 41.5q-340 0 -532 8v-631h-80zM324 698h512q129 2 210.5 17t137.5 53 t79 100t23 160t-23 161t-79 100.5t-138 52t-210 14.5q-320 0 -512 -4v-654z" />
<glyph unicode="S" horiz-adv-x="1441" d="M156 1071q0 63 8 113t26.5 87.5t42 64.5t61.5 45.5t77 30t97 17t113 7.5q33 1 74 0h58q266 -3 501 -29l-8 -61q-373 14 -493 14q-76 0 -117.5 -1t-97 -4.5t-84 -11.5t-64 -22t-52.5 -35t-33.5 -51.5t-22.5 -71.5t-6 -94q0 -143 64 -207.5t220 -83.5l406 -51 q201 -23 284.5 -109.5t83.5 -267.5q0 -71 -12.5 -126t-34.5 -94t-60 -67t-80 -44.5t-104.5 -26t-124 -12.5t-147.5 -3q-298 0 -543 27l7 64q274 -15 490 -15h50q94 1 157 5.5t121 16t92.5 31.5t61 53t37 79.5t10.5 111.5q0 153 -65.5 216.5t-230.5 82.5l-404 51 q-192 23 -275 111.5t-83 259.5z" />
<glyph unicode="T" horiz-adv-x="1488" d="M63 1339v74h1362v-74h-641v-1339h-82v1339h-639z" />
<glyph unicode="U" horiz-adv-x="1722" d="M231 526v887h80v-887q0 -262 124.5 -368.5t426.5 -106.5q300 0 423.5 106.5t123.5 368.5v887h82v-887q0 -299 -142 -425t-485 -126q-176 0 -295.5 30t-195.5 97t-109 170t-33 254z" />
<glyph unicode="V" horiz-adv-x="1562" d="M59 1413h91l530 -1192q11 -23 22.5 -48t24.5 -55.5t21 -47.5h69q28 71 68 153l532 1190h88l-622 -1386q-12 -27 -41 -27h-121q-12 0 -23 8t-16 19z" />
<glyph unicode="W" horiz-adv-x="2459" d="M78 1413h86l411 -1194q32 -98 48 -149h75q26 96 43 147l389 1163q10 33 44 33h112q30 0 43 -33l389 -1161q5 -15 43 -149h74q8 25 23.5 74t23.5 73l416 1196h84l-477 -1384q-15 -29 -43 -29h-125q-15 0 -26.5 8.5t-14.5 22.5l-383 1155q-9 27 -25.5 80.5t-25.5 79.5h-64 q-5 -15 -23 -72t-30 -88l-381 -1155q-5 -14 -16.5 -22.5t-24.5 -8.5h-125q-32 0 -43 29z" />
<glyph unicode="X" horiz-adv-x="1562" d="M90 0l576 735l-541 678h98l514 -641h88l514 641h101l-543 -678l578 -735h-101l-551 702h-84l-551 -702h-98z" />
<glyph unicode="Y" horiz-adv-x="1433" d="M49 1413h94l465 -663q16 -24 50.5 -76t50.5 -76h14l96 150l469 665h92l-624 -897v-516h-80v516z" />
<glyph unicode="Z" horiz-adv-x="1458" d="M123 0v74l1096 1265h-1086v74h1190v-74l-1098 -1265h1110v-74h-1212z" />
<glyph unicode="[" horiz-adv-x="790" d="M250 -262v1759q0 34 25 55t63 21h336v-64h-316q-14 0 -23 -7t-9 -19v-1731q0 -12 9 -19t23 -7h316v-64h-336q-39 0 -63.5 20.5t-24.5 55.5z" />
<glyph unicode="\" horiz-adv-x="1298" d="M88 1413h78l1044 -1538h-75z" />
<glyph unicode="]" horiz-adv-x="790" d="M117 -274h313q33 0 33 26v1731q0 26 -33 26h-313v64h336q38 0 63 -21t25 -55v-1759q0 -34 -25 -55t-63 -21h-336v64z" />
<glyph unicode="^" horiz-adv-x="1034" d="M72 780l415 412h60l416 -412l-37 -28l-398 366h-20l-397 -366z" />
<glyph unicode="_" horiz-adv-x="1146" d="M0 0h1147v-68h-1147v68z" />
<glyph unicode="`" horiz-adv-x="714" d="M115 1399l53 59l401 -297l-39 -41z" />
<glyph unicode="a" horiz-adv-x="1353" d="M139 242v123q0 112 81 173.5t229 61.5h634v125q0 102 -65.5 157.5t-224.5 55.5q-226 0 -594 -31l-11 62q18 2 100 11t119.5 12.5t110 9t141 8t142.5 2.5q175 0 267.5 -68t92.5 -219v-725h-59l-17 188q-99 -75 -271 -138.5t-339 -63.5q-159 0 -247.5 67t-88.5 189z M219 248q0 -184 260 -187h15q139 -1 303 53q173 56 286 144v277l-630 -7q-234 -3 -234 -170v-110z" />
<glyph unicode="b" horiz-adv-x="1445" d="M217 41v1393h78v-426q0 -144 -10 -199v-2q151 102 278 153.5t254 51.5q250 0 356.5 -118.5t106.5 -399.5q0 -276 -119.5 -397.5t-400.5 -121.5q-244 0 -543 66zM293 743l2 -647q225 -47 437 -47h26q238 0 339 100.5t101 344.5t-88 344t-299 100q-118 0 -233 -46 t-285 -149z" />
<glyph unicode="c" horiz-adv-x="1280" d="M162 494q0 285 133.5 401.5t452.5 116.5q219 0 364 -39l-18 -55q-134 20 -334 20q-146 0 -241 -21t-158.5 -72.5t-90 -136t-26.5 -214.5t26.5 -214.5t90 -136.5t158.5 -73t241 -21q216 0 368 23l11 -58q-183 -39 -389 -39q-321 0 -454.5 117t-133.5 402z" />
<glyph unicode="d" horiz-adv-x="1449" d="M168 494q0 282 106.5 400t358.5 118q225 0 526 -101q-8 54 -8 193v330h76v-1434h-58l-12 166q-292 -191 -526 -191q-250 0 -356.5 121t-106.5 398zM248 496q0 -247 89 -347t300 -100q120 0 235.5 42t278.5 140v617q-168 48 -282 69t-232 21q-212 0 -300.5 -98.5 t-88.5 -343.5z" />
<glyph unicode="e" horiz-adv-x="1337" d="M147 498q0 283 126 398.5t425 115.5q500 0 506 -291v-19q0 -121 -59 -183q-64 -66 -215 -66h-701q9 -225 126 -314.5t374 -89.5q223 0 436 25l11 -58q-62 -18 -202.5 -29.5t-254.5 -11.5q-307 0 -439.5 120.5t-132.5 402.5zM227 520h697q111 0 158 50q44 47 44 136v11 q-4 116 -108 168.5t-316 52.5q-259 0 -365.5 -93t-109.5 -325z" />
<glyph unicode="f" horiz-adv-x="950" d="M82 918v59l231 10v199q0 141 78 209.5t260 68.5q203 0 318 -10l-2 -61h-291q-157 0 -221 -47t-64 -164v-195h467v-69h-467v-918h-78v918h-231z" />
<glyph unicode="g" horiz-adv-x="1429" d="M133 -141q0 108 36.5 168t143.5 104l41 19q-82 32 -110 90q-16 31 -16 63q0 27 12 55q26 60 92 101q-146 70 -146 243q0 159 121 234.5t395 75.5q152 0 261 -25h399l-8 -53l-246 -8q102 -72 102 -224q0 -158 -119 -231.5t-391 -73.5q-203 0 -321 41q-44 -35 -63 -73 q-14 -27 -14 -53q0 -10 2 -20q8 -35 54.5 -62t128.5 -37l512 -68q163 -21 222 -80.5t59 -183.5q0 -160 -128.5 -224.5t-436.5 -64.5q-322 0 -452 64t-130 223zM209 -137q0 -123 112.5 -171t391.5 -48q269 0 379 48.5t110 170.5q0 95 -45 136.5t-184 61.5l-524 66l-25 4 l-62 -31q-92 -43 -122.5 -93.5t-30.5 -143.5zM262 702q0 -123 102 -180t336 -57t334.5 56.5t100.5 180.5q0 125 -99.5 183.5t-335.5 58.5q-234 0 -336 -59t-102 -183z" />
<glyph unicode="h" horiz-adv-x="1468" d="M223 0v1434h78l4 -428q0 -113 -12 -195q174 98 324 149.5t294 51.5q169 0 255.5 -68.5t86.5 -202.5v-741h-77v725q0 111 -69.5 162t-213.5 51q-134 0 -264 -43.5t-328 -144.5v-750h-78z" />
<glyph unicode="i" horiz-adv-x="497" d="M199 1243v123q0 33 32 33h35q35 0 35 -33v-123q0 -33 -35 -33h-35q-32 0 -32 33zM211 0v987h78v-987h-78z" />
<glyph unicode="j" horiz-adv-x="555" d="M100 -391q74 74 110 147t36 168v1063h78v-1063q0 -202 -183 -350zM236 1243v123q0 33 34 33h33q33 0 33 -33v-123q0 -33 -33 -33h-33q-18 0 -26 8t-8 25z" />
<glyph unicode="k" horiz-adv-x="1232" d="M223 0v1434h78l4 -670q0 -97 -10 -168h213l498 391h110l-475 -377q-31 -27 -63 -47v-4q30 -23 63 -59l518 -500h-106l-545 530h-213q6 -89 6 -174v-356h-78z" />
<glyph unicode="l" horiz-adv-x="753" d="M223 205v1229h78v-1217q0 -76 54.5 -116t154.5 -40h152l10 -59q-59 -16 -176 -16q-125 0 -199 57.5t-74 161.5z" />
<glyph unicode="m" horiz-adv-x="2289" d="M223 0v987h60l8 -176q305 201 565 201q138 0 221 -50.5t105 -148.5q298 199 561 199q162 0 247 -69t85 -202v-741h-78v725q0 109 -68 161t-205 52q-124 0 -241.5 -43t-294.5 -145v-9v-741h-78v725q0 109 -68 161t-204 52q-124 0 -243 -44t-296 -146v-748h-76z" />
<glyph unicode="n" horiz-adv-x="1425" d="M201 0v987h61l8 -174q338 199 619 199q169 0 256.5 -69t87.5 -202v-741h-78v725q0 111 -70 162t-215 51q-133 0 -263.5 -44t-327.5 -144v-750h-78z" />
<glyph unicode="o" horiz-adv-x="1421" d="M150 494q0 192 54 303.5t175.5 163t331.5 51.5q310 0 436.5 -116.5t126.5 -401.5q0 -286 -126.5 -402.5t-436.5 -116.5q-311 0 -436 116t-125 403zM229 494q0 -252 106.5 -349.5t375.5 -97.5q268 0 375.5 98t107.5 349q0 128 -25 212t-84 136.5t-148.5 74t-225.5 21.5 q-269 0 -375.5 -96t-106.5 -348z" />
<glyph unicode="p" horiz-adv-x="1452" d="M223 -426v1413h60l10 -182v6q285 201 530 201q249 0 355 -121.5t106 -398.5q0 -281 -106 -399t-357 -118q-248 0 -530 109q9 -51 9 -134q0 -28 -1 -59v-317h-76zM299 139q176 -48 288 -69t228 -21q212 0 300.5 98.5t88.5 344.5q0 244 -89 345t-298 101q-121 0 -238 -43.5 t-280 -144.5v-611z" />
<glyph unicode="q" horiz-adv-x="1429" d="M150 494q0 279 120 398.5t410 119.5q226 0 532 -66v-1372h-79l2 393q0 144 8 197q-160 -97 -287.5 -143t-269.5 -46q-230 0 -333 124.5t-103 394.5zM229 487q0 -232 87 -335t286 -103q129 0 242.5 40.5t288.5 135.5v664q-230 49 -443 49q-129 0 -214 -22t-142 -75 t-81 -138.5t-24 -215.5z" />
<glyph unicode="r" horiz-adv-x="1013" d="M223 0v987h58l10 -182v4q337 203 594 203h51l-14 -78h-48q-127 0 -254 -43t-319 -139v-752h-78z" />
<glyph unicode="s" horiz-adv-x="1267" d="M131 748q0 61 12.5 105t41.5 73t64.5 47t94 26.5t116.5 10.5q42 2 99 3q23 0 47 -1q265 -3 498 -27l-10 -59q-304 12 -486 14q-47 1 -88 1q-20 -1 -39 -1q-57 0 -101.5 -5.5t-76.5 -17.5t-53 -33.5t-31 -55t-10 -80.5q0 -96 51.5 -138t159.5 -53l426 -47 q146 -19 218.5 -79.5t72.5 -176.5q0 -47 -8 -84t-26 -65t-40.5 -48.5t-57.5 -34.5t-71.5 -23t-88 -14t-100.5 -6.5t-116 -1.5q-253 0 -465 25l8 59q199 -12 384 -12h73q102 1 167 5.5t120 16.5t84 35.5t44 59t15 88.5q0 91 -58 131.5t-167 54.5l-424 47q-141 18 -210 78.5 t-69 182.5z" />
<glyph unicode="t" horiz-adv-x="970" d="M74 918v59l231 10v305h78v-305h467v-69h-467v-701q0 -156 209 -156h231l8 -59q-115 -16 -231 -16q-146 0 -220.5 57.5t-74.5 165.5v709h-231z" />
<glyph unicode="u" horiz-adv-x="1441" d="M215 246v741h78v-725q-1 -110 68.5 -161.5t216.5 -51.5q128 0 253 44t310 143v751h78v-987h-60l-8 174q-314 -199 -592 -199q-170 0 -257 68.5t-87 202.5z" />
<glyph unicode="v" horiz-adv-x="1325" d="M61 987h84l400 -739q20 -33 52.5 -96t45.5 -86h35q43 75 102 184l398 737h84l-521 -964q-13 -23 -39 -23h-84q-23 0 -36 23z" />
<glyph unicode="w" horiz-adv-x="2144" d="M80 987h84l356 -788q10 -22 30 -69t30 -69h34q14 37 58 140l327 757q11 29 39 29h66q13 0 24.5 -8.5t14.5 -20.5l330 -757q14 -33 55 -140h39q41 108 55 140l358 786h84l-438 -960q-10 -27 -39 -27h-82q-12 0 -23 8.5t-16 20.5l-321 747q-30 74 -60 150h-26 q-11 -28 -33 -78.5t-31 -71.5l-319 -747q-11 -29 -39 -29h-80q-32 0 -39 27z" />
<glyph unicode="x" horiz-adv-x="1329" d="M84 0l479 512l-444 475h98l412 -438h73l412 438h98l-446 -475l479 -512h-98l-451 481h-61l-453 -481h-98z" />
<glyph unicode="y" horiz-adv-x="1335" d="M70 987h86l432 -809q10 -21 32.5 -60t28.5 -50h37l59 112l439 807h84l-580 -1073q-38 -71 -72.5 -119.5t-84.5 -97t-117 -79.5t-152 -46l-16 53q77 22 135 53t100.5 72.5t71.5 81.5t61 98l37 70h-24q-21 0 -39 25z" />
<glyph unicode="z" horiz-adv-x="1302" d="M127 0v70l934 845h-926v72h1032v-72l-934 -845h943v-70h-1049z" />
<glyph unicode="{" horiz-adv-x="770" d="M131 633v78q102 24 124 36q38 20 45 74q3 23 3 58v432q0 140 80.5 202.5t265.5 59.5v-55q-151 0 -210.5 -50t-59.5 -159v-408q0 -122 -39.5 -164.5t-163.5 -64.5q68 -18 105.5 -33.5t64.5 -40.5t36 -58.5t9 -88.5v-525q0 -108 59.5 -158.5t211.5 -50.5v-55 q-187 -3 -268 59.5t-81 202.5v549q0 40 -7 64.5t-34.5 42.5t-46 24.5t-78.5 23.5q-10 3 -16 5z" />
<glyph unicode="|" horiz-adv-x="569" d="M250 -346v1945h67v-1945h-67z" />
<glyph unicode="}" horiz-adv-x="770" d="M109 -283q152 0 212 50.5t60 158.5v525q0 55 9 88.5t35.5 58.5t64.5 40.5t106 33.5q-125 22 -165 64.5t-40 164.5v408q0 109 -59.5 159t-212.5 50v55q188 3 268 -59.5t80 -202.5v-432q0 -33 2.5 -54.5t10 -38t17 -26t28.5 -17.5t39 -13.5t53 -13.5q14 -3 22 -5v-78 q-104 -30 -130 -45q-47 -28 -51 -94q-1 -10 -1 -21v-549q0 -140 -80 -202.5t-268 -59.5v55z" />
<glyph unicode="~" horiz-adv-x="1370" d="M205 487q-4 99 50.5 150.5t152.5 48.5q76 -4 151 -24.5t127.5 -43.5t127 -43.5t149.5 -23.5q82 -4 117.5 25t35.5 100h49q6 -96 -48 -147t-150 -46q-89 4 -170.5 24.5t-132 43t-119 43t-135.5 24.5q-81 4 -116.5 -27t-35.5 -104h-53z" />
<glyph unicode="&#xa1;" horiz-adv-x="573" d="M236 831v123q0 35 36 35h29q37 0 37 -35v-123q0 -34 -37 -34h-29q-36 0 -36 34zM246 246l6 323h67l7 -323v-662h-80v662z" />
<glyph unicode="&#xa2;" horiz-adv-x="1302" d="M162 717q0 143 31 240t101 159.5t178 90t267 28.5l15 178h63l-16 -178q196 -8 311 -39l-18 -57q-103 18 -299 22l-82 -891h47q203 0 368 25l11 -57q-183 -39 -389 -39h-45l-21 -199h-59l18 203q-261 17 -371 135t-110 379zM242 717q0 -231 92 -330t317 -113l82 887 q-139 -2 -229.5 -24t-150.5 -74t-85.5 -135.5t-25.5 -210.5z" />
<glyph unicode="&#xa3;" horiz-adv-x="1460" d="M154 715v57h217l-19 303q-4 68 6 122t30 91.5t55 64.5t73 43t92.5 25t105.5 12t120 3q167 0 419 -21l-10 -63q-203 10 -467 10q-202 0 -278.5 -64.5t-67.5 -218.5l19 -307h657l-4 -57h-649l12 -207q4 -80 -1 -138.5t-24 -116.5t-61.5 -103t-108.5 -78q55 2 162 2h887v-74 h-1147v74q69 31 114.5 75.5t68.5 101t30 118t2 139.5l-12 207h-221z" />
<glyph unicode="&#xa4;" horiz-adv-x="1554" d="M197 313l194 152q-123 110 -123 256q0 148 123 258l-192 149l41 43l200 -153q146 96 336 96q195 0 336 -98l201 155l43 -43l-195 -149q121 -111 121 -258q0 -145 -123 -258l199 -152l-45 -41l-201 156q-145 -98 -336 -98q-193 0 -338 98l-198 -156zM330 721 q0 -138 130 -236t316 -98q183 0 313 98t130 236t-130 237t-313 99q-185 0 -315.5 -99t-130.5 -237z" />
<glyph unicode="&#xa5;" horiz-adv-x="1576" d="M121 1413h88l463 -612q12 -15 34 -44.5t40 -53t34 -41.5h15q16 20 51 67.5t53 69.5l463 614h88l-578 -778h478v-57h-521l-2 -3v-165h523v-58h-523v-352h-79v352h-510v58h510v165l-3 3h-507v57h464z" />
<glyph unicode="&#xa6;" horiz-adv-x="573" d="M252 -346v819h67v-819h-67zM252 780v819h67v-819h-67z" />
<glyph unicode="&#xa7;" horiz-adv-x="1402" d="M174 1204q0 60 22 102.5t60 68t100.5 40t130 19.5t162.5 4q315 -3 574 -25l-6 -61q-261 12 -564 14q-58 1 -95.5 0t-83.5 -4t-74.5 -9.5t-59 -18t-47 -29t-27 -43t-10.5 -58.5q-1 -82 51.5 -135.5t155.5 -97.5l504 -213q112 -50 168.5 -117t66.5 -151t-6 -193h-68 q23 144 -16.5 237.5t-155.5 145.5l-505 219q-154 66 -215.5 134t-61.5 171zM180 -281l8 64q355 -14 562 -16h93.5t84.5 3t74 9.5t61.5 19t46.5 30.5t29 45t10 63q1 82 -53.5 137t-153.5 96l-502 213q-162 72 -210 176t-23 279h67q-23 -145 15 -234t160 -143l507 -217 q149 -63 211 -133.5t62 -176.5q0 -38 -8 -68.5t-21 -54t-35.5 -41.5t-45.5 -30t-58 -20.5t-65 -13.5t-75 -7.5t-80 -3t-87 -0.5q-261 3 -574 24z" />
<glyph unicode="&#xa8;" horiz-adv-x="1013" d="M225 1245v115q0 29 31 29h31q28 0 28 -29v-115q0 -28 -28 -28h-31q-31 0 -31 28zM696 1245v115q0 29 29 29h31q30 0 30 -29v-115q0 -28 -30 -28h-31q-29 0 -29 28z" />
<glyph unicode="&#xa9;" horiz-adv-x="2238" d="M170 707q0 208 127.5 376t344 261.5t476.5 93.5q262 0 479 -93.5t344 -261.5t127 -376q0 -156 -74.5 -293t-202 -232.5t-302.5 -151t-371 -55.5q-260 0 -476.5 93.5t-344 262t-127.5 376.5zM231 707q0 -190 120 -346t323.5 -243t443.5 -87q242 0 445.5 87t323.5 243 t120 346t-120 346t-323.5 242.5t-445.5 86.5q-180 0 -343 -51.5t-283 -140t-190.5 -214.5t-70.5 -269zM614 713q0 258 116 363.5t403 105.5q214 0 354 -27l-14 -47q-144 10 -343 10q-250 0 -349 -89t-99 -316t99.5 -317.5t348.5 -90.5q252 0 373 14l10 -49 q-153 -26 -380 -26q-287 0 -403 105.5t-116 363.5z" />
<glyph unicode="&#xaa;" horiz-adv-x="1134" d="M186 715v84q0 74 59 115.5t167 41.5h446v80q0 138 -201 138q-169 0 -426 -19l-8 49q17 2 73.5 7.5t86 8t80.5 6.5t100.5 5.5t102.5 1.5q260 0 260 -197v-481h-52l-12 131q-69 -52 -191 -96.5t-243 -44.5q-115 0 -178.5 44t-63.5 126zM256 725q0 -118 184 -121 q98 -1 217.5 36.5t200.5 90.5v182l-438 -10q-164 -3 -164 -108v-70z" />
<glyph unicode="&#xab;" horiz-adv-x="1173" d="M117 502v24l432 406l39 -31l-387 -387l391 -393l-39 -31zM543 502v24l432 406l39 -31l-387 -387l391 -393l-39 -31z" />
<glyph unicode="&#xac;" horiz-adv-x="1529" d="M205 573v68h1114v-375h-72v307h-1042z" />
<glyph unicode="&#xad;" horiz-adv-x="1230" d="M186 481v68h826v-68h-826z" />
<glyph unicode="&#xae;" horiz-adv-x="1505" d="M160 981q0 124 79 228.5t216 165.5t299 61q161 0 297 -61t214 -165.5t78 -228.5q0 -125 -78.5 -230t-214 -166t-296.5 -61q-162 0 -299 61t-216 166t-79 230zM211 981q0 -114 73 -209.5t198 -151t272 -55.5q146 0 270 55.5t196 151t72 209.5q0 113 -72 208.5t-196 151.5 t-270 56q-147 0 -272 -56t-198 -151.5t-73 -208.5zM483 696v568q98 6 299 6q150 0 210.5 -35t60.5 -127q0 -71 -39.5 -105.5t-128.5 -41.5v-5q68 -9 104 -79l96 -181h-57l-96 176q-37 70 -139 70q-68 0 -153.5 1t-102.5 1v-248h-54zM537 979h245q121 2 169 28t48 97 q0 74 -47 99.5t-170 25.5h-245v-250z" />
<glyph unicode="&#xaf;" horiz-adv-x="1028" d="M166 1272v67h696v-67h-696z" />
<glyph unicode="&#xb0;" horiz-adv-x="978" d="M160 1184q0 105 96.5 179.5t232.5 74.5q135 0 232.5 -75t97.5 -179t-97.5 -180t-232.5 -76t-232 76t-97 180zM219 1184q0 -80 79.5 -139.5t190.5 -59.5t190 59.5t79 139.5q0 83 -78 139.5t-191 56.5t-191.5 -56.5t-78.5 -139.5z" />
<glyph unicode="&#xb1;" horiz-adv-x="1544" d="M215 180v68h1114v-68h-1114zM215 684v66h520v294h72l-2 -294h524v-66h-524l-2 -295h-66v295h-522z" />
<glyph unicode="&#xb2;" horiz-adv-x="1132" d="M172 737v39q0 19 12 31l414 313q125 97 178.5 165.5t50.5 137.5q-1 31 -16 53t-37.5 34t-61.5 19t-76.5 9t-94.5 2q-162 0 -348 -22l-11 49q188 32 357 32q75 0 127 -4t99.5 -15t75.5 -30.5t44 -51.5t16 -77q0 -78 -58 -155t-186 -174l-389 -295q70 2 199 2l489 -2 l-2 -60h-782z" />
<glyph unicode="&#xb3;" horiz-adv-x="1087" d="M172 743l10 52q199 -15 348 -15q169 0 242.5 45.5t73.5 153.5q0 39 -12 68t-42.5 55.5t-90.5 40.5t-148 14l-227 2v49l227 2q70 1 121 13.5t79 30t44 43.5t20 47.5t4 48.5q-1 87 -69 118t-244 31q-143 0 -307 -12l-11 49q161 20 318 20q212 0 295.5 -42t83.5 -152 q0 -189 -201 -215v-4q121 -13 173.5 -67.5t55.5 -145.5q3 -130 -82.5 -190t-291.5 -60q-135 0 -369 20z" />
<glyph unicode="&#xb4;" horiz-adv-x="714" d="M143 1161l402 297l53 -59l-414 -279z" />
<glyph unicode="&#xb6;" horiz-adv-x="1542" d="M127 922q0 283 182.5 399.5t614.5 116.5q216 0 360 -35v-1403h-74v1356q-187 18 -393 18v-1804h-76v842q-329 23 -471.5 141.5t-142.5 368.5z" />
<glyph unicode="&#xb7;" horiz-adv-x="507" d="M184 465v123q0 19 8 27t27 8h31q37 0 37 -35v-123q0 -35 -37 -35h-31q-19 0 -27 8t-8 27z" />
<glyph unicode="&#xb8;" horiz-adv-x="563" d="M98 -455l15 47q133 -4 214 47t81 128q0 51 -34.5 72t-123.5 22l10 43q109 6 162.5 -25.5t52.5 -107.5q-3 -113 -106 -178t-271 -48z" />
<glyph unicode="&#xb9;" horiz-adv-x="727" d="M113 1495l333 90h66v-848h-66v719q0 39 7 66l-328 -72z" />
<glyph unicode="&#xba;" horiz-adv-x="1153" d="M176 885q0 192 88.5 270t308.5 78q224 0 314 -78t90 -270q0 -191 -90 -268.5t-314 -77.5q-219 0 -308 77.5t-89 268.5zM248 885q0 -163 71.5 -226t253.5 -63q184 0 257 63t73 226q0 165 -73 228t-257 63q-182 0 -253.5 -63t-71.5 -228z" />
<glyph unicode="&#xbb;" horiz-adv-x="1185" d="M162 121l391 393l-389 387l41 31l432 -406v-24l-436 -412zM588 121l391 393l-389 387l41 31l432 -406v-24l-436 -412z" />
<glyph unicode="&#xbc;" horiz-adv-x="2209" d="M127 1323l332 90h67v-848h-67v719q0 43 8 66l-330 -72zM324 0l1269 1413h72l-1270 -1413h-71zM1217 334l389 514h71l-391 -510q-14 -22 2 -39.5t51 -17.5h566v264l14 143h49v-407h121v-48l-121 -6v-227h-63v225h-600q-58 0 -85.5 33.5t-2.5 75.5z" />
<glyph unicode="&#xbd;" horiz-adv-x="2289" d="M127 1323l332 90h67v-848h-67v719q0 43 8 66l-330 -72zM322 0l1269 1413h74l-1272 -1413h-71zM1368 0v39q0 19 12 31l414 311q123 96 177.5 167t51.5 138q-1 31 -16 53t-37.5 34t-61.5 19t-76.5 9t-94.5 2q-154 0 -348 -23l-11 49q193 33 357 33q74 0 126 -4t99.5 -15 t75.5 -30.5t44.5 -51.5t16.5 -77q0 -77 -57 -150t-187 -172l-401 -303q72 2 211 2l489 -2l-2 -59h-782z" />
<glyph unicode="&#xbe;" horiz-adv-x="2445" d="M160 567l10 51q186 -14 350 -14q168 0 242 45.5t74 153.5q0 39 -12.5 68.5t-43 55.5t-90.5 40t-147 14l-230 2v47l230 4q70 1 121 13.5t78.5 30t43 43t19.5 46t4 47.5q-1 88 -68.5 120t-244.5 32q-140 0 -308 -12l-10 49q161 20 320 20q212 0 294 -42t82 -152 q0 -189 -200 -215v-4q122 -13 174.5 -67.5t54.5 -145.5q3 -131 -82 -190.5t-291 -59.5q-132 0 -370 20zM594 0l1270 1413h71l-1269 -1413h-72zM1450 334l389 514h70l-389 -510q-15 -22 1.5 -39.5t51.5 -17.5h536v264l17 143h51v-407h143v-48l-143 -6v-227h-68v225h-571 q-58 0 -86 33.5t-2 75.5z" />
<glyph unicode="&#xbf;" horiz-adv-x="1312" d="M131 -133q0 56 21.5 106.5t57 88t80.5 76.5t92 72.5t92.5 74.5t81 83t57.5 99t22 121h74q0 -79 -27 -147.5t-70.5 -117.5t-96.5 -93t-106 -83t-97 -78.5t-71.5 -89t-27.5 -104.5q0 -129 108 -191.5t336 -62.5q65 0 122.5 1t90.5 2t87 5t68 5t80 7t79 7l14 -60 q-20 -2 -109 -13.5t-122.5 -14.5t-120.5 -7t-191 -4q-524 0 -524 318zM625 850v123q0 35 37 35h28q19 0 27 -8t8 -27v-123q0 -19 -8 -27t-27 -8h-28q-37 0 -37 35z" />
<glyph unicode="&#xc0;" d="M39 0l653 1386q10 27 39 27h125q31 0 41 -27l653 -1386h-86l-233 498h-871l-235 -498h-86zM395 571h801l-309 658q-10 20 -28 57.5t-28 56.5h-75q-38 -83 -51 -114zM446 1782l54 59l401 -297l-39 -41z" />
<glyph unicode="&#xc1;" d="M39 0l653 1386q10 27 39 27h125q31 0 41 -27l653 -1386h-86l-233 498h-871l-235 -498h-86zM395 571h801l-309 658q-10 20 -28 57.5t-28 56.5h-75q-38 -83 -51 -114zM664 1544l401 297l53 -59l-413 -279z" />
<glyph unicode="&#xc2;" d="M39 0l653 1386q10 27 39 27h125q31 0 41 -27l653 -1386h-86l-233 498h-871l-235 -498h-86zM395 571h801l-309 658q-10 20 -28 57.5t-28 56.5h-75q-38 -83 -51 -114zM403 1567l363 243h57l359 -243l-33 -39l-344 207h-23l-342 -207z" />
<glyph unicode="&#xc3;" d="M39 0l653 1386q10 27 39 27h125q31 0 41 -27l653 -1386h-86l-233 498h-871l-235 -498h-86zM395 571h801l-309 658q-10 20 -28 57.5t-28 56.5h-75q-38 -83 -51 -114zM408 1585q-6 99 48.5 150t151.5 45q53 -3 103 -23t84 -42.5t84 -43t102 -24.5q81 -4 116.5 24.5 t35.5 97.5h51q4 -94 -51 -144t-150 -44q-60 3 -115 23.5t-89.5 43t-80.5 43t-90 23.5q-78 7 -114.5 -25t-36.5 -104h-49z" />
<glyph unicode="&#xc4;" d="M39 0l653 1386q10 27 39 27h125q31 0 41 -27l653 -1386h-86l-233 498h-871l-235 -498h-86zM395 571h801l-309 658q-10 20 -28 57.5t-28 56.5h-75q-38 -83 -51 -114zM516 1616v115q0 28 31 28h31q28 0 28 -28v-115q0 -29 -28 -29h-31q-31 0 -31 29zM987 1616v115 q0 28 29 28h31q30 0 30 -28v-115q0 -29 -30 -29h-31q-29 0 -29 29z" />
<glyph unicode="&#xc5;" d="M39 0l653 1386q10 27 39 27h125q31 0 41 -27l653 -1386h-86l-233 498h-871l-235 -498h-86zM395 571h801l-309 658q-10 20 -28 57.5t-28 56.5h-75q-38 -83 -51 -114zM539 1671q0 83 76 141t182 58t182 -58t76 -141q0 -84 -75 -142.5t-183 -58.5t-183 58.5t-75 142.5z M600 1671q0 -65 56.5 -106t140.5 -41t140 41t56 106q0 63 -56.5 105.5t-139.5 42.5t-140 -42.5t-57 -105.5z" />
<glyph unicode="&#xc6;" horiz-adv-x="2392" d="M23 0l1048 1227q92 111 195 148.5t256 37.5q466 0 729 -8v-66h-713q-99 0 -157 -43t-58 -116v-389l813 -3v-67l-813 -2v-486q0 -73 59.5 -117t155.5 -44h713v-64q-246 -8 -733 -8q-118 0 -195.5 61.5t-77.5 155.5v315h-676l-452 -532h-94zM631 604h614v582q0 47 32 93.5 t75 61.5h-17q-100 -32 -198 -141z" />
<glyph unicode="&#xc7;" horiz-adv-x="1511" d="M178 707q0 205 35 342t117.5 225t210 126t319.5 38q274 0 467 -37l-18 -62q-216 23 -449 23q-169 0 -281 -33.5t-184 -112t-102.5 -201t-30.5 -308.5t30.5 -308.5t102.5 -201.5t184 -112.5t281 -33.5q280 0 488 27l16 -64q-207 -39 -504 -39q-192 0 -320 38t-210 126.5 t-117 225.5t-35 342zM616 -479l15 47q133 -4 214 46.5t81 127.5q0 51 -34.5 72t-123.5 22l10 43q109 6 162.5 -25.5t52.5 -107.5q-3 -113 -106 -177.5t-271 -47.5z" />
<glyph unicode="&#xc8;" horiz-adv-x="1468" d="M229 217v979q0 95 78 156t201 61q522 0 782 -8l-6 -64h-760q-96 0 -155.5 -43.5t-59.5 -115.5v-391l867 -3v-67l-867 -2v-488q0 -72 59.5 -115.5t155.5 -43.5h760l6 -64q-260 -8 -782 -8q-122 0 -200.5 61t-78.5 156zM436 1831l53 59l402 -297l-39 -41z" />
<glyph unicode="&#xc9;" horiz-adv-x="1468" d="M229 217v979q0 95 78 156t201 61q522 0 782 -8l-6 -64h-760q-96 0 -155.5 -43.5t-59.5 -115.5v-391l867 -3v-67l-867 -2v-488q0 -72 59.5 -115.5t155.5 -43.5h760l6 -64q-260 -8 -782 -8q-122 0 -200.5 61t-78.5 156zM653 1593l402 297l53 -59l-414 -279z" />
<glyph unicode="&#xca;" horiz-adv-x="1468" d="M229 217v979q0 95 78 156t201 61q522 0 782 -8l-6 -64h-760q-96 0 -155.5 -43.5t-59.5 -115.5v-391l867 -3v-67l-867 -2v-488q0 -72 59.5 -115.5t155.5 -43.5h760l6 -64q-260 -8 -782 -8q-122 0 -200.5 61t-78.5 156zM393 1616l363 244h57l358 -244l-32 -39l-344 207h-23 l-342 -207z" />
<glyph unicode="&#xcb;" horiz-adv-x="1468" d="M229 217v979q0 95 78 156t201 61q522 0 782 -8l-6 -64h-760q-96 0 -155.5 -43.5t-59.5 -115.5v-391l867 -3v-67l-867 -2v-488q0 -72 59.5 -115.5t155.5 -43.5h760l6 -64q-260 -8 -782 -8q-122 0 -200.5 61t-78.5 156zM504 1665v115q0 28 31 28h30q29 0 29 -28v-115 q0 -29 -29 -29h-30q-31 0 -31 29zM975 1665v115q0 28 29 28h30q31 0 31 -28v-115q0 -29 -31 -29h-30q-29 0 -29 29z" />
<glyph unicode="&#xcc;" horiz-adv-x="567" d="M-68 1782l54 59l401 -297l-39 -41zM244 0v1413h80v-1413h-80z" />
<glyph unicode="&#xcd;" horiz-adv-x="567" d="M152 1544l401 297l53 -59l-413 -279zM244 0v1413h80v-1413h-80z" />
<glyph unicode="&#xce;" horiz-adv-x="567" d="M-111 1567l363 243h57l359 -243l-33 -39l-344 207h-23l-342 -207zM244 0v1413h80v-1413h-80z" />
<glyph unicode="&#xcf;" horiz-adv-x="567" d="M2 1616v115q0 28 31 28h30q29 0 29 -28v-115q0 -29 -29 -29h-30q-31 0 -31 29zM244 0v1413h80v-1413h-80zM473 1616v115q0 28 29 28h30q31 0 31 -28v-115q0 -29 -31 -29h-30q-29 0 -29 29z" />
<glyph unicode="&#xd0;" horiz-adv-x="1732" d="M63 729v57h183v627q338 19 612 19q252 0 396.5 -70t210 -226.5t65.5 -428.5t-65.5 -428.5t-210 -226.5t-396.5 -70q-288 0 -612 18v729h-183zM326 63q474 -6 532 -6q166 0 275.5 33t180.5 111t101.5 200t30.5 306t-30.5 305.5t-101.5 199.5t-180.5 111t-275.5 33 q-58 0 -532 -6v-564h508v-57h-508v-666z" />
<glyph unicode="&#xd1;" horiz-adv-x="1781" d="M244 0v1372q0 41 43 41h114q32 0 54 -31l805 -1128q24 -35 118 -176h78v192v1143h80v-1372q0 -41 -45 -41h-121q-32 0 -51 31l-825 1155q-54 73 -101 151h-69v-153v-1184h-80zM524 1585q-6 99 49 150t152 45q53 -3 103 -23t84 -42.5t84 -43t102 -24.5q81 -4 116 24.5 t35 97.5h51q4 -94 -50.5 -144t-149.5 -44q-60 3 -115 23.5t-89.5 43t-80.5 43t-90 23.5q-152 14 -152 -129h-49z" />
<glyph unicode="&#xd2;" horiz-adv-x="1720" d="M178 707q0 207 35 344t117.5 224.5t210 125t319.5 37.5q193 0 320.5 -37.5t209.5 -125t117 -224.5t35 -344t-35 -344t-117 -225t-209.5 -125.5t-320.5 -37.5q-192 0 -319.5 37.5t-210 125.5t-117.5 225t-35 344zM262 707q0 -186 30.5 -308.5t102.5 -201.5t184 -112.5 t281 -33.5t281 33.5t184 112.5t102.5 201.5t30.5 308.5t-30.5 308.5t-102.5 201t-184 112t-281 33.5t-281 -33.5t-184 -112t-102.5 -201t-30.5 -308.5zM514 1782l53 59l402 -297l-39 -41z" />
<glyph unicode="&#xd3;" horiz-adv-x="1720" d="M178 707q0 207 35 344t117.5 224.5t210 125t319.5 37.5q193 0 320.5 -37.5t209.5 -125t117 -224.5t35 -344t-35 -344t-117 -225t-209.5 -125.5t-320.5 -37.5q-192 0 -319.5 37.5t-210 125.5t-117.5 225t-35 344zM262 707q0 -186 30.5 -308.5t102.5 -201.5t184 -112.5 t281 -33.5t281 33.5t184 112.5t102.5 201.5t30.5 308.5t-30.5 308.5t-102.5 201t-184 112t-281 33.5t-281 -33.5t-184 -112t-102.5 -201t-30.5 -308.5zM731 1544l402 297l53 -59l-414 -279z" />
<glyph unicode="&#xd4;" horiz-adv-x="1720" d="M178 707q0 207 35 344t117.5 224.5t210 125t319.5 37.5q193 0 320.5 -37.5t209.5 -125t117 -224.5t35 -344t-35 -344t-117 -225t-209.5 -125.5t-320.5 -37.5q-192 0 -319.5 37.5t-210 125.5t-117.5 225t-35 344zM262 707q0 -186 30.5 -308.5t102.5 -201.5t184 -112.5 t281 -33.5t281 33.5t184 112.5t102.5 201.5t30.5 308.5t-30.5 308.5t-102.5 201t-184 112t-281 33.5t-281 -33.5t-184 -112t-102.5 -201t-30.5 -308.5zM471 1567l363 243h57l358 -243l-32 -39l-345 207h-22l-342 -207z" />
<glyph unicode="&#xd5;" horiz-adv-x="1720" d="M178 707q0 207 35 344t117.5 224.5t210 125t319.5 37.5q193 0 320.5 -37.5t209.5 -125t117 -224.5t35 -344t-35 -344t-117 -225t-209.5 -125.5t-320.5 -37.5q-192 0 -319.5 37.5t-210 125.5t-117.5 225t-35 344zM262 707q0 -186 30.5 -308.5t102.5 -201.5t184 -112.5 t281 -33.5t281 33.5t184 112.5t102.5 201.5t30.5 308.5t-30.5 308.5t-102.5 201t-184 112t-281 33.5t-281 -33.5t-184 -112t-102.5 -201t-30.5 -308.5zM475 1585q-6 99 49 150t152 45q53 -3 103 -23t84 -42.5t84 -43t102 -24.5q81 -4 116 24.5t35 97.5h51q4 -94 -50.5 -144 t-149.5 -44q-60 3 -115 23.5t-89.5 43t-80.5 43t-90 23.5q-152 14 -152 -129h-49z" />
<glyph unicode="&#xd6;" horiz-adv-x="1720" d="M178 707q0 207 35 344t117.5 224.5t210 125t319.5 37.5q193 0 320.5 -37.5t209.5 -125t117 -224.5t35 -344t-35 -344t-117 -225t-209.5 -125.5t-320.5 -37.5q-192 0 -319.5 37.5t-210 125.5t-117.5 225t-35 344zM262 707q0 -186 30.5 -308.5t102.5 -201.5t184 -112.5 t281 -33.5t281 33.5t184 112.5t102.5 201.5t30.5 308.5t-30.5 308.5t-102.5 201t-184 112t-281 33.5t-281 -33.5t-184 -112t-102.5 -201t-30.5 -308.5zM582 1616v115q0 28 30 28h31q29 0 29 -28v-115q0 -29 -29 -29h-31q-30 0 -30 29zM1053 1616v115q0 28 28 28h31 q31 0 31 -28v-115q0 -29 -31 -29h-31q-28 0 -28 29z" />
<glyph unicode="&#xd7;" horiz-adv-x="1265" d="M152 293l428 297l-428 297l45 53l444 -307l442 307l45 -51l-428 -299l428 -297l-45 -53l-444 309l-442 -309z" />
<glyph unicode="&#xd8;" horiz-adv-x="1722" d="M162 707q0 207 35 344t117 224.5t209.5 125t320.5 37.5q232 0 370 -56l86 142l60 -27l-88 -143q133 -76 192.5 -231t59.5 -416q0 -207 -35 -344t-116.5 -225t-209 -125.5t-319.5 -37.5q-232 0 -375 58l-88 -144l-59 29l88 143q-132 75 -190 230.5t-58 415.5zM246 707 q0 -228 49 -366t158 -208l718 1178q-125 51 -327 51q-169 0 -281 -33.5t-184 -112t-102.5 -201t-30.5 -308.5zM512 104q123 -53 332 -53q169 0 280.5 33.5t183 112.5t102 201.5t30.5 308.5q0 231 -49.5 369t-161.5 206z" />
<glyph unicode="&#xd9;" horiz-adv-x="1722" d="M231 526v887h80v-887q0 -262 124.5 -368.5t426.5 -106.5q300 0 423.5 106.5t123.5 368.5v887h82v-887q0 -299 -142 -425t-485 -126q-176 0 -295.5 30t-195.5 97t-109 170t-33 254zM516 1782l53 59l402 -297l-39 -41z" />
<glyph unicode="&#xda;" horiz-adv-x="1722" d="M231 526v887h80v-887q0 -262 124.5 -368.5t426.5 -106.5q300 0 423.5 106.5t123.5 368.5v887h82v-887q0 -299 -142 -425t-485 -126q-176 0 -295.5 30t-195.5 97t-109 170t-33 254zM733 1544l402 297l53 -59l-414 -279z" />
<glyph unicode="&#xdb;" horiz-adv-x="1722" d="M231 526v887h80v-887q0 -262 124.5 -368.5t426.5 -106.5q300 0 423.5 106.5t123.5 368.5v887h82v-887q0 -299 -142 -425t-485 -126q-176 0 -295.5 30t-195.5 97t-109 170t-33 254zM473 1567l363 243h57l358 -243l-32 -39l-345 207h-22l-342 -207z" />
<glyph unicode="&#xdc;" horiz-adv-x="1722" d="M231 526v887h80v-887q0 -262 124.5 -368.5t426.5 -106.5q300 0 423.5 106.5t123.5 368.5v887h82v-887q0 -299 -142 -425t-485 -126q-176 0 -295.5 30t-195.5 97t-109 170t-33 254zM584 1616v115q0 28 30 28h31q29 0 29 -28v-115q0 -29 -29 -29h-31q-30 0 -30 29z M1055 1616v115q0 28 28 28h31q31 0 31 -28v-115q0 -29 -31 -29h-31q-28 0 -28 29z" />
<glyph unicode="&#xdd;" horiz-adv-x="1433" d="M49 1413h94l465 -663q16 -24 50.5 -76t50.5 -76h14l96 150l469 665h92l-624 -897v-516h-80v516zM584 1544l401 297l53 -59l-413 -279z" />
<glyph unicode="&#xde;" horiz-adv-x="1511" d="M244 0v1413h80v-280q184 10 512 10q152 0 249.5 -19.5t163.5 -68.5t93.5 -129.5t27.5 -206.5t-27.5 -207t-93.5 -130t-163 -68t-248 -19q-290 0 -514 14v-309h-80zM324 371h510q129 0 211.5 15.5t138.5 55.5t79 106.5t23 170.5q0 106 -23 173t-79 106.5t-138.5 55 t-211.5 15.5q-366 0 -510 -6v-692z" />
<glyph unicode="&#xdf;" horiz-adv-x="1714" d="M84 918v61l231 8v107q0 72 14.5 127.5t38.5 94t65.5 66t83 43t104 24t116.5 11t131 2.5q136 0 233.5 -11t172.5 -37.5t112 -73.5t37 -115q0 -58 -15.5 -100t-50.5 -73t-82.5 -52.5t-121.5 -43.5q-34 -10 -88 -24.5t-78 -21.5t-59 -19.5t-49.5 -23.5t-31.5 -28 t-22.5 -38.5t-5.5 -50.5q0 -67 42.5 -101t127.5 -57l348 -86q130 -33 193 -89t63 -165q0 -60 -13.5 -105.5t-41.5 -75t-62.5 -49t-86.5 -29t-102 -13t-120 -3.5q-229 0 -438 23l6 61q182 -14 428 -14q65 1 108.5 4t86.5 11t69 22t47 36.5t30 55.5t9 78q0 47 -14 79.5 t-43.5 53t-60 32t-78.5 23.5l-346 88q-113 28 -171.5 78.5t-58.5 139.5q0 26 5 48t12 39.5t23.5 33.5t28.5 27.5t39 23.5t44 19.5t53 18.5t57 17t66 18t70 19q123 36 168 79.5t45 133.5q0 92 -122 130t-362 38q-112 0 -187.5 -8t-133.5 -27.5t-90.5 -55t-48 -86.5 t-15.5 -126v-1090h-78v918h-231z" />
<glyph unicode="&#xe0;" horiz-adv-x="1353" d="M139 242v123q0 112 81 173.5t229 61.5h634v125q0 102 -65.5 157.5t-224.5 55.5q-226 0 -594 -31l-11 62q18 2 100 11t119.5 12.5t110 9t141 8t142.5 2.5q175 0 267.5 -68t92.5 -219v-725h-59l-17 188q-99 -75 -271 -138.5t-339 -63.5q-159 0 -247.5 67t-88.5 189z M219 248q0 -184 260 -187q145 -3 318 53.5t286 143.5v277l-630 -7q-234 -3 -234 -170v-110zM330 1411l53 59l401 -296l-39 -41z" />
<glyph unicode="&#xe1;" horiz-adv-x="1353" d="M139 242v123q0 112 81 173.5t229 61.5h634v125q0 102 -65.5 157.5t-224.5 55.5q-226 0 -594 -31l-11 62q18 2 100 11t119.5 12.5t110 9t141 8t142.5 2.5q175 0 267.5 -68t92.5 -219v-725h-59l-17 188q-99 -75 -271 -138.5t-339 -63.5q-159 0 -247.5 67t-88.5 189z M219 248q0 -184 260 -187q145 -3 318 53.5t286 143.5v277l-630 -7q-234 -3 -234 -170v-110zM547 1174l401 296l53 -59l-413 -278z" />
<glyph unicode="&#xe2;" horiz-adv-x="1353" d="M139 242v123q0 112 81 173.5t229 61.5h634v125q0 102 -65.5 157.5t-224.5 55.5q-226 0 -594 -31l-11 62q18 2 100 11t119.5 12.5t110 9t141 8t142.5 2.5q175 0 267.5 -68t92.5 -219v-725h-59l-17 188q-99 -75 -271 -138.5t-339 -63.5q-159 0 -247.5 67t-88.5 189z M219 248q0 -184 260 -187q145 -3 318 53.5t286 143.5v277l-630 -7q-234 -3 -234 -170v-110zM285 1194l362 244h58l358 -244l-33 -39l-344 207h-22l-342 -207z" />
<glyph unicode="&#xe3;" horiz-adv-x="1353" d="M139 242v123q0 112 81 173.5t229 61.5h634v125q0 102 -65.5 157.5t-224.5 55.5q-226 0 -594 -31l-11 62q18 2 100 11t119.5 12.5t110 9t141 8t142.5 2.5q175 0 267.5 -68t92.5 -219v-725h-59l-17 188q-99 -75 -271 -138.5t-339 -63.5q-159 0 -247.5 67t-88.5 189z M219 248q0 -184 260 -187q145 -3 318 53.5t286 143.5v277l-630 -7q-234 -3 -234 -170v-110zM289 1214q-6 99 48.5 150t151.5 45q53 -3 103 -23t84 -42.5t84 -43t102 -24.5q81 -4 116.5 25t35.5 98h51q4 -94 -51 -144.5t-150 -44.5q-60 3 -115 23.5t-89.5 43t-80.5 43 t-90 23.5q-78 7 -114.5 -25t-36.5 -104h-49z" />
<glyph unicode="&#xe4;" horiz-adv-x="1353" d="M139 242v123q0 112 81 173.5t229 61.5h634v125q0 102 -65.5 157.5t-224.5 55.5q-226 0 -594 -31l-11 62q18 2 100 11t119.5 12.5t110 9t141 8t142.5 2.5q175 0 267.5 -68t92.5 -219v-725h-59l-17 188q-99 -75 -271 -138.5t-339 -63.5q-159 0 -247.5 67t-88.5 189z M219 248q0 -184 260 -187q145 -3 318 53.5t286 143.5v277l-630 -7q-234 -3 -234 -170v-110zM397 1245v115q0 29 31 29h31q28 0 28 -29v-115q0 -28 -28 -28h-31q-31 0 -31 28zM868 1245v115q0 29 29 29h31q30 0 30 -29v-115q0 -28 -30 -28h-31q-29 0 -29 28z" />
<glyph unicode="&#xe5;" horiz-adv-x="1353" d="M139 242v123q0 112 81 173.5t229 61.5h634v125q0 102 -65.5 157.5t-224.5 55.5q-226 0 -594 -31l-11 62q18 2 100 11t119.5 12.5t110 9t141 8t142.5 2.5q175 0 267.5 -68t92.5 -219v-725h-59l-17 188q-99 -75 -271 -138.5t-339 -63.5q-159 0 -247.5 67t-88.5 189z M219 248q0 -184 260 -187q145 -3 318 53.5t286 143.5v277l-630 -7q-234 -3 -234 -170v-110zM420 1298q0 83 76 141t182 58t182 -58t76 -141q0 -84 -75 -142t-183 -58t-183 58t-75 142zM481 1298q0 -65 56.5 -106t140.5 -41t140 41t56 106q0 63 -56.5 105.5t-139.5 42.5 t-140 -42.5t-57 -105.5z" />
<glyph unicode="&#xe6;" horiz-adv-x="2304" d="M154 242v123q0 113 81 174t230 61h633v125q0 102 -65.5 157.5t-223.5 55.5q-228 0 -596 -31l-8 62q20 2 100.5 11t118.5 12.5t110 9t139.5 8t141.5 2.5q296 0 348 -191q59 101 177 146t311 45q499 0 508 -291q3 -145 -84 -206.5t-293 -61.5h-600q5 -115 35.5 -192.5 t93 -124.5t151.5 -67t219 -20q227 0 435 25l12 -58q-62 -18 -202.5 -29.5t-252.5 -11.5q-211 0 -337.5 55t-184.5 175q-108 -81 -294 -150t-365 -69q-160 0 -249 66.5t-89 189.5zM233 248q0 -184 261 -187q150 -3 330.5 54.5t303.5 144.5q-27 85 -30 207v68l-631 -7 q-115 -1 -174.5 -44.5t-59.5 -125.5v-110zM1180 520h596q167 0 236.5 46.5t64.5 150.5q-3 112 -108 166.5t-316 54.5q-259 0 -364.5 -92.5t-108.5 -325.5z" />
<glyph unicode="&#xe7;" horiz-adv-x="1280" d="M162 494q0 285 133.5 401.5t452.5 116.5q219 0 364 -39l-18 -55q-134 20 -334 20q-146 0 -241 -21t-158.5 -72.5t-90 -136t-26.5 -214.5t26.5 -214.5t90 -136.5t158.5 -73t241 -21q216 0 368 23l11 -58q-183 -39 -389 -39q-321 0 -454.5 117t-133.5 402zM498 -479l14 47 q133 -4 214 46.5t81 127.5q0 51 -34.5 72t-123.5 22l10 43q109 6 162.5 -25.5t52.5 -107.5q-3 -113 -105.5 -177.5t-270.5 -47.5z" />
<glyph unicode="&#xe8;" horiz-adv-x="1337" d="M147 498q0 283 126 398.5t425 115.5q500 0 506 -291q5 -136 -59 -202t-215 -66h-701q9 -225 126 -314.5t374 -89.5q223 0 436 25l11 -58q-62 -18 -202.5 -29.5t-254.5 -11.5q-307 0 -439.5 120.5t-132.5 402.5zM227 520h697q111 0 158 50.5t44 146.5q-4 116 -108 168.5 t-316 52.5q-259 0 -365.5 -93t-109.5 -325zM360 1411l54 59l401 -296l-39 -41z" />
<glyph unicode="&#xe9;" horiz-adv-x="1337" d="M147 498q0 283 126 398.5t425 115.5q500 0 506 -291q5 -136 -59 -202t-215 -66h-701q9 -225 126 -314.5t374 -89.5q223 0 436 25l11 -58q-62 -18 -202.5 -29.5t-254.5 -11.5q-307 0 -439.5 120.5t-132.5 402.5zM227 520h697q111 0 158 50.5t44 146.5q-4 116 -108 168.5 t-316 52.5q-259 0 -365.5 -93t-109.5 -325zM578 1174l401 296l53 -59l-414 -278z" />
<glyph unicode="&#xea;" horiz-adv-x="1337" d="M147 498q0 283 126 398.5t425 115.5q500 0 506 -291q5 -136 -59 -202t-215 -66h-701q9 -225 126 -314.5t374 -89.5q223 0 436 25l11 -58q-62 -18 -202.5 -29.5t-254.5 -11.5q-307 0 -439.5 120.5t-132.5 402.5zM227 520h697q111 0 158 50.5t44 146.5q-4 116 -108 168.5 t-316 52.5q-259 0 -365.5 -93t-109.5 -325zM315 1194l363 244h57l359 -244l-33 -39l-344 207h-23l-342 -207z" />
<glyph unicode="&#xeb;" horiz-adv-x="1337" d="M147 498q0 283 126 398.5t425 115.5q500 0 506 -291q5 -136 -59 -202t-215 -66h-701q9 -225 126 -314.5t374 -89.5q223 0 436 25l11 -58q-62 -18 -202.5 -29.5t-254.5 -11.5q-307 0 -439.5 120.5t-132.5 402.5zM227 520h697q111 0 158 50.5t44 146.5q-4 116 -108 168.5 t-316 52.5q-259 0 -365.5 -93t-109.5 -325zM428 1245v115q0 29 31 29h30q29 0 29 -29v-115q0 -28 -29 -28h-30q-31 0 -31 28zM899 1245v115q0 29 29 29h30q31 0 31 -29v-115q0 -28 -31 -28h-30q-29 0 -29 28z" />
<glyph unicode="&#xec;" horiz-adv-x="540" d="M-82 1411l53 59l402 -296l-39 -41zM231 0v987h78v-987h-78z" />
<glyph unicode="&#xed;" horiz-adv-x="540" d="M135 1174l402 296l53 -59l-414 -278zM231 0v987h78v-987h-78z" />
<glyph unicode="&#xee;" horiz-adv-x="540" d="M-125 1194l363 244h57l358 -244l-32 -39l-345 207h-22l-342 -207zM231 0v987h78v-987h-78z" />
<glyph unicode="&#xef;" horiz-adv-x="540" d="M-14 1245v115q0 29 30 29h31q29 0 29 -29v-115q0 -28 -29 -28h-31q-30 0 -30 28zM231 0v987h78v-987h-78zM457 1245v115q0 29 28 29h31q31 0 31 -29v-115q0 -28 -31 -28h-31q-28 0 -28 28z" />
<glyph unicode="&#xf0;" horiz-adv-x="1419" d="M164 451q0 111 28.5 194t89.5 145t164.5 93.5t247.5 31.5q220 0 436 -108q-60 288 -288 432l-236 -131l-35 45l213 119q-196 98 -493 98l16 60q321 8 547 -119l227 127l35 -47l-205 -115q320 -219 320 -703q0 -77 -4 -134.5t-17 -123t-36 -112.5t-62.5 -92.5t-95 -73.5 t-135.5 -45t-181 -17q-276 0 -406 113.5t-130 362.5zM246 451q0 -217 110.5 -310.5t345.5 -93.5q83 0 148.5 13t112.5 36t80.5 61t54.5 79.5t33 100.5t16 116t4 133q0 77 -10 159q-123 55 -228.5 77t-228.5 22t-210.5 -28.5t-136 -83t-70 -123t-21.5 -158.5z" />
<glyph unicode="&#xf1;" horiz-adv-x="1425" d="M201 0v987h61l8 -174q338 199 619 199q169 0 256.5 -69t87.5 -202v-741h-78v725q0 111 -70 162t-215 51q-133 0 -263.5 -44t-327.5 -144v-750h-78zM354 1214q-6 99 49 150t152 45q53 -3 103 -23t84 -42.5t84 -43t102 -24.5q81 -4 116 24.5t35 98.5h51q4 -94 -50.5 -144.5 t-149.5 -44.5q-60 3 -115 23.5t-89.5 43t-80.5 43t-90 23.5q-152 14 -152 -129h-49z" />
<glyph unicode="&#xf2;" horiz-adv-x="1421" d="M150 494q0 192 54 303.5t175.5 163t331.5 51.5q310 0 436.5 -116.5t126.5 -401.5q0 -286 -126.5 -402.5t-436.5 -116.5q-311 0 -436 116t-125 403zM229 494q0 -252 106.5 -349.5t375.5 -97.5q268 0 375.5 98t107.5 349q0 128 -25 212t-84 136.5t-148.5 74t-225.5 21.5 q-269 0 -375.5 -96t-106.5 -348zM354 1411l54 59l401 -296l-39 -41z" />
<glyph unicode="&#xf3;" horiz-adv-x="1421" d="M150 494q0 192 54 303.5t175.5 163t331.5 51.5q310 0 436.5 -116.5t126.5 -401.5q0 -286 -126.5 -402.5t-436.5 -116.5q-311 0 -436 116t-125 403zM229 494q0 -252 106.5 -349.5t375.5 -97.5q268 0 375.5 98t107.5 349q0 128 -25 212t-84 136.5t-148.5 74t-225.5 21.5 q-269 0 -375.5 -96t-106.5 -348zM571 1174l402 296l53 -59l-414 -278z" />
<glyph unicode="&#xf4;" horiz-adv-x="1421" d="M150 494q0 192 54 303.5t175.5 163t331.5 51.5q310 0 436.5 -116.5t126.5 -401.5q0 -286 -126.5 -402.5t-436.5 -116.5q-311 0 -436 116t-125 403zM229 494q0 -252 106.5 -349.5t375.5 -97.5q268 0 375.5 98t107.5 349q0 128 -25 212t-84 136.5t-148.5 74t-225.5 21.5 q-269 0 -375.5 -96t-106.5 -348zM311 1194l363 244h57l359 -244l-33 -39l-344 207h-23l-342 -207z" />
<glyph unicode="&#xf5;" horiz-adv-x="1421" d="M150 494q0 192 54 303.5t175.5 163t331.5 51.5q310 0 436.5 -116.5t126.5 -401.5q0 -286 -126.5 -402.5t-436.5 -116.5q-311 0 -436 116t-125 403zM229 494q0 -252 106.5 -349.5t375.5 -97.5q268 0 375.5 98t107.5 349q0 128 -25 212t-84 136.5t-148.5 74t-225.5 21.5 q-269 0 -375.5 -96t-106.5 -348zM315 1214q-6 99 49 150t152 45q53 -3 103 -23t84 -42.5t84 -43t102 -24.5q81 -4 116 24.5t35 98.5h52q4 -94 -51 -144.5t-150 -44.5q-60 3 -115 23.5t-89.5 43t-80.5 43t-90 23.5q-78 7 -114.5 -25t-36.5 -104h-50z" />
<glyph unicode="&#xf6;" horiz-adv-x="1421" d="M150 494q0 192 54 303.5t175.5 163t331.5 51.5q310 0 436.5 -116.5t126.5 -401.5q0 -286 -126.5 -402.5t-436.5 -116.5q-311 0 -436 116t-125 403zM229 494q0 -252 106.5 -349.5t375.5 -97.5q268 0 375.5 98t107.5 349q0 128 -25 212t-84 136.5t-148.5 74t-225.5 21.5 q-269 0 -375.5 -96t-106.5 -348zM424 1245v115q0 29 31 29h30q29 0 29 -29v-115q0 -28 -29 -28h-30q-31 0 -31 28zM895 1245v115q0 29 29 29h30q31 0 31 -29v-115q0 -28 -31 -28h-30q-29 0 -29 28z" />
<glyph unicode="&#xf7;" horiz-adv-x="1517" d="M203 571v68h1114v-68h-1114zM705 205v121q0 34 36 34h29q37 0 37 -34v-121q0 -35 -37 -35h-29q-36 0 -36 35zM705 885v121q0 34 36 34h29q37 0 37 -34v-121q0 -35 -37 -35h-29q-36 0 -36 35z" />
<glyph unicode="&#xf8;" horiz-adv-x="1454" d="M133 494q0 285 126 401.5t437 116.5q172 0 281 -33l82 137l53 -24l-80 -134q120 -52 172.5 -163.5t52.5 -300.5q0 -286 -126 -402.5t-435 -116.5q-143 0 -241 23l-78 -131l-53 27l71 120q-139 47 -200.5 161.5t-61.5 318.5zM213 494q0 -180 51.5 -277.5t171.5 -136.5 l500 831q-99 27 -240 27q-137 0 -226.5 -21.5t-148 -74t-83.5 -136.5t-25 -212zM496 63q91 -16 200 -16q267 0 374.5 98t107.5 349q0 164 -44 259.5t-141 137.5z" />
<glyph unicode="&#xf9;" horiz-adv-x="1441" d="M215 246v741h78v-725q-1 -110 68.5 -161.5t216.5 -51.5q128 0 253 44t310 143v751h78v-987h-60l-8 174q-314 -199 -592 -199q-170 0 -257 68.5t-87 202.5zM373 1413l53 60l401 -297l-39 -41z" />
<glyph unicode="&#xfa;" horiz-adv-x="1441" d="M215 246v741h78v-725q-1 -110 68.5 -161.5t216.5 -51.5q128 0 253 44t310 143v751h78v-987h-60l-8 174q-314 -199 -592 -199q-170 0 -257 68.5t-87 202.5zM592 1176l401 297l54 -60l-414 -278z" />
<glyph unicode="&#xfb;" horiz-adv-x="1441" d="M215 246v741h78v-725q-1 -110 68.5 -161.5t216.5 -51.5q128 0 253 44t310 143v751h78v-987h-60l-8 174q-314 -199 -592 -199q-170 0 -257 68.5t-87 202.5zM330 1196l362 244h58l358 -244l-33 -39l-344 207h-22l-342 -207z" />
<glyph unicode="&#xfc;" horiz-adv-x="1441" d="M215 246v741h78v-725q-1 -110 68.5 -161.5t216.5 -51.5q128 0 253 44t310 143v751h78v-987h-60l-8 174q-314 -199 -592 -199q-170 0 -257 68.5t-87 202.5zM442 1247v115q0 29 31 29h31q28 0 28 -29v-115q0 -28 -28 -28h-31q-31 0 -31 28zM913 1247v115q0 29 29 29h31 q31 0 31 -29v-115q0 -28 -31 -28h-31q-29 0 -29 28z" />
<glyph unicode="&#xfd;" horiz-adv-x="1335" d="M70 987h86l432 -809q10 -21 32.5 -60t28.5 -50h37l59 112l439 807h84l-580 -1073q-38 -71 -72.5 -119.5t-84.5 -97t-117 -79.5t-152 -46l-16 53q77 22 135 53t100.5 72.5t71.5 81.5t61 98l37 70h-24q-21 0 -39 25zM545 1174l401 296l53 -59l-413 -278z" />
<glyph unicode="&#xfe;" horiz-adv-x="1431" d="M223 -426v1860h78v-400q0 -138 -10 -200q280 178 528 178q251 0 357 -119.5t106 -400.5q0 -282 -106 -399.5t-357 -117.5q-244 0 -528 111q10 -60 10 -195v-317h-78zM301 141q168 -50 282.5 -72t229.5 -22q212 0 300.5 100t88.5 345t-89 345.5t-298 100.5 q-121 0 -238 -39.5t-276 -128.5v-629z" />
<glyph unicode="&#xff;" horiz-adv-x="1335" d="M70 987h86l432 -809q10 -21 32.5 -60t28.5 -50h37l59 112l439 807h84l-580 -1073q-38 -71 -72.5 -119.5t-84.5 -97t-117 -79.5t-152 -46l-16 53q77 22 135 53t100.5 72.5t71.5 81.5t61 98l37 70h-24q-21 0 -39 25zM395 1245v115q0 29 31 29h31q28 0 28 -29v-115 q0 -28 -28 -28h-31q-31 0 -31 28zM866 1245v115q0 29 29 29h31q30 0 30 -29v-115q0 -28 -30 -28h-31q-29 0 -29 28z" />
<glyph unicode="&#x152;" horiz-adv-x="2334" d="M178 707q0 207 35 344t117.5 224.5t210 125t319.5 37.5q134 0 222.5 -14.5t211.5 -53.5q72 43 170 43q487 0 731 -8v-64h-712q-96 0 -155.5 -43.5t-59.5 -115.5v-391l815 -3v-67l-815 -2v-488q0 -72 59.5 -115.5t155.5 -43.5h712v-64q-246 -8 -733 -8q-98 0 -170 43 q-114 -38 -205.5 -53t-226.5 -15q-192 0 -319.5 37.5t-210 125.5t-117.5 225t-35 344zM262 707q0 -186 30.5 -308.5t102.5 -201.5t184 -112.5t281 -33.5q116 0 193.5 11t175.5 38q-41 53 -41 123v967q0 70 41 123q-96 27 -174.5 38t-194.5 11q-170 0 -281.5 -32.5 t-183.5 -110.5t-102.5 -201t-30.5 -311z" />
<glyph unicode="&#x153;" horiz-adv-x="2414" d="M166 494q0 285 126 401.5t437 116.5q222 0 346 -57.5t176 -186.5q50 130 172 187t336 57q501 0 510 -287q4 -151 -83 -210.5t-300 -59.5h-594q10 -227 126.5 -316.5t373.5 -89.5q224 0 436 25l13 -58q-64 -18 -204 -29.5t-253 -11.5q-219 0 -347.5 60t-183.5 192 q-50 -135 -174.5 -193.5t-349.5 -58.5q-210 0 -332 51t-176.5 163t-54.5 305zM248 494q0 -252 106 -349.5t375 -97.5q256 0 365 88t118 311l-2 52v49q-9 219 -117.5 305t-363.5 86q-269 0 -375 -96t-106 -348zM1292 520h594q169 0 237.5 45.5t65.5 157.5q-9 215 -424 215 q-258 0 -364 -93.5t-109 -324.5z" />
<glyph unicode="&#x178;" horiz-adv-x="1433" d="M49 1413h94l465 -663q16 -24 50.5 -76t50.5 -76h14l96 150l469 665h92l-624 -897v-516h-80v516zM434 1616v115q0 28 31 28h31q28 0 28 -28v-115q0 -29 -28 -29h-31q-31 0 -31 29zM905 1616v115q0 28 29 28h31q30 0 30 -28v-115q0 -29 -30 -29h-31q-29 0 -29 29z" />
<glyph unicode="&#x2c6;" horiz-adv-x="1021" d="M121 1202l362 244h58l358 -244l-33 -39l-344 207h-22l-342 -207z" />
<glyph unicode="&#x2dc;" horiz-adv-x="1038" d="M131 1219q-6 99 49 149.5t152 44.5q53 -3 103 -23t84 -42.5t84 -43t102 -24.5q81 -4 116 24.5t35 98.5h51q4 -94 -50.5 -144.5t-149.5 -44.5q-60 3 -115 23.5t-89.5 43.5t-80.5 43.5t-90 23.5q-152 14 -152 -129h-49z" />
<glyph unicode="&#x2000;" horiz-adv-x="945" />
<glyph unicode="&#x2001;" horiz-adv-x="1890" />
<glyph unicode="&#x2002;" horiz-adv-x="945" />
<glyph unicode="&#x2003;" horiz-adv-x="1890" />
<glyph unicode="&#x2004;" horiz-adv-x="630" />
<glyph unicode="&#x2005;" horiz-adv-x="472" />
<glyph unicode="&#x2006;" horiz-adv-x="315" />
<glyph unicode="&#x2007;" horiz-adv-x="315" />
<glyph unicode="&#x2008;" horiz-adv-x="236" />
<glyph unicode="&#x2009;" horiz-adv-x="378" />
<glyph unicode="&#x200a;" horiz-adv-x="105" />
<glyph unicode="&#x2010;" horiz-adv-x="1230" d="M203 481v68h825v-68h-825z" />
<glyph unicode="&#x2011;" horiz-adv-x="1230" d="M203 481v68h825v-68h-825z" />
<glyph unicode="&#x2012;" horiz-adv-x="1230" d="M203 481v68h825v-68h-825z" />
<glyph unicode="&#x2013;" horiz-adv-x="1603" d="M203 481v68h1200v-68h-1200z" />
<glyph unicode="&#x2014;" horiz-adv-x="2426" d="M203 481v68h2021v-68h-2021z" />
<glyph unicode="&#x2018;" horiz-adv-x="483" d="M209 1098l4 129q4 150 49 270l37 -14q-12 -120 -12 -230q25 0 22 -28l-2 -127q3 -35 -35 -35h-24q-33 0 -39 35z" />
<glyph unicode="&#x2019;" horiz-adv-x="481" d="M176 1317l2 127q-3 35 33 35h27q33 0 36 -35l-2 -129q-4 -153 -51 -271l-35 15q13 133 13 229q-11 0 -17.5 8.5t-5.5 20.5z" />
<glyph unicode="&#x201a;" horiz-adv-x="512" d="M188 31l5 127q-3 35 34 35h27q33 0 39 -35l-4 -131q-4 -155 -51 -275l-37 15q12 123 12 233q-11 0 -18.5 9t-6.5 22z" />
<glyph unicode="&#x201c;" horiz-adv-x="796" d="M213 1098l2 129q4 152 51 270l35 -14q-12 -120 -12 -230q11 0 18 -7.5t6 -20.5l-4 -127q6 -33 -33 -33h-26q-34 0 -37 33zM516 1098l2 129q4 152 51 270l35 -14q-12 -120 -12 -230q11 0 18 -7.5t6 -20.5l-4 -127q6 -33 -32 -33h-27q-34 0 -37 33z" />
<glyph unicode="&#x201d;" horiz-adv-x="792" d="M176 1317l2 127q-3 35 33 35h27q33 0 36 -35l-2 -129q-4 -153 -51 -271l-35 15q13 133 13 229q-11 0 -17.5 8.5t-5.5 20.5zM487 1317l5 127q-6 35 32 35h27q17 0 25.5 -8t11.5 -27l-4 -129q-4 -151 -49 -271l-37 15q12 123 12 229q-11 0 -17.5 8.5t-5.5 20.5z" />
<glyph unicode="&#x201e;" horiz-adv-x="821" d="M266 31l2 127q-3 35 35 35h25q34 0 37 -35l-3 -131q-4 -155 -51 -275l-35 15q13 133 13 233q-11 0 -17.5 9t-5.5 22zM426 31l2 127q-3 35 35 35h24q34 0 37 -35l-2 -131q-4 -155 -51 -275l-35 15q13 133 13 233q-11 0 -17.5 9t-5.5 22z" />
<glyph unicode="&#x2022;" horiz-adv-x="878" d="M250 539v22q0 78 38.5 108.5t139.5 30.5h27q98 0 136 -30.5t38 -108.5v-22q0 -82 -38 -113t-136 -31h-27q-101 0 -139.5 31t-38.5 113z" />
<glyph unicode="&#x2026;" horiz-adv-x="1716" d="M203 35v123q0 35 37 35h30q37 0 37 -35v-123q0 -35 -37 -35h-30q-37 0 -37 35zM807 35v123q0 19 8 27t27 8h30q39 0 39 -35v-123q0 -35 -39 -35h-30q-19 0 -27 8t-8 27zM1411 35v123q0 19 8 27t27 8h31q36 0 36 -35v-123q0 -35 -36 -35h-31q-19 0 -27 8t-8 27z" />
<glyph unicode="&#x202f;" horiz-adv-x="378" />
<glyph unicode="&#x2039;" horiz-adv-x="598" d="M55 502v24l432 406l39 -31l-387 -387l389 -393l-39 -31z" />
<glyph unicode="&#x203a;" horiz-adv-x="602" d="M72 121l389 393l-387 387l39 31l434 -406v-24l-436 -412z" />
<glyph unicode="&#x205f;" horiz-adv-x="472" />
<glyph unicode="&#x20ac;" horiz-adv-x="1687" d="M160 557v59h252q-2 29 -2 91q0 49 4 131h-254v59h260q36 273 195 407t477 134q234 0 428 -37l-17 -64q-193 25 -411 25q-273 -3 -412 -118t-174 -347h760l-23 -59h-743q-6 -61 -6 -131q0 -62 2 -91h632l-22 -59h-604q27 -255 166 -380t424 -126q248 0 432 27l18 -64 q-195 -39 -450 -39q-223 0 -367.5 67t-217 193t-91.5 322h-256z" />
<glyph unicode="&#x2122;" horiz-adv-x="2478" d="M184 1370v55h826v-55h-379v-723h-68v723h-379zM1167 647l43 748q7 30 35 30h90q25 0 31 -22l283 -522q9 -18 25.5 -54t25.5 -53h41q0 1 53 109l277 520q9 22 32 22h90q15 0 25 -8.5t10 -21.5l45 -748h-67l-43 725h-39l-334 -624q-7 -23 -33 -23h-76q-29 0 -32 23 l-334 624h-37l-45 -725h-66z" />
<glyph unicode="&#x25fc;" horiz-adv-x="983" d="M0 0v983h983v-983h-983z" />
<glyph unicode="&#xfb03;" horiz-adv-x="2222" d="M82 918v59l233 10v162q0 141 78 209.5t258 68.5q166 0 316 -10v-61h-289q-158 0 -221.5 -46.5t-63.5 -164.5v-158h737v199q0 141 77.5 209.5t258.5 68.5q198 0 308 -10l-5 -61h-276q-157 0 -222 -47t-65 -164v-195h807v-987h-78v915h-729v-915h-76v915l-737 3v-918h-78 v918h-233zM1923 1243v123q0 33 35 33h33q34 0 34 -33v-123q0 -17 -7.5 -25t-26.5 -8h-33q-35 0 -35 33z" />
<glyph unicode="&#xfb04;" horiz-adv-x="2449" d="M82 918v59l231 10v162q0 140 79 209t259 69q164 0 314 -10l-2 -61h-287q-158 0 -221.5 -46.5t-63.5 -164.5v-158h737v195q0 143 77.5 212.5t258.5 69.5q95 0 311.5 -4.5t280.5 -11.5v-1237q0 -76 53.5 -116t155.5 -40h152l10 -53q-59 -16 -176 -16q-126 0 -200.5 57 t-74.5 158v1194h-487q-155 1 -219 -48t-64 -171v-189h465v-69h-465v-918h-78v918h-737v-918h-78v918h-231z" />
</font>
</defs>
</svg>
